<svg xmlns="http://www.w3.org/2000/svg" xmlns:xlink="http://www.w3.org/1999/xlink" width="2000" zoomAndPan="magnify" viewBox="0 0 1500 824.999997" height="1100" preserveAspectRatio="xMidYMid meet" version="1.0"><defs><clipPath id="5cd0d94ff2"><path d="M 0 0 L 1500 0 L 1500 686 L 0 686 Z M 0 0 " clip-rule="nonzero"/></clipPath><clipPath id="3611c091be"><path d="M 550.152344 -1924.058594 L 2578.683594 -495.625 L 1163.199219 1514.507812 L -865.328125 86.070312 Z M 550.152344 -1924.058594 " clip-rule="nonzero"/></clipPath><clipPath id="5f18770b0c"><path d="M 550.152344 -1924.058594 L 2578.683594 -495.625 L 1163.199219 1514.507812 L -865.328125 86.070312 Z M 550.152344 -1924.058594 " clip-rule="nonzero"/></clipPath></defs><g clip-path="url(#5cd0d94ff2)"><g clip-path="url(#3611c091be)"><g clip-path="url(#5f18770b0c)"><path fill="#e3eaf1" d="M 1345.917969 -1159.339844 C 1593.574219 -1036.359375 1898.214844 -974.65625 2034.410156 -734.140625 C 2178.617188 -479.375 2185.125 -147.929688 2070.96875 121.199219 C 1961.28125 379.839844 1708.035156 554.828125 1445.304688 654.761719 C 1223.003906 739.28125 987.425781 624.671875 749.457031 623.753906 C 517.890625 622.796875 287.035156 736.222656 72.308594 649.320312 C -170.566406 551.140625 -444.714844 382.375 -486.367188 123.855469 C -528.363281 -136.875 -226.183594 -314.503906 -122.183594 -557.070312 C -34.566406 -760.578125 -85.566406 -1019.984375 71.9375 -1175.839844 C 236.996094 -1339.058594 485.480469 -1390.832031 717.886719 -1387.792969 C 946.109375 -1384.78125 1141.351562 -1260.863281 1345.917969 -1159.339844 Z M 1345.917969 -1159.339844 " fill-opacity="1" fill-rule="evenodd"/></g></g></g></svg>