<svg xmlns="http://www.w3.org/2000/svg" xmlns:xlink="http://www.w3.org/1999/xlink" width="1100" zoomAndPan="magnify" viewBox="0 0 824.88 824.999997" height="1100" preserveAspectRatio="xMidYMid meet" version="1.0"><defs><filter x="0%" y="0%" width="100%" height="100%" id="8dfdbe1bb4"><feColorMatrix values="0 0 0 0 1 0 0 0 0 1 0 0 0 0 1 0 0 0 1 0" color-interpolation-filters="sRGB"/></filter><clipPath id="e899f00532"><path d="M 458 184.300781 L 582 184.300781 L 582 323 L 458 323 Z M 458 184.300781 " clip-rule="nonzero"/></clipPath><clipPath id="e4996f59cf"><path d="M 514 432 L 684.667969 432 L 684.667969 461 L 514 461 Z M 514 432 " clip-rule="nonzero"/></clipPath><clipPath id="9353ce2438"><path d="M 513 431 L 684.667969 431 L 684.667969 462 L 513 462 Z M 513 431 " clip-rule="nonzero"/></clipPath><clipPath id="2ad4d424d2"><path d="M 0 0.0585938 L 824.761719 0.0585938 L 824.761719 824.9375 L 0 824.9375 Z M 0 0.0585938 " clip-rule="nonzero"/></clipPath><mask id="2318b6460e"><g filter="url(#8dfdbe1bb4)"><rect x="-82.488" width="989.856" fill="#000000" y="-82.5" height="989.999996" fill-opacity="0.12"/></g></mask><clipPath id="45bf6b6266"><path d="M 0 70 L 802 70 L 802 738 L 0 738 Z M 0 70 " clip-rule="nonzero"/></clipPath><clipPath id="da068cabf0"><path d="M 477.859375 -78.824219 L 930.277344 509.785156 L 347.015625 958.089844 L -105.402344 369.480469 Z M 477.859375 -78.824219 " clip-rule="nonzero"/></clipPath><clipPath id="ceb92150bd"><path d="M 477.859375 -78.824219 L 930.277344 509.785156 L 347.015625 958.089844 L -105.402344 369.480469 Z M 477.859375 -78.824219 " clip-rule="nonzero"/></clipPath><clipPath id="b66e674da3"><rect x="0" width="825" y="0" height="825"/></clipPath></defs><path fill="#ffffff" d="M 353.066406 574.378906 L 337.285156 582.414062 C 336.863281 582.625 336.421875 582.792969 335.96875 582.917969 C 335.511719 583.046875 335.046875 583.125 334.574219 583.160156 C 334.105469 583.195312 333.632812 583.183594 333.164062 583.128906 C 332.695312 583.070312 332.234375 582.96875 331.785156 582.820312 C 331.335938 582.675781 330.90625 582.484375 330.492188 582.253906 C 330.082031 582.023438 329.695312 581.753906 329.335938 581.445312 C 328.976562 581.136719 328.648438 580.800781 328.355469 580.429688 C 328.0625 580.058594 327.808594 579.660156 327.59375 579.238281 L 289.1875 503.394531 C 288.976562 502.972656 288.804688 502.53125 288.679688 502.078125 C 288.554688 501.621094 288.472656 501.15625 288.4375 500.6875 C 288.402344 500.214844 288.410156 499.746094 288.46875 499.277344 C 288.527344 498.808594 288.628906 498.347656 288.773438 497.898438 C 288.921875 497.449219 289.113281 497.019531 289.34375 496.605469 C 289.574219 496.195312 289.84375 495.808594 290.152344 495.449219 C 290.460938 495.09375 290.800781 494.765625 291.171875 494.472656 C 291.542969 494.183594 291.941406 493.929688 292.359375 493.714844 L 308.144531 485.683594 C 308.566406 485.472656 309.003906 485.300781 309.460938 485.175781 C 309.917969 485.050781 310.378906 484.96875 310.851562 484.933594 C 311.324219 484.898438 311.792969 484.910156 312.265625 484.96875 C 312.734375 485.023438 313.191406 485.128906 313.640625 485.273438 C 314.089844 485.421875 314.523438 485.609375 314.933594 485.84375 C 315.347656 486.074219 315.734375 486.34375 316.09375 486.648438 C 316.453125 486.957031 316.777344 487.296875 317.070312 487.667969 C 317.363281 488.039062 317.621094 488.433594 317.835938 488.855469 L 356.238281 564.660156 C 356.453125 565.085938 356.625 565.527344 356.753906 565.984375 C 356.878906 566.441406 356.960938 566.90625 356.996094 567.378906 C 357.035156 567.851562 357.023438 568.324219 356.96875 568.792969 C 356.910156 569.265625 356.808594 569.726562 356.660156 570.175781 C 356.515625 570.628906 356.324219 571.058594 356.09375 571.472656 C 355.859375 571.886719 355.589844 572.273438 355.28125 572.636719 C 354.972656 572.996094 354.632812 573.324219 354.261719 573.617188 C 353.886719 573.910156 353.488281 574.164062 353.066406 574.378906 Z M 353.066406 574.378906 " fill-opacity="1" fill-rule="nonzero"/><path fill="#000000" d="M 356.519531 563.777344 C 355.476562 561.691406 354.417969 559.617188 353.363281 557.527344 C 348.988281 548.90625 344.621094 540.28125 340.257812 531.652344 L 325.613281 502.765625 C 323.214844 498.039062 320.925781 493.21875 318.410156 488.5625 C 318.070312 487.914062 317.648438 487.324219 317.148438 486.789062 C 316.644531 486.257812 316.082031 485.800781 315.453125 485.421875 C 314.828125 485.042969 314.164062 484.757812 313.457031 484.558594 C 312.753906 484.363281 312.035156 484.265625 311.300781 484.265625 C 309.441406 484.410156 307.71875 484.976562 306.136719 485.964844 L 293.03125 492.65625 C 292.054688 493.070312 291.175781 493.632812 290.394531 494.347656 C 289.613281 495.058594 288.976562 495.886719 288.480469 496.820312 C 287.960938 497.941406 287.710938 499.117188 287.734375 500.351562 C 287.757812 501.582031 288.050781 502.75 288.613281 503.847656 C 289.375 505.414062 290.191406 506.96875 290.980469 508.519531 L 303.269531 532.75 L 318.210938 562.199219 C 321.074219 567.847656 323.898438 573.523438 326.789062 579.144531 C 327.019531 579.628906 327.292969 580.089844 327.617188 580.515625 C 327.9375 580.945312 328.296875 581.339844 328.695312 581.699219 C 329.09375 582.054688 329.527344 582.371094 329.988281 582.640625 C 330.453125 582.914062 330.9375 583.136719 331.445312 583.308594 C 331.949219 583.484375 332.46875 583.605469 333.003906 583.675781 C 333.535156 583.746094 334.066406 583.761719 334.601562 583.726562 C 335.136719 583.6875 335.664062 583.597656 336.179688 583.457031 C 336.695312 583.316406 337.195312 583.121094 337.671875 582.878906 C 341.6875 580.925781 345.707031 578.863281 349.722656 576.777344 L 353.375 574.929688 C 357.617188 572.652344 358.582031 567.875 356.519531 563.777344 Z M 352.800781 573.792969 L 342.292969 579.144531 C 340.617188 580.003906 338.957031 580.871094 337.257812 581.6875 C 336.902344 581.875 336.535156 582.027344 336.152344 582.148438 C 335.769531 582.265625 335.378906 582.351562 334.980469 582.402344 C 334.582031 582.449219 334.183594 582.464844 333.78125 582.441406 C 333.382812 582.417969 332.988281 582.359375 332.597656 582.269531 C 332.207031 582.175781 331.828125 582.046875 331.460938 581.886719 C 331.09375 581.722656 330.746094 581.53125 330.414062 581.308594 C 330.082031 581.082031 329.769531 580.832031 329.484375 580.550781 C 329.195312 580.269531 328.9375 579.96875 328.703125 579.640625 C 327.929688 578.367188 327.238281 577.050781 326.628906 575.691406 L 322.160156 566.855469 L 295.132812 513.632812 C 293.75 510.957031 292.375 508.242188 291.007812 505.496094 C 289.9375 503.394531 288.707031 501.410156 289.203125 498.894531 C 290.097656 494.371094 296.070312 492.578125 299.695312 490.730469 L 306.390625 487.316406 C 307.945312 486.3125 309.644531 485.738281 311.488281 485.601562 C 315.050781 485.695312 316.710938 488.28125 318.183594 490.957031 L 322.039062 498.585938 C 326.429688 507.21875 330.8125 515.859375 335.183594 524.515625 L 348.890625 551.570312 C 351.140625 556.015625 353.535156 560.417969 355.664062 564.957031 C 355.851562 565.34375 356 565.742188 356.113281 566.15625 C 356.222656 566.570312 356.292969 566.992188 356.324219 567.421875 C 356.355469 567.847656 356.34375 568.273438 356.289062 568.699219 C 356.238281 569.125 356.144531 569.542969 356.015625 569.953125 C 355.882812 570.359375 355.710938 570.75 355.503906 571.128906 C 355.296875 571.503906 355.054688 571.855469 354.78125 572.183594 C 354.503906 572.511719 354.199219 572.8125 353.867188 573.082031 C 353.535156 573.351562 353.179688 573.589844 352.800781 573.792969 Z M 352.800781 573.792969 " fill-opacity="1" fill-rule="nonzero"/><path fill="#4ba198" d="M 350.871094 484.265625 L 281.519531 519.402344 C 280.6875 519.824219 279.820312 520.15625 278.925781 520.40625 C 278.027344 520.65625 277.113281 520.816406 276.183594 520.886719 C 275.253906 520.957031 274.328125 520.933594 273.402344 520.824219 C 272.480469 520.710938 271.574219 520.507812 270.6875 520.21875 C 269.804688 519.929688 268.953125 519.554688 268.144531 519.097656 C 267.332031 518.640625 266.570312 518.109375 265.863281 517.503906 C 265.15625 516.898438 264.515625 516.226562 263.9375 515.496094 C 263.363281 514.761719 262.863281 513.980469 262.441406 513.152344 L 238.535156 465.964844 C 238.117188 465.132812 237.78125 464.269531 237.53125 463.371094 C 237.28125 462.476562 237.125 461.5625 237.054688 460.632812 C 236.984375 459.707031 237.003906 458.777344 237.117188 457.855469 C 237.226562 456.929688 237.429688 456.023438 237.71875 455.140625 C 238.007812 454.253906 238.378906 453.40625 238.835938 452.59375 C 239.292969 451.785156 239.824219 451.023438 240.425781 450.316406 C 241.03125 449.609375 241.699219 448.964844 242.433594 448.390625 C 243.164062 447.8125 243.941406 447.3125 244.773438 446.890625 L 314.125 411.75 C 314.960938 411.332031 315.824219 411 316.722656 410.75 C 317.617188 410.503906 318.53125 410.34375 319.460938 410.277344 C 320.390625 410.207031 321.316406 410.226562 322.238281 410.339844 C 323.164062 410.453125 324.066406 410.65625 324.953125 410.945312 C 325.835938 411.234375 326.6875 411.609375 327.496094 412.0625 C 328.308594 412.519531 329.070312 413.050781 329.777344 413.65625 C 330.484375 414.261719 331.125 414.929688 331.703125 415.660156 C 332.277344 416.390625 332.777344 417.171875 333.203125 418.003906 L 357.109375 465.1875 C 357.527344 466.019531 357.863281 466.882812 358.113281 467.78125 C 358.363281 468.679688 358.519531 469.589844 358.589844 470.519531 C 358.660156 471.449219 358.640625 472.375 358.527344 473.300781 C 358.417969 474.222656 358.214844 475.128906 357.925781 476.011719 C 357.636719 476.898438 357.265625 477.746094 356.808594 478.558594 C 356.351562 479.371094 355.824219 480.128906 355.21875 480.839844 C 354.613281 481.546875 353.945312 482.1875 353.210938 482.765625 C 352.480469 483.339844 351.703125 483.839844 350.871094 484.265625 Z M 350.871094 484.265625 " fill-opacity="1" fill-rule="nonzero"/><path fill="#000000" d="M 357.5 464.414062 C 355.476562 460.394531 353.390625 456.378906 351.339844 452.363281 L 334.3125 418.699219 C 333.335938 416.617188 332 414.808594 330.296875 413.261719 C 329.417969 412.5 328.464844 411.851562 327.4375 411.308594 C 326.410156 410.765625 325.332031 410.351562 324.207031 410.058594 C 323.082031 409.765625 321.9375 409.605469 320.777344 409.574219 C 319.613281 409.546875 318.464844 409.652344 317.328125 409.890625 C 314.195312 410.558594 311.195312 412.460938 308.371094 413.90625 L 272.738281 431.976562 C 263.464844 436.644531 254.183594 441.347656 244.894531 446.085938 C 244.0625 446.492188 243.273438 446.96875 242.53125 447.519531 C 241.785156 448.070312 241.097656 448.683594 240.46875 449.363281 C 239.835938 450.039062 239.273438 450.765625 238.777344 451.546875 C 238.277344 452.328125 237.855469 453.144531 237.511719 454.003906 C 237.164062 454.863281 236.898438 455.742188 236.714844 456.648438 C 236.527344 457.558594 236.425781 458.472656 236.410156 459.398438 C 236.394531 460.324219 236.460938 461.242188 236.613281 462.152344 C 236.765625 463.066406 237 463.957031 237.316406 464.828125 C 238.65625 468.214844 240.570312 471.425781 242.203125 474.652344 C 248.226562 486.566406 254.246094 498.46875 260.261719 510.355469 C 260.796875 511.382812 261.304688 512.429688 261.839844 513.460938 C 262.289062 514.335938 262.816406 515.15625 263.425781 515.929688 C 264.035156 516.699219 264.714844 517.402344 265.464844 518.039062 C 266.214844 518.675781 267.019531 519.234375 267.878906 519.710938 C 268.738281 520.1875 269.636719 520.578125 270.570312 520.875 C 271.507812 521.175781 272.464844 521.382812 273.441406 521.492188 C 274.417969 521.601562 275.394531 521.617188 276.375 521.535156 C 277.355469 521.453125 278.316406 521.273438 279.261719 521 C 280.207031 520.726562 281.113281 520.363281 281.988281 519.910156 L 284.742188 518.574219 L 317.875 501.785156 L 349.464844 485.722656 L 351.207031 484.839844 C 352.085938 484.375 352.90625 483.832031 353.675781 483.203125 C 354.449219 482.578125 355.148438 481.882812 355.78125 481.117188 C 356.414062 480.355469 356.964844 479.535156 357.4375 478.660156 C 357.910156 477.789062 358.292969 476.878906 358.582031 475.929688 C 358.875 474.980469 359.074219 474.011719 359.175781 473.027344 C 359.277344 472.039062 359.28125 471.050781 359.1875 470.0625 C 359.09375 469.074219 358.90625 468.105469 358.621094 467.15625 C 358.335938 466.203125 357.960938 465.289062 357.5 464.414062 Z M 350.539062 483.636719 L 328.277344 494.90625 L 291.515625 513.59375 L 281.851562 518.507812 C 281.050781 518.9375 280.214844 519.285156 279.34375 519.550781 C 278.472656 519.816406 277.585938 519.996094 276.679688 520.085938 C 275.773438 520.175781 274.867188 520.175781 273.960938 520.085938 C 273.054688 520 272.167969 519.820312 271.296875 519.554688 C 270.425781 519.292969 269.585938 518.945312 268.785156 518.511719 C 267.984375 518.082031 267.230469 517.578125 266.527344 516.996094 C 265.828125 516.417969 265.1875 515.777344 264.613281 515.070312 C 264.039062 514.363281 263.539062 513.609375 263.113281 512.804688 C 258.253906 503.527344 253.648438 494.0625 248.921875 484.785156 L 240.890625 468.855469 C 240.355469 467.800781 239.804688 466.753906 239.285156 465.699219 C 238.777344 464.679688 238.40625 463.617188 238.164062 462.511719 C 237.921875 461.402344 237.820312 460.28125 237.855469 459.144531 C 237.890625 458.011719 238.066406 456.898438 238.378906 455.808594 C 238.691406 454.71875 239.128906 453.679688 239.699219 452.699219 C 241.882812 448.964844 245.480469 447.34375 249.070312 445.511719 L 263.097656 438.402344 L 300.378906 419.515625 L 312.5625 413.34375 C 313.214844 413.007812 313.898438 412.660156 314.554688 412.339844 C 315.652344 411.800781 316.800781 411.414062 318 411.179688 C 319.199219 410.949219 320.410156 410.878906 321.628906 410.96875 C 322.847656 411.058594 324.035156 411.308594 325.1875 411.714844 C 326.339844 412.121094 327.417969 412.675781 328.421875 413.371094 C 332.050781 415.886719 333.777344 420.292969 335.652344 424.078125 L 344.433594 441.65625 L 353.402344 459.367188 C 355.289062 463.074219 357.886719 467.023438 357.96875 471.292969 C 357.980469 472.570312 357.824219 473.820312 357.488281 475.054688 C 357.15625 476.285156 356.664062 477.449219 356.007812 478.542969 C 355.351562 479.636719 354.558594 480.621094 353.628906 481.496094 C 352.699219 482.367188 351.667969 483.101562 350.539062 483.6875 Z M 350.539062 483.636719 " fill-opacity="1" fill-rule="nonzero"/><path fill="#ffffff" d="M 484.910156 480.289062 L 342.640625 487.652344 L 306.109375 415.539062 L 394.21875 301.527344 C 394.496094 301.164062 394.816406 300.839844 395.171875 300.546875 C 395.523438 300.257812 395.910156 300.007812 396.320312 299.804688 C 396.730469 299.601562 397.160156 299.445312 397.605469 299.339844 C 398.050781 299.234375 398.503906 299.175781 398.964844 299.171875 C 399.421875 299.167969 399.875 299.21875 400.324219 299.316406 C 400.769531 299.414062 401.203125 299.5625 401.617188 299.761719 C 402.03125 299.957031 402.417969 300.199219 402.777344 300.484375 C 403.136719 300.769531 403.460938 301.089844 403.746094 301.449219 C 424.304688 327.058594 441.949219 354.535156 456.691406 383.878906 C 470.980469 412.316406 482.234375 441.910156 490.449219 472.660156 C 490.566406 473.09375 490.636719 473.539062 490.652344 473.992188 C 490.671875 474.441406 490.640625 474.890625 490.558594 475.335938 C 490.476562 475.777344 490.34375 476.210938 490.167969 476.625 C 489.988281 477.039062 489.765625 477.429688 489.5 477.796875 C 489.234375 478.160156 488.933594 478.492188 488.59375 478.792969 C 488.253906 479.089844 487.882812 479.347656 487.488281 479.5625 C 487.089844 479.777344 486.675781 479.945312 486.238281 480.070312 C 485.804688 480.191406 485.359375 480.265625 484.910156 480.289062 Z M 484.910156 480.289062 " fill-opacity="1" fill-rule="nonzero"/><path fill="#000000" d="M 491.242188 473.152344 C 490.742188 470.738281 490.105469 468.363281 489.339844 466.019531 C 488.652344 463.617188 487.953125 461.222656 487.238281 458.832031 C 484.042969 448.183594 480.472656 437.667969 476.527344 427.277344 C 467.53125 403.59375 456.675781 380.792969 443.960938 358.875 C 432.996094 339.976562 420.757812 321.941406 407.253906 304.765625 C 404.753906 301.566406 402.277344 297.644531 397.589844 298.664062 C 395.246094 299.160156 393.949219 300.832031 392.542969 302.679688 L 386.425781 310.589844 L 361.515625 342.757812 L 311.757812 407.144531 L 305.625 415.070312 C 305.523438 415.179688 305.464844 415.308594 305.449219 415.457031 C 305.429688 415.605469 305.460938 415.742188 305.53125 415.875 C 309.65625 424.039062 313.808594 432.1875 317.996094 440.316406 L 337.59375 479.003906 L 342.132812 487.972656 C 342.265625 488.183594 342.457031 488.292969 342.707031 488.292969 L 453.585938 482.5625 L 484.976562 480.929688 C 485.445312 480.898438 485.902344 480.816406 486.355469 480.691406 C 486.804688 480.5625 487.238281 480.390625 487.652344 480.171875 C 488.070312 479.957031 488.457031 479.699219 488.820312 479.402344 C 489.183594 479.105469 489.511719 478.773438 489.804688 478.410156 C 490.097656 478.042969 490.351562 477.652344 490.566406 477.234375 C 490.777344 476.816406 490.945312 476.382812 491.070312 475.929688 C 491.195312 475.480469 491.269531 475.019531 491.300781 474.550781 C 491.328125 474.082031 491.308594 473.617188 491.242188 473.152344 Z M 489.902344 474.773438 C 489.832031 475.410156 489.65625 476.015625 489.375 476.589844 C 489.09375 477.160156 488.722656 477.671875 488.257812 478.113281 C 487.796875 478.554688 487.273438 478.90625 486.691406 479.164062 C 486.105469 479.425781 485.492188 479.574219 484.855469 479.617188 L 410.054688 483.5 L 372.316406 485.441406 L 353.578125 486.417969 L 344.207031 486.902344 C 343.800781 486.929688 343.417969 487.039062 343.054688 487.222656 C 343.058594 487.167969 343.058594 487.117188 343.054688 487.0625 C 342.574219 486.367188 342.195312 485.625 341.917969 484.828125 L 339.773438 480.582031 L 333.230469 467.691406 C 327.75 456.875 322.269531 446.054688 316.789062 435.230469 C 314.59375 430.894531 312.394531 426.554688 310.191406 422.21875 L 307.996094 417.882812 C 307.6875 417.089844 307.308594 416.328125 306.859375 415.605469 L 353.898438 354.777344 L 377.566406 324.164062 L 389.382812 308.863281 C 391.15625 306.292969 393.070312 303.835938 395.128906 301.488281 C 395.554688 301.046875 396.042969 300.691406 396.589844 300.417969 C 397.136719 300.140625 397.714844 299.964844 398.320312 299.882812 C 398.925781 299.804688 399.53125 299.824219 400.132812 299.949219 C 400.730469 300.074219 401.292969 300.292969 401.820312 300.605469 C 403.679688 301.730469 405.007812 304.019531 406.332031 305.703125 C 407.816406 307.605469 409.289062 309.507812 410.75 311.433594 C 413.695312 315.316406 416.585938 319.242188 419.421875 323.214844 C 425.671875 331.960938 431.582031 340.910156 437.160156 350.066406 C 449.917969 370.890625 460.964844 392.585938 470.304688 415.152344 C 474.5625 425.441406 478.445312 435.867188 481.949219 446.433594 C 483.53125 451.226562 485.042969 456.046875 486.488281 460.890625 C 487.15625 463.179688 487.828125 465.46875 488.46875 467.773438 C 489.113281 470.074219 490.183594 472.539062 489.957031 474.773438 Z M 489.902344 474.773438 " fill-opacity="1" fill-rule="nonzero"/><path fill="#4ba198" d="M 581.210938 202.710938 L 459.273438 322.316406 L 559.136719 185.296875 Z M 581.210938 202.710938 " fill-opacity="1" fill-rule="nonzero"/><g clip-path="url(#e899f00532)"><path fill="#000000" d="M 581.707031 202.242188 L 559.617188 184.828125 C 559.542969 184.757812 559.457031 184.707031 559.359375 184.675781 C 559.261719 184.644531 559.160156 184.632812 559.058594 184.648438 C 558.957031 184.660156 558.863281 184.695312 558.773438 184.75 C 558.6875 184.804688 558.617188 184.875 558.558594 184.960938 L 480.71875 291.730469 L 458.699219 321.980469 L 458.699219 322.050781 C 458.648438 322.164062 458.640625 322.285156 458.671875 322.40625 C 458.703125 322.53125 458.773438 322.628906 458.871094 322.707031 L 458.964844 322.707031 C 459.085938 322.808594 459.222656 322.863281 459.382812 322.863281 C 459.539062 322.863281 459.675781 322.808594 459.796875 322.707031 L 555 229.347656 L 581.707031 203.191406 C 581.832031 203.058594 581.898438 202.902344 581.898438 202.71875 C 581.898438 202.53125 581.832031 202.375 581.707031 202.242188 Z M 485.472656 295.746094 L 464.5625 316.199219 L 537.703125 215.800781 L 559.269531 186.246094 L 580.191406 202.765625 Z M 485.472656 295.746094 " fill-opacity="1" fill-rule="nonzero"/></g><path fill="#4ba198" d="M 666.039062 320.882812 L 503.796875 374.269531 L 653.992188 295.503906 Z M 666.039062 320.882812 " fill-opacity="1" fill-rule="nonzero"/><path fill="#000000" d="M 666.628906 320.535156 L 654.582031 295.101562 C 654.488281 294.941406 654.355469 294.835938 654.175781 294.789062 C 653.996094 294.742188 653.828125 294.765625 653.667969 294.863281 L 536.621094 356.25 L 503.515625 373.652344 C 503.371094 373.722656 503.269531 373.832031 503.214844 373.984375 C 503.160156 374.136719 503.167969 374.285156 503.234375 374.429688 C 503.285156 374.550781 503.367188 374.644531 503.484375 374.710938 C 503.597656 374.773438 503.71875 374.796875 503.851562 374.777344 L 503.972656 374.777344 L 630.738281 333.226562 L 666.226562 321.554688 C 666.332031 321.527344 666.421875 321.476562 666.503906 321.402344 C 666.582031 321.332031 666.640625 321.246094 666.683594 321.144531 C 666.722656 321.046875 666.738281 320.941406 666.726562 320.835938 C 666.71875 320.726562 666.683594 320.628906 666.628906 320.535156 Z M 539.125 361.941406 L 511.28125 371.109375 L 621.195312 313.441406 L 653.65625 296.414062 C 657.484375 304.445312 661.308594 312.476562 665.128906 320.507812 Z M 539.125 361.941406 " fill-opacity="1" fill-rule="nonzero"/><g clip-path="url(#e4996f59cf)"><path fill="#4ba198" d="M 684.246094 460.476562 L 514.238281 444.746094 L 683.347656 432.390625 Z M 684.246094 460.476562 " fill-opacity="1" fill-rule="nonzero"/></g><g clip-path="url(#9353ce2438)"><path fill="#000000" d="M 683.949219 432.390625 C 683.949219 432.207031 683.882812 432.050781 683.753906 431.917969 C 683.621094 431.789062 683.464844 431.722656 683.28125 431.722656 L 551.453125 441.347656 L 514.171875 444.023438 C 514.082031 444.011719 513.996094 444.023438 513.910156 444.050781 C 513.824219 444.082031 513.753906 444.128906 513.691406 444.191406 C 513.628906 444.257812 513.582031 444.332031 513.558594 444.417969 C 513.53125 444.503906 513.527344 444.59375 513.542969 444.679688 C 513.527344 444.769531 513.53125 444.859375 513.558594 444.945312 C 513.585938 445.03125 513.628906 445.109375 513.691406 445.175781 C 513.75 445.242188 513.824219 445.292969 513.910156 445.324219 C 513.992188 445.359375 514.082031 445.371094 514.171875 445.363281 L 647.042969 457.71875 L 684.246094 461.160156 C 684.429688 461.160156 684.585938 461.09375 684.71875 460.964844 C 684.847656 460.832031 684.914062 460.675781 684.914062 460.488281 Z M 551.425781 447.519531 L 522.308594 444.839844 L 645.960938 435.777344 L 682.597656 433.101562 L 683.507812 459.753906 Z M 551.425781 447.519531 " fill-opacity="1" fill-rule="nonzero"/></g><g clip-path="url(#2ad4d424d2)"><g mask="url(#2318b6460e)"><g transform="matrix(1, 0, 0, 1, 0, 0.00000000000008489)"><g clip-path="url(#b66e674da3)"><g clip-path="url(#45bf6b6266)"><g clip-path="url(#da068cabf0)"><g clip-path="url(#ceb92150bd)"><path fill="#00472f" d="M 637.144531 210.457031 C 696.953125 267.628906 778.492188 312.363281 796 393.195312 C 814.527344 478.8125 786.890625 574.082031 730.328125 640.808594 C 675.976562 704.9375 588.058594 732.390625 504.105469 737.5625 C 433.078125 741.925781 375.976562 688.21875 308.074219 666.78125 C 242.003906 645.902344 165.957031 657.761719 112.347656 613.828125 C 51.699219 564.167969 -11.605469 491.558594 -0.5 413.996094 C 10.703125 335.773438 112.839844 311.917969 164.136719 251.871094 C 207.277344 201.53125 215.792969 122.882812 274.65625 92.375 C 336.335938 60.433594 411.929688 67.753906 478.054688 89.304688 C 542.988281 110.472656 587.738281 163.25 637.144531 210.457031 Z M 637.144531 210.457031 " fill-opacity="1" fill-rule="evenodd"/></g></g></g></g></g></g></g></svg>