<svg xmlns="http://www.w3.org/2000/svg" xmlns:xlink="http://www.w3.org/1999/xlink" width="2400" zoomAndPan="magnify" viewBox="0 0 1800 937.499967" height="1250" preserveAspectRatio="xMidYMid meet" version="1.0"><defs><filter x="0%" y="0%" width="100%" height="100%" id="99bf8edff3"><feColorMatrix values="0 0 0 0 1 0 0 0 0 1 0 0 0 0 1 0 0 0 1 0" color-interpolation-filters="sRGB"/></filter><mask id="034acff4b1"><g filter="url(#99bf8edff3)"><rect x="-180" width="2160" fill="#000000" y="-93.749997" height="1124.99996" fill-opacity="0.35"/></g></mask><clipPath id="08782450d5"><path d="M 11 0.464844 L 1174 0.464844 L 1174 218.601562 L 11 218.601562 Z M 11 0.464844 " clip-rule="nonzero"/></clipPath><clipPath id="5e8f2785e3"><path d="M 1228 25 L 1633 25 L 1633 218.601562 L 1228 218.601562 Z M 1228 25 " clip-rule="nonzero"/></clipPath><clipPath id="7f39dbfbb6"><rect x="0" width="1644" y="0" height="219"/></clipPath></defs><g mask="url(#034acff4b1)"><g transform="matrix(1, 0, 0, 1, 78, 359)"><g clip-path="url(#7f39dbfbb6)"><g clip-path="url(#08782450d5)"><path fill="#3a589e" d="M 118.203125 4.71875 C 106.277344 2.300781 97.1875 0.464844 84.675781 0.464844 C 48.730469 0.464844 34.386719 17.566406 34.386719 48.011719 L 34.386719 70.203125 L 11.871094 70.203125 L 11.871094 106.15625 L 34.386719 106.15625 L 34.386719 215.597656 L 78.253906 215.597656 L 78.253906 106.15625 L 110.277344 106.15625 L 113.28125 70.203125 L 78.253906 70.203125 L 78.253906 52.851562 C 78.253906 43.09375 79.171875 37.003906 93.183594 37.003906 C 98.351562 37.003906 106.609375 37.921875 112.699219 39.171875 Z M 250.386719 215.597656 L 250.386719 120.835938 C 250.386719 79.710938 239.128906 64.113281 187.671875 64.113281 C 170.574219 64.113281 148.308594 67.199219 134.296875 71.453125 L 140.136719 104.402344 C 154.144531 101.648438 167.238281 100.066406 180.332031 100.066406 C 203.765625 100.066406 206.519531 105.320312 206.519531 120.503906 L 206.519531 131.761719 L 174.496094 131.761719 C 144.054688 131.761719 130.378906 143.691406 130.378906 173.554688 C 130.378906 198.832031 141.636719 218.601562 169.074219 218.601562 C 179.082031 218.601562 194.34375 215.597656 211.355469 206.085938 L 214.441406 215.597656 Z M 206.519531 179.3125 C 199.847656 182.398438 193.425781 184.484375 184.253906 184.484375 C 175.746094 184.484375 172.410156 181.144531 172.410156 172.886719 C 172.410156 164.714844 176.078125 162.292969 185.503906 162.292969 L 206.519531 162.292969 Z M 321.691406 123.839844 C 321.691406 108.65625 328.027344 101.648438 345.710938 101.648438 C 354.300781 101.648438 367.058594 103.152344 376.234375 105.320312 L 381.652344 68.699219 C 366.726562 65.363281 356.050781 64.113281 345.710938 64.113281 C 297.589844 64.113281 277.824219 82.128906 277.824219 124.507812 L 277.824219 158.289062 C 277.824219 200.664062 297.589844 218.601562 345.710938 218.601562 C 356.050781 218.601562 366.726562 217.433594 381.652344 214.011719 L 376.234375 177.476562 C 365.558594 179.894531 356.96875 181.144531 345.710938 181.144531 C 328.027344 181.144531 321.691406 174.140625 321.691406 158.875 Z M 525.179688 156.789062 L 525.179688 125.675781 C 525.179688 93.390625 514.503906 64.113281 465.132812 64.113281 C 415.761719 64.113281 401.5 91.558594 401.5 123.589844 L 401.5 158.289062 C 401.5 194.828125 419.765625 218.601562 467.886719 218.601562 C 488.570312 218.601562 510.25 214.011719 523.59375 209.171875 L 517.257812 176.308594 C 504.164062 180.226562 485.816406 182.648438 472.140625 182.648438 C 452.039062 182.648438 445.367188 178.058594 445.367188 161.042969 L 445.367188 156.789062 Z M 483.730469 123.839844 L 445.367188 123.839844 L 445.367188 117.5 C 445.367188 107.070312 450.207031 98.5625 465.46875 98.5625 C 480.644531 98.5625 483.730469 107.070312 483.730469 117.5 Z M 688.722656 156.121094 L 688.722656 117.75 C 688.722656 84.550781 675.960938 64.113281 643.019531 64.113281 C 626.925781 64.113281 612.914062 67.78125 600.988281 72.371094 L 600.988281 0.464844 L 557.121094 6.554688 L 557.121094 213.761719 C 577.554688 217.097656 601.570312 218.601562 617.417969 218.601562 C 678.714844 218.601562 688.722656 191.488281 688.722656 156.121094 Z M 600.988281 110.492188 C 609.246094 106.15625 619.585938 102.234375 629.007812 102.234375 C 640.601562 102.234375 644.855469 108.324219 644.855469 118.082031 L 644.855469 156.453125 C 644.855469 170.46875 640.933594 180.5625 619 180.5625 C 612.914062 180.5625 607.410156 180.5625 600.988281 179.894531 Z M 780.125 218.601562 C 832.832031 218.601562 847.09375 189.070312 847.09375 158.625 L 847.09375 124.171875 C 847.09375 93.726562 832.832031 64.113281 780.125 64.113281 C 727.417969 64.113281 713.074219 93.726562 713.074219 124.171875 L 713.074219 158.625 C 713.074219 189.070312 727.417969 218.601562 780.125 218.601562 Z M 780.125 181.730469 C 764.28125 181.730469 756.941406 173.804688 756.941406 159.792969 L 756.941406 122.921875 C 756.941406 108.90625 764.28125 100.984375 780.125 100.984375 C 795.96875 100.984375 803.226562 108.90625 803.226562 122.921875 L 803.226562 159.792969 C 803.226562 173.804688 795.96875 181.730469 780.125 181.730469 Z M 938.496094 218.601562 C 991.203125 218.601562 1005.546875 189.070312 1005.546875 158.625 L 1005.546875 124.171875 C 1005.546875 93.726562 991.203125 64.113281 938.496094 64.113281 C 885.789062 64.113281 871.527344 93.726562 871.527344 124.171875 L 871.527344 158.625 C 871.527344 189.070312 885.789062 218.601562 938.496094 218.601562 Z M 938.496094 181.730469 C 922.652344 181.730469 915.394531 173.804688 915.394531 159.792969 L 915.394531 122.921875 C 915.394531 108.90625 922.652344 100.984375 938.496094 100.984375 C 954.339844 100.984375 961.679688 108.90625 961.679688 122.921875 L 961.679688 159.792969 C 961.679688 173.804688 954.339844 181.730469 938.496094 181.730469 Z M 1081.355469 215.597656 L 1081.355469 0.464844 L 1037.488281 6.554688 L 1037.488281 215.597656 Z M 1087.191406 140.9375 L 1126.722656 215.597656 L 1173.675781 215.597656 L 1132.894531 140.9375 L 1171.839844 67.199219 L 1124.972656 67.199219 Z M 1087.191406 140.9375 " fill-opacity="1" fill-rule="nonzero"/></g><g clip-path="url(#5e8f2785e3)"><path fill="#828282" d="M 1364.15625 215.847656 L 1380 215.847656 L 1316.453125 33.25 L 1292.601562 33.25 L 1228.96875 215.847656 L 1244.898438 215.847656 L 1261.910156 167.882812 L 1346.890625 167.882812 Z M 1304.359375 42.589844 L 1341.972656 153.867188 L 1266.832031 153.867188 Z M 1408.023438 181.5625 C 1408.023438 205.753906 1419.78125 218.601562 1445.800781 218.601562 C 1460.644531 218.601562 1477.324219 213.429688 1490.835938 203.25 L 1491.585938 215.847656 L 1506.179688 215.847656 L 1506.179688 25.574219 L 1490.25 27.742188 L 1490.25 83.964844 C 1474.90625 80.964844 1463.148438 79.628906 1449.136719 79.628906 C 1418.945312 79.628906 1408.023438 96.3125 1408.023438 120.753906 Z M 1490.25 187.320312 C 1477.660156 197.496094 1463.398438 204.335938 1446.96875 204.335938 C 1428.871094 204.335938 1423.867188 196.996094 1423.867188 181.5625 L 1423.867188 120.753906 C 1423.867188 102.652344 1431.039062 93.890625 1448.554688 93.890625 C 1461.480469 93.890625 1475.742188 95.476562 1490.25 98.480469 Z M 1632.277344 182.148438 C 1632.277344 157.207031 1630.109375 150.867188 1590.828125 141.023438 C 1566.226562 134.683594 1565.058594 132.765625 1565.058594 114.414062 C 1565.058594 99.898438 1568.394531 93.890625 1591.664062 93.890625 C 1602.671875 93.890625 1618.265625 95.476562 1628.941406 97.730469 L 1630.609375 84.214844 C 1620.183594 81.214844 1605.089844 79.628906 1592.746094 79.628906 C 1559.886719 79.628906 1549.214844 91.640625 1549.214844 113.828125 C 1549.214844 138.269531 1551.964844 146.527344 1585.40625 154.453125 C 1615.847656 161.542969 1616.347656 163.546875 1616.347656 182.730469 C 1616.347656 199.664062 1611.429688 204.335938 1586.742188 204.335938 C 1576.902344 204.335938 1562.890625 202.417969 1551.382812 198.914062 L 1548.628906 211.757812 C 1558.554688 215.847656 1574.398438 218.601562 1587.828125 218.601562 C 1623.519531 218.601562 1632.277344 206.253906 1632.277344 182.148438 Z M 1632.277344 182.148438 " fill-opacity="1" fill-rule="nonzero"/></g></g></g></g></svg>