<svg xmlns="http://www.w3.org/2000/svg" xmlns:xlink="http://www.w3.org/1999/xlink" width="2400" zoomAndPan="magnify" viewBox="0 0 1800 862.499974" height="1150" preserveAspectRatio="xMidYMid meet" version="1.0"><defs><clipPath id="a4caddeb29"><path d="M 80.695312 182 L 1707 182 L 1707 481 L 80.695312 481 Z M 80.695312 182 " clip-rule="nonzero"/></clipPath></defs><path fill="#006a43" d="M 622.132812 377.421875 C 621.125 377.421875 620.789062 377.757812 622.132812 377.421875 Z M 622.132812 377.421875 " fill-opacity="1" fill-rule="nonzero"/><path fill="#006a43" d="M 1232.765625 392.539062 C 1233.101562 392.539062 1233.101562 392.539062 1233.4375 392.539062 C 1233.773438 391.867188 1234.441406 391.195312 1234.777344 390.859375 Z M 1232.765625 392.539062 " fill-opacity="1" fill-rule="nonzero"/><path fill="#006a43" d="M 1330.839844 401.269531 C 1331.175781 401.269531 1331.175781 401.269531 1331.511719 401.605469 C 1331.511719 401.269531 1331.511719 400.933594 1330.839844 401.269531 Z M 1330.839844 401.269531 " fill-opacity="1" fill-rule="nonzero"/><path fill="#006a43" d="M 1006.378906 389.179688 C 1005.375 389.179688 1005.039062 389.179688 1004.703125 389.515625 C 1005.039062 389.515625 1005.710938 389.515625 1006.378906 389.179688 Z M 1006.378906 389.179688 " fill-opacity="1" fill-rule="nonzero"/><path fill="#006a43" d="M 442.101562 378.429688 C 442.101562 378.429688 442.4375 378.429688 442.4375 378.429688 C 442.101562 378.429688 441.765625 378.09375 441.429688 378.09375 Z M 442.101562 378.429688 " fill-opacity="1" fill-rule="nonzero"/><path fill="#006a43" d="M 444.117188 377.421875 C 446.132812 378.09375 443.445312 378.429688 442.4375 378.429688 C 444.789062 379.4375 447.140625 379.4375 449.492188 379.101562 C 449.492188 378.09375 445.125 378.09375 444.117188 377.421875 Z M 444.117188 377.421875 " fill-opacity="1" fill-rule="nonzero"/><path fill="#006a43" d="M 111.597656 396.570312 L 112.605469 395.898438 C 111.933594 395.898438 111.597656 396.234375 111.597656 396.570312 Z M 111.597656 396.570312 " fill-opacity="1" fill-rule="nonzero"/><path fill="#006a43" d="M 1014.105469 440.234375 C 1013.769531 440.234375 1013.097656 440.234375 1012.761719 440.570312 C 1013.433594 440.570312 1013.769531 440.234375 1014.105469 440.234375 Z M 1014.105469 440.234375 " fill-opacity="1" fill-rule="nonzero"/><path fill="#006a43" d="M 165 385.820312 L 165.335938 384.140625 C 165 384.8125 164.667969 385.484375 165 385.820312 Z M 165 385.820312 " fill-opacity="1" fill-rule="nonzero"/><path fill="#006a43" d="M 1234.777344 390.859375 L 1235.449219 390.1875 C 1235.113281 390.523438 1235.113281 390.523438 1234.777344 390.859375 Z M 1234.777344 390.859375 " fill-opacity="1" fill-rule="nonzero"/><path fill="#006a43" d="M 1421.527344 407.316406 C 1421.527344 407.652344 1421.863281 408.324219 1421.863281 408.660156 C 1421.863281 408.660156 1422.199219 408.660156 1422.199219 408.660156 Z M 1421.527344 407.316406 " fill-opacity="1" fill-rule="nonzero"/><path fill="#006a43" d="M 1478.628906 241.726562 C 1478.628906 241.726562 1478.292969 242.0625 1478.292969 242.398438 L 1480.308594 243.40625 C 1479.300781 242.398438 1478.964844 242.0625 1478.628906 241.726562 Z M 1478.628906 241.726562 " fill-opacity="1" fill-rule="nonzero"/><path fill="#006a43" d="M 1543.453125 421.421875 C 1543.453125 421.085938 1543.789062 421.085938 1543.789062 420.75 C 1543.453125 420.75 1543.117188 420.414062 1542.78125 420.414062 C 1542.445312 420.414062 1542.445312 420.414062 1542.109375 420.414062 C 1542.109375 420.414062 1541.101562 420.414062 1540.429688 420.082031 C 1537.742188 419.746094 1534.71875 419.746094 1531.023438 419.410156 L 1530.351562 421.421875 C 1530.351562 421.421875 1534.046875 421.421875 1537.742188 421.421875 C 1542.445312 421.421875 1543.453125 421.421875 1543.453125 421.421875 Z M 1543.453125 421.421875 " fill-opacity="1" fill-rule="nonzero"/><g clip-path="url(#a4caddeb29)"><path fill="#006a43" d="M 1626.414062 401.605469 C 1626.414062 401.605469 1629.773438 406.308594 1633.132812 411.347656 C 1636.15625 415.714844 1639.179688 420.414062 1639.179688 420.414062 C 1631.789062 413.027344 1624.734375 406.308594 1618.691406 399.925781 C 1612.980469 393.546875 1607.605469 387.5 1602.566406 381.789062 C 1600.214844 378.765625 1597.527344 376.078125 1595.179688 373.394531 C 1593.5 371.378906 1592.15625 369.363281 1590.476562 367.683594 C 1588.125 364.660156 1586.109375 361.972656 1583.757812 358.949219 C 1575.023438 347.53125 1566.964844 336.445312 1555.542969 323.011719 L 1557.222656 324.019531 C 1556.214844 321.667969 1553.191406 321.332031 1547.820312 314.613281 C 1545.132812 311.253906 1541.773438 306.550781 1537.742188 299.164062 C 1533.710938 291.773438 1529.011719 281.699219 1523.972656 268.261719 L 1524.308594 267.925781 C 1523.300781 266.246094 1522.628906 266.582031 1521.285156 262.886719 C 1521.285156 262.886719 1521.957031 265.238281 1522.628906 267.589844 C 1523.300781 269.941406 1524.308594 272.292969 1524.308594 272.292969 C 1520.277344 267.925781 1515.910156 264.230469 1511.878906 257.851562 C 1511.542969 256.171875 1511.878906 255.164062 1512.214844 254.828125 C 1512.214844 254.828125 1509.527344 250.796875 1507.175781 246.765625 C 1504.828125 242.734375 1502.140625 238.367188 1502.140625 238.367188 L 1501.46875 231.988281 C 1497.4375 227.621094 1493.742188 232.324219 1489.039062 216.871094 C 1488.367188 223.925781 1483.328125 210.828125 1482.660156 213.515625 C 1482.660156 212.507812 1482.660156 210.492188 1482.324219 209.148438 C 1477.621094 201.085938 1468.886719 185.300781 1465.191406 182.277344 C 1465.191406 182.277344 1467.542969 191.347656 1469.558594 202.09375 C 1471.910156 212.507812 1474.597656 224.597656 1475.269531 229.972656 C 1469.894531 217.542969 1473.253906 226.949219 1473.253906 229.972656 L 1474.597656 230.308594 C 1477.621094 238.035156 1475.605469 239.039062 1476.613281 243.070312 C 1476.949219 243.070312 1476.949219 242.734375 1476.949219 242.398438 L 1476.277344 242.0625 C 1476.613281 241.390625 1476.949219 241.726562 1477.285156 241.726562 C 1477.621094 241.390625 1478.292969 241.390625 1479.300781 243.40625 L 1478.964844 243.070312 C 1480.980469 245.757812 1483.328125 251.132812 1484.671875 253.484375 L 1482.992188 254.492188 C 1486.015625 256.171875 1489.710938 265.574219 1493.40625 275.652344 C 1497.101562 285.726562 1500.460938 296.140625 1502.8125 299.5 C 1505.164062 307.894531 1513.222656 314.613281 1517.925781 323.683594 C 1526.660156 337.453125 1519.941406 332.078125 1523.300781 339.804688 C 1528.339844 348.875 1523.972656 336.78125 1526.660156 340.140625 C 1526.660156 340.140625 1528.003906 343.164062 1529.007812 345.851562 C 1530.351562 348.875 1531.359375 351.5625 1531.359375 351.5625 C 1526.996094 345.851562 1528.339844 349.882812 1528.339844 351.226562 C 1531.359375 355.589844 1534.71875 361.636719 1537.742188 366.675781 C 1541.101562 371.714844 1544.125 375.742188 1546.8125 375.742188 C 1554.199219 388.507812 1553.191406 389.179688 1556.886719 394.21875 C 1556.214844 392.203125 1554.199219 388.507812 1554.535156 387.835938 C 1556.886719 393.546875 1556.550781 389.851562 1555.542969 387.5 C 1556.550781 388.171875 1557.558594 389.515625 1558.566406 390.859375 C 1559.238281 391.53125 1559.574219 392.539062 1560.246094 393.210938 C 1560.582031 393.546875 1560.917969 394.21875 1561.253906 394.554688 C 1561.589844 394.890625 1561.589844 394.890625 1561.589844 395.226562 L 1561.925781 395.5625 C 1562.933594 397.910156 1564.277344 400.261719 1564.949219 402.277344 C 1566.628906 406.308594 1566.964844 408.660156 1570.660156 409.667969 L 1569.316406 409.332031 C 1572.003906 410.003906 1574.6875 410.339844 1577.039062 411.011719 C 1579.390625 411.347656 1581.40625 412.019531 1584.429688 414.035156 C 1584.429688 414.035156 1583.757812 415.378906 1583.757812 415.378906 L 1589.132812 419.074219 C 1589.132812 420.414062 1586.445312 418.738281 1585.773438 418.738281 C 1589.804688 422.09375 1592.828125 425.117188 1595.179688 427.804688 C 1597.191406 429.484375 1593.5 428.140625 1591.820312 428.140625 C 1589.804688 427.804688 1588.125 427.46875 1586.109375 427.46875 C 1586.109375 427.46875 1592.492188 430.15625 1599.878906 432.84375 C 1607.269531 435.53125 1615.332031 438.21875 1615.332031 438.21875 C 1608.949219 436.875 1600.214844 434.859375 1592.492188 433.179688 C 1586.109375 431.835938 1581.742188 431.164062 1583.421875 432.84375 C 1583.421875 432.84375 1581.070312 431.835938 1578.71875 431.164062 C 1576.703125 430.15625 1574.351562 429.484375 1574.351562 429.484375 C 1568.980469 427.804688 1566.292969 427.132812 1564.613281 426.796875 C 1562.933594 426.796875 1562.597656 427.132812 1562.261719 427.46875 C 1561.925781 428.476562 1562.933594 430.15625 1559.238281 429.148438 C 1559.238281 429.148438 1556.886719 428.140625 1554.535156 427.132812 C 1552.183594 426.125 1550.507812 425.117188 1550.507812 425.117188 L 1556.886719 425.453125 C 1553.191406 424.445312 1550.84375 423.4375 1548.492188 422.765625 C 1546.476562 421.757812 1544.460938 421.085938 1542.445312 419.746094 C 1542.78125 419.746094 1542.78125 420.078125 1543.117188 420.414062 L 1542.445312 420.414062 C 1542.445312 420.75 1542.109375 421.085938 1541.773438 421.421875 C 1541.4375 421.421875 1541.4375 421.757812 1541.101562 421.757812 C 1541.101562 421.757812 1540.765625 421.757812 1540.765625 422.09375 C 1540.429688 422.09375 1540.09375 422.09375 1539.757812 422.09375 C 1537.40625 422.429688 1534.382812 422.429688 1530.6875 422.09375 C 1520.613281 421.085938 1512.550781 423.101562 1496.429688 418.402344 L 1492.0625 421.421875 L 1479.972656 418.738281 L 1479.972656 416.050781 C 1491.726562 417.058594 1514.230469 417.058594 1529.679688 418.066406 L 1530.015625 416.722656 C 1520.949219 416.050781 1510.535156 416.722656 1504.492188 416.050781 C 1501.46875 415.378906 1494.414062 412.019531 1499.789062 410.675781 L 1494.078125 413.027344 C 1463.847656 411.683594 1463.511719 411.683594 1432.277344 406.980469 L 1434.964844 408.324219 C 1428.582031 408.660156 1422.199219 409.332031 1420.855469 406.980469 C 1402.046875 405.636719 1382.230469 402.613281 1370.136719 398.582031 L 1367.117188 401.605469 C 1363.085938 401.269531 1357.375 396.234375 1355.023438 400.597656 L 1346.289062 401.605469 C 1340.917969 400.933594 1337.222656 402.613281 1331.175781 400.597656 C 1330.839844 400.597656 1330.503906 400.261719 1330.167969 400.261719 C 1330.167969 400.261719 1330.167969 400.597656 1330.167969 400.597656 C 1317.742188 398.582031 1330.167969 403.285156 1316.0625 400.933594 C 1311.695312 398.582031 1310.6875 404.628906 1303.96875 403.621094 L 1297.253906 398.917969 C 1284.824219 395.5625 1282.472656 400.261719 1264.335938 399.253906 C 1255.601562 397.238281 1251.574219 393.210938 1257.617188 390.1875 C 1249.558594 393.882812 1253.925781 392.875 1243.175781 394.21875 C 1241.496094 392.539062 1242.839844 392.203125 1245.191406 390.859375 C 1235.785156 388.507812 1239.480469 392.203125 1232.425781 391.53125 C 1230.078125 394.554688 1227.726562 399.589844 1225.375 399.589844 L 1228.0625 400.597656 C 1220.671875 401.941406 1212.273438 402.277344 1203.542969 400.261719 L 1203.878906 398.582031 L 1195.816406 400.261719 L 1195.480469 398.246094 L 1182.382812 398.246094 L 1184.0625 398.917969 C 1181.039062 398.917969 1170.625 399.253906 1164.917969 397.910156 L 1165.25 396.90625 C 1149.128906 392.539062 1135.359375 396.570312 1115.878906 396.234375 L 1118.566406 393.882812 C 1112.183594 391.195312 1116.550781 397.242188 1108.824219 395.898438 L 1108.488281 392.875 C 1101.433594 396.234375 1099.753906 391.867188 1095.054688 390.1875 L 1097.066406 393.882812 L 1088.335938 392.875 C 1078.59375 391.195312 1082.625 387.835938 1083.96875 385.820312 L 1077.25 388.507812 L 1075.90625 385.148438 C 1070.871094 388.84375 1071.207031 384.476562 1062.472656 386.15625 C 1061.800781 384.8125 1064.152344 384.140625 1061.128906 383.46875 L 1046.6875 387.5 L 1055.417969 385.820312 L 1054.074219 390.523438 C 1045.007812 393.882812 1041.984375 389.515625 1035.601562 390.523438 L 1039.96875 389.179688 C 1029.554688 389.851562 1029.21875 387.835938 1023.175781 386.492188 C 1024.855469 387.5 1027.542969 388.84375 1023.511719 389.515625 C 1020.488281 389.515625 1021.832031 387.835938 1019.144531 387.164062 C 1018.472656 390.523438 1010.746094 391.867188 1004.03125 390.1875 C 1004.03125 389.851562 1004.367188 389.179688 1004.703125 389.179688 C 1003.023438 389.515625 1002.015625 390.523438 998.992188 389.515625 L 1001.007812 385.820312 L 995.296875 389.179688 C 991.601562 388.171875 985.890625 390.523438 986.226562 388.171875 L 988.578125 387.5 L 959.695312 385.484375 L 959.359375 382.460938 C 956.335938 386.15625 943.570312 380.445312 944.242188 385.484375 C 938.867188 382.460938 922.746094 386.828125 926.105469 381.117188 C 906.960938 380.109375 896.546875 385.148438 873.371094 381.789062 C 865.3125 376.75 842.472656 377.757812 827.691406 376.75 C 798.472656 378.09375 779.660156 379.101562 749.769531 380.109375 C 731.96875 373.058594 705.097656 381.453125 685.953125 377.085938 L 680.578125 379.4375 C 667.8125 375.070312 648.332031 379.773438 630.195312 375.40625 C 625.828125 376.414062 623.476562 376.75 622.46875 376.75 C 623.140625 376.75 624.484375 377.421875 624.820312 379.101562 C 619.78125 377.757812 609.371094 379.101562 610.042969 375.742188 L 611.386719 375.40625 C 612.058594 372.050781 595.9375 376.75 590.226562 373.730469 L 593.25 377.421875 L 583.507812 376.75 L 586.195312 376.078125 C 543.875 383.46875 525.066406 371.714844 485.09375 378.429688 C 490.46875 374.734375 477.371094 380.445312 476.699219 376.078125 C 466.621094 370.707031 458.226562 377.085938 449.828125 378.429688 C 449.828125 378.765625 449.828125 378.765625 449.15625 379.101562 L 434.714844 378.429688 C 443.445312 373.058594 424.300781 382.796875 432.363281 378.429688 C 395.078125 374.066406 346.042969 377.757812 303.046875 375.742188 L 305.0625 377.085938 C 293.980469 376.75 280.542969 378.429688 272.148438 376.078125 C 263.75 373.730469 254.011719 379.4375 250.652344 379.773438 C 241.582031 382.125 232.851562 377.421875 236.878906 377.757812 C 226.804688 378.429688 217.734375 383.46875 203.964844 382.125 C 201.613281 380.109375 191.871094 381.453125 183.140625 383.46875 C 174.070312 385.484375 166.007812 387.5 165.335938 384.8125 L 165.335938 385.148438 C 160.636719 384.8125 156.269531 385.148438 151.902344 386.15625 C 149.550781 386.492188 147.535156 387.164062 145.183594 387.5 C 143.167969 388.171875 140.820312 388.84375 138.46875 389.515625 C 129.734375 391.867188 121 395.226562 110.925781 396.570312 C 110.925781 396.570312 111.261719 396.234375 111.597656 395.5625 C 111.597656 395.5625 109.582031 397.242188 106.222656 399.925781 C 103.199219 402.613281 99.167969 405.972656 95.140625 409.667969 C 93.125 411.347656 91.445312 413.363281 89.429688 415.042969 C 87.75 416.722656 86.070312 418.402344 84.726562 420.082031 C 82.375 423.773438 80.695312 425.789062 80.695312 425.789062 C 80.695312 425.789062 85.0625 428.476562 89.429688 431.164062 C 93.460938 433.851562 97.488281 436.875 97.488281 436.875 C 97.488281 436.875 98.160156 436.875 98.832031 436.875 C 99.839844 436.875 101.183594 436.875 102.527344 436.875 C 105.550781 436.875 109.917969 436.875 113.949219 437.546875 C 117.980469 437.882812 122.007812 438.21875 125.03125 438.890625 C 128.054688 439.226562 130.070312 439.5625 130.070312 439.5625 C 130.070312 439.5625 131.078125 439.226562 133.429688 438.554688 C 135.445312 437.882812 138.46875 436.875 142.160156 435.867188 C 149.550781 433.851562 159.292969 431.5 169.367188 429.820312 C 174.40625 428.8125 179.78125 428.140625 184.484375 427.46875 C 189.519531 426.796875 193.886719 426.125 197.917969 425.789062 C 205.980469 425.117188 211.351562 424.78125 211.351562 424.78125 C 211.351562 424.78125 215.71875 424.78125 222.101562 425.117188 C 228.484375 425.453125 237.214844 426.125 245.949219 426.796875 C 263.75 428.140625 281.214844 429.484375 281.214844 429.484375 C 281.214844 429.484375 324.542969 429.148438 367.875 428.8125 C 411.203125 428.8125 454.53125 428.476562 454.53125 428.476562 L 466.957031 424.78125 C 500.882812 431.835938 544.546875 424.78125 581.15625 430.15625 L 581.828125 426.796875 C 592.242188 426.796875 591.570312 428.8125 593.921875 429.484375 C 689.980469 430.492188 789.066406 428.476562 875.386719 435.195312 C 883.785156 437.546875 908.976562 437.210938 915.355469 439.5625 C 943.570312 436.203125 973.128906 437.546875 1001.34375 438.890625 L 1000.335938 439.226562 L 1013.433594 438.890625 C 1014.105469 439.226562 1014.105469 439.5625 1013.769531 439.898438 C 1028.886719 437.546875 1052.058594 441.242188 1070.535156 443.253906 L 1069.527344 443.589844 C 1176 448.292969 1275.421875 446.613281 1380.886719 457.027344 C 1405.40625 461.058594 1431.941406 462.066406 1459.484375 463.074219 C 1473.253906 463.410156 1487.359375 464.082031 1501.132812 464.753906 C 1508.183594 465.089844 1515.238281 465.761719 1522.292969 466.429688 L 1532.703125 467.4375 L 1538.078125 468.109375 L 1547.820312 469.117188 C 1553.527344 470.460938 1576.367188 472.476562 1606.597656 474.492188 C 1636.492188 476.507812 1673.773438 478.859375 1706.691406 480.539062 C 1686.875 461.058594 1668.398438 442.921875 1653.957031 428.476562 C 1639.851562 414.371094 1629.773438 404.628906 1626.414062 401.605469 Z M 1626.414062 401.605469 " fill-opacity="1" fill-rule="nonzero"/></g><path fill="#006a43" d="M 1512.550781 254.492188 L 1512.886719 254.828125 C 1513.894531 254.15625 1513.222656 253.820312 1512.550781 254.492188 Z M 1512.550781 254.492188 " fill-opacity="1" fill-rule="nonzero"/><path fill="#006a43" d="M 1586.109375 428.140625 C 1586.445312 428.140625 1586.445312 428.140625 1586.78125 428.140625 L 1581.070312 425.789062 Z M 1586.109375 428.140625 " fill-opacity="1" fill-rule="nonzero"/><path fill="#006a43" d="M 1525.316406 346.859375 C 1529.011719 352.902344 1529.34375 352.902344 1529.34375 351.5625 C 1527.667969 349.546875 1526.324219 347.867188 1525.316406 346.859375 Z M 1525.316406 346.859375 " fill-opacity="1" fill-rule="nonzero"/><path fill="#006a43" d="M 1484.335938 208.140625 C 1482.996094 205.117188 1482.660156 206.460938 1482.660156 208.8125 C 1484.335938 211.835938 1485.679688 214.1875 1485.679688 214.1875 C 1485.34375 212.171875 1485.007812 210.15625 1484.335938 208.140625 Z M 1484.335938 208.140625 " fill-opacity="1" fill-rule="nonzero"/><path fill="#006a43" d="M 1474.261719 229.636719 L 1472.582031 229.300781 C 1473.925781 230.980469 1474.261719 230.644531 1474.261719 229.636719 Z M 1474.261719 229.636719 " fill-opacity="1" fill-rule="nonzero"/><path fill="#006a43" d="M 1520.613281 575.929688 C 1520.277344 575.929688 1520.613281 576.265625 1520.613281 575.929688 Z M 1520.613281 575.929688 " fill-opacity="1" fill-rule="nonzero"/><path fill="#006a43" d="M 1597.863281 497.332031 C 1597.863281 497.332031 1597.863281 496.996094 1597.863281 497.332031 C 1597.527344 496.660156 1597.191406 496.324219 1597.191406 495.652344 Z M 1597.863281 497.332031 " fill-opacity="1" fill-rule="nonzero"/><path fill="#006a43" d="M 1614.324219 489.269531 C 1614.324219 488.933594 1613.988281 488.597656 1614.324219 489.269531 Z M 1614.324219 489.269531 " fill-opacity="1" fill-rule="nonzero"/><path fill="#006a43" d="M 1501.132812 602.460938 C 1501.132812 602.460938 1501.132812 602.128906 1501.132812 602.460938 C 1501.132812 602.460938 1500.796875 602.460938 1500.796875 602.125 Z M 1501.132812 602.460938 " fill-opacity="1" fill-rule="nonzero"/><path fill="#006a43" d="M 1500.460938 601.457031 C 1501.132812 601.457031 1501.132812 602.125 1501.132812 602.460938 C 1502.140625 602.796875 1502.476562 602.460938 1502.476562 601.792969 C 1501.804688 601.121094 1501.132812 601.792969 1500.460938 601.457031 Z M 1500.460938 601.457031 " fill-opacity="1" fill-rule="nonzero"/><path fill="#006a43" d="M 1465.863281 649.148438 L 1465.527344 648.8125 C 1465.863281 648.8125 1465.863281 649.148438 1465.863281 649.148438 Z M 1465.863281 649.148438 " fill-opacity="1" fill-rule="nonzero"/><path fill="#006a43" d="M 1472.582031 642.433594 L 1471.238281 641.425781 C 1471.574219 642.097656 1472.246094 642.433594 1472.582031 642.433594 Z M 1472.582031 642.433594 " fill-opacity="1" fill-rule="nonzero"/><path fill="#006a43" d="M 1597.191406 495.652344 L 1596.859375 494.980469 C 1596.859375 495.316406 1596.859375 495.316406 1597.191406 495.652344 Z M 1597.191406 495.652344 " fill-opacity="1" fill-rule="nonzero"/><path fill="#006a43" d="M 1627.757812 479.867188 C 1628.09375 480.203125 1628.429688 480.539062 1628.429688 480.875 Z M 1627.757812 479.867188 " fill-opacity="1" fill-rule="nonzero"/><path fill="#006a43" d="M 1709.378906 454.675781 C 1709.378906 454.675781 1709.042969 454.339844 1709.042969 454.003906 L 1709.378906 455.011719 C 1709.378906 455.011719 1709.378906 455.011719 1709.378906 454.675781 Z M 1709.378906 454.675781 " fill-opacity="1" fill-rule="nonzero"/><path fill="#006a43" d="M 1649.925781 472.140625 C 1649.925781 472.140625 1649.925781 471.804688 1649.589844 471.46875 C 1648.917969 471.132812 1647.910156 471.804688 1647.238281 472.476562 L 1648.246094 474.15625 Z M 1649.925781 472.140625 " fill-opacity="1" fill-rule="nonzero"/><path fill="#006a43" d="M 1696.613281 496.660156 L 1692.582031 494.644531 C 1697.621094 488.933594 1702.660156 490.277344 1706.019531 484.234375 L 1706.355469 485.242188 C 1707.699219 485.578125 1702.996094 477.515625 1717.4375 481.546875 L 1717.773438 481.882812 C 1718.109375 481.546875 1717.4375 480.875 1718.78125 481.546875 L 1716.09375 480.539062 C 1716.429688 479.195312 1716.09375 477.179688 1717.101562 476.171875 C 1717.4375 476.507812 1718.109375 477.179688 1718.445312 477.515625 L 1720.796875 475.164062 L 1723.148438 476.84375 C 1723.148438 475.164062 1719.789062 470.796875 1723.820312 471.804688 C 1720.796875 469.117188 1723.820312 469.117188 1722.476562 467.773438 C 1722.8125 468.109375 1723.484375 468.445312 1724.15625 468.78125 C 1725.164062 467.4375 1727.515625 465.089844 1726.84375 462.738281 C 1726.84375 462.738281 1717.101562 459.378906 1713.40625 457.027344 C 1716.09375 456.691406 1713.742188 456.355469 1712.734375 455.347656 L 1713.070312 456.355469 C 1711.390625 456.355469 1710.050781 454.339844 1709.042969 454.003906 C 1709.042969 454.003906 1709.378906 454.339844 1709.378906 454.675781 L 1709.378906 454.339844 C 1709.714844 454.675781 1709.714844 455.011719 1709.714844 455.011719 C 1710.050781 455.347656 1710.050781 455.683594 1709.714844 456.019531 L 1709.714844 455.683594 C 1709.378906 456.355469 1708.371094 456.691406 1707.699219 456.691406 L 1706.691406 455.011719 C 1708.035156 458.707031 1697.621094 454.003906 1696.277344 454.675781 C 1693.589844 453.332031 1693.925781 457.027344 1691.910156 457.027344 C 1689.222656 458.035156 1689.222656 455.347656 1686.875 454.675781 C 1684.523438 454.675781 1688.550781 456.355469 1687.882812 457.027344 L 1684.523438 456.019531 C 1685.53125 455.011719 1684.1875 454.339844 1683.515625 454.003906 C 1681.835938 454.675781 1677.132812 453.332031 1679.148438 457.027344 C 1676.125 456.691406 1675.117188 455.347656 1674.109375 456.019531 C 1674.78125 456.355469 1675.789062 456.691406 1676.125 457.363281 C 1674.445312 456.355469 1676.125 458.035156 1676.460938 458.035156 C 1676.125 460.386719 1665.714844 456.691406 1668.0625 460.386719 L 1667.726562 459.714844 C 1669.40625 462.738281 1671.757812 464.753906 1671.757812 467.101562 L 1670.414062 466.429688 L 1670.414062 468.109375 C 1669.070312 467.773438 1669.070312 466.765625 1668.734375 466.429688 C 1668.0625 468.78125 1665.042969 468.78125 1663.027344 469.453125 L 1670.078125 475.5 C 1667.390625 474.828125 1662.355469 473.148438 1663.699219 475.835938 L 1661.011719 474.15625 C 1654.628906 471.46875 1660.339844 477.515625 1658.324219 477.179688 L 1654.964844 475.5 L 1656.308594 474.492188 C 1653.957031 474.15625 1652.613281 473.820312 1650.261719 472.8125 C 1650.261719 472.8125 1650.597656 472.8125 1650.597656 473.148438 L 1650.597656 473.484375 C 1651.269531 474.828125 1651.269531 476.507812 1650.261719 477.179688 C 1648.582031 477.851562 1648.917969 480.539062 1644.550781 479.53125 L 1645.894531 482.554688 L 1642.875 482.21875 L 1641.195312 480.203125 C 1642.875 479.195312 1645.558594 475.835938 1647.910156 474.15625 L 1647.238281 473.148438 C 1645.894531 474.15625 1645.222656 476.171875 1644.214844 476.507812 C 1643.546875 476.507812 1640.859375 474.828125 1640.523438 472.8125 L 1641.195312 475.5 C 1636.828125 478.859375 1637.164062 479.195312 1630.78125 480.203125 L 1632.125 480.875 C 1631.789062 482.21875 1631.117188 483.5625 1629.773438 481.882812 C 1626.75 483.5625 1623.054688 484.570312 1619.027344 483.226562 L 1620.703125 485.914062 C 1620.035156 486.25 1616.339844 483.226562 1618.691406 486.921875 L 1618.355469 488.933594 C 1617.347656 489.269531 1618.019531 491.285156 1616.003906 490.613281 C 1616.003906 490.613281 1615.667969 490.613281 1615.667969 490.613281 C 1615.667969 490.613281 1615.667969 490.613281 1616.003906 490.949219 C 1613.316406 491.285156 1617.683594 493.300781 1614.660156 493.300781 C 1612.644531 491.957031 1616.339844 496.996094 1614.996094 497.332031 L 1611.300781 494.644531 C 1607.941406 493.972656 1610.292969 497.667969 1607.941406 500.019531 C 1605.589844 499.683594 1602.566406 497.332031 1601.222656 493.972656 C 1602.566406 498.003906 1602.566406 496.324219 1602.230469 499.347656 C 1600.886719 498.339844 1600.886719 497.667969 1600.214844 496.324219 C 1597.527344 495.988281 1600.214844 498.339844 1599.207031 499.011719 C 1600.886719 501.699219 1603.910156 506.066406 1603.574219 506.402344 L 1604.582031 506.738281 C 1604.582031 509.089844 1603.910156 510.433594 1601.894531 510.097656 L 1600.886719 508.753906 L 1600.214844 510.433594 L 1598.871094 509.089844 L 1597.527344 511.101562 L 1598.199219 511.4375 C 1597.863281 512.109375 1596.859375 513.789062 1595.515625 513.453125 L 1594.84375 512.445312 C 1590.140625 511.773438 1591.484375 516.8125 1589.132812 519.164062 L 1587.789062 517.148438 C 1585.4375 516.140625 1589.804688 520.171875 1588.125 520.171875 L 1586.109375 518.15625 C 1587.789062 521.851562 1584.429688 518.492188 1582.75 518.15625 L 1585.4375 520.84375 L 1583.757812 521.179688 C 1581.742188 521.515625 1579.726562 518.492188 1578.71875 516.8125 L 1579.726562 519.835938 L 1577.375 517.484375 C 1579.390625 520.84375 1576.367188 517.484375 1576.367188 520.171875 C 1575.359375 519.164062 1575.359375 518.492188 1574.351562 518.492188 L 1575.695312 523.53125 L 1575.359375 520.84375 L 1578.382812 524.539062 C 1579.726562 528.234375 1576.367188 525.546875 1576.367188 527.226562 L 1576.03125 525.546875 C 1575.359375 527.5625 1574.015625 526.21875 1572.339844 526.21875 C 1573.34375 526.554688 1574.351562 527.226562 1574.351562 528.234375 C 1574.015625 528.90625 1573.011719 527.226562 1572.339844 527.226562 C 1574.351562 529.578125 1574.6875 531.929688 1572.675781 531.59375 C 1572.339844 531.257812 1572.003906 530.921875 1572.003906 530.585938 C 1572.003906 531.257812 1572.675781 531.929688 1571.667969 531.59375 L 1569.652344 528.570312 L 1571.332031 531.929688 C 1570.324219 531.59375 1571.332031 534.277344 1569.652344 532.265625 L 1569.316406 531.59375 L 1564.949219 534.613281 L 1562.933594 532.601562 C 1565.285156 535.957031 1559.910156 533.609375 1563.269531 536.964844 C 1560.582031 535.621094 1561.589844 540.996094 1558.230469 536.628906 C 1555.542969 538.644531 1557.558594 543.683594 1552.855469 544.691406 C 1548.492188 542.339844 1546.476562 546.371094 1544.460938 547.714844 C 1542.109375 552.753906 1540.765625 556.449219 1538.078125 561.484375 C 1531.023438 559.132812 1534.046875 568.875 1529.007812 568.539062 L 1530.351562 570.890625 C 1525.652344 569.546875 1526.996094 575.59375 1521.957031 575.257812 C 1522.292969 576.601562 1522.292969 577.273438 1522.292969 577.273438 C 1522.628906 577.273438 1522.964844 577.273438 1524.308594 578.617188 C 1522.964844 578.617188 1522.628906 580.964844 1520.277344 578.617188 L 1520.277344 578.28125 C 1517.925781 575.929688 1519.605469 581.300781 1516.582031 580.292969 L 1519.605469 582.308594 L 1517.925781 583.316406 L 1517.589844 582.644531 C 1518.261719 593.394531 1507.511719 588.355469 1508.183594 598.769531 C 1505.832031 595.410156 1508.855469 601.121094 1505.496094 598.433594 C 1500.460938 596.082031 1504.15625 601.792969 1504.15625 603.804688 C 1504.15625 603.804688 1504.492188 604.140625 1504.828125 604.476562 L 1502.8125 606.15625 C 1499.789062 601.457031 1504.828125 610.523438 1502.476562 606.492188 C 1495.085938 608.84375 1492.398438 618.25 1486.015625 622.953125 L 1487.359375 623.625 C 1486.015625 624.964844 1485.679688 627.988281 1482.992188 627.652344 C 1480.308594 627.316406 1483.664062 632.355469 1483.328125 633.027344 C 1484 635.714844 1479.636719 634.035156 1480.308594 633.699219 C 1479.636719 635.378906 1482.324219 639.746094 1479.300781 640.417969 C 1475.269531 638.066406 1478.628906 648.476562 1474.597656 645.121094 L 1474.933594 645.457031 C 1470.230469 645.792969 1473.253906 651.835938 1468.550781 652.507812 C 1468.550781 652.507812 1468.214844 652.171875 1468.214844 651.835938 L 1476.277344 666.617188 L 1491.054688 675.683594 L 1505.496094 679.714844 C 1505.496094 679.714844 1507.175781 676.355469 1508.855469 672.660156 C 1510.535156 669.304688 1512.550781 665.609375 1512.550781 665.609375 L 1524.308594 659.5625 C 1524.308594 659.5625 1525.316406 658.21875 1526.996094 655.867188 C 1528.671875 653.515625 1531.023438 650.828125 1533.039062 647.804688 C 1535.390625 644.785156 1537.40625 642.097656 1539.085938 639.746094 C 1540.765625 637.730469 1542.109375 636.050781 1542.109375 636.050781 L 1540.765625 632.019531 C 1549.835938 632.355469 1548.828125 621.273438 1556.886719 620.265625 L 1554.535156 617.914062 C 1555.542969 616.570312 1556.886719 617.914062 1557.894531 617.914062 C 1568.644531 605.484375 1577.375 590.371094 1591.148438 583.316406 C 1593.5 583.988281 1595.847656 579.957031 1598.199219 580.964844 C 1598.871094 574.921875 1602.566406 571.226562 1606.597656 568.203125 L 1606.597656 568.539062 L 1607.941406 566.523438 C 1608.277344 566.523438 1608.613281 566.859375 1608.613281 567.195312 C 1608.613281 563.164062 1613.652344 562.828125 1616.675781 561.820312 L 1616.675781 562.15625 C 1630.78125 550.738281 1639.851562 534.949219 1656.980469 527.5625 C 1662.019531 527.226562 1665.375 523.867188 1668.398438 520.507812 C 1671.757812 517.148438 1675.117188 513.789062 1680.492188 512.78125 C 1681.5 512.109375 1695.941406 499.011719 1696.613281 496.660156 Z M 1696.613281 496.660156 " fill-opacity="1" fill-rule="nonzero"/><path fill="#006a43" d="M 1717.773438 477.179688 C 1718.445312 478.1875 1718.445312 477.851562 1717.773438 477.179688 Z M 1717.773438 477.179688 " fill-opacity="1" fill-rule="nonzero"/><path fill="#006a43" d="M 1662.355469 468.445312 L 1661.011719 467.101562 Z M 1662.355469 468.445312 " fill-opacity="1" fill-rule="nonzero"/><path fill="#006a43" d="M 1683.851562 452.324219 C 1682.507812 452.660156 1682.84375 452.996094 1683.179688 453.332031 C 1683.515625 452.996094 1683.851562 452.660156 1683.851562 452.324219 Z M 1683.851562 452.324219 " fill-opacity="1" fill-rule="nonzero"/><path fill="#006a43" d="M 1724.492188 469.789062 C 1725.164062 469.453125 1724.492188 469.117188 1723.484375 468.445312 C 1723.148438 468.78125 1722.8125 469.117188 1722.8125 469.117188 C 1723.148438 469.117188 1724.15625 469.453125 1724.492188 469.789062 Z M 1724.492188 469.789062 " fill-opacity="1" fill-rule="nonzero"/><path fill="#006a43" d="M 1712.0625 455.011719 L 1711.726562 454.003906 C 1711.726562 454.339844 1711.726562 454.675781 1712.0625 455.011719 Z M 1712.0625 455.011719 " fill-opacity="1" fill-rule="nonzero"/></svg>