<svg xmlns="http://www.w3.org/2000/svg" xmlns:xlink="http://www.w3.org/1999/xlink" width="2400" zoomAndPan="magnify" viewBox="0 0 1800 937.499967" height="1250" preserveAspectRatio="xMidYMid meet" version="1.0"><defs><clipPath id="504f1c4987"><path d="M 9.410156 198 L 1777 198 L 1777 523 L 9.410156 523 Z M 9.410156 198 " clip-rule="nonzero"/></clipPath><clipPath id="7f23997ad4"><path d="M 1517 493 L 1799 493 L 1799 738.957031 L 1517 738.957031 Z M 1517 493 " clip-rule="nonzero"/></clipPath></defs><path fill="#0ecb81" d="M 597.957031 410.265625 C 596.863281 410.265625 596.496094 410.628906 597.957031 410.265625 Z M 597.957031 410.265625 " fill-opacity="1" fill-rule="nonzero"/><path fill="#0ecb81" d="M 1261.71875 426.695312 C 1262.082031 426.695312 1262.082031 426.695312 1262.445312 426.695312 C 1262.8125 425.964844 1263.542969 425.234375 1263.90625 424.867188 Z M 1261.71875 426.695312 " fill-opacity="1" fill-rule="nonzero"/><path fill="#0ecb81" d="M 1368.328125 436.1875 C 1368.691406 436.1875 1368.691406 436.1875 1369.058594 436.550781 C 1369.058594 436.1875 1369.058594 435.820312 1368.328125 436.1875 Z M 1368.328125 436.1875 " fill-opacity="1" fill-rule="nonzero"/><path fill="#0ecb81" d="M 1015.636719 423.042969 C 1014.542969 423.042969 1014.175781 423.042969 1013.8125 423.40625 C 1014.175781 423.40625 1014.90625 423.40625 1015.636719 423.042969 Z M 1015.636719 423.042969 " fill-opacity="1" fill-rule="nonzero"/><path fill="#0ecb81" d="M 402.261719 411.359375 C 402.261719 411.359375 402.628906 411.359375 402.628906 411.359375 C 402.261719 411.359375 401.898438 410.996094 401.53125 410.996094 Z M 402.261719 411.359375 " fill-opacity="1" fill-rule="nonzero"/><path fill="#0ecb81" d="M 404.453125 410.265625 C 406.644531 410.996094 403.722656 411.359375 402.628906 411.359375 C 405.183594 412.453125 407.738281 412.453125 410.296875 412.089844 C 410.296875 410.996094 405.546875 410.996094 404.453125 410.265625 Z M 404.453125 410.265625 " fill-opacity="1" fill-rule="nonzero"/><path fill="#0ecb81" d="M 43 431.074219 L 44.097656 430.34375 C 43.367188 430.34375 43 430.710938 43 431.074219 Z M 43 431.074219 " fill-opacity="1" fill-rule="nonzero"/><path fill="#0ecb81" d="M 1024.035156 478.539062 C 1023.667969 478.539062 1022.9375 478.539062 1022.574219 478.902344 C 1023.304688 478.902344 1023.667969 478.539062 1024.035156 478.539062 Z M 1024.035156 478.539062 " fill-opacity="1" fill-rule="nonzero"/><path fill="#0ecb81" d="M 101.050781 419.390625 L 101.417969 417.566406 C 101.050781 418.296875 100.6875 419.027344 101.050781 419.390625 Z M 101.050781 419.390625 " fill-opacity="1" fill-rule="nonzero"/><path fill="#0ecb81" d="M 1263.90625 424.867188 L 1264.636719 424.136719 C 1264.273438 424.503906 1264.273438 424.503906 1263.90625 424.867188 Z M 1263.90625 424.867188 " fill-opacity="1" fill-rule="nonzero"/><path fill="#0ecb81" d="M 1466.90625 442.757812 C 1466.90625 443.125 1467.269531 443.855469 1467.269531 444.21875 C 1467.269531 444.21875 1467.636719 444.21875 1467.636719 444.21875 Z M 1466.90625 442.757812 " fill-opacity="1" fill-rule="nonzero"/><path fill="#0ecb81" d="M 1528.972656 262.761719 C 1528.972656 262.761719 1528.609375 263.128906 1528.609375 263.492188 L 1530.796875 264.585938 C 1529.703125 263.492188 1529.339844 263.128906 1528.972656 262.761719 Z M 1528.972656 262.761719 " fill-opacity="1" fill-rule="nonzero"/><path fill="#0ecb81" d="M 1599.4375 458.09375 C 1599.4375 457.726562 1599.804688 457.726562 1599.804688 457.363281 C 1599.4375 457.363281 1599.074219 456.996094 1598.707031 456.996094 C 1598.34375 456.996094 1598.34375 456.996094 1597.976562 456.996094 C 1597.976562 456.996094 1596.882812 456.996094 1596.152344 456.632812 C 1593.230469 456.265625 1589.945312 456.265625 1585.929688 455.902344 L 1585.199219 458.09375 C 1585.199219 458.09375 1589.214844 458.09375 1593.230469 458.09375 C 1598.34375 458.09375 1599.4375 458.09375 1599.4375 458.09375 Z M 1599.4375 458.09375 " fill-opacity="1" fill-rule="nonzero"/><g clip-path="url(#504f1c4987)"><path fill="#0ecb81" d="M 1689.617188 436.550781 C 1689.617188 436.550781 1693.269531 441.664062 1696.921875 447.140625 C 1700.207031 451.886719 1703.492188 456.996094 1703.492188 456.996094 C 1695.460938 448.964844 1687.792969 441.664062 1681.222656 434.726562 C 1675.015625 427.789062 1669.171875 421.21875 1663.695312 415.011719 C 1661.140625 411.722656 1658.21875 408.804688 1655.664062 405.882812 C 1653.839844 403.691406 1652.378906 401.5 1650.550781 399.675781 C 1647.996094 396.390625 1645.804688 393.46875 1643.25 390.183594 C 1633.757812 377.769531 1624.996094 365.722656 1612.582031 351.117188 L 1614.40625 352.210938 C 1613.3125 349.65625 1610.027344 349.292969 1604.183594 341.988281 C 1601.261719 338.339844 1597.613281 333.226562 1593.230469 325.195312 C 1588.851562 317.164062 1583.738281 306.210938 1578.261719 291.605469 L 1578.628906 291.242188 C 1577.53125 289.414062 1576.800781 289.78125 1575.339844 285.765625 C 1575.339844 285.765625 1576.070312 288.320312 1576.800781 290.875 C 1577.53125 293.429688 1578.628906 295.988281 1578.628906 295.988281 C 1574.246094 291.242188 1569.5 287.222656 1565.117188 280.289062 C 1564.753906 278.460938 1565.117188 277.367188 1565.484375 277 C 1565.484375 277 1562.5625 272.621094 1560.007812 268.238281 C 1557.449219 263.859375 1554.53125 259.109375 1554.53125 259.109375 L 1553.800781 252.175781 C 1549.417969 247.429688 1545.402344 252.539062 1540.292969 235.746094 C 1539.5625 243.410156 1534.085938 229.171875 1533.355469 232.09375 C 1533.355469 231 1533.355469 228.808594 1532.988281 227.347656 C 1527.878906 218.585938 1518.386719 201.425781 1514.367188 198.140625 C 1514.367188 198.140625 1516.925781 207.996094 1519.113281 219.679688 C 1521.671875 231 1524.589844 244.140625 1525.320312 249.984375 C 1519.480469 236.476562 1523.132812 246.699219 1523.132812 249.984375 L 1524.589844 250.347656 C 1527.878906 258.746094 1525.6875 259.839844 1526.78125 264.222656 C 1527.148438 264.222656 1527.148438 263.859375 1527.148438 263.492188 L 1526.417969 263.128906 C 1526.78125 262.398438 1527.148438 262.761719 1527.511719 262.761719 C 1527.878906 262.398438 1528.609375 262.398438 1529.703125 264.585938 L 1529.335938 264.222656 C 1531.527344 267.144531 1534.085938 272.984375 1535.542969 275.539062 L 1533.71875 276.636719 C 1537.003906 278.460938 1541.019531 288.683594 1545.039062 299.636719 C 1549.054688 310.589844 1552.703125 321.910156 1555.261719 325.558594 C 1557.816406 334.6875 1566.578125 341.988281 1571.691406 351.847656 C 1581.183594 366.816406 1573.878906 360.976562 1577.53125 369.371094 C 1583.007812 379.230469 1578.261719 366.085938 1581.183594 369.738281 C 1581.183594 369.738281 1582.644531 373.023438 1583.738281 375.945312 C 1585.199219 379.230469 1586.292969 382.152344 1586.292969 382.152344 C 1581.546875 375.945312 1583.007812 380.324219 1583.007812 381.785156 C 1586.292969 386.53125 1589.945312 393.105469 1593.230469 398.582031 C 1596.882812 404.058594 1600.167969 408.4375 1603.089844 408.4375 C 1611.121094 422.3125 1610.027344 423.042969 1614.042969 428.519531 C 1613.3125 426.328125 1611.121094 422.3125 1611.488281 421.582031 C 1614.042969 427.789062 1613.675781 423.773438 1612.582031 421.21875 C 1613.675781 421.949219 1614.773438 423.40625 1615.867188 424.867188 C 1616.597656 425.597656 1616.960938 426.695312 1617.691406 427.425781 C 1618.058594 427.789062 1618.421875 428.519531 1618.789062 428.882812 C 1619.152344 429.25 1619.152344 429.25 1619.152344 429.613281 L 1619.519531 429.980469 C 1620.613281 432.535156 1622.074219 435.089844 1622.804688 437.28125 C 1624.628906 441.664062 1624.996094 444.21875 1629.011719 445.3125 L 1627.550781 444.949219 C 1630.472656 445.679688 1633.390625 446.042969 1635.949219 446.773438 C 1638.503906 447.140625 1640.695312 447.871094 1643.980469 450.058594 C 1643.980469 450.058594 1643.25 451.519531 1643.25 451.519531 L 1649.09375 455.535156 C 1649.09375 456.996094 1646.171875 455.171875 1645.441406 455.171875 C 1649.820312 458.824219 1653.109375 462.109375 1655.664062 465.03125 C 1657.855469 466.855469 1653.839844 465.394531 1652.011719 465.394531 C 1649.820312 465.03125 1647.996094 464.664062 1645.804688 464.664062 C 1645.804688 464.664062 1652.742188 467.585938 1660.773438 470.507812 C 1668.808594 473.425781 1677.570312 476.347656 1677.570312 476.347656 C 1670.632812 474.886719 1661.140625 472.695312 1652.742188 470.871094 C 1645.804688 469.410156 1641.058594 468.679688 1642.886719 470.507812 C 1642.886719 470.507812 1640.328125 469.410156 1637.773438 468.679688 C 1635.582031 467.585938 1633.027344 466.855469 1633.027344 466.855469 C 1627.1875 465.03125 1624.265625 464.300781 1622.4375 463.933594 C 1620.613281 463.933594 1620.25 464.300781 1619.882812 464.664062 C 1619.519531 465.761719 1620.613281 467.585938 1616.597656 466.488281 C 1616.597656 466.488281 1614.042969 465.394531 1611.488281 464.300781 C 1608.929688 463.203125 1607.105469 462.109375 1607.105469 462.109375 L 1614.042969 462.472656 C 1610.027344 461.378906 1607.46875 460.285156 1604.914062 459.554688 C 1602.722656 458.457031 1600.53125 457.726562 1598.34375 456.265625 C 1598.707031 456.265625 1598.707031 456.632812 1599.074219 456.996094 L 1598.34375 456.996094 C 1598.34375 457.363281 1597.976562 457.726562 1597.613281 458.09375 C 1597.246094 458.09375 1597.246094 458.457031 1596.882812 458.457031 C 1596.882812 458.457031 1596.515625 458.457031 1596.515625 458.824219 C 1596.152344 458.824219 1595.785156 458.824219 1595.421875 458.824219 C 1592.867188 459.1875 1589.578125 459.1875 1585.5625 458.824219 C 1574.609375 457.726562 1565.847656 459.917969 1548.324219 454.808594 L 1543.578125 458.09375 L 1530.433594 455.171875 L 1530.433594 452.25 C 1543.210938 453.347656 1567.671875 453.347656 1584.46875 454.441406 L 1584.832031 452.980469 C 1574.976562 452.25 1563.65625 452.980469 1557.085938 452.25 C 1553.800781 451.519531 1546.132812 447.871094 1551.972656 446.410156 L 1545.765625 448.964844 C 1512.90625 447.503906 1512.542969 447.503906 1478.589844 442.394531 L 1481.507812 443.855469 C 1474.570312 444.21875 1467.636719 444.949219 1466.175781 442.394531 C 1445.730469 440.933594 1424.1875 437.648438 1411.042969 433.265625 L 1407.757812 436.550781 C 1403.375 436.1875 1397.171875 430.710938 1394.613281 435.457031 L 1385.121094 436.550781 C 1379.28125 435.820312 1375.265625 437.648438 1368.691406 435.457031 C 1368.328125 435.457031 1367.960938 435.089844 1367.597656 435.089844 C 1367.597656 435.089844 1367.597656 435.457031 1367.597656 435.457031 C 1354.085938 433.265625 1367.597656 438.378906 1352.261719 435.820312 C 1347.515625 433.265625 1346.421875 439.835938 1339.117188 438.742188 L 1331.816406 433.628906 C 1318.308594 429.980469 1315.75 435.089844 1296.035156 433.996094 C 1286.542969 431.804688 1282.164062 427.425781 1288.734375 424.136719 C 1279.972656 428.152344 1284.71875 427.058594 1273.035156 428.519531 C 1271.210938 426.695312 1272.667969 426.328125 1275.226562 424.867188 C 1265.003906 422.3125 1269.019531 426.328125 1261.351562 425.597656 C 1258.796875 428.882812 1256.238281 434.359375 1253.683594 434.359375 L 1256.605469 435.457031 C 1248.574219 436.917969 1239.445312 437.28125 1229.953125 435.089844 L 1230.316406 433.265625 L 1221.554688 435.089844 L 1221.191406 432.902344 L 1206.953125 432.902344 L 1208.777344 433.628906 C 1205.492188 433.628906 1194.171875 433.996094 1187.964844 432.535156 L 1188.332031 431.441406 C 1170.804688 426.695312 1155.835938 431.074219 1134.660156 430.710938 L 1137.582031 428.152344 C 1130.644531 425.234375 1135.390625 431.804688 1126.992188 430.34375 L 1126.628906 427.058594 C 1118.960938 430.710938 1117.136719 425.964844 1112.023438 424.136719 L 1114.214844 428.152344 L 1104.722656 427.058594 C 1094.132812 425.234375 1098.515625 421.582031 1099.976562 419.390625 L 1092.675781 422.3125 L 1091.214844 418.660156 C 1085.738281 422.675781 1086.101562 417.929688 1076.609375 419.757812 C 1075.878906 418.296875 1078.433594 417.566406 1075.148438 416.835938 L 1059.449219 421.21875 L 1068.941406 419.390625 L 1067.480469 424.503906 C 1057.625 428.152344 1054.339844 423.40625 1047.402344 424.503906 L 1052.148438 423.042969 C 1040.828125 423.773438 1040.464844 421.582031 1033.890625 420.121094 C 1035.71875 421.21875 1038.636719 422.675781 1034.257812 423.40625 C 1030.972656 423.40625 1032.433594 421.582031 1029.511719 420.851562 C 1028.78125 424.503906 1020.382812 425.964844 1013.082031 424.136719 C 1013.082031 423.773438 1013.445312 423.042969 1013.8125 423.042969 C 1011.984375 423.40625 1010.890625 424.503906 1007.605469 423.40625 L 1009.796875 419.390625 L 1003.589844 423.042969 C 999.574219 421.949219 993.367188 424.503906 993.730469 421.949219 L 996.285156 421.21875 L 964.886719 419.027344 L 964.523438 415.742188 C 961.238281 419.757812 947.363281 413.550781 948.09375 419.027344 C 942.25 415.742188 924.726562 420.488281 928.378906 414.28125 C 907.566406 413.183594 896.25 418.660156 871.054688 415.011719 C 862.292969 409.535156 837.464844 410.628906 821.402344 409.535156 C 789.636719 410.996094 769.191406 412.089844 736.699219 413.183594 C 717.347656 405.519531 688.140625 414.644531 667.328125 409.898438 L 661.488281 412.453125 C 647.613281 407.707031 626.4375 412.820312 606.722656 408.074219 C 601.972656 409.167969 599.417969 409.535156 598.324219 409.535156 C 599.054688 409.535156 600.515625 410.265625 600.878906 412.089844 C 595.402344 410.628906 584.085938 412.089844 584.816406 408.4375 L 586.273438 408.074219 C 587.003906 404.421875 569.480469 409.535156 563.273438 406.246094 L 566.558594 410.265625 L 555.972656 409.535156 L 558.890625 408.804688 C 512.890625 416.835938 492.441406 404.058594 448.996094 411.359375 C 454.835938 407.34375 440.597656 413.550781 439.867188 408.804688 C 428.914062 402.960938 419.789062 409.898438 410.660156 411.359375 C 410.660156 411.722656 410.660156 411.722656 409.929688 412.089844 L 394.230469 411.359375 C 403.722656 405.519531 382.914062 416.105469 391.675781 411.359375 C 351.148438 406.613281 297.84375 410.628906 251.109375 408.4375 L 253.300781 409.898438 C 241.25 409.535156 226.648438 411.359375 217.519531 408.804688 C 208.394531 406.246094 197.804688 412.453125 194.152344 412.820312 C 184.296875 415.375 174.804688 410.265625 179.183594 410.628906 C 168.230469 411.359375 158.375 416.835938 143.402344 415.375 C 140.847656 413.183594 130.261719 414.644531 120.769531 416.835938 C 110.910156 419.027344 102.148438 421.21875 101.417969 418.296875 L 101.417969 418.660156 C 96.304688 418.296875 91.558594 418.660156 86.8125 419.757812 C 84.257812 420.121094 82.066406 420.851562 79.511719 421.21875 C 77.320312 421.949219 74.765625 422.675781 72.207031 423.40625 C 62.714844 425.964844 53.222656 429.613281 42.269531 431.074219 C 42.269531 431.074219 42.636719 430.710938 43 429.980469 C 43 429.980469 40.808594 431.804688 37.160156 434.726562 C 33.871094 437.648438 29.492188 441.296875 25.109375 445.3125 C 22.917969 447.140625 21.09375 449.332031 18.902344 451.15625 C 17.078125 452.980469 15.253906 454.808594 13.792969 456.632812 C 11.238281 460.648438 9.410156 462.839844 9.410156 462.839844 C 9.410156 462.839844 14.15625 465.761719 18.902344 468.679688 C 23.285156 471.601562 27.667969 474.886719 27.667969 474.886719 C 27.667969 474.886719 28.394531 474.886719 29.125 474.886719 C 30.222656 474.886719 31.683594 474.886719 33.144531 474.886719 C 36.429688 474.886719 41.175781 474.886719 45.554688 475.617188 C 49.9375 475.984375 54.320312 476.347656 57.605469 477.078125 C 60.890625 477.441406 63.082031 477.808594 63.082031 477.808594 C 63.082031 477.808594 64.175781 477.441406 66.730469 476.714844 C 68.921875 475.984375 72.207031 474.886719 76.226562 473.792969 C 84.257812 471.601562 94.84375 469.046875 105.796875 467.21875 C 111.273438 466.125 117.117188 465.394531 122.226562 464.664062 C 127.703125 463.933594 132.449219 463.203125 136.832031 462.839844 C 145.59375 462.109375 151.4375 461.742188 151.4375 461.742188 C 151.4375 461.742188 156.183594 461.742188 163.121094 462.109375 C 170.058594 462.472656 179.550781 463.203125 189.042969 463.933594 C 208.390625 465.394531 227.378906 466.855469 227.378906 466.855469 C 227.378906 466.855469 274.476562 466.488281 321.574219 466.125 C 368.671875 466.125 415.773438 465.761719 415.773438 465.761719 L 429.28125 461.742188 C 466.15625 469.410156 513.621094 461.742188 553.414062 467.585938 L 554.144531 463.933594 C 565.464844 463.933594 564.734375 466.125 567.289062 466.855469 C 671.710938 467.949219 779.414062 465.761719 873.246094 473.0625 C 882.375 475.617188 909.757812 475.253906 916.695312 477.808594 C 947.363281 474.15625 979.492188 475.617188 1010.160156 477.078125 L 1009.066406 477.441406 L 1023.304688 477.078125 C 1024.035156 477.441406 1024.035156 477.808594 1023.667969 478.171875 C 1040.097656 475.617188 1065.292969 479.632812 1085.371094 481.824219 L 1084.277344 482.191406 C 1200.015625 487.300781 1308.085938 485.476562 1422.726562 496.792969 C 1449.378906 501.175781 1478.222656 502.269531 1508.164062 503.367188 C 1523.132812 503.730469 1538.464844 504.460938 1553.433594 505.191406 C 1561.101562 505.554688 1568.769531 506.285156 1576.4375 507.015625 L 1587.753906 508.113281 L 1593.597656 508.84375 L 1604.183594 509.9375 C 1610.390625 511.398438 1635.21875 513.589844 1668.078125 515.777344 C 1700.570312 517.96875 1741.097656 520.527344 1776.878906 522.351562 C 1755.335938 501.175781 1735.257812 481.460938 1719.558594 465.761719 C 1704.222656 450.425781 1693.269531 439.835938 1689.617188 436.550781 Z M 1689.617188 436.550781 " fill-opacity="1" fill-rule="nonzero"/></g><path fill="#0ecb81" d="M 1565.847656 276.636719 L 1566.214844 277 C 1567.308594 276.269531 1566.578125 275.90625 1565.847656 276.636719 Z M 1565.847656 276.636719 " fill-opacity="1" fill-rule="nonzero"/><path fill="#0ecb81" d="M 1645.804688 465.394531 C 1646.171875 465.394531 1646.171875 465.394531 1646.535156 465.394531 L 1640.328125 462.839844 Z M 1645.804688 465.394531 " fill-opacity="1" fill-rule="nonzero"/><path fill="#0ecb81" d="M 1579.722656 377.039062 C 1583.738281 383.613281 1584.105469 383.613281 1584.105469 382.152344 C 1582.277344 379.960938 1580.816406 378.136719 1579.722656 377.039062 Z M 1579.722656 377.039062 " fill-opacity="1" fill-rule="nonzero"/><path fill="#0ecb81" d="M 1535.179688 226.25 C 1533.71875 222.964844 1533.355469 224.425781 1533.355469 226.980469 C 1535.179688 230.269531 1536.640625 232.824219 1536.640625 232.824219 C 1536.273438 230.632812 1535.910156 228.441406 1535.179688 226.25 Z M 1535.179688 226.25 " fill-opacity="1" fill-rule="nonzero"/><path fill="#0ecb81" d="M 1524.226562 249.617188 L 1522.402344 249.253906 C 1523.863281 251.078125 1524.226562 250.714844 1524.226562 249.617188 Z M 1524.226562 249.617188 " fill-opacity="1" fill-rule="nonzero"/><path fill="#0ecb81" d="M 1574.609375 626.039062 C 1574.246094 626.039062 1574.609375 626.40625 1574.609375 626.039062 Z M 1574.609375 626.039062 " fill-opacity="1" fill-rule="nonzero"/><path fill="#0ecb81" d="M 1658.585938 540.605469 C 1658.585938 540.605469 1658.585938 540.242188 1658.585938 540.605469 C 1658.21875 539.875 1657.855469 539.511719 1657.855469 538.78125 Z M 1658.585938 540.605469 " fill-opacity="1" fill-rule="nonzero"/><path fill="#0ecb81" d="M 1676.476562 531.84375 C 1676.476562 531.480469 1676.109375 531.113281 1676.476562 531.84375 Z M 1676.476562 531.84375 " fill-opacity="1" fill-rule="nonzero"/><path fill="#0ecb81" d="M 1553.433594 654.882812 C 1553.433594 654.882812 1553.433594 654.519531 1553.433594 654.882812 C 1553.433594 654.882812 1553.070312 654.882812 1553.070312 654.519531 Z M 1553.433594 654.882812 " fill-opacity="1" fill-rule="nonzero"/><path fill="#0ecb81" d="M 1552.703125 653.789062 C 1553.433594 653.789062 1553.433594 654.519531 1553.433594 654.882812 C 1554.53125 655.25 1554.894531 654.882812 1554.894531 654.152344 C 1554.164062 653.421875 1553.433594 654.152344 1552.703125 653.789062 Z M 1552.703125 653.789062 " fill-opacity="1" fill-rule="nonzero"/><path fill="#0ecb81" d="M 1515.097656 705.632812 L 1514.734375 705.269531 C 1515.097656 705.269531 1515.097656 705.632812 1515.097656 705.632812 Z M 1515.097656 705.632812 " fill-opacity="1" fill-rule="nonzero"/><path fill="#0ecb81" d="M 1522.402344 698.332031 L 1520.941406 697.234375 C 1521.304688 697.964844 1522.035156 698.332031 1522.402344 698.332031 Z M 1522.402344 698.332031 " fill-opacity="1" fill-rule="nonzero"/><path fill="#0ecb81" d="M 1657.855469 538.78125 L 1657.488281 538.050781 C 1657.488281 538.414062 1657.488281 538.414062 1657.855469 538.78125 Z M 1657.855469 538.78125 " fill-opacity="1" fill-rule="nonzero"/><path fill="#0ecb81" d="M 1691.078125 521.621094 C 1691.445312 521.984375 1691.808594 522.351562 1691.808594 522.714844 Z M 1691.078125 521.621094 " fill-opacity="1" fill-rule="nonzero"/><path fill="#0ecb81" d="M 1779.800781 494.238281 C 1779.800781 494.238281 1779.433594 493.871094 1779.433594 493.507812 L 1779.800781 494.601562 C 1779.800781 494.601562 1779.800781 494.601562 1779.800781 494.238281 Z M 1779.800781 494.238281 " fill-opacity="1" fill-rule="nonzero"/><path fill="#0ecb81" d="M 1715.175781 513.222656 C 1715.175781 513.222656 1715.175781 512.859375 1714.8125 512.492188 C 1714.082031 512.128906 1712.984375 512.859375 1712.253906 513.589844 L 1713.351562 515.414062 Z M 1715.175781 513.222656 " fill-opacity="1" fill-rule="nonzero"/><g clip-path="url(#7f23997ad4)"><path fill="#0ecb81" d="M 1765.925781 539.875 L 1761.542969 537.683594 C 1767.019531 531.480469 1772.496094 532.9375 1776.148438 526.367188 L 1776.511719 527.460938 C 1777.972656 527.828125 1772.863281 519.066406 1788.5625 523.445312 L 1788.925781 523.8125 C 1789.292969 523.445312 1788.5625 522.714844 1790.023438 523.445312 L 1787.101562 522.351562 C 1787.464844 520.890625 1787.101562 518.699219 1788.195312 517.605469 C 1788.5625 517.96875 1789.292969 518.699219 1789.65625 519.066406 L 1792.210938 516.507812 L 1794.769531 518.335938 C 1794.769531 516.507812 1791.117188 511.761719 1795.5 512.859375 C 1792.210938 509.9375 1795.5 509.9375 1794.039062 508.476562 C 1794.402344 508.84375 1795.132812 509.207031 1795.863281 509.574219 C 1796.960938 508.113281 1799.515625 505.554688 1798.785156 503 C 1798.785156 503 1788.195312 499.347656 1784.179688 496.792969 C 1787.101562 496.429688 1784.546875 496.0625 1783.449219 494.96875 L 1783.816406 496.0625 C 1781.988281 496.0625 1780.53125 493.871094 1779.433594 493.507812 C 1779.433594 493.507812 1779.800781 493.871094 1779.800781 494.238281 L 1779.800781 493.871094 C 1780.164062 494.238281 1780.164062 494.601562 1780.164062 494.601562 C 1780.53125 494.96875 1780.53125 495.332031 1780.164062 495.699219 L 1780.164062 495.332031 C 1779.800781 496.0625 1778.703125 496.429688 1777.972656 496.429688 L 1776.878906 494.601562 C 1778.339844 498.621094 1767.019531 493.507812 1765.558594 494.238281 C 1762.640625 492.777344 1763.003906 496.792969 1760.8125 496.792969 C 1757.894531 497.890625 1757.894531 494.96875 1755.335938 494.238281 C 1752.78125 494.238281 1757.164062 496.0625 1756.433594 496.792969 L 1752.78125 495.699219 C 1753.875 494.601562 1752.417969 493.871094 1751.6875 493.507812 C 1749.859375 494.238281 1744.75 492.777344 1746.941406 496.792969 C 1743.652344 496.429688 1742.558594 494.96875 1741.464844 495.699219 C 1742.195312 496.0625 1743.289062 496.429688 1743.652344 497.160156 C 1741.828125 496.0625 1743.652344 497.890625 1744.019531 497.890625 C 1743.652344 500.445312 1732.335938 496.429688 1734.890625 500.445312 L 1734.527344 499.714844 C 1736.351562 503 1738.90625 505.191406 1738.90625 507.746094 L 1737.449219 507.015625 L 1737.449219 508.84375 C 1735.988281 508.476562 1735.988281 507.382812 1735.621094 507.015625 C 1734.890625 509.574219 1731.605469 509.574219 1729.414062 510.300781 L 1737.082031 516.875 C 1734.160156 516.144531 1728.683594 514.320312 1730.144531 517.238281 L 1727.222656 515.414062 C 1720.289062 512.492188 1726.496094 519.066406 1724.304688 518.699219 L 1720.652344 516.875 L 1722.113281 515.777344 C 1719.558594 515.414062 1718.097656 515.050781 1715.542969 513.953125 C 1715.542969 513.953125 1715.90625 513.953125 1715.90625 514.320312 L 1715.90625 514.683594 C 1716.636719 516.144531 1716.636719 517.96875 1715.542969 518.699219 C 1713.714844 519.429688 1714.082031 522.351562 1709.335938 521.253906 L 1710.792969 524.542969 L 1707.507812 524.175781 L 1705.683594 521.984375 C 1707.507812 520.890625 1710.429688 517.238281 1712.984375 515.414062 L 1712.253906 514.320312 C 1710.792969 515.414062 1710.066406 517.605469 1708.96875 517.96875 C 1708.238281 517.96875 1705.316406 516.144531 1704.953125 513.953125 L 1705.683594 516.875 C 1700.9375 520.527344 1701.300781 520.890625 1694.363281 521.984375 L 1695.824219 522.714844 C 1695.460938 524.175781 1694.730469 525.636719 1693.269531 523.8125 C 1689.984375 525.636719 1685.96875 526.730469 1681.585938 525.273438 L 1683.410156 528.191406 C 1682.683594 528.558594 1678.664062 525.273438 1681.222656 529.289062 L 1680.855469 531.480469 C 1679.761719 531.84375 1680.492188 534.035156 1678.300781 533.304688 C 1678.300781 533.304688 1677.933594 533.304688 1677.933594 533.304688 C 1677.933594 533.304688 1677.933594 533.304688 1678.300781 533.667969 C 1675.378906 534.035156 1680.125 536.226562 1676.839844 536.226562 C 1674.648438 534.765625 1678.664062 540.242188 1677.207031 540.605469 L 1673.1875 537.683594 C 1669.539062 536.957031 1672.09375 540.972656 1669.539062 543.527344 C 1666.980469 543.160156 1663.695312 540.605469 1662.234375 536.957031 C 1663.695312 541.335938 1663.695312 539.511719 1663.332031 542.796875 C 1661.871094 541.703125 1661.871094 540.972656 1661.140625 539.511719 C 1658.21875 539.144531 1661.140625 541.703125 1660.046875 542.433594 C 1661.871094 545.351562 1665.15625 550.097656 1664.792969 550.464844 L 1665.886719 550.828125 C 1665.886719 553.386719 1665.15625 554.84375 1662.964844 554.480469 L 1661.871094 553.019531 L 1661.140625 554.84375 L 1659.679688 553.386719 L 1658.21875 555.574219 L 1658.949219 555.941406 C 1658.585938 556.671875 1657.488281 558.496094 1656.027344 558.132812 L 1655.300781 557.035156 C 1650.1875 556.304688 1651.648438 561.78125 1649.09375 564.339844 L 1647.632812 562.148438 C 1645.074219 561.050781 1649.824219 565.433594 1647.996094 565.433594 L 1645.804688 563.242188 C 1647.632812 567.257812 1643.980469 563.609375 1642.15625 563.242188 L 1645.074219 566.164062 L 1643.25 566.527344 C 1641.058594 566.894531 1638.867188 563.609375 1637.773438 561.78125 L 1638.867188 565.066406 L 1636.3125 562.511719 C 1638.503906 566.164062 1635.21875 562.511719 1635.21875 565.433594 C 1634.121094 564.339844 1634.121094 563.609375 1633.027344 563.609375 L 1634.488281 569.085938 L 1634.121094 566.164062 L 1637.410156 570.179688 C 1638.867188 574.195312 1635.21875 571.273438 1635.21875 573.101562 L 1634.851562 571.273438 C 1634.121094 573.464844 1632.664062 572.003906 1630.835938 572.003906 C 1631.933594 572.371094 1633.027344 573.101562 1633.027344 574.195312 C 1632.664062 574.925781 1631.566406 573.101562 1630.835938 573.101562 C 1633.027344 575.65625 1633.390625 578.210938 1631.203125 577.847656 C 1630.835938 577.480469 1630.472656 577.117188 1630.472656 576.75 C 1630.472656 577.480469 1631.203125 578.210938 1630.105469 577.847656 L 1627.914062 574.5625 L 1629.742188 578.210938 C 1628.644531 577.847656 1629.742188 580.765625 1627.914062 578.578125 L 1627.550781 577.847656 L 1622.804688 581.132812 L 1620.613281 578.941406 C 1623.167969 582.59375 1617.328125 580.039062 1620.980469 583.6875 C 1618.058594 582.226562 1619.152344 588.070312 1615.503906 583.324219 C 1612.582031 585.515625 1614.773438 590.992188 1609.660156 592.085938 C 1604.914062 589.53125 1602.722656 593.910156 1600.53125 595.371094 C 1597.976562 600.847656 1596.515625 604.863281 1593.597656 610.339844 C 1585.929688 607.785156 1589.214844 618.375 1583.738281 618.007812 L 1585.199219 620.5625 C 1580.085938 619.101562 1581.546875 625.675781 1576.070312 625.308594 C 1576.4375 626.769531 1576.4375 627.5 1576.4375 627.5 C 1576.800781 627.5 1577.167969 627.5 1578.625 628.960938 C 1577.167969 628.960938 1576.800781 631.515625 1574.246094 628.960938 L 1574.246094 628.597656 C 1571.691406 626.039062 1573.515625 631.882812 1570.230469 630.785156 L 1573.515625 632.976562 L 1571.691406 634.074219 L 1571.324219 633.34375 C 1572.054688 645.027344 1560.371094 639.550781 1561.101562 650.867188 C 1558.546875 647.214844 1561.832031 653.421875 1558.179688 650.503906 C 1552.703125 647.945312 1556.71875 654.152344 1556.71875 656.34375 C 1556.71875 656.34375 1557.085938 656.710938 1557.449219 657.074219 L 1555.261719 658.898438 C 1551.972656 653.789062 1557.449219 663.644531 1554.894531 659.265625 C 1546.863281 661.820312 1543.941406 672.042969 1537.003906 677.15625 L 1538.464844 677.886719 C 1537.003906 679.34375 1536.640625 682.632812 1533.71875 682.265625 C 1530.796875 681.902344 1534.449219 687.378906 1534.085938 688.109375 C 1534.8125 691.027344 1530.066406 689.203125 1530.796875 688.839844 C 1530.066406 690.664062 1532.988281 695.410156 1529.703125 696.140625 C 1525.320312 693.585938 1528.972656 704.902344 1524.589844 701.25 L 1524.957031 701.617188 C 1519.84375 701.980469 1523.132812 708.554688 1518.019531 709.285156 C 1518.019531 709.285156 1517.65625 708.917969 1517.65625 708.554688 L 1526.417969 724.617188 L 1542.480469 734.476562 L 1558.179688 738.859375 C 1558.179688 738.859375 1560.007812 735.207031 1561.832031 731.191406 C 1563.65625 727.539062 1565.847656 723.523438 1565.847656 723.523438 L 1578.625 716.953125 C 1578.625 716.953125 1579.722656 715.492188 1581.546875 712.933594 C 1583.375 710.378906 1585.929688 707.457031 1588.121094 704.171875 C 1590.675781 700.886719 1592.867188 697.964844 1594.691406 695.410156 C 1596.515625 693.21875 1597.976562 691.394531 1597.976562 691.394531 L 1596.515625 687.011719 C 1606.375 687.378906 1605.277344 675.328125 1614.042969 674.234375 L 1611.484375 671.679688 C 1612.582031 670.21875 1614.042969 671.679688 1615.136719 671.679688 C 1626.820312 658.167969 1636.3125 641.738281 1651.28125 634.074219 C 1653.839844 634.804688 1656.394531 630.421875 1658.949219 631.515625 C 1659.679688 624.945312 1663.695312 620.929688 1668.078125 617.644531 L 1668.078125 618.007812 L 1669.539062 615.816406 C 1669.902344 615.816406 1670.269531 616.183594 1670.269531 616.546875 C 1670.269531 612.167969 1675.746094 611.800781 1679.03125 610.707031 L 1679.03125 611.070312 C 1694.363281 598.65625 1704.222656 581.496094 1722.84375 573.464844 C 1728.320312 573.101562 1731.96875 569.449219 1735.257812 565.796875 C 1738.90625 562.148438 1742.558594 558.496094 1748.398438 557.402344 C 1749.496094 556.671875 1765.195312 542.433594 1765.925781 539.875 Z M 1765.925781 539.875 " fill-opacity="1" fill-rule="nonzero"/></g><path fill="#0ecb81" d="M 1788.925781 518.699219 C 1789.65625 519.796875 1789.65625 519.429688 1788.925781 518.699219 Z M 1788.925781 518.699219 " fill-opacity="1" fill-rule="nonzero"/><path fill="#0ecb81" d="M 1728.683594 509.207031 L 1727.222656 507.746094 Z M 1728.683594 509.207031 " fill-opacity="1" fill-rule="nonzero"/><path fill="#0ecb81" d="M 1752.050781 491.683594 C 1750.589844 492.046875 1750.957031 492.414062 1751.320312 492.777344 C 1751.6875 492.414062 1752.050781 492.046875 1752.050781 491.683594 Z M 1752.050781 491.683594 " fill-opacity="1" fill-rule="nonzero"/><path fill="#0ecb81" d="M 1796.230469 510.667969 C 1796.960938 510.300781 1796.230469 509.9375 1795.132812 509.207031 C 1794.769531 509.574219 1794.402344 509.9375 1794.402344 509.9375 C 1794.769531 509.9375 1795.863281 510.300781 1796.230469 510.667969 Z M 1796.230469 510.667969 " fill-opacity="1" fill-rule="nonzero"/><path fill="#0ecb81" d="M 1782.71875 494.601562 L 1782.355469 493.507812 C 1782.355469 493.871094 1782.355469 494.238281 1782.71875 494.601562 Z M 1782.71875 494.601562 " fill-opacity="1" fill-rule="nonzero"/></svg>