<svg xmlns="http://www.w3.org/2000/svg" xmlns:xlink="http://www.w3.org/1999/xlink" width="2400" zoomAndPan="magnify" viewBox="0 0 1800 937.499967" height="1250" preserveAspectRatio="xMidYMid meet" version="1.0"><defs><clipPath id="4ad3384725"><path d="M 63 393 L 1795 393 L 1795 934 L 63 934 Z M 63 393 " clip-rule="nonzero"/></clipPath><clipPath id="afe402685e"><path d="M 1804.511719 734.164062 L 152.894531 1223.496094 L 0.644531 709.613281 L 1652.261719 220.277344 Z M 1804.511719 734.164062 " clip-rule="nonzero"/></clipPath><clipPath id="8d3fdb6cfa"><path d="M 152.792969 1223.527344 L 1804.410156 734.195312 L 1652.160156 220.308594 L 0.542969 709.640625 Z M 152.792969 1223.527344 " clip-rule="nonzero"/></clipPath></defs><g clip-path="url(#4ad3384725)"><g clip-path="url(#afe402685e)"><g clip-path="url(#8d3fdb6cfa)"><path fill="#3d5a98" d="M 1790.230469 696.570312 L 1609.359375 407.542969 C 1602.125 395.855469 1587.792969 390.984375 1575.367188 394.667969 C 1572.765625 395.4375 1570.25 396.496094 1567.90625 398.132812 C 1553.878906 407.003906 1549.628906 425.554688 1558.210938 439.667969 L 1675.203125 626.609375 C 1610.808594 590.679688 1541.578125 559.640625 1470.996094 534.660156 C 1281.019531 467.414062 1084.976562 444.402344 887.96875 466.9375 C 809.476562 475.730469 735.898438 491.558594 667.703125 511.765625 C 355.332031 604.3125 153.367188 793.652344 71.597656 882.628906 C 60.414062 894.746094 61.097656 914.03125 73.503906 925.128906 C 85.617188 936.3125 104.902344 935.628906 116 923.226562 C 210.75 819.714844 476.503906 574.070312 894.71875 526.859375 C 1233.492188 488.410156 1503.625 599.175781 1653.734375 683.578125 L 1428.417969 685.894531 C 1411.820312 686.097656 1398.582031 699.765625 1398.496094 716.449219 C 1398.699219 733.046875 1412.363281 746.289062 1429.050781 746.375 L 1765.21875 742.644531 C 1776.1875 742.539062 1786.023438 736.480469 1791.398438 727.03125 C 1796.394531 717.378906 1796.117188 705.828125 1790.230469 696.570312 Z M 1790.230469 696.570312 " fill-opacity="1" fill-rule="nonzero"/></g></g></g></svg>