<svg xmlns="http://www.w3.org/2000/svg" xmlns:xlink="http://www.w3.org/1999/xlink" width="230" zoomAndPan="magnify" viewBox="0 0 172.5 172.499994" height="230" preserveAspectRatio="xMidYMid meet" version="1.0"><defs><clipPath id="4f01ffe998"><path d="M 17.199219 45.171875 L 124.179688 45.171875 L 124.179688 152.148438 L 17.199219 152.148438 Z M 17.199219 45.171875 " clip-rule="nonzero"/></clipPath><clipPath id="e2ed3293aa"><path d="M 85.507812 6.5 L 162.851562 6.5 L 162.851562 83.839844 L 85.507812 83.839844 Z M 85.507812 6.5 " clip-rule="nonzero"/></clipPath><clipPath id="0957ea96b1"><path d="M 124.179688 6.5 C 102.820312 6.5 85.507812 23.8125 85.507812 45.171875 C 85.507812 66.527344 102.820312 83.839844 124.179688 83.839844 C 145.539062 83.839844 162.851562 66.527344 162.851562 45.171875 C 162.851562 23.8125 145.539062 6.5 124.179688 6.5 Z M 124.179688 6.5 " clip-rule="nonzero"/></clipPath></defs><g clip-path="url(#4f01ffe998)"><path fill="#7691ad" d="M 17.199219 45.171875 L 124.179688 45.171875 L 124.179688 152.148438 L 17.199219 152.148438 Z M 17.199219 45.171875 " fill-opacity="1" fill-rule="nonzero"/></g><g clip-path="url(#e2ed3293aa)"><g clip-path="url(#0957ea96b1)"><path fill="#25c19b" d="M 85.507812 6.5 L 162.851562 6.5 L 162.851562 83.839844 L 85.507812 83.839844 Z M 85.507812 6.5 " fill-opacity="1" fill-rule="nonzero"/></g></g></svg>