<svg xmlns="http://www.w3.org/2000/svg" xmlns:xlink="http://www.w3.org/1999/xlink" width="2400" zoomAndPan="magnify" viewBox="0 0 1800 862.499974" height="1150" preserveAspectRatio="xMidYMid meet" version="1.0"><path fill="#006a43" d="M 57.351562 77.820312 C 277.515625 52.457031 498.921875 38.144531 720.519531 35.035156 C 942.109375 31.929688 1163.847656 39.964844 1384.632812 59.128906 C 1509.53125 69.964844 1634.113281 84.394531 1758.199219 102.347656 C 1764.808594 103.304688 1767.667969 93.183594 1760.988281 92.21875 C 1541.195312 60.40625 1319.832031 39.578125 1097.953125 30.011719 C 875.4375 20.417969 652.4375 22.078125 430.085938 35 C 305.574219 42.242188 181.269531 53.035156 57.359375 67.3125 C 50.707031 68.074219 50.636719 78.589844 57.351562 77.820312 Z M 57.351562 77.820312 " fill-opacity="1" fill-rule="nonzero"/><path fill="#006a43" d="M 193.945312 138.695312 C 286.621094 123.875 379.773438 112.082031 473.226562 103.371094 C 566.214844 94.707031 659.484375 89.066406 752.839844 86.460938 C 846.195312 83.839844 939.640625 84.253906 1032.96875 87.683594 C 1126.300781 91.117188 1219.515625 97.570312 1312.425781 107.050781 C 1405.792969 116.574219 1498.839844 129.164062 1591.382812 144.816406 C 1602.835938 146.75 1614.285156 148.738281 1625.71875 150.769531 C 1632.328125 151.941406 1635.164062 141.820312 1628.511719 140.640625 C 1536.089844 124.261719 1443.136719 110.867188 1349.851562 100.527344 C 1256.566406 90.1875 1162.945312 82.894531 1069.179688 78.667969 C 974.957031 74.414062 880.582031 73.242188 786.28125 75.148438 C 692.445312 77.046875 598.667969 82.003906 505.152344 90.011719 C 411.640625 98.023438 318.378906 109.097656 225.582031 123.191406 C 214.097656 124.933594 202.621094 126.730469 191.152344 128.566406 C 184.492188 129.628906 187.320312 139.753906 193.945312 138.695312 Z M 193.945312 138.695312 " fill-opacity="1" fill-rule="nonzero"/></svg>