<svg xmlns="http://www.w3.org/2000/svg" xmlns:xlink="http://www.w3.org/1999/xlink" width="230" zoomAndPan="magnify" viewBox="0 0 172.5 172.499994" height="230" preserveAspectRatio="xMidYMid meet" version="1.0"><defs><clipPath id="72db26fa19"><path d="M 88 41 L 140.316406 41 L 140.316406 105 L 88 105 Z M 88 41 " clip-rule="nonzero"/></clipPath><clipPath id="e8f6b1b2db"><path d="M 115 57.703125 L 127.738281 57.703125 L 127.738281 71 L 115 71 Z M 115 57.703125 " clip-rule="nonzero"/></clipPath><clipPath id="3f07ab51f1"><path d="M 107.546875 59 L 124 59 L 124 77.894531 L 107.546875 77.894531 Z M 107.546875 59 " clip-rule="nonzero"/></clipPath></defs><path fill="#607d8b" d="M 0 172 C 0 77.007812 77.007812 0 172 0 L 172 172 Z M 0 172 " fill-opacity="1" fill-rule="nonzero"/><g clip-path="url(#72db26fa19)"><path fill="#f1f6fa" d="M 130.027344 104.558594 C 128.523438 104.617188 127.019531 104.652344 125.519531 104.691406 C 118.558594 104.871094 111.621094 104.585938 104.667969 104.441406 C 101.863281 104.386719 99.058594 104.28125 96.253906 104.117188 C 93.980469 103.988281 91.160156 104.195312 88.992188 103.429688 C 87.964844 103.066406 88.066406 101.835938 88.054688 100.921875 C 88.054688 81.632812 87.976562 62.285156 88.691406 43.007812 C 88.714844 42.457031 88.867188 41.867188 89.300781 41.53125 C 90.25 40.808594 92.558594 41.171875 93.660156 41.152344 C 95.492188 41.117188 97.316406 41.105469 99.148438 41.101562 C 102.804688 41.09375 106.460938 41.125 110.117188 41.132812 C 115.371094 41.144531 120.625 41.199219 125.875 41.328125 C 128.503906 41.390625 131.128906 41.476562 133.753906 41.585938 C 135.453125 41.65625 138.734375 40.964844 139.675781 42.796875 C 140.222656 43.855469 139.957031 46.136719 140.027344 47.332031 C 140.128906 49.050781 140.199219 50.773438 140.242188 52.496094 C 140.410156 59.183594 140.183594 65.871094 140.042969 72.558594 C 139.835938 82.164062 139.46875 91.78125 138.894531 101.371094 C 138.753906 103.722656 137.292969 104.074219 135.222656 104.25 C 133.5 104.398438 131.765625 104.492188 130.027344 104.558594 Z M 137.066406 57 C 137.035156 53.625 136.972656 50.199219 136.679688 46.835938 C 136.652344 46.527344 136.621094 46.203125 136.445312 45.949219 C 135.507812 44.582031 131.253906 45.109375 129.84375 45.039062 C 126.886719 44.890625 123.925781 44.761719 120.96875 44.648438 C 114.230469 44.394531 107.492188 44.21875 100.753906 44.21875 C 98.296875 44.210938 95.859375 44.164062 93.410156 44.398438 C 93.175781 44.421875 92.925781 44.449219 92.734375 44.589844 C 91.773438 45.304688 92.292969 48.570312 92.273438 49.601562 C 92.234375 52.144531 92.195312 54.6875 92.152344 57.226562 C 92.050781 63.648438 91.769531 70.097656 91.871094 76.519531 C 91.914062 79.269531 91.777344 82.019531 91.628906 84.769531 C 91.570312 85.910156 91.210938 90.960938 93.398438 91 C 95.578125 91.035156 97.132812 91.144531 99.3125 91.273438 C 104.507812 91.574219 109.699219 91.421875 114.894531 91.648438 C 118.019531 91.78125 121.339844 91.875 124.539062 91.867188 C 127.632812 91.859375 131.480469 92.164062 134.515625 91.503906 C 136.394531 91.097656 136.066406 85.445312 136.128906 83.207031 C 136.363281 74.511719 137.140625 65.730469 137.066406 57 Z M 137.066406 57 " fill-opacity="1" fill-rule="nonzero"/></g><path fill="#dd4e6a" d="M 127.546875 86.5 C 127.683594 86.429688 127.753906 86.296875 127.847656 86.179688 C 128.394531 85.515625 129.066406 85.039062 129.945312 85.019531 C 130.804688 85 131.847656 85.308594 132.324219 86.335938 C 132.675781 87.09375 132.769531 87.878906 132.652344 88.707031 C 132.4375 90.195312 131.875 91.550781 131.09375 92.8125 C 130.546875 93.699219 129.921875 94.535156 129.144531 95.242188 C 128.734375 95.617188 128.386719 95.683594 127.890625 95.425781 C 127.382812 95.164062 126.90625 94.855469 126.503906 94.441406 C 125.730469 93.644531 124.996094 92.8125 124.394531 91.875 C 123.707031 90.804688 123.222656 89.644531 123.050781 88.382812 C 122.933594 87.511719 123.054688 86.671875 123.585938 85.90625 C 124.277344 84.902344 125.921875 84.769531 126.8125 85.644531 C 126.996094 85.824219 127.164062 86.019531 127.304688 86.234375 C 127.375 86.335938 127.417969 86.453125 127.546875 86.5 Z M 127.546875 86.5 " fill-opacity="1" fill-rule="nonzero"/><g clip-path="url(#e8f6b1b2db)"><path fill="#455a64" d="M 127.472656 64.277344 C 124.351562 65.355469 123.199219 66.515625 122.117188 69.632812 C 121.980469 70.023438 121.425781 70.023438 121.292969 69.632812 C 120.210938 66.511719 119.050781 65.355469 115.933594 64.277344 C 115.546875 64.140625 115.546875 63.585938 115.933594 63.449219 C 119.058594 62.371094 120.210938 61.210938 121.292969 58.09375 C 121.425781 57.703125 121.980469 57.703125 122.117188 58.09375 C 123.199219 61.21875 124.355469 62.371094 127.472656 63.449219 C 127.863281 63.585938 127.863281 64.140625 127.472656 64.277344 Z M 127.101562 68.355469 C 126.238281 68.054688 125.921875 67.738281 125.625 66.878906 C 125.585938 66.769531 125.429688 66.769531 125.398438 66.878906 C 125.097656 67.738281 124.78125 68.054688 123.921875 68.355469 C 123.8125 68.394531 123.8125 68.546875 123.921875 68.582031 C 124.78125 68.878906 125.097656 69.199219 125.398438 70.058594 C 125.4375 70.164062 125.589844 70.164062 125.625 70.058594 C 125.921875 69.199219 126.238281 68.878906 127.101562 68.582031 C 127.207031 68.546875 127.207031 68.394531 127.101562 68.355469 Z M 127.101562 68.355469 " fill-opacity="1" fill-rule="nonzero"/></g><g clip-path="url(#3f07ab51f1)"><path fill="#ffffff" d="M 122.511719 66.246094 C 121.734375 67.292969 121.578125 68.671875 121.976562 69.910156 C 121.992188 69.960938 122.007812 70.015625 122.027344 70.074219 C 123.0625 73.511719 122.296875 76.789062 120.3125 77.386719 C 119.949219 77.496094 119.578125 77.507812 119.199219 77.4375 C 118.433594 77.289062 117.898438 76.59375 117.898438 75.816406 L 117.898438 74.027344 C 117.898438 72.558594 116.636719 71.386719 115.136719 71.527344 C 113.835938 71.644531 112.875 72.816406 112.875 74.128906 L 112.875 75.898438 C 112.875 76.964844 111.855469 77.722656 110.839844 77.421875 L 110.816406 77.414062 C 108.773438 76.800781 107.964844 73.496094 109.011719 70.039062 C 109.023438 69.996094 109.039062 69.957031 109.050781 69.914062 C 109.460938 68.632812 109.210938 67.246094 108.433594 66.144531 C 107.835938 65.285156 107.546875 64.191406 107.722656 63.03125 C 107.996094 61.269531 109.402344 59.824219 111.160156 59.519531 C 112.460938 59.292969 113.671875 59.660156 114.582031 60.390625 C 115.132812 60.832031 115.890625 60.832031 116.4375 60.390625 C 117.347656 59.660156 118.566406 59.292969 119.867188 59.527344 C 121.609375 59.832031 123.011719 61.25 123.292969 63 C 123.496094 64.214844 123.175781 65.363281 122.511719 66.246094 Z M 122.511719 66.246094 " fill-opacity="1" fill-rule="nonzero"/></g><path fill="#213343" d="M 123.300781 62.992188 C 123.496094 64.21875 123.175781 65.363281 122.519531 66.246094 C 121.753906 67.269531 121.589844 68.621094 121.957031 69.847656 C 121.738281 70.007812 121.394531 69.933594 121.292969 69.636719 C 120.210938 66.515625 119.050781 65.363281 115.933594 64.28125 C 115.546875 64.148438 115.546875 63.59375 115.933594 63.457031 C 118.441406 62.589844 119.679688 61.675781 120.628906 59.730469 C 122.003906 60.253906 123.054688 61.503906 123.300781 62.992188 Z M 123.300781 62.992188 " fill-opacity="1" fill-rule="nonzero"/></svg>