<svg xmlns="http://www.w3.org/2000/svg" xmlns:xlink="http://www.w3.org/1999/xlink" width="2400" zoomAndPan="magnify" viewBox="0 0 1800 1049.999947" height="1400" preserveAspectRatio="xMidYMid meet" version="1.0"><defs><clipPath id="9b9fd6e1b1"><path d="M 0 105 L 1800 105 L 1800 875 L 0 875 Z M 0 105 " clip-rule="nonzero"/></clipPath></defs><g clip-path="url(#9b9fd6e1b1)"><path fill="#1c2c3b" d="M 1799.992188 -351.96875 L -462.734375 -351.96875 L -462.734375 -385.339844 L 1799.992188 -385.339844 Z M 1799.992188 -209.796875 L -462.734375 -209.796875 L -462.734375 -176.421875 L 1799.992188 -176.421875 Z M 1799.992188 -34.917969 L -462.734375 -34.917969 L -462.734375 -1.546875 L 1799.992188 -1.546875 Z M 1799.992188 140.625 L -462.734375 140.625 L -462.734375 174 L 1799.992188 174 Z M 1799.992188 315.503906 L -462.734375 315.503906 L -462.734375 348.878906 L 1799.992188 348.878906 Z M 1799.992188 491.046875 L -462.734375 491.046875 L -462.734375 524.421875 L 1799.992188 524.421875 Z M 1799.992188 665.925781 L -462.734375 665.925781 L -462.734375 699.300781 L 1799.992188 699.300781 Z M 1799.992188 841.46875 L -462.734375 841.46875 L -462.734375 874.84375 L 1799.992188 874.84375 Z M 1799.992188 841.46875 " fill-opacity="1" fill-rule="nonzero"/></g></svg>