<svg xmlns="http://www.w3.org/2000/svg" xmlns:xlink="http://www.w3.org/1999/xlink" width="2400" zoomAndPan="magnify" viewBox="0 0 1800 1049.999947" height="1400" preserveAspectRatio="xMidYMid meet" version="1.0"><defs><clipPath id="20e3bdbaba"><path d="M 0 0 L 1800 0 L 1800 1030.910156 L 0 1030.910156 Z M 0 0 " clip-rule="nonzero"/></clipPath><clipPath id="2c5ba1939f"><path d="M 224.125 278.722656 L 1474.371094 278.722656 L 1474.371094 856.222656 L 224.125 856.222656 Z M 224.125 278.722656 " clip-rule="nonzero"/></clipPath><clipPath id="31de6b75c6"><path d="M 1358.15625 418 L 1590.65625 418 L 1590.65625 682 L 1358.15625 682 Z M 1358.15625 418 " clip-rule="nonzero"/></clipPath><clipPath id="400c303c95"><path d="M 182.191406 107.566406 L 384.691406 107.566406 L 384.691406 162.316406 L 182.191406 162.316406 Z M 182.191406 107.566406 " clip-rule="nonzero"/></clipPath></defs><g clip-path="url(#20e3bdbaba)"><path fill="#7691ad" d="M 0 0 L 1800.066406 0 L 1800.066406 1030.910156 L 0 1030.910156 Z M 0 0 " fill-opacity="1" fill-rule="nonzero"/></g><g clip-path="url(#2c5ba1939f)"><path stroke-linecap="butt" transform="matrix(0.75, 0, 0, 0.75, 224.126523, 278.720959)" fill="none" stroke-linejoin="miter" d="M -0.00203116 0.00226295 L 1667.237706 0.00226295 L 1667.237706 770.002334 L -0.00203116 770.002334 Z M -0.00203116 0.00226295 " stroke="#d8e8e6" stroke-width="6" stroke-opacity="1" stroke-miterlimit="4"/></g><g clip-path="url(#31de6b75c6)"><path fill="#1c2c3b" d="M 1366.417969 563.789062 L 1565.984375 679.003906 C 1571.050781 681.929688 1577.28125 681.929688 1582.347656 679.003906 C 1587.410156 676.085938 1590.53125 670.683594 1590.53125 664.832031 L 1590.53125 434.386719 C 1590.53125 428.535156 1587.410156 423.136719 1582.347656 420.214844 C 1579.816406 418.734375 1576.988281 418.019531 1574.164062 418.019531 C 1571.339844 418.019531 1568.515625 418.757812 1565.984375 420.214844 L 1366.417969 535.429688 C 1361.339844 538.355469 1358.238281 543.753906 1358.238281 549.605469 C 1358.238281 555.453125 1361.351562 560.859375 1366.417969 563.789062 Z M 1366.417969 563.789062 " fill-opacity="1" fill-rule="nonzero"/></g><g clip-path="url(#400c303c95)"><path fill="#1c2c3b" d="M 255.683594 134.691406 C 255.683594 149.9375 268.042969 162.316406 283.304688 162.316406 C 298.570312 162.316406 310.929688 149.9375 310.929688 134.691406 C 310.929688 119.445312 298.570312 107.070312 283.304688 107.070312 C 268.042969 107.070312 255.683594 119.445312 255.683594 134.691406 Z M 329.082031 134.691406 C 329.082031 149.9375 341.457031 162.316406 356.703125 162.316406 C 371.949219 162.316406 384.324219 149.9375 384.324219 134.691406 C 384.324219 119.445312 371.949219 107.070312 356.703125 107.070312 C 341.457031 107.070312 329.082031 119.445312 329.082031 134.691406 Z M 209.910156 107.070312 C 225.171875 107.070312 237.53125 119.445312 237.53125 134.691406 C 237.53125 149.9375 225.171875 162.316406 209.910156 162.316406 C 194.664062 162.316406 182.285156 149.9375 182.285156 134.691406 C 182.285156 119.445312 194.664062 107.070312 209.910156 107.070312 " fill-opacity="1" fill-rule="nonzero"/></g></svg>