<svg xmlns="http://www.w3.org/2000/svg" xmlns:xlink="http://www.w3.org/1999/xlink" width="850" zoomAndPan="magnify" viewBox="0 0 637.5 1124.99995" height="1500" preserveAspectRatio="xMidYMid meet" version="1.0"><defs><clipPath id="cffbf9b044"><path d="M 192 10.824219 L 424 10.824219 L 424 186 L 192 186 Z M 192 10.824219 " clip-rule="nonzero"/></clipPath></defs><g clip-path="url(#cffbf9b044)"><path fill="#01443a" d="M 308.15625 10.917969 L 192.414062 185.640625 L 423.15625 185.648438 Z M 308.15625 10.917969 " fill-opacity="1" fill-rule="nonzero"/></g><path fill="#01443a" d="M 346.65625 912.675781 L 266.203125 912.675781 L 266.203125 131.351562 L 346.65625 131.351562 L 346.65625 912.675781 " fill-opacity="1" fill-rule="nonzero"/><path fill="#21917b" d="M 387.621094 258.691406 L 271.875 429.960938 L 502.625 429.96875 Z M 387.621094 258.691406 " fill-opacity="1" fill-rule="nonzero"/><path fill="#8fc29f" d="M 521.378906 452.171875 L 406.128906 630.839844 L 636.878906 630.847656 Z M 521.378906 452.171875 " fill-opacity="1" fill-rule="nonzero"/><path fill="#8fc29f" d="M 560.371094 912.675781 L 479.917969 912.675781 L 479.917969 576.550781 L 560.371094 576.550781 L 560.371094 912.675781 " fill-opacity="1" fill-rule="nonzero"/><path fill="#8fc29f" d="M 115.664062 163.925781 L -0.0820312 338.648438 L 230.667969 338.65625 Z M 115.664062 163.925781 " fill-opacity="1" fill-rule="nonzero"/><path fill="#8fc29f" d="M 154.160156 912.675781 L 73.714844 912.675781 L 73.714844 284.355469 L 154.160156 284.355469 L 154.160156 912.675781 " fill-opacity="1" fill-rule="nonzero"/><path fill="#006a5a" d="M 268.175781 828.273438 L 266.203125 912.675781 L 370.425781 912.675781 C 370.425781 912.675781 377.753906 821.363281 370.347656 819.882812 C 362.945312 818.40625 268.175781 828.273438 268.175781 828.273438 " fill-opacity="1" fill-rule="nonzero"/><path fill="#01443a" d="M 331.355469 726.59375 C 331.355469 726.59375 379.230469 752.761719 398.972656 786.316406 C 418.71875 819.882812 422.664062 824.816406 427.109375 836.664062 C 431.554688 848.507812 439.445312 870.699219 439.445312 892.933594 C 439.445312 902.804688 439.445312 912.675781 439.445312 912.675781 L 342.703125 912.675781 C 342.703125 912.675781 351.59375 879.113281 322.964844 848.507812 C 288.351562 811.507812 271.632812 795.699219 271.632812 795.699219 L 331.355469 726.59375 " fill-opacity="1" fill-rule="nonzero"/><path fill="#01443a" d="M 249.914062 722.648438 C 249.914062 722.648438 192.167969 788.789062 184.269531 848.507812 C 179.203125 886.804688 181.3125 912.675781 181.3125 912.675781 L 285.949219 912.675781 C 285.949219 912.675781 274.367188 858.941406 317.039062 798.164062 C 349.613281 751.765625 356.03125 696.984375 356.03125 696.984375 L 266.695312 683.65625 L 249.914062 722.648438 " fill-opacity="1" fill-rule="nonzero"/><path fill="#21917b" d="M 346.164062 414.164062 C 346.164062 414.164062 356.03125 522.257812 309.148438 578.523438 C 272.953125 621.964844 174.175781 655.433594 173.414062 762.628906 C 172.921875 832.21875 184.269531 848.507812 184.269531 848.507812 C 184.269531 848.507812 194.140625 798.164062 240.539062 749.792969 C 285.238281 703.191406 382.910156 641.992188 402.429688 582.96875 C 422.664062 521.761719 426.617188 414.164062 426.617188 414.164062 L 346.164062 414.164062 " fill-opacity="1" fill-rule="nonzero"/><path fill="#006a5a" d="M 280.519531 547.425781 C 280.519531 547.425781 268.667969 588.394531 314.082031 621.964844 C 359.546875 655.566406 439.445312 680.203125 439.445312 759.664062 C 439.445312 827.824219 426.617188 836.664062 426.617188 836.664062 C 426.617188 836.664062 390.582031 781.976562 344.191406 745.355469 C 306.675781 715.738281 227.265625 702.289062 200.558594 646.148438 C 181.3125 605.667969 188.714844 548.914062 188.714844 548.914062 L 280.519531 547.425781 " fill-opacity="1" fill-rule="nonzero"/><path fill="#006a5a" d="M 229.933594 387.589844 L 115.410156 561.25 L 344.9375 565.773438 Z M 229.933594 387.589844 " fill-opacity="1" fill-rule="nonzero"/></svg>