<svg xmlns="http://www.w3.org/2000/svg" xmlns:xlink="http://www.w3.org/1999/xlink" width="2000" zoomAndPan="magnify" viewBox="0 0 1500 449.999984" height="600" preserveAspectRatio="xMidYMid meet" version="1.0"><defs><g/></defs><g fill="#01dbb0" fill-opacity="1"><g transform="translate(10.731003, 277.743352)"><g><path d="M 14.140625 0 L 14.140625 -147.3125 L 45.390625 -147.3125 L 45.390625 -84.203125 L 39.015625 -81.828125 C 40.472656 -86.597656 43.09375 -90.941406 46.875 -94.859375 C 50.664062 -98.773438 55.210938 -101.925781 60.515625 -104.3125 C 65.828125 -106.707031 71.40625 -107.90625 77.25 -107.90625 C 85.207031 -107.90625 91.90625 -106.273438 97.34375 -103.015625 C 102.789062 -99.765625 106.90625 -94.921875 109.6875 -88.484375 C 112.476562 -82.046875 113.875 -74.1875 113.875 -64.90625 L 113.875 0 L 81.828125 0 L 81.828125 -62.3125 C 81.828125 -66.5625 81.226562 -70.078125 80.03125 -72.859375 C 78.832031 -75.648438 77.003906 -77.738281 74.546875 -79.125 C 72.097656 -80.519531 69.082031 -81.15625 65.5 -81.03125 C 62.707031 -81.03125 60.117188 -80.597656 57.734375 -79.734375 C 55.347656 -78.867188 53.289062 -77.601562 51.5625 -75.9375 C 49.832031 -74.28125 48.46875 -72.390625 47.46875 -70.265625 C 46.476562 -68.148438 45.984375 -65.832031 45.984375 -63.3125 L 45.984375 0 L 30.265625 0 C 26.546875 0 23.359375 0 20.703125 0 C 18.046875 0 15.859375 0 14.140625 0 Z M 14.140625 0 "/></g></g></g><g fill="#01dbb0" fill-opacity="1"><g transform="translate(129.178903, 277.743352)"><g><path d="M 53.15625 1.796875 C 44.257812 1.796875 36.328125 -0.554688 29.359375 -5.265625 C 22.390625 -9.984375 16.847656 -16.488281 12.734375 -24.78125 C 8.617188 -33.082031 6.5625 -42.472656 6.5625 -52.953125 C 6.5625 -63.703125 8.617188 -73.191406 12.734375 -81.421875 C 16.847656 -89.648438 22.488281 -96.117188 29.65625 -100.828125 C 36.820312 -105.546875 44.988281 -107.90625 54.15625 -107.90625 C 59.195312 -107.90625 63.804688 -107.171875 67.984375 -105.703125 C 72.160156 -104.242188 75.84375 -102.21875 79.03125 -99.625 C 82.21875 -97.039062 84.9375 -94.054688 87.1875 -90.671875 C 89.445312 -87.296875 91.109375 -83.679688 92.171875 -79.828125 L 85.609375 -80.625 L 85.609375 -105.703125 L 117.25 -105.703125 L 117.25 0 L 85 0 L 85 -25.484375 L 92.171875 -25.6875 C 91.109375 -21.96875 89.378906 -18.445312 86.984375 -15.125 C 84.597656 -11.8125 81.679688 -8.894531 78.234375 -6.375 C 74.785156 -3.851562 70.9375 -1.859375 66.6875 -0.390625 C 62.445312 1.066406 57.9375 1.796875 53.15625 1.796875 Z M 61.90625 -25.078125 C 66.820312 -25.078125 71.070312 -26.207031 74.65625 -28.46875 C 78.238281 -30.726562 81.023438 -33.945312 83.015625 -38.125 C 85.003906 -42.300781 86 -47.242188 86 -52.953125 C 86 -58.660156 85.003906 -63.601562 83.015625 -67.78125 C 81.023438 -71.96875 78.238281 -75.222656 74.65625 -77.546875 C 71.070312 -79.867188 66.820312 -81.03125 61.90625 -81.03125 C 57.132812 -81.03125 52.988281 -79.867188 49.46875 -77.546875 C 45.957031 -75.222656 43.203125 -71.96875 41.203125 -67.78125 C 39.210938 -63.601562 38.21875 -58.660156 38.21875 -52.953125 C 38.21875 -47.242188 39.210938 -42.300781 41.203125 -38.125 C 43.203125 -33.945312 45.957031 -30.726562 49.46875 -28.46875 C 52.988281 -26.207031 57.132812 -25.078125 61.90625 -25.078125 Z M 61.90625 -25.078125 "/></g></g></g><g fill="#01dbb0" fill-opacity="1"><g transform="translate(252.404548, 277.743352)"><g><path d="M 60.515625 1.984375 C 50.296875 1.984375 41.140625 -0.398438 33.046875 -5.171875 C 24.953125 -9.953125 18.546875 -16.488281 13.828125 -24.78125 C 9.117188 -33.082031 6.765625 -42.472656 6.765625 -52.953125 C 6.765625 -63.441406 9.117188 -72.832031 13.828125 -81.125 C 18.546875 -89.414062 24.953125 -95.953125 33.046875 -100.734375 C 41.140625 -105.515625 50.296875 -107.90625 60.515625 -107.90625 C 69.941406 -107.90625 78.601562 -106.242188 86.5 -102.921875 C 94.394531 -99.609375 100.664062 -94.960938 105.3125 -88.984375 L 88 -68.28125 C 86.132812 -70.40625 83.941406 -72.394531 81.421875 -74.25 C 78.898438 -76.113281 76.113281 -77.578125 73.0625 -78.640625 C 70.007812 -79.703125 66.820312 -80.234375 63.5 -80.234375 C 58.457031 -80.234375 54.007812 -79.070312 50.15625 -76.75 C 46.3125 -74.425781 43.328125 -71.207031 41.203125 -67.09375 C 39.085938 -62.976562 38.03125 -58.265625 38.03125 -52.953125 C 38.03125 -47.910156 39.125 -43.332031 41.3125 -39.21875 C 43.5 -35.101562 46.515625 -31.847656 50.359375 -29.453125 C 54.210938 -27.066406 58.59375 -25.875 63.5 -25.875 C 66.957031 -25.875 70.144531 -26.304688 73.0625 -27.171875 C 75.976562 -28.035156 78.664062 -29.328125 81.125 -31.046875 C 83.582031 -32.773438 85.875 -34.898438 88 -37.421875 L 105.109375 -16.53125 C 100.597656 -10.820312 94.328125 -6.304688 86.296875 -2.984375 C 78.265625 0.328125 69.671875 1.984375 60.515625 1.984375 Z M 60.515625 1.984375 "/></g></g></g><g fill="#01dbb0" fill-opacity="1"><g transform="translate(352.93592, 277.743352)"><g><path d="M 44.796875 -31.0625 L 33.046875 -54.953125 L 82.421875 -105.703125 L 124.421875 -105.703125 Z M 14.140625 0 L 14.140625 -147.3125 L 45.984375 -147.3125 L 45.984375 0 Z M 85.796875 0 L 48.578125 -48.171875 L 71.078125 -65.703125 L 123.421875 0 Z M 85.796875 0 "/></g></g></g><g fill="#fafafa" fill-opacity="1"><g transform="translate(469.601038, 277.743352)"><g><path d="M 54.15625 2.1875 C 44.988281 2.1875 36.851562 -0.164062 29.75 -4.875 C 22.65625 -9.582031 17.050781 -16.082031 12.9375 -24.375 C 8.820312 -32.675781 6.765625 -42.132812 6.765625 -52.75 C 6.765625 -63.375 8.820312 -72.832031 12.9375 -81.125 C 17.050781 -89.414062 22.691406 -95.953125 29.859375 -100.734375 C 37.023438 -105.515625 45.253906 -107.90625 54.546875 -107.90625 C 59.328125 -107.90625 63.90625 -107.171875 68.28125 -105.703125 C 72.664062 -104.242188 76.648438 -102.253906 80.234375 -99.734375 C 83.816406 -97.210938 86.734375 -94.328125 88.984375 -91.078125 C 91.242188 -87.828125 92.570312 -84.476562 92.96875 -81.03125 L 85.40625 -79.234375 L 85.40625 -147.3125 L 117.453125 -147.3125 L 117.453125 0 L 87.796875 0 L 86 -24.09375 L 92.375 -23.09375 C 91.976562 -19.769531 90.679688 -16.582031 88.484375 -13.53125 C 86.296875 -10.476562 83.476562 -7.789062 80.03125 -5.46875 C 76.582031 -3.144531 72.632812 -1.289062 68.1875 0.09375 C 63.738281 1.488281 59.0625 2.1875 54.15625 2.1875 Z M 62.3125 -24.28125 C 67.21875 -24.28125 71.460938 -25.472656 75.046875 -27.859375 C 78.628906 -30.253906 81.382812 -33.578125 83.3125 -37.828125 C 85.238281 -42.078125 86.203125 -47.050781 86.203125 -52.75 C 86.203125 -58.59375 85.238281 -63.632812 83.3125 -67.875 C 81.382812 -72.125 78.628906 -75.441406 75.046875 -77.828125 C 71.460938 -80.222656 67.21875 -81.421875 62.3125 -81.421875 C 57.40625 -81.421875 53.191406 -80.222656 49.671875 -77.828125 C 46.148438 -75.441406 43.394531 -72.125 41.40625 -67.875 C 39.414062 -63.632812 38.421875 -58.59375 38.421875 -52.75 C 38.421875 -47.050781 39.414062 -42.078125 41.40625 -37.828125 C 43.394531 -33.578125 46.148438 -30.253906 49.671875 -27.859375 C 53.191406 -25.472656 57.40625 -24.28125 62.3125 -24.28125 Z M 62.3125 -24.28125 "/></g></g></g><g fill="#fafafa" fill-opacity="1"><g transform="translate(591.831279, 277.743352)"><g><path d="M 64.5 1.984375 C 52.820312 1.984375 42.671875 -0.367188 34.046875 -5.078125 C 25.421875 -9.785156 18.71875 -16.21875 13.9375 -24.375 C 9.15625 -32.539062 6.765625 -41.867188 6.765625 -52.359375 C 6.765625 -60.453125 8.09375 -67.882812 10.75 -74.65625 C 13.40625 -81.425781 17.117188 -87.296875 21.890625 -92.265625 C 26.671875 -97.242188 32.347656 -101.09375 38.921875 -103.8125 C 45.492188 -106.539062 52.691406 -107.90625 60.515625 -107.90625 C 67.953125 -107.90625 74.753906 -106.578125 80.921875 -103.921875 C 87.097656 -101.265625 92.441406 -97.546875 96.953125 -92.765625 C 101.460938 -87.992188 104.910156 -82.351562 107.296875 -75.84375 C 109.691406 -69.34375 110.753906 -62.242188 110.484375 -54.546875 L 110.296875 -45.984375 L 26.078125 -45.984375 L 21.5 -63.90625 L 84.40625 -63.90625 L 81.03125 -60.125 L 81.03125 -64.109375 C 80.757812 -67.421875 79.726562 -70.367188 77.9375 -72.953125 C 76.144531 -75.546875 73.785156 -77.570312 70.859375 -79.03125 C 67.941406 -80.488281 64.628906 -81.21875 60.921875 -81.21875 C 55.742188 -81.21875 51.328125 -80.1875 47.671875 -78.125 C 44.023438 -76.070312 41.269531 -73.085938 39.40625 -69.171875 C 37.550781 -65.265625 36.625 -60.457031 36.625 -54.75 C 36.625 -48.90625 37.851562 -43.828125 40.3125 -39.515625 C 42.769531 -35.203125 46.351562 -31.847656 51.0625 -29.453125 C 55.769531 -27.066406 61.378906 -25.875 67.890625 -25.875 C 72.398438 -25.875 76.410156 -26.535156 79.921875 -27.859375 C 83.441406 -29.191406 87.257812 -31.453125 91.375 -34.640625 L 106.3125 -13.53125 C 102.195312 -9.945312 97.816406 -7.023438 93.171875 -4.765625 C 88.523438 -2.515625 83.78125 -0.828125 78.9375 0.296875 C 74.09375 1.421875 69.28125 1.984375 64.5 1.984375 Z M 64.5 1.984375 "/></g></g></g><g fill="#fafafa" fill-opacity="1"><g transform="translate(700.524602, 277.743352)"><g><path d="M 14.140625 0 L 14.140625 -105.703125 L 44.390625 -105.703125 L 45.390625 -84.203125 L 39.015625 -81.828125 C 40.472656 -86.597656 43.09375 -90.941406 46.875 -94.859375 C 50.664062 -98.773438 55.210938 -101.925781 60.515625 -104.3125 C 65.828125 -106.707031 71.40625 -107.90625 77.25 -107.90625 C 85.207031 -107.90625 91.90625 -106.273438 97.34375 -103.015625 C 102.789062 -99.765625 106.90625 -94.921875 109.6875 -88.484375 C 112.476562 -82.046875 113.875 -74.1875 113.875 -64.90625 L 113.875 0 L 81.828125 0 L 81.828125 -62.3125 C 81.828125 -66.5625 81.226562 -70.078125 80.03125 -72.859375 C 78.832031 -75.648438 77.003906 -77.738281 74.546875 -79.125 C 72.097656 -80.519531 69.082031 -81.15625 65.5 -81.03125 C 62.707031 -81.03125 60.117188 -80.597656 57.734375 -79.734375 C 55.347656 -78.867188 53.289062 -77.601562 51.5625 -75.9375 C 49.832031 -74.28125 48.46875 -72.390625 47.46875 -70.265625 C 46.476562 -68.148438 45.984375 -65.832031 45.984375 -63.3125 L 45.984375 0 L 30.265625 0 C 26.546875 0 23.359375 0 20.703125 0 C 18.046875 0 15.859375 0 14.140625 0 Z M 14.140625 0 "/></g></g></g><g fill="#fafafa" fill-opacity="1"><g transform="translate(818.972513, 277.743352)"><g><path d="M 22.890625 0 L 22.890625 -132.390625 L 54.75 -132.390625 L 54.75 0 Z M 4.1875 -77.84375 L 4.1875 -105.703125 L 75.25 -105.703125 L 75.25 -77.84375 Z M 4.1875 -77.84375 "/></g></g></g><g fill="#fafafa" fill-opacity="1"><g transform="translate(890.240193, 277.743352)"><g><path d="M 53.15625 1.796875 C 44.257812 1.796875 36.328125 -0.554688 29.359375 -5.265625 C 22.390625 -9.984375 16.847656 -16.488281 12.734375 -24.78125 C 8.617188 -33.082031 6.5625 -42.472656 6.5625 -52.953125 C 6.5625 -63.703125 8.617188 -73.191406 12.734375 -81.421875 C 16.847656 -89.648438 22.488281 -96.117188 29.65625 -100.828125 C 36.820312 -105.546875 44.988281 -107.90625 54.15625 -107.90625 C 59.195312 -107.90625 63.804688 -107.171875 67.984375 -105.703125 C 72.160156 -104.242188 75.84375 -102.21875 79.03125 -99.625 C 82.21875 -97.039062 84.9375 -94.054688 87.1875 -90.671875 C 89.445312 -87.296875 91.109375 -83.679688 92.171875 -79.828125 L 85.609375 -80.625 L 85.609375 -105.703125 L 117.25 -105.703125 L 117.25 0 L 85 0 L 85 -25.484375 L 92.171875 -25.6875 C 91.109375 -21.96875 89.378906 -18.445312 86.984375 -15.125 C 84.597656 -11.8125 81.679688 -8.894531 78.234375 -6.375 C 74.785156 -3.851562 70.9375 -1.859375 66.6875 -0.390625 C 62.445312 1.066406 57.9375 1.796875 53.15625 1.796875 Z M 61.90625 -25.078125 C 66.820312 -25.078125 71.070312 -26.207031 74.65625 -28.46875 C 78.238281 -30.726562 81.023438 -33.945312 83.015625 -38.125 C 85.003906 -42.300781 86 -47.242188 86 -52.953125 C 86 -58.660156 85.003906 -63.601562 83.015625 -67.78125 C 81.023438 -71.96875 78.238281 -75.222656 74.65625 -77.546875 C 71.070312 -79.867188 66.820312 -81.03125 61.90625 -81.03125 C 57.132812 -81.03125 52.988281 -79.867188 49.46875 -77.546875 C 45.957031 -75.222656 43.203125 -71.96875 41.203125 -67.78125 C 39.210938 -63.601562 38.21875 -58.660156 38.21875 -52.953125 C 38.21875 -47.242188 39.210938 -42.300781 41.203125 -38.125 C 43.203125 -33.945312 45.957031 -30.726562 49.46875 -28.46875 C 52.988281 -26.207031 57.132812 -25.078125 61.90625 -25.078125 Z M 61.90625 -25.078125 "/></g></g></g><g fill="#fafafa" fill-opacity="1"><g transform="translate(1013.465826, 277.743352)"><g><path d="M 14.328125 0 L 14.328125 -147.3125 L 46.1875 -147.3125 L 46.1875 0 Z M 14.328125 0 "/></g></g></g><g fill="#fafafa" fill-opacity="1"><g transform="translate(1066.029969, 277.743352)"><g><path d="M 22.6875 1.984375 C 19.90625 1.984375 17.75 1.125 16.21875 -0.59375 C 14.695312 -2.320312 13.9375 -4.78125 13.9375 -7.96875 C 13.9375 -10.882812 14.734375 -13.269531 16.328125 -15.125 C 17.921875 -16.988281 20.039062 -17.921875 22.6875 -17.921875 C 25.476562 -17.921875 27.632812 -17.054688 29.15625 -15.328125 C 30.6875 -13.597656 31.453125 -11.144531 31.453125 -7.96875 C 31.453125 -5.039062 30.65625 -2.648438 29.0625 -0.796875 C 27.46875 1.054688 25.34375 1.984375 22.6875 1.984375 Z M 22.6875 1.984375 "/></g></g></g><g fill="#fafafa" fill-opacity="1"><g transform="translate(1103.455342, 277.743352)"><g><path d="M 57.9375 1.984375 C 47.976562 1.984375 39.113281 -0.332031 31.34375 -4.96875 C 23.582031 -9.613281 17.476562 -15.984375 13.03125 -24.078125 C 8.59375 -32.179688 6.375 -41.472656 6.375 -51.953125 C 6.375 -62.441406 8.59375 -71.734375 13.03125 -79.828125 C 17.476562 -87.921875 23.617188 -94.253906 31.453125 -98.828125 C 39.285156 -103.410156 48.3125 -105.703125 58.53125 -105.703125 C 67.019531 -105.703125 74.75 -104.039062 81.71875 -100.71875 C 88.6875 -97.40625 94.492188 -92.765625 99.140625 -86.796875 L 92.765625 -79.03125 C 89.847656 -82.613281 86.53125 -85.632812 82.8125 -88.09375 C 79.101562 -90.550781 75.125 -92.441406 70.875 -93.765625 C 66.625 -95.085938 62.242188 -95.75 57.734375 -95.75 C 49.898438 -95.75 42.929688 -93.859375 36.828125 -90.078125 C 30.722656 -86.296875 25.878906 -81.117188 22.296875 -74.546875 C 18.710938 -67.984375 16.921875 -60.453125 16.921875 -51.953125 C 16.921875 -43.460938 18.675781 -35.898438 22.1875 -29.265625 C 25.707031 -22.628906 30.519531 -17.421875 36.625 -13.640625 C 42.726562 -9.859375 49.566406 -7.96875 57.140625 -7.96875 C 61.515625 -7.96875 65.828125 -8.628906 70.078125 -9.953125 C 74.328125 -11.273438 78.304688 -13.164062 82.015625 -15.625 C 85.734375 -18.082031 89.117188 -21.101562 92.171875 -24.6875 L 98.546875 -16.921875 C 93.765625 -10.953125 87.753906 -6.304688 80.515625 -2.984375 C 73.285156 0.328125 65.757812 1.984375 57.9375 1.984375 Z M 57.9375 1.984375 "/></g></g></g><g fill="#fafafa" fill-opacity="1"><g transform="translate(1198.611748, 277.743352)"><g><path d="M 59.71875 1.984375 C 49.375 1.984375 40.1875 -0.332031 32.15625 -4.96875 C 24.125 -9.613281 17.816406 -16.050781 13.234375 -24.28125 C 8.660156 -32.507812 6.375 -41.867188 6.375 -52.359375 C 6.375 -62.710938 8.660156 -71.898438 13.234375 -79.921875 C 17.816406 -87.953125 24.125 -94.253906 32.15625 -98.828125 C 40.1875 -103.410156 49.375 -105.703125 59.71875 -105.703125 C 70.070312 -105.703125 79.265625 -103.410156 87.296875 -98.828125 C 95.328125 -94.253906 101.597656 -87.953125 106.109375 -79.921875 C 110.617188 -71.898438 112.875 -62.710938 112.875 -52.359375 C 112.875 -41.867188 110.617188 -32.507812 106.109375 -24.28125 C 101.597656 -16.050781 95.328125 -9.613281 87.296875 -4.96875 C 79.265625 -0.332031 70.070312 1.984375 59.71875 1.984375 Z M 59.71875 -7.96875 C 67.945312 -7.96875 75.28125 -9.890625 81.71875 -13.734375 C 88.15625 -17.585938 93.195312 -22.832031 96.84375 -29.46875 C 100.5 -36.101562 102.328125 -43.734375 102.328125 -52.359375 C 102.328125 -60.722656 100.5 -68.1875 96.84375 -74.75 C 93.195312 -81.320312 88.15625 -86.460938 81.71875 -90.171875 C 75.28125 -93.890625 67.945312 -95.75 59.71875 -95.75 C 51.363281 -95.75 43.96875 -93.890625 37.53125 -90.171875 C 31.09375 -86.460938 26.046875 -81.320312 22.390625 -74.75 C 18.742188 -68.1875 16.921875 -60.722656 16.921875 -52.359375 C 16.921875 -43.734375 18.742188 -36.101562 22.390625 -29.46875 C 26.046875 -22.832031 31.09375 -17.585938 37.53125 -13.734375 C 43.96875 -9.890625 51.363281 -7.96875 59.71875 -7.96875 Z M 59.71875 -7.96875 "/></g></g></g><g fill="#fafafa" fill-opacity="1"><g transform="translate(1309.893018, 277.743352)"><g><path d="M 14.53125 0 L 14.53125 -103.515625 L 24.09375 -103.515625 L 25.078125 -78.4375 L 22.6875 -78.828125 C 23.882812 -83.078125 25.773438 -86.859375 28.359375 -90.171875 C 30.953125 -93.492188 34.003906 -96.316406 37.515625 -98.640625 C 41.035156 -100.960938 44.921875 -102.71875 49.171875 -103.90625 C 53.421875 -105.101562 57.929688 -105.703125 62.703125 -105.703125 C 67.753906 -105.703125 72.367188 -104.835938 76.546875 -103.109375 C 80.722656 -101.390625 84.335938 -98.273438 87.390625 -93.765625 C 90.441406 -89.253906 92.832031 -82.882812 94.5625 -74.65625 L 90.578125 -77.4375 L 91.96875 -80.828125 C 93.300781 -84.015625 95.226562 -87.097656 97.75 -90.078125 C 100.269531 -93.066406 103.253906 -95.722656 106.703125 -98.046875 C 110.148438 -100.367188 114.03125 -102.222656 118.34375 -103.609375 C 122.664062 -105.003906 127.28125 -105.703125 132.1875 -105.703125 C 139.09375 -105.703125 145 -104.175781 149.90625 -101.125 C 154.8125 -98.070312 158.554688 -93.359375 161.140625 -86.984375 C 163.734375 -80.617188 165.03125 -72.523438 165.03125 -62.703125 L 165.03125 0 L 155.078125 0 L 155.078125 -62.3125 C 155.078125 -70.007812 154.113281 -76.34375 152.1875 -81.3125 C 150.269531 -86.289062 147.421875 -90.007812 143.640625 -92.46875 C 139.859375 -94.925781 135.175781 -96.15625 129.59375 -96.15625 C 124.414062 -96.15625 119.703125 -95.257812 115.453125 -93.46875 C 111.210938 -91.675781 107.566406 -89.253906 104.515625 -86.203125 C 101.460938 -83.148438 99.070312 -79.664062 97.34375 -75.75 C 95.625 -71.832031 94.765625 -67.6875 94.765625 -63.3125 L 94.765625 0 L 84.8125 0 L 84.8125 -62.3125 C 84.8125 -70.007812 83.847656 -76.34375 81.921875 -81.3125 C 79.992188 -86.289062 77.101562 -90.007812 73.25 -92.46875 C 69.40625 -94.925781 64.695312 -96.15625 59.125 -96.15625 C 54.082031 -96.15625 49.4375 -95.257812 45.1875 -93.46875 C 40.9375 -91.675781 37.285156 -89.253906 34.234375 -86.203125 C 31.179688 -83.148438 28.789062 -79.664062 27.0625 -75.75 C 25.34375 -71.832031 24.484375 -67.6875 24.484375 -63.3125 L 24.484375 0 Z M 14.53125 0 "/></g></g></g></svg>