<svg xmlns="http://www.w3.org/2000/svg" xmlns:xlink="http://www.w3.org/1999/xlink" width="2400" zoomAndPan="magnify" viewBox="0 0 1800 862.499974" height="1150" preserveAspectRatio="xMidYMid meet" version="1.0"><defs><g/></defs><g fill="#c9dfd0" fill-opacity="1"><g transform="translate(20.81577, 671.824616)"><g><path d="M 13.484375 0 L 13.484375 -91.6875 L 23.453125 -91.6875 L 58.6875 -34.453125 L 53.96875 -34.578125 L 89.59375 -91.6875 L 98.890625 -91.6875 L 98.890625 0 L 88.671875 0 L 88.671875 -41.921875 C 88.671875 -49.773438 88.800781 -56.84375 89.0625 -63.125 C 89.332031 -69.414062 89.816406 -75.660156 90.515625 -81.859375 L 92.34375 -78.203125 L 59.46875 -26.59375 L 52.390625 -26.59375 L 20.4375 -77.546875 L 21.875 -81.859375 C 22.570312 -76.015625 23.050781 -70.015625 23.3125 -63.859375 C 23.570312 -57.703125 23.703125 -50.390625 23.703125 -41.921875 L 23.703125 0 Z M 13.484375 0 "/></g></g></g><g fill="#c9dfd0" fill-opacity="1"><g transform="translate(133.181569, 671.824616)"><g><path d="M 36.28125 1.3125 C 30.34375 1.3125 24.972656 -0.234375 20.171875 -3.328125 C 15.367188 -6.429688 11.566406 -10.664062 8.765625 -16.03125 C 5.972656 -21.40625 4.578125 -27.5 4.578125 -34.3125 C 4.578125 -41.21875 6.019531 -47.332031 8.90625 -52.65625 C 11.789062 -57.976562 15.65625 -62.164062 20.5 -65.21875 C 25.34375 -68.28125 30.78125 -69.8125 36.8125 -69.8125 C 40.382812 -69.8125 43.695312 -69.285156 46.75 -68.234375 C 49.8125 -67.191406 52.539062 -65.726562 54.9375 -63.84375 C 57.34375 -61.96875 59.351562 -59.785156 60.96875 -57.296875 C 62.582031 -54.816406 63.695312 -52.132812 64.3125 -49.25 L 61.4375 -50.6875 L 61.828125 -68.375 L 71.640625 -68.375 L 71.640625 0 L 61.6875 0 L 61.6875 -16.765625 L 64.3125 -18.46875 C 63.695312 -15.851562 62.515625 -13.34375 60.765625 -10.9375 C 59.023438 -8.53125 56.910156 -6.410156 54.421875 -4.578125 C 51.929688 -2.742188 49.132812 -1.300781 46.03125 -0.25 C 42.9375 0.789062 39.6875 1.3125 36.28125 1.3125 Z M 38.515625 -8.125 C 43.054688 -8.125 47.113281 -9.234375 50.6875 -11.453125 C 54.269531 -13.679688 57.085938 -16.78125 59.140625 -20.75 C 61.191406 -24.726562 62.21875 -29.25 62.21875 -34.3125 C 62.21875 -39.382812 61.191406 -43.882812 59.140625 -47.8125 C 57.085938 -51.738281 54.269531 -54.835938 50.6875 -57.109375 C 47.113281 -59.378906 43.054688 -60.515625 38.515625 -60.515625 C 33.878906 -60.515625 29.789062 -59.378906 26.25 -57.109375 C 22.71875 -54.835938 19.925781 -51.738281 17.875 -47.8125 C 15.820312 -43.882812 14.796875 -39.382812 14.796875 -34.3125 C 14.796875 -29.34375 15.800781 -24.867188 17.8125 -20.890625 C 19.820312 -16.921875 22.613281 -13.800781 26.1875 -11.53125 C 29.769531 -9.257812 33.878906 -8.125 38.515625 -8.125 Z M 38.515625 -8.125 "/></g></g></g><g fill="#c9dfd0" fill-opacity="1"><g transform="translate(214.378319, 671.824616)"><g><path d="M 9.5625 0 L 9.5625 -68.375 L 19.390625 -68.375 L 19.640625 -50.171875 L 18.59375 -52.65625 C 19.5625 -55.707031 21.113281 -58.539062 23.25 -61.15625 C 25.382812 -63.78125 27.9375 -65.878906 30.90625 -67.453125 C 33.875 -69.023438 37.148438 -69.8125 40.734375 -69.8125 C 42.222656 -69.8125 43.617188 -69.703125 44.921875 -69.484375 C 46.234375 -69.265625 47.328125 -68.984375 48.203125 -68.640625 L 45.453125 -57.640625 C 44.316406 -58.160156 43.160156 -58.53125 41.984375 -58.75 C 40.804688 -58.96875 39.691406 -59.078125 38.640625 -59.078125 C 35.671875 -59.078125 33.003906 -58.550781 30.640625 -57.5 C 28.285156 -56.457031 26.28125 -54.992188 24.625 -53.109375 C 22.96875 -51.234375 21.703125 -49.070312 20.828125 -46.625 C 19.953125 -44.1875 19.515625 -41.566406 19.515625 -38.765625 L 19.515625 0 Z M 9.5625 0 "/></g></g></g><g fill="#c9dfd0" fill-opacity="1"><g transform="translate(263.227346, 671.824616)"><g><path d="M 18.34375 -22 L 17.9375 -33.40625 L 53.703125 -68.375 L 66.9375 -68.375 Z M 9.5625 0 L 9.5625 -96.921875 L 19.390625 -96.921875 L 19.390625 0 Z M 56.453125 0 L 27.640625 -33.40625 L 34.578125 -40.21875 L 69.296875 0 Z M 56.453125 0 "/></g></g></g><g fill="#c9dfd0" fill-opacity="1"><g transform="translate(333.685153, 671.824616)"><g><path d="M 39.6875 1.3125 C 32.875 1.3125 26.828125 -0.171875 21.546875 -3.140625 C 16.265625 -6.109375 12.140625 -10.253906 9.171875 -15.578125 C 6.203125 -20.910156 4.71875 -27.023438 4.71875 -33.921875 C 4.71875 -39.253906 5.546875 -44.078125 7.203125 -48.390625 C 8.859375 -52.710938 11.191406 -56.488281 14.203125 -59.71875 C 17.222656 -62.957031 20.828125 -65.472656 25.015625 -67.265625 C 29.210938 -69.054688 33.753906 -69.953125 38.640625 -69.953125 C 43.265625 -69.953125 47.476562 -69.117188 51.28125 -67.453125 C 55.082031 -65.796875 58.359375 -63.503906 61.109375 -60.578125 C 63.859375 -57.648438 65.929688 -54.175781 67.328125 -50.15625 C 68.722656 -46.144531 69.332031 -41.738281 69.15625 -36.9375 L 69.03125 -32.359375 L 12.046875 -32.359375 L 10.609375 -40.609375 L 61.5625 -40.609375 L 59.203125 -38.375 L 59.203125 -41.515625 C 59.023438 -44.660156 58.109375 -47.695312 56.453125 -50.625 C 54.796875 -53.550781 52.457031 -55.929688 49.4375 -57.765625 C 46.425781 -59.597656 42.828125 -60.515625 38.640625 -60.515625 C 33.753906 -60.515625 29.519531 -59.53125 25.9375 -57.5625 C 22.351562 -55.601562 19.597656 -52.703125 17.671875 -48.859375 C 15.753906 -45.015625 14.796875 -40.253906 14.796875 -34.578125 C 14.796875 -29.160156 15.84375 -24.46875 17.9375 -20.5 C 20.039062 -16.53125 23.035156 -13.453125 26.921875 -11.265625 C 30.804688 -9.078125 35.5 -7.984375 41 -7.984375 C 44.226562 -7.984375 47.4375 -8.53125 50.625 -9.625 C 53.8125 -10.71875 57.328125 -12.878906 61.171875 -16.109375 L 66.28125 -9.03125 C 64.269531 -7.03125 61.863281 -5.265625 59.0625 -3.734375 C 56.269531 -2.203125 53.210938 -0.976562 49.890625 -0.0625 C 46.578125 0.851562 43.175781 1.3125 39.6875 1.3125 Z M 39.6875 1.3125 "/></g></g></g><g fill="#c9dfd0" fill-opacity="1"><g transform="translate(407.286085, 671.824616)"><g><path d="M 19 0 L 19 -86.3125 L 28.8125 -86.3125 L 28.8125 0 Z M 3.53125 -58.9375 L 3.53125 -68.375 L 46.109375 -68.375 L 46.109375 -58.9375 Z M 3.53125 -58.9375 "/></g></g></g><g fill="#c9dfd0" fill-opacity="1"><g transform="translate(455.873114, 671.824616)"><g><path d="M 12.1875 0 L 12.1875 -68.375 L 22 -68.375 L 22 0 Z M 17.03125 -83.171875 C 14.582031 -83.171875 12.722656 -83.800781 11.453125 -85.0625 C 10.191406 -86.332031 9.5625 -88.0625 9.5625 -90.25 C 9.5625 -92.425781 10.210938 -94.171875 11.515625 -95.484375 C 12.828125 -96.796875 14.664062 -97.453125 17.03125 -97.453125 C 19.382812 -97.453125 21.21875 -96.816406 22.53125 -95.546875 C 23.84375 -94.285156 24.5 -92.519531 24.5 -90.25 C 24.5 -88.15625 23.84375 -86.453125 22.53125 -85.140625 C 21.21875 -83.828125 19.382812 -83.171875 17.03125 -83.171875 Z M 17.03125 -83.171875 "/></g></g></g><g fill="#c9dfd0" fill-opacity="1"><g transform="translate(489.792399, 671.824616)"><g><path d="M 9.5625 0 L 9.5625 -68.375 L 19.25 -68.375 L 19.640625 -54.09375 L 18.078125 -53.4375 C 18.953125 -56.40625 20.65625 -59.113281 23.1875 -61.5625 C 25.71875 -64.007812 28.75 -65.992188 32.28125 -67.515625 C 35.820312 -69.046875 39.46875 -69.8125 43.21875 -69.8125 C 48.289062 -69.8125 52.523438 -68.804688 55.921875 -66.796875 C 59.328125 -64.796875 61.90625 -61.695312 63.65625 -57.5 C 65.40625 -53.3125 66.28125 -47.984375 66.28125 -41.515625 L 66.28125 0 L 56.328125 0 L 56.328125 -41 C 56.328125 -45.539062 55.734375 -49.269531 54.546875 -52.1875 C 53.367188 -55.113281 51.554688 -57.273438 49.109375 -58.671875 C 46.671875 -60.078125 43.660156 -60.734375 40.078125 -60.640625 C 37.109375 -60.640625 34.359375 -60.140625 31.828125 -59.140625 C 29.296875 -58.140625 27.113281 -56.765625 25.28125 -55.015625 C 23.445312 -53.265625 22.003906 -51.253906 20.953125 -48.984375 C 19.910156 -46.710938 19.390625 -44.269531 19.390625 -41.65625 L 19.390625 0 L 14.546875 0 C 13.929688 0 13.226562 0 12.4375 0 C 11.65625 0 10.695312 0 9.5625 0 Z M 9.5625 0 "/></g></g></g><g fill="#c9dfd0" fill-opacity="1"><g transform="translate(565.226787, 671.824616)"><g><path d="M 39.03125 30.125 C 33.96875 30.125 29.164062 29.335938 24.625 27.765625 C 20.082031 26.191406 16.328125 24.226562 13.359375 21.875 L 17.296875 13.625 C 19.035156 15.019531 21.0625 16.265625 23.375 17.359375 C 25.695312 18.453125 28.207031 19.320312 30.90625 19.96875 C 33.613281 20.625 36.367188 20.953125 39.171875 20.953125 C 44.234375 20.953125 48.53125 20.015625 52.0625 18.140625 C 55.601562 16.265625 58.3125 13.492188 60.1875 9.828125 C 62.0625 6.160156 63 1.617188 63 -3.796875 L 63 -16.890625 L 64.578125 -17.296875 C 63.785156 -13.972656 62.078125 -10.890625 59.453125 -8.046875 C 56.835938 -5.210938 53.648438 -2.941406 49.890625 -1.234375 C 46.140625 0.460938 42.171875 1.3125 37.984375 1.3125 C 31.609375 1.3125 25.910156 -0.210938 20.890625 -3.265625 C 15.867188 -6.328125 11.914062 -10.539062 9.03125 -15.90625 C 6.15625 -21.28125 4.71875 -27.375 4.71875 -34.1875 C 4.71875 -41.082031 6.175781 -47.210938 9.09375 -52.578125 C 12.019531 -57.953125 15.972656 -62.164062 20.953125 -65.21875 C 25.929688 -68.28125 31.519531 -69.8125 37.71875 -69.8125 C 40.425781 -69.8125 43.046875 -69.484375 45.578125 -68.828125 C 48.109375 -68.171875 50.441406 -67.234375 52.578125 -66.015625 C 54.722656 -64.796875 56.664062 -63.398438 58.40625 -61.828125 C 60.15625 -60.253906 61.617188 -58.550781 62.796875 -56.71875 C 63.984375 -54.882812 64.835938 -53.003906 65.359375 -51.078125 L 62.609375 -51.484375 L 63 -68.375 L 72.828125 -68.375 L 72.828125 -4.1875 C 72.828125 1.3125 72.039062 6.175781 70.46875 10.40625 C 68.894531 14.644531 66.601562 18.226562 63.59375 21.15625 C 60.582031 24.082031 57 26.304688 52.84375 27.828125 C 48.695312 29.359375 44.09375 30.125 39.03125 30.125 Z M 39.171875 -8.125 C 43.796875 -8.125 47.921875 -9.234375 51.546875 -11.453125 C 55.171875 -13.679688 58.03125 -16.757812 60.125 -20.6875 C 62.21875 -24.625 63.265625 -29.164062 63.265625 -34.3125 C 63.265625 -39.382812 62.238281 -43.882812 60.1875 -47.8125 C 58.132812 -51.738281 55.273438 -54.835938 51.609375 -57.109375 C 47.941406 -59.378906 43.796875 -60.515625 39.171875 -60.515625 C 34.453125 -60.515625 30.28125 -59.378906 26.65625 -57.109375 C 23.03125 -54.835938 20.171875 -51.738281 18.078125 -47.8125 C 15.984375 -43.882812 14.9375 -39.382812 14.9375 -34.3125 C 14.9375 -29.34375 15.960938 -24.867188 18.015625 -20.890625 C 20.066406 -16.921875 22.898438 -13.800781 26.515625 -11.53125 C 30.140625 -9.257812 34.359375 -8.125 39.171875 -8.125 Z M 39.171875 -8.125 "/></g></g></g><g fill="#c9dfd0" fill-opacity="1"><g transform="translate(647.602209, 671.824616)"><g/></g></g><g fill="#c9dfd0" fill-opacity="1"><g transform="translate(684.271729, 671.824616)"><g><path d="M 9.5625 28.8125 L 9.5625 -68.375 L 19.390625 -68.375 L 19.640625 -51.734375 L 17.8125 -51.484375 C 18.601562 -54.796875 20.304688 -57.828125 22.921875 -60.578125 C 25.546875 -63.328125 28.734375 -65.53125 32.484375 -67.1875 C 36.234375 -68.851562 40.207031 -69.6875 44.40625 -69.6875 C 50.519531 -69.6875 56 -68.15625 60.84375 -65.09375 C 65.6875 -62.039062 69.546875 -57.847656 72.421875 -52.515625 C 75.304688 -47.191406 76.75 -41.082031 76.75 -34.1875 C 76.75 -27.375 75.351562 -21.300781 72.5625 -15.96875 C 69.769531 -10.644531 65.925781 -6.429688 61.03125 -3.328125 C 56.144531 -0.234375 50.644531 1.3125 44.53125 1.3125 C 40.25 1.3125 36.1875 0.441406 32.34375 -1.296875 C 28.507812 -3.046875 25.238281 -5.335938 22.53125 -8.171875 C 19.820312 -11.015625 18.03125 -14.097656 17.15625 -17.421875 L 19.515625 -17.421875 L 19.515625 28.8125 Z M 42.96875 -8.125 C 47.59375 -8.125 51.691406 -9.257812 55.265625 -11.53125 C 58.847656 -13.800781 61.6875 -16.898438 63.78125 -20.828125 C 65.882812 -24.753906 66.9375 -29.207031 66.9375 -34.1875 C 66.9375 -39.25 65.882812 -43.742188 63.78125 -47.671875 C 61.6875 -51.609375 58.847656 -54.710938 55.265625 -56.984375 C 51.691406 -59.253906 47.59375 -60.390625 42.96875 -60.390625 C 38.332031 -60.390625 34.203125 -59.273438 30.578125 -57.046875 C 26.960938 -54.816406 24.101562 -51.738281 22 -47.8125 C 19.90625 -43.882812 18.859375 -39.382812 18.859375 -34.3125 C 18.859375 -29.25 19.90625 -24.753906 22 -20.828125 C 24.101562 -16.898438 26.960938 -13.800781 30.578125 -11.53125 C 34.203125 -9.257812 38.332031 -8.125 42.96875 -8.125 Z M 42.96875 -8.125 "/></g></g></g><g fill="#c9dfd0" fill-opacity="1"><g transform="translate(765.73037, 671.824616)"><g><path d="M 36.28125 1.3125 C 30.34375 1.3125 24.972656 -0.234375 20.171875 -3.328125 C 15.367188 -6.429688 11.566406 -10.664062 8.765625 -16.03125 C 5.972656 -21.40625 4.578125 -27.5 4.578125 -34.3125 C 4.578125 -41.21875 6.019531 -47.332031 8.90625 -52.65625 C 11.789062 -57.976562 15.65625 -62.164062 20.5 -65.21875 C 25.34375 -68.28125 30.78125 -69.8125 36.8125 -69.8125 C 40.382812 -69.8125 43.695312 -69.285156 46.75 -68.234375 C 49.8125 -67.191406 52.539062 -65.726562 54.9375 -63.84375 C 57.34375 -61.96875 59.351562 -59.785156 60.96875 -57.296875 C 62.582031 -54.816406 63.695312 -52.132812 64.3125 -49.25 L 61.4375 -50.6875 L 61.828125 -68.375 L 71.640625 -68.375 L 71.640625 0 L 61.6875 0 L 61.6875 -16.765625 L 64.3125 -18.46875 C 63.695312 -15.851562 62.515625 -13.34375 60.765625 -10.9375 C 59.023438 -8.53125 56.910156 -6.410156 54.421875 -4.578125 C 51.929688 -2.742188 49.132812 -1.300781 46.03125 -0.25 C 42.9375 0.789062 39.6875 1.3125 36.28125 1.3125 Z M 38.515625 -8.125 C 43.054688 -8.125 47.113281 -9.234375 50.6875 -11.453125 C 54.269531 -13.679688 57.085938 -16.78125 59.140625 -20.75 C 61.191406 -24.726562 62.21875 -29.25 62.21875 -34.3125 C 62.21875 -39.382812 61.191406 -43.882812 59.140625 -47.8125 C 57.085938 -51.738281 54.269531 -54.835938 50.6875 -57.109375 C 47.113281 -59.378906 43.054688 -60.515625 38.515625 -60.515625 C 33.878906 -60.515625 29.789062 -59.378906 26.25 -57.109375 C 22.71875 -54.835938 19.925781 -51.738281 17.875 -47.8125 C 15.820312 -43.882812 14.796875 -39.382812 14.796875 -34.3125 C 14.796875 -29.34375 15.800781 -24.867188 17.8125 -20.890625 C 19.820312 -16.921875 22.613281 -13.800781 26.1875 -11.53125 C 29.769531 -9.257812 33.878906 -8.125 38.515625 -8.125 Z M 38.515625 -8.125 "/></g></g></g><g fill="#c9dfd0" fill-opacity="1"><g transform="translate(846.92712, 671.824616)"><g><path d="M 9.5625 0 L 9.5625 -68.375 L 19.390625 -68.375 L 19.640625 -50.171875 L 18.59375 -52.65625 C 19.5625 -55.707031 21.113281 -58.539062 23.25 -61.15625 C 25.382812 -63.78125 27.9375 -65.878906 30.90625 -67.453125 C 33.875 -69.023438 37.148438 -69.8125 40.734375 -69.8125 C 42.222656 -69.8125 43.617188 -69.703125 44.921875 -69.484375 C 46.234375 -69.265625 47.328125 -68.984375 48.203125 -68.640625 L 45.453125 -57.640625 C 44.316406 -58.160156 43.160156 -58.53125 41.984375 -58.75 C 40.804688 -58.96875 39.691406 -59.078125 38.640625 -59.078125 C 35.671875 -59.078125 33.003906 -58.550781 30.640625 -57.5 C 28.285156 -56.457031 26.28125 -54.992188 24.625 -53.109375 C 22.96875 -51.234375 21.703125 -49.070312 20.828125 -46.625 C 19.953125 -44.1875 19.515625 -41.566406 19.515625 -38.765625 L 19.515625 0 Z M 9.5625 0 "/></g></g></g><g fill="#c9dfd0" fill-opacity="1"><g transform="translate(895.776148, 671.824616)"><g><path d="M 36.28125 1.3125 C 30.34375 1.3125 24.972656 -0.234375 20.171875 -3.328125 C 15.367188 -6.429688 11.566406 -10.664062 8.765625 -16.03125 C 5.972656 -21.40625 4.578125 -27.5 4.578125 -34.3125 C 4.578125 -41.21875 6.019531 -47.332031 8.90625 -52.65625 C 11.789062 -57.976562 15.65625 -62.164062 20.5 -65.21875 C 25.34375 -68.28125 30.78125 -69.8125 36.8125 -69.8125 C 40.382812 -69.8125 43.695312 -69.285156 46.75 -68.234375 C 49.8125 -67.191406 52.539062 -65.726562 54.9375 -63.84375 C 57.34375 -61.96875 59.351562 -59.785156 60.96875 -57.296875 C 62.582031 -54.816406 63.695312 -52.132812 64.3125 -49.25 L 61.4375 -50.6875 L 61.828125 -68.375 L 71.640625 -68.375 L 71.640625 0 L 61.6875 0 L 61.6875 -16.765625 L 64.3125 -18.46875 C 63.695312 -15.851562 62.515625 -13.34375 60.765625 -10.9375 C 59.023438 -8.53125 56.910156 -6.410156 54.421875 -4.578125 C 51.929688 -2.742188 49.132812 -1.300781 46.03125 -0.25 C 42.9375 0.789062 39.6875 1.3125 36.28125 1.3125 Z M 38.515625 -8.125 C 43.054688 -8.125 47.113281 -9.234375 50.6875 -11.453125 C 54.269531 -13.679688 57.085938 -16.78125 59.140625 -20.75 C 61.191406 -24.726562 62.21875 -29.25 62.21875 -34.3125 C 62.21875 -39.382812 61.191406 -43.882812 59.140625 -47.8125 C 57.085938 -51.738281 54.269531 -54.835938 50.6875 -57.109375 C 47.113281 -59.378906 43.054688 -60.515625 38.515625 -60.515625 C 33.878906 -60.515625 29.789062 -59.378906 26.25 -57.109375 C 22.71875 -54.835938 19.925781 -51.738281 17.875 -47.8125 C 15.820312 -43.882812 14.796875 -39.382812 14.796875 -34.3125 C 14.796875 -29.34375 15.800781 -24.867188 17.8125 -20.890625 C 19.820312 -16.921875 22.613281 -13.800781 26.1875 -11.53125 C 29.769531 -9.257812 33.878906 -8.125 38.515625 -8.125 Z M 38.515625 -8.125 "/></g></g></g><g fill="#c9dfd0" fill-opacity="1"><g transform="translate(976.972898, 671.824616)"><g/></g></g><g fill="#c9dfd0" fill-opacity="1"><g transform="translate(1013.642418, 671.824616)"><g><path d="M 51.484375 1.3125 C 44.929688 1.3125 38.90625 0.15625 33.40625 -2.15625 C 27.90625 -4.46875 23.144531 -7.742188 19.125 -11.984375 C 15.101562 -16.222656 11.976562 -21.222656 9.75 -26.984375 C 7.53125 -32.742188 6.421875 -39.03125 6.421875 -45.84375 C 6.421875 -52.570312 7.53125 -58.75 9.75 -64.375 C 11.976562 -70.007812 15.144531 -74.941406 19.25 -79.171875 C 23.351562 -83.410156 28.113281 -86.664062 33.53125 -88.9375 C 38.945312 -91.207031 44.882812 -92.34375 51.34375 -92.34375 C 55.625 -92.34375 59.859375 -91.664062 64.046875 -90.3125 C 68.242188 -88.957031 72.109375 -87.097656 75.640625 -84.734375 C 79.179688 -82.378906 82.085938 -79.675781 84.359375 -76.625 L 77.28125 -69.296875 C 75.09375 -71.910156 72.578125 -74.175781 69.734375 -76.09375 C 66.898438 -78.019531 63.910156 -79.503906 60.765625 -80.546875 C 57.628906 -81.597656 54.488281 -82.125 51.34375 -82.125 C 46.457031 -82.125 41.894531 -81.226562 37.65625 -79.4375 C 33.425781 -77.644531 29.78125 -75.132812 26.71875 -71.90625 C 23.664062 -68.675781 21.285156 -64.832031 19.578125 -60.375 C 17.878906 -55.925781 17.03125 -51.082031 17.03125 -45.84375 C 17.03125 -40.425781 17.878906 -35.445312 19.578125 -30.90625 C 21.285156 -26.363281 23.734375 -22.457031 26.921875 -19.1875 C 30.109375 -15.914062 33.863281 -13.382812 38.1875 -11.59375 C 42.507812 -9.800781 47.332031 -8.90625 52.65625 -8.90625 C 55.800781 -8.90625 58.941406 -9.363281 62.078125 -10.28125 C 65.222656 -11.195312 68.101562 -12.484375 70.71875 -14.140625 C 73.34375 -15.804688 75.570312 -17.6875 77.40625 -19.78125 L 82.65625 -11.265625 C 80.644531 -8.816406 77.957031 -6.65625 74.59375 -4.78125 C 71.226562 -2.90625 67.535156 -1.421875 63.515625 -0.328125 C 59.503906 0.765625 55.492188 1.3125 51.484375 1.3125 Z M 51.484375 1.3125 "/></g></g></g><g fill="#c9dfd0" fill-opacity="1"><g transform="translate(1102.173093, 671.824616)"><g><path d="M 39.8125 1.3125 C 33.007812 1.3125 26.960938 -0.210938 21.671875 -3.265625 C 16.390625 -6.328125 12.242188 -10.5625 9.234375 -15.96875 C 6.222656 -21.382812 4.71875 -27.546875 4.71875 -34.453125 C 4.71875 -41.265625 6.222656 -47.332031 9.234375 -52.65625 C 12.242188 -57.976562 16.390625 -62.164062 21.671875 -65.21875 C 26.960938 -68.28125 33.007812 -69.8125 39.8125 -69.8125 C 46.539062 -69.8125 52.546875 -68.28125 57.828125 -65.21875 C 63.109375 -62.164062 67.253906 -57.976562 70.265625 -52.65625 C 73.285156 -47.332031 74.796875 -41.265625 74.796875 -34.453125 C 74.796875 -27.546875 73.285156 -21.382812 70.265625 -15.96875 C 67.253906 -10.5625 63.109375 -6.328125 57.828125 -3.265625 C 52.546875 -0.210938 46.539062 1.3125 39.8125 1.3125 Z M 39.8125 -7.984375 C 44.613281 -7.984375 48.890625 -9.140625 52.640625 -11.453125 C 56.398438 -13.773438 59.328125 -16.921875 61.421875 -20.890625 C 63.523438 -24.867188 64.578125 -29.390625 64.578125 -34.453125 C 64.578125 -39.515625 63.523438 -44.007812 61.421875 -47.9375 C 59.328125 -51.863281 56.398438 -54.941406 52.640625 -57.171875 C 48.890625 -59.398438 44.613281 -60.515625 39.8125 -60.515625 C 35.007812 -60.515625 30.707031 -59.398438 26.90625 -57.171875 C 23.113281 -54.941406 20.144531 -51.84375 18 -47.875 C 15.863281 -43.90625 14.84375 -39.429688 14.9375 -34.453125 C 14.84375 -29.390625 15.863281 -24.867188 18 -20.890625 C 20.144531 -16.921875 23.113281 -13.773438 26.90625 -11.453125 C 30.707031 -9.140625 35.007812 -7.984375 39.8125 -7.984375 Z M 39.8125 -7.984375 "/></g></g></g><g fill="#c9dfd0" fill-opacity="1"><g transform="translate(1181.667281, 671.824616)"><g><path d="M 9.5625 0 L 9.5625 -68.375 L 19.25 -68.375 L 19.640625 -54.09375 L 18.078125 -53.4375 C 18.953125 -56.40625 20.65625 -59.113281 23.1875 -61.5625 C 25.71875 -64.007812 28.75 -65.992188 32.28125 -67.515625 C 35.820312 -69.046875 39.46875 -69.8125 43.21875 -69.8125 C 48.289062 -69.8125 52.523438 -68.804688 55.921875 -66.796875 C 59.328125 -64.796875 61.90625 -61.695312 63.65625 -57.5 C 65.40625 -53.3125 66.28125 -47.984375 66.28125 -41.515625 L 66.28125 0 L 56.328125 0 L 56.328125 -41 C 56.328125 -45.539062 55.734375 -49.269531 54.546875 -52.1875 C 53.367188 -55.113281 51.554688 -57.273438 49.109375 -58.671875 C 46.671875 -60.078125 43.660156 -60.734375 40.078125 -60.640625 C 37.109375 -60.640625 34.359375 -60.140625 31.828125 -59.140625 C 29.296875 -58.140625 27.113281 -56.765625 25.28125 -55.015625 C 23.445312 -53.265625 22.003906 -51.253906 20.953125 -48.984375 C 19.910156 -46.710938 19.390625 -44.269531 19.390625 -41.65625 L 19.390625 0 L 14.546875 0 C 13.929688 0 13.226562 0 12.4375 0 C 11.65625 0 10.695312 0 9.5625 0 Z M 9.5625 0 "/></g></g></g><g fill="#c9dfd0" fill-opacity="1"><g transform="translate(1257.101668, 671.824616)"><g><path d="M 31.953125 1.3125 C 26.109375 1.3125 20.867188 0.222656 16.234375 -1.953125 C 11.609375 -4.140625 7.941406 -7.023438 5.234375 -10.609375 L 12.1875 -16.640625 C 14.71875 -13.578125 17.707031 -11.257812 21.15625 -9.6875 C 24.601562 -8.113281 28.46875 -7.328125 32.75 -7.328125 C 34.925781 -7.328125 36.890625 -7.566406 38.640625 -8.046875 C 40.390625 -8.535156 41.914062 -9.257812 43.21875 -10.21875 C 44.53125 -11.175781 45.535156 -12.3125 46.234375 -13.625 C 46.929688 -14.9375 47.28125 -16.375 47.28125 -17.9375 C 47.28125 -20.820312 46.015625 -23.226562 43.484375 -25.15625 C 42.347656 -25.9375 40.734375 -26.738281 38.640625 -27.5625 C 36.546875 -28.394531 34.015625 -29.207031 31.046875 -30 C 26.148438 -31.394531 22.085938 -32.8125 18.859375 -34.25 C 15.628906 -35.6875 13.097656 -37.367188 11.265625 -39.296875 C 9.953125 -40.867188 8.96875 -42.570312 8.3125 -44.40625 C 7.65625 -46.238281 7.328125 -48.242188 7.328125 -50.421875 C 7.328125 -53.222656 7.914062 -55.800781 9.09375 -58.15625 C 10.28125 -60.507812 11.941406 -62.582031 14.078125 -64.375 C 16.222656 -66.164062 18.753906 -67.519531 21.671875 -68.4375 C 24.597656 -69.351562 27.765625 -69.8125 31.171875 -69.8125 C 34.398438 -69.8125 37.585938 -69.375 40.734375 -68.5 C 43.878906 -67.625 46.804688 -66.359375 49.515625 -64.703125 C 52.222656 -63.046875 54.535156 -61.082031 56.453125 -58.8125 L 50.421875 -52.265625 C 48.765625 -54.003906 46.929688 -55.570312 44.921875 -56.96875 C 42.921875 -58.375 40.804688 -59.46875 38.578125 -60.25 C 36.347656 -61.039062 34.054688 -61.4375 31.703125 -61.4375 C 29.597656 -61.4375 27.648438 -61.171875 25.859375 -60.640625 C 24.078125 -60.117188 22.550781 -59.398438 21.28125 -58.484375 C 20.019531 -57.566406 19.0625 -56.453125 18.40625 -55.140625 C 17.75 -53.828125 17.421875 -52.390625 17.421875 -50.828125 C 17.421875 -49.515625 17.679688 -48.332031 18.203125 -47.28125 C 18.734375 -46.238281 19.476562 -45.320312 20.4375 -44.53125 C 21.65625 -43.570312 23.378906 -42.675781 25.609375 -41.84375 C 27.835938 -41.019531 30.609375 -40.171875 33.921875 -39.296875 C 37.765625 -38.242188 41.015625 -37.171875 43.671875 -36.078125 C 46.335938 -34.992188 48.546875 -33.707031 50.296875 -32.21875 C 52.648438 -30.476562 54.328125 -28.472656 55.328125 -26.203125 C 56.335938 -23.929688 56.84375 -21.351562 56.84375 -18.46875 C 56.84375 -14.625 55.769531 -11.21875 53.625 -8.25 C 51.488281 -5.28125 48.546875 -2.941406 44.796875 -1.234375 C 41.046875 0.460938 36.765625 1.3125 31.953125 1.3125 Z M 31.953125 1.3125 "/></g></g></g><g fill="#c9dfd0" fill-opacity="1"><g transform="translate(1319.832658, 671.824616)"><g><path d="M 33.796875 1.3125 C 28.554688 1.3125 24.125 0.242188 20.5 -1.890625 C 16.875 -4.035156 14.125 -7.160156 12.25 -11.265625 C 10.375 -15.367188 9.4375 -20.476562 9.4375 -26.59375 L 9.4375 -68.375 L 19.390625 -68.375 L 19.390625 -28.546875 C 19.390625 -23.921875 20.019531 -20.054688 21.28125 -16.953125 C 22.550781 -13.859375 24.472656 -11.523438 27.046875 -9.953125 C 29.617188 -8.378906 32.785156 -7.59375 36.546875 -7.59375 C 39.421875 -7.59375 42.082031 -8.09375 44.53125 -9.09375 C 46.976562 -10.101562 49.117188 -11.476562 50.953125 -13.21875 C 52.785156 -14.96875 54.222656 -17.019531 55.265625 -19.375 C 56.316406 -21.738281 56.84375 -24.234375 56.84375 -26.859375 L 56.84375 -68.375 L 66.671875 -68.375 L 66.671875 0 L 56.984375 0 L 56.578125 -14.40625 L 58.15625 -15.1875 C 57.101562 -12.132812 55.351562 -9.363281 52.90625 -6.875 C 50.46875 -4.382812 47.566406 -2.394531 44.203125 -0.90625 C 40.847656 0.570312 37.378906 1.3125 33.796875 1.3125 Z M 33.796875 1.3125 "/></g></g></g><g fill="#c9dfd0" fill-opacity="1"><g transform="translate(1396.052827, 671.824616)"><g><path d="M 9.828125 0 L 9.828125 -96.921875 L 19.640625 -96.921875 L 19.640625 0 Z M 9.828125 0 "/></g></g></g><g fill="#c9dfd0" fill-opacity="1"><g transform="translate(1425.519421, 671.824616)"><g><path d="M 19 0 L 19 -86.3125 L 28.8125 -86.3125 L 28.8125 0 Z M 3.53125 -58.9375 L 3.53125 -68.375 L 46.109375 -68.375 L 46.109375 -58.9375 Z M 3.53125 -58.9375 "/></g></g></g><g fill="#c9dfd0" fill-opacity="1"><g transform="translate(1474.10645, 671.824616)"><g><path d="M 39.8125 1.3125 C 33.007812 1.3125 26.960938 -0.210938 21.671875 -3.265625 C 16.390625 -6.328125 12.242188 -10.5625 9.234375 -15.96875 C 6.222656 -21.382812 4.71875 -27.546875 4.71875 -34.453125 C 4.71875 -41.265625 6.222656 -47.332031 9.234375 -52.65625 C 12.242188 -57.976562 16.390625 -62.164062 21.671875 -65.21875 C 26.960938 -68.28125 33.007812 -69.8125 39.8125 -69.8125 C 46.539062 -69.8125 52.546875 -68.28125 57.828125 -65.21875 C 63.109375 -62.164062 67.253906 -57.976562 70.265625 -52.65625 C 73.285156 -47.332031 74.796875 -41.265625 74.796875 -34.453125 C 74.796875 -27.546875 73.285156 -21.382812 70.265625 -15.96875 C 67.253906 -10.5625 63.109375 -6.328125 57.828125 -3.265625 C 52.546875 -0.210938 46.539062 1.3125 39.8125 1.3125 Z M 39.8125 -7.984375 C 44.613281 -7.984375 48.890625 -9.140625 52.640625 -11.453125 C 56.398438 -13.773438 59.328125 -16.921875 61.421875 -20.890625 C 63.523438 -24.867188 64.578125 -29.390625 64.578125 -34.453125 C 64.578125 -39.515625 63.523438 -44.007812 61.421875 -47.9375 C 59.328125 -51.863281 56.398438 -54.941406 52.640625 -57.171875 C 48.890625 -59.398438 44.613281 -60.515625 39.8125 -60.515625 C 35.007812 -60.515625 30.707031 -59.398438 26.90625 -57.171875 C 23.113281 -54.941406 20.144531 -51.84375 18 -47.875 C 15.863281 -43.90625 14.84375 -39.429688 14.9375 -34.453125 C 14.84375 -29.390625 15.863281 -24.867188 18 -20.890625 C 20.144531 -16.921875 23.113281 -13.773438 26.90625 -11.453125 C 30.707031 -9.140625 35.007812 -7.984375 39.8125 -7.984375 Z M 39.8125 -7.984375 "/></g></g></g><g fill="#c9dfd0" fill-opacity="1"><g transform="translate(1553.600637, 671.824616)"><g><path d="M 9.5625 0 L 9.5625 -68.375 L 19.390625 -68.375 L 19.640625 -50.171875 L 18.59375 -52.65625 C 19.5625 -55.707031 21.113281 -58.539062 23.25 -61.15625 C 25.382812 -63.78125 27.9375 -65.878906 30.90625 -67.453125 C 33.875 -69.023438 37.148438 -69.8125 40.734375 -69.8125 C 42.222656 -69.8125 43.617188 -69.703125 44.921875 -69.484375 C 46.234375 -69.265625 47.328125 -68.984375 48.203125 -68.640625 L 45.453125 -57.640625 C 44.316406 -58.160156 43.160156 -58.53125 41.984375 -58.75 C 40.804688 -58.96875 39.691406 -59.078125 38.640625 -59.078125 C 35.671875 -59.078125 33.003906 -58.550781 30.640625 -57.5 C 28.285156 -56.457031 26.28125 -54.992188 24.625 -53.109375 C 22.96875 -51.234375 21.703125 -49.070312 20.828125 -46.625 C 19.953125 -44.1875 19.515625 -41.566406 19.515625 -38.765625 L 19.515625 0 Z M 9.5625 0 "/></g></g></g><g fill="#c9dfd0" fill-opacity="1"><g transform="translate(1602.449665, 671.824616)"><g><path d="M 12.1875 0 L 12.1875 -68.375 L 22 -68.375 L 22 0 Z M 17.03125 -83.171875 C 14.582031 -83.171875 12.722656 -83.800781 11.453125 -85.0625 C 10.191406 -86.332031 9.5625 -88.0625 9.5625 -90.25 C 9.5625 -92.425781 10.210938 -94.171875 11.515625 -95.484375 C 12.828125 -96.796875 14.664062 -97.453125 17.03125 -97.453125 C 19.382812 -97.453125 21.21875 -96.816406 22.53125 -95.546875 C 23.84375 -94.285156 24.5 -92.519531 24.5 -90.25 C 24.5 -88.15625 23.84375 -86.453125 22.53125 -85.140625 C 21.21875 -83.828125 19.382812 -83.171875 17.03125 -83.171875 Z M 17.03125 -83.171875 "/></g></g></g><g fill="#c9dfd0" fill-opacity="1"><g transform="translate(1636.36895, 671.824616)"><g><path d="M 39.8125 1.3125 C 33.007812 1.3125 26.960938 -0.210938 21.671875 -3.265625 C 16.390625 -6.328125 12.242188 -10.5625 9.234375 -15.96875 C 6.222656 -21.382812 4.71875 -27.546875 4.71875 -34.453125 C 4.71875 -41.265625 6.222656 -47.332031 9.234375 -52.65625 C 12.242188 -57.976562 16.390625 -62.164062 21.671875 -65.21875 C 26.960938 -68.28125 33.007812 -69.8125 39.8125 -69.8125 C 46.539062 -69.8125 52.546875 -68.28125 57.828125 -65.21875 C 63.109375 -62.164062 67.253906 -57.976562 70.265625 -52.65625 C 73.285156 -47.332031 74.796875 -41.265625 74.796875 -34.453125 C 74.796875 -27.546875 73.285156 -21.382812 70.265625 -15.96875 C 67.253906 -10.5625 63.109375 -6.328125 57.828125 -3.265625 C 52.546875 -0.210938 46.539062 1.3125 39.8125 1.3125 Z M 39.8125 -7.984375 C 44.613281 -7.984375 48.890625 -9.140625 52.640625 -11.453125 C 56.398438 -13.773438 59.328125 -16.921875 61.421875 -20.890625 C 63.523438 -24.867188 64.578125 -29.390625 64.578125 -34.453125 C 64.578125 -39.515625 63.523438 -44.007812 61.421875 -47.9375 C 59.328125 -51.863281 56.398438 -54.941406 52.640625 -57.171875 C 48.890625 -59.398438 44.613281 -60.515625 39.8125 -60.515625 C 35.007812 -60.515625 30.707031 -59.398438 26.90625 -57.171875 C 23.113281 -54.941406 20.144531 -51.84375 18 -47.875 C 15.863281 -43.90625 14.84375 -39.429688 14.9375 -34.453125 C 14.84375 -29.390625 15.863281 -24.867188 18 -20.890625 C 20.144531 -16.921875 23.113281 -13.773438 26.90625 -11.453125 C 30.707031 -9.140625 35.007812 -7.984375 39.8125 -7.984375 Z M 39.8125 -7.984375 "/></g></g></g><g fill="#c9dfd0" fill-opacity="1"><g transform="translate(1715.863137, 671.824616)"><g><path d="M 31.953125 1.3125 C 26.109375 1.3125 20.867188 0.222656 16.234375 -1.953125 C 11.609375 -4.140625 7.941406 -7.023438 5.234375 -10.609375 L 12.1875 -16.640625 C 14.71875 -13.578125 17.707031 -11.257812 21.15625 -9.6875 C 24.601562 -8.113281 28.46875 -7.328125 32.75 -7.328125 C 34.925781 -7.328125 36.890625 -7.566406 38.640625 -8.046875 C 40.390625 -8.535156 41.914062 -9.257812 43.21875 -10.21875 C 44.53125 -11.175781 45.535156 -12.3125 46.234375 -13.625 C 46.929688 -14.9375 47.28125 -16.375 47.28125 -17.9375 C 47.28125 -20.820312 46.015625 -23.226562 43.484375 -25.15625 C 42.347656 -25.9375 40.734375 -26.738281 38.640625 -27.5625 C 36.546875 -28.394531 34.015625 -29.207031 31.046875 -30 C 26.148438 -31.394531 22.085938 -32.8125 18.859375 -34.25 C 15.628906 -35.6875 13.097656 -37.367188 11.265625 -39.296875 C 9.953125 -40.867188 8.96875 -42.570312 8.3125 -44.40625 C 7.65625 -46.238281 7.328125 -48.242188 7.328125 -50.421875 C 7.328125 -53.222656 7.914062 -55.800781 9.09375 -58.15625 C 10.28125 -60.507812 11.941406 -62.582031 14.078125 -64.375 C 16.222656 -66.164062 18.753906 -67.519531 21.671875 -68.4375 C 24.597656 -69.351562 27.765625 -69.8125 31.171875 -69.8125 C 34.398438 -69.8125 37.585938 -69.375 40.734375 -68.5 C 43.878906 -67.625 46.804688 -66.359375 49.515625 -64.703125 C 52.222656 -63.046875 54.535156 -61.082031 56.453125 -58.8125 L 50.421875 -52.265625 C 48.765625 -54.003906 46.929688 -55.570312 44.921875 -56.96875 C 42.921875 -58.375 40.804688 -59.46875 38.578125 -60.25 C 36.347656 -61.039062 34.054688 -61.4375 31.703125 -61.4375 C 29.597656 -61.4375 27.648438 -61.171875 25.859375 -60.640625 C 24.078125 -60.117188 22.550781 -59.398438 21.28125 -58.484375 C 20.019531 -57.566406 19.0625 -56.453125 18.40625 -55.140625 C 17.75 -53.828125 17.421875 -52.390625 17.421875 -50.828125 C 17.421875 -49.515625 17.679688 -48.332031 18.203125 -47.28125 C 18.734375 -46.238281 19.476562 -45.320312 20.4375 -44.53125 C 21.65625 -43.570312 23.378906 -42.675781 25.609375 -41.84375 C 27.835938 -41.019531 30.609375 -40.171875 33.921875 -39.296875 C 37.765625 -38.242188 41.015625 -37.171875 43.671875 -36.078125 C 46.335938 -34.992188 48.546875 -33.707031 50.296875 -32.21875 C 52.648438 -30.476562 54.328125 -28.472656 55.328125 -26.203125 C 56.335938 -23.929688 56.84375 -21.351562 56.84375 -18.46875 C 56.84375 -14.625 55.769531 -11.21875 53.625 -8.25 C 51.488281 -5.28125 48.546875 -2.941406 44.796875 -1.234375 C 41.046875 0.460938 36.765625 1.3125 31.953125 1.3125 Z M 31.953125 1.3125 "/></g></g></g><g fill="#ffffff" fill-opacity="1"><g transform="translate(33.04985, 443.696624)"><g><path d="M 160.5 -37.640625 L 160.5 -93.28125 L 69.484375 -93.28125 L 69.484375 -28.3125 L 88.140625 -27.34375 L 88.140625 0 L 10.296875 0 L 10.296875 -26.046875 L 20.90625 -27.015625 C 27.125 -27.660156 30.234375 -30.664062 30.234375 -36.03125 L 30.234375 -185.59375 L 11.90625 -186.5625 L 11.90625 -213.90625 L 89.734375 -213.90625 L 89.734375 -187.84375 L 79.125 -186.875 C 75.695312 -186.445312 73.234375 -185.535156 71.734375 -184.140625 C 70.234375 -182.753906 69.484375 -180.128906 69.484375 -176.265625 L 69.484375 -126.40625 L 160.5 -126.40625 L 160.5 -185.59375 L 142.171875 -186.5625 L 142.171875 -213.90625 L 220.015625 -213.90625 L 220.015625 -187.84375 L 209.390625 -186.875 C 203.171875 -186.238281 200.0625 -182.8125 200.0625 -176.59375 L 200.0625 -28.3125 L 218.40625 -27.34375 L 218.40625 0 L 140.5625 0 L 140.5625 -26.046875 L 151.171875 -27.015625 C 154.390625 -27.441406 156.75 -28.351562 158.25 -29.75 C 159.75 -31.144531 160.5 -33.773438 160.5 -37.640625 Z M 160.5 -37.640625 "/></g></g></g><g fill="#ffffff" fill-opacity="1"><g transform="translate(262.028861, 443.696624)"><g><path d="M 155.03125 -155.359375 L 155.03125 -35.703125 C 155.03125 -32.273438 155.617188 -29.914062 156.796875 -28.625 C 157.984375 -27.34375 160.078125 -26.59375 163.078125 -26.375 L 173.375 -25.734375 L 173.375 0 L 122.234375 0 L 122.234375 -18.65625 L 121.265625 -18.984375 C 110.546875 -3.535156 95.859375 4.1875 77.203125 4.1875 C 55.328125 4.1875 39.132812 -2.78125 28.625 -16.71875 C 18.113281 -30.664062 12.859375 -49.753906 12.859375 -73.984375 C 12.859375 -103.140625 19.9375 -125.867188 34.09375 -142.171875 C 48.25 -158.472656 69.476562 -166.625 97.78125 -166.625 C 116.007812 -166.625 135.09375 -162.867188 155.03125 -155.359375 Z M 117.71875 -51.140625 L 117.71875 -134.453125 C 111.71875 -137.242188 103.460938 -138.640625 92.953125 -138.640625 C 78.585938 -138.640625 68.1875 -132.847656 61.75 -121.265625 C 55.320312 -109.679688 52.109375 -94.347656 52.109375 -75.265625 C 52.109375 -40.523438 63.257812 -23.15625 85.5625 -23.15625 C 95 -23.15625 102.71875 -25.992188 108.71875 -31.671875 C 114.71875 -37.359375 117.71875 -43.847656 117.71875 -51.140625 Z M 117.71875 -51.140625 "/></g></g></g><g fill="#ffffff" fill-opacity="1"><g transform="translate(444.375913, 443.696624)"><g><path d="M 49.53125 -82.671875 C 49.53125 -64.441406 52.960938 -50.285156 59.828125 -40.203125 C 66.691406 -30.128906 76.609375 -25.09375 89.578125 -25.09375 C 102.554688 -25.09375 115.367188 -29.703125 128.015625 -38.921875 L 141.84375 -14.15625 C 126.625 -1.71875 107.539062 4.5 84.59375 4.5 C 61.644531 4.5 43.578125 -2.734375 30.390625 -17.203125 C 17.203125 -31.679688 10.609375 -53.070312 10.609375 -81.375 C 10.609375 -109.6875 18.164062 -130.972656 33.28125 -145.234375 C 48.40625 -159.492188 65.457031 -166.625 84.4375 -166.625 C 103.414062 -166.625 121.050781 -162.226562 137.34375 -153.4375 L 137.34375 -111.609375 L 107.75 -109.359375 L 107.75 -124.796875 C 107.75 -130.585938 105.65625 -134.179688 101.46875 -135.578125 C 97.289062 -136.972656 92.953125 -137.671875 88.453125 -137.671875 C 62.503906 -137.671875 49.53125 -119.335938 49.53125 -82.671875 Z M 49.53125 -82.671875 "/></g></g></g><g fill="#ffffff" fill-opacity="1"><g transform="translate(595.849329, 443.696624)"><g><path d="M 30.5625 -36.03125 L 30.5625 -192.671875 C 30.5625 -196.097656 29.96875 -198.453125 28.78125 -199.734375 C 27.601562 -201.023438 25.515625 -201.78125 22.515625 -202 L 11.265625 -202.640625 L 11.265625 -229.34375 L 68.515625 -229.34375 L 68.515625 -90.0625 C 80.304688 -91.132812 90.597656 -94.78125 99.390625 -101 C 108.179688 -107.21875 114.1875 -115.367188 117.40625 -125.453125 C 118.050781 -127.585938 118.375 -129.300781 118.375 -130.59375 C 118.375 -134.238281 116.335938 -136.0625 112.265625 -136.0625 L 100.03125 -136.703125 L 100.03125 -161.796875 L 166.625 -161.796875 L 166.625 -135.734375 L 151.171875 -135.09375 C 148.390625 -113.21875 138.957031 -95.957031 122.875 -83.3125 L 154.390625 -26.703125 L 174.015625 -25.734375 L 174.015625 0 L 127.046875 0 L 90.390625 -66.90625 C 83.304688 -64.976562 76.015625 -63.476562 68.515625 -62.40625 L 68.515625 -26.703125 L 68.828125 -26.703125 L 87.171875 -25.734375 L 87.171875 0 L 10.609375 0 L 10.609375 -24.453125 L 21.234375 -25.40625 C 24.441406 -25.832031 26.796875 -26.742188 28.296875 -28.140625 C 29.804688 -29.535156 30.5625 -32.164062 30.5625 -36.03125 Z M 30.5625 -36.03125 "/></g></g></g><g fill="#ffffff" fill-opacity="1"><g transform="translate(774.658724, 443.696624)"><g><path d="M 10.9375 0 L 10.9375 -26.046875 L 21.546875 -27.015625 C 27.765625 -27.660156 30.875 -30.664062 30.875 -36.03125 L 30.875 -185.59375 L 12.546875 -186.5625 L 12.546875 -213.90625 L 100.671875 -213.90625 C 132.203125 -213.90625 156.8125 -205.539062 174.5 -188.8125 C 192.1875 -172.082031 201.03125 -147.316406 201.03125 -114.515625 C 201.03125 -94.140625 198.347656 -76.390625 192.984375 -61.265625 C 187.628906 -46.148438 180.34375 -34.304688 171.125 -25.734375 C 152.675781 -8.578125 129.726562 0 102.28125 0 Z M 70.125 -182.703125 L 70.125 -30.875 L 102.9375 -30.875 C 121.375 -30.875 135.738281 -37.519531 146.03125 -50.8125 C 156.320312 -64.113281 161.46875 -83.414062 161.46875 -108.71875 C 161.46875 -158.039062 140.5625 -182.703125 98.75 -182.703125 Z M 70.125 -182.703125 "/></g></g></g><g fill="#ffffff" fill-opacity="1"><g transform="translate(988.522551, 443.696624)"><g><path d="M 91.34375 -166.625 C 107.425781 -166.625 120.1875 -162.707031 129.625 -154.875 C 139.0625 -147.050781 143.78125 -136.0625 143.78125 -121.90625 C 143.78125 -112.46875 141.742188 -104.15625 137.671875 -96.96875 C 133.597656 -89.789062 128.554688 -84.164062 122.546875 -80.09375 C 116.546875 -76.019531 109.253906 -72.695312 100.671875 -70.125 C 86.304688 -65.832031 70.117188 -63.6875 52.109375 -63.6875 C 52.753906 -52.320312 56.289062 -43.15625 62.71875 -36.1875 C 69.15625 -29.21875 79.019531 -25.734375 92.3125 -25.734375 C 105.613281 -25.734375 118.910156 -30.453125 132.203125 -39.890625 L 144.421875 -13.828125 C 140.128906 -9.972656 132.890625 -6.003906 122.703125 -1.921875 C 112.523438 2.148438 100.894531 4.1875 87.8125 4.1875 C 61.644531 4.1875 42.453125 -3.046875 30.234375 -17.515625 C 18.015625 -31.992188 11.90625 -51.882812 11.90625 -77.1875 C 11.90625 -102.5 18.875 -123.734375 32.8125 -140.890625 C 46.75 -158.046875 66.257812 -166.625 91.34375 -166.625 Z M 76.703125 -93.109375 C 84.535156 -94.503906 91.773438 -97.613281 98.421875 -102.4375 C 105.066406 -107.269531 108.390625 -113.007812 108.390625 -119.65625 C 108.390625 -132.738281 101.957031 -139.28125 89.09375 -139.28125 C 77.09375 -139.28125 67.875 -134.507812 61.4375 -124.96875 C 55 -115.425781 51.460938 -104.003906 50.828125 -90.703125 C 60.253906 -90.921875 68.878906 -91.722656 76.703125 -93.109375 Z M 76.703125 -93.109375 "/></g></g></g><g fill="#ffffff" fill-opacity="1"><g transform="translate(1144.176755, 443.696624)"><g><path d="M 8.6875 -136.0625 L 8.6875 -161.796875 L 63.046875 -161.796875 L 63.046875 -140.890625 C 68.617188 -148.816406 76.015625 -155.085938 85.234375 -159.703125 C 94.453125 -164.316406 104.425781 -166.625 115.15625 -166.625 C 131.445312 -166.625 144.039062 -161.957031 152.9375 -152.625 C 161.84375 -143.300781 166.296875 -129.3125 166.296875 -110.65625 L 166.296875 -26.703125 L 184.625 -25.734375 L 184.625 0 L 108.078125 0 L 108.078125 -24.453125 L 118.6875 -25.40625 C 121.90625 -25.832031 124.265625 -26.742188 125.765625 -28.140625 C 127.265625 -29.535156 128.015625 -32.164062 128.015625 -36.03125 L 128.015625 -102.28125 C 128.015625 -114.082031 126.191406 -122.820312 122.546875 -128.5 C 118.898438 -134.1875 111.984375 -137.03125 101.796875 -137.03125 C 91.617188 -137.03125 83.523438 -133.8125 77.515625 -127.375 C 71.515625 -120.9375 68.515625 -113.320312 68.515625 -104.53125 L 68.515625 -26.703125 L 86.84375 -25.734375 L 86.84375 0 L 10.296875 0 L 10.296875 -24.453125 L 20.90625 -25.40625 C 24.125 -25.832031 26.484375 -26.742188 27.984375 -28.140625 C 29.484375 -29.535156 30.234375 -32.164062 30.234375 -36.03125 L 30.234375 -125.125 C 30.234375 -131.5625 27.550781 -134.882812 22.1875 -135.09375 Z M 8.6875 -136.0625 "/></g></g></g><g fill="#ffffff" fill-opacity="1"><g transform="translate(1337.136624, 443.696624)"><g><path d="M 46.3125 -195.890625 L 67.21875 -195.890625 L 67.21875 -161.796875 L 110 -161.796875 L 106.796875 -134.78125 L 67.21875 -134.78125 L 67.21875 -50.171875 C 67.21875 -40.742188 68.929688 -34.148438 72.359375 -30.390625 C 75.796875 -26.640625 81.101562 -24.765625 88.28125 -24.765625 C 95.46875 -24.765625 102.707031 -27.015625 110 -31.515625 L 119.65625 -6.75 C 108.9375 0.75 95.320312 4.5 78.8125 4.5 C 69.15625 4.5 61.003906 3.265625 54.359375 0.796875 C 47.710938 -1.660156 42.78125 -4.390625 39.5625 -7.390625 C 36.34375 -10.398438 33.875 -14.796875 32.15625 -20.578125 C 30.445312 -26.367188 29.484375 -30.925781 29.265625 -34.25 C 29.054688 -37.570312 28.953125 -42.453125 28.953125 -48.890625 L 28.953125 -134.78125 L 6.109375 -134.78125 L 9.328125 -158.25 C 19.410156 -159.113281 27.023438 -162.707031 32.171875 -169.03125 C 37.316406 -175.351562 42.03125 -184.304688 46.3125 -195.890625 Z M 46.3125 -195.890625 "/></g></g></g><g fill="#ffffff" fill-opacity="1"><g transform="translate(1458.379669, 443.696624)"><g><path d="M 155.03125 -155.359375 L 155.03125 -35.703125 C 155.03125 -32.273438 155.617188 -29.914062 156.796875 -28.625 C 157.984375 -27.34375 160.078125 -26.59375 163.078125 -26.375 L 173.375 -25.734375 L 173.375 0 L 122.234375 0 L 122.234375 -18.65625 L 121.265625 -18.984375 C 110.546875 -3.535156 95.859375 4.1875 77.203125 4.1875 C 55.328125 4.1875 39.132812 -2.78125 28.625 -16.71875 C 18.113281 -30.664062 12.859375 -49.753906 12.859375 -73.984375 C 12.859375 -103.140625 19.9375 -125.867188 34.09375 -142.171875 C 48.25 -158.472656 69.476562 -166.625 97.78125 -166.625 C 116.007812 -166.625 135.09375 -162.867188 155.03125 -155.359375 Z M 117.71875 -51.140625 L 117.71875 -134.453125 C 111.71875 -137.242188 103.460938 -138.640625 92.953125 -138.640625 C 78.585938 -138.640625 68.1875 -132.847656 61.75 -121.265625 C 55.320312 -109.679688 52.109375 -94.347656 52.109375 -75.265625 C 52.109375 -40.523438 63.257812 -23.15625 85.5625 -23.15625 C 95 -23.15625 102.71875 -25.992188 108.71875 -31.671875 C 114.71875 -37.359375 117.71875 -43.847656 117.71875 -51.140625 Z M 117.71875 -51.140625 "/></g></g></g><g fill="#ffffff" fill-opacity="1"><g transform="translate(1640.72672, 443.696624)"><g><path d="M 68.1875 -229.34375 L 68.1875 -26.703125 L 86.53125 -25.734375 L 86.53125 0 L 9.96875 0 L 9.96875 -24.453125 L 20.59375 -25.40625 C 26.800781 -26.050781 29.90625 -29.484375 29.90625 -35.703125 L 29.90625 -194.28125 C 29.90625 -199 27.226562 -201.570312 21.875 -202 L 10.609375 -202.640625 L 10.609375 -229.34375 Z M 68.1875 -229.34375 "/></g></g></g></svg>