<svg xmlns="http://www.w3.org/2000/svg" xmlns:xlink="http://www.w3.org/1999/xlink" width="2000" zoomAndPan="magnify" viewBox="0 0 1500 824.999997" height="1100" preserveAspectRatio="xMidYMid meet" version="1.0"><defs><g/><clipPath id="f822eded8c"><path d="M 345.71875 373 L 410 373 L 410 455.605469 L 345.71875 455.605469 Z M 345.71875 373 " clip-rule="nonzero"/></clipPath></defs><g clip-path="url(#f822eded8c)"><path fill="#206767" d="M 409.566406 415.21875 C 409.332031 415.757812 409.09375 416.296875 408.855469 416.832031 C 408.027344 416.910156 407.085938 417.011719 406.191406 417.136719 C 403.851562 417.460938 400.90625 418.402344 395.050781 421.136719 C 389.199219 423.867188 384.222656 430.210938 380.269531 435.96875 C 376.316406 441.726562 372.414062 454.554688 369.242188 455.042969 C 366.070312 455.53125 363.488281 450.457031 362.265625 448.410156 C 361.046875 446.359375 358.023438 439.96875 356.65625 436.75 C 355.289062 433.527344 351.253906 422.046875 349.109375 414.5 C 346.960938 406.953125 346.117188 399.667969 345.921875 390.238281 C 345.726562 380.804688 350.929688 375.597656 355.355469 373.84375 C 355.414062 373.820312 355.472656 373.796875 355.535156 373.777344 C 357.824219 372.980469 361.820312 373.589844 366.503906 375.402344 C 371.117188 377.1875 376.398438 380.136719 381.359375 384.054688 C 381.359375 384.054688 372.804688 380.152344 366.851562 380.300781 C 360.902344 380.445312 356.753906 383.761719 354.605469 388.054688 C 352.460938 392.351562 351.972656 401.230469 352.753906 408.449219 C 353.535156 415.671875 356.65625 426.796875 358.609375 432.84375 C 360.558594 438.894531 364.023438 444.410156 366.21875 445.871094 C 368.414062 447.335938 369.730469 445.140625 372.59375 438.960938 C 375.457031 432.78125 382.9375 425.753906 386.710938 422.695312 C 390.199219 419.867188 401.238281 415.894531 409.566406 415.21875 " fill-opacity="1" fill-rule="nonzero"/></g><path fill="#206767" d="M 355.09375 372.605469 C 358.28125 371.242188 365.957031 371.890625 373.308594 376.054688 C 380.660156 380.21875 386.710938 383.796875 393.996094 381.78125 C 401.28125 379.761719 409.867188 377.03125 415.136719 379.894531 C 420.40625 382.753906 420.339844 390.429688 418.257812 398.238281 C 416.175781 406.042969 407.722656 425.820312 403.425781 432 C 399.132812 438.179688 397.769531 440.71875 397.769531 440.71875 C 425.9375 411.832031 428.863281 388.546875 427.789062 384.054688 C 426.71875 379.566406 425.480469 377.8125 423.269531 376.378906 C 421.058594 374.949219 415.398438 372.085938 407.589844 374.296875 C 399.785156 376.511719 396.792969 378.070312 394.710938 378.785156 C 392.628906 379.503906 387.328125 379.957031 384.464844 379.175781 C 381.601562 378.394531 372.136719 372.476562 367 371.5 C 359.339844 370.101562 355.09375 372.605469 355.09375 372.605469 " fill-opacity="1" fill-rule="nonzero"/><g fill="#213343" fill-opacity="1"><g transform="translate(452.035374, 438.176221)"><g><path d="M 5.34375 0 L 5.34375 -10.3125 L 13.84375 -10.3125 L 13.84375 -40.1875 L 5.34375 -40.1875 L 5.34375 -50.5 L 34.703125 -50.5 L 34.703125 -40.1875 L 26.109375 -40.1875 L 26.109375 -10.3125 L 34.703125 -10.3125 L 34.703125 0 Z M 5.34375 0 "/></g></g></g><g fill="#213343" fill-opacity="1"><g transform="translate(489.183081, 438.176221)"><g><path d="M 6.34375 0 L 6.34375 -50.5 L 17.3125 -50.5 L 43.796875 -14.421875 L 41.40625 -14.78125 C 41.164062 -16.375 40.972656 -17.890625 40.828125 -19.328125 C 40.679688 -20.773438 40.546875 -22.195312 40.421875 -23.59375 C 40.304688 -24.988281 40.210938 -26.40625 40.140625 -27.84375 C 40.066406 -29.289062 40.019531 -30.851562 40 -32.53125 C 39.976562 -34.21875 39.96875 -36.046875 39.96875 -38.015625 L 39.96875 -50.5 L 51.875 -50.5 L 51.875 0 L 40.765625 0 L 13.125 -37.21875 L 16.8125 -36.71875 C 17.050781 -34.40625 17.253906 -32.441406 17.421875 -30.828125 C 17.585938 -29.222656 17.726562 -27.796875 17.84375 -26.546875 C 17.96875 -25.296875 18.050781 -24.164062 18.09375 -23.15625 C 18.144531 -22.144531 18.179688 -21.144531 18.203125 -20.15625 C 18.234375 -19.175781 18.25 -18.082031 18.25 -16.875 L 18.25 0 Z M 6.34375 0 "/></g></g></g><g fill="#213343" fill-opacity="1"><g transform="translate(544.508166, 438.176221)"><g><path d="M 15.296875 -14.78125 L 12.125 -25.109375 L 37.15625 -50.5 L 51.65625 -50.5 Z M 6.34375 0 L 6.34375 -50.5 L 18.609375 -50.5 L 18.609375 0 Z M 38.734375 0 L 19.984375 -24.671875 L 28.28125 -31.8125 L 53.015625 0 Z M 38.734375 0 "/></g></g></g><g fill="#213343" fill-opacity="1"><g transform="translate(594.928245, 438.176221)"><g><path d="M -0.078125 0 L 19.90625 -50.5 L 30.296875 -50.5 L 50.140625 0 L 37.734375 0 L 28.203125 -25.609375 C 27.816406 -26.617188 27.429688 -27.703125 27.046875 -28.859375 C 26.660156 -30.015625 26.273438 -31.203125 25.890625 -32.421875 C 25.515625 -33.648438 25.144531 -34.851562 24.78125 -36.03125 C 24.414062 -37.207031 24.113281 -38.300781 23.875 -39.3125 L 26.046875 -39.390625 C 25.753906 -38.179688 25.425781 -37 25.0625 -35.84375 C 24.707031 -34.695312 24.347656 -33.554688 23.984375 -32.421875 C 23.628906 -31.296875 23.234375 -30.164062 22.796875 -29.03125 C 22.359375 -27.90625 21.945312 -26.738281 21.5625 -25.53125 L 12.046875 0 Z M 9.453125 -9.671875 L 13.28125 -18.90625 L 36.5 -18.90625 L 40.25 -9.671875 Z M 9.453125 -9.671875 "/></g></g></g><g fill="#213343" fill-opacity="1"><g transform="translate(642.102361, 438.176221)"><g><path d="M 6.34375 0 L 6.34375 -50.5 L 27.484375 -50.5 C 31.191406 -50.5 34.582031 -49.882812 37.65625 -48.65625 C 40.738281 -47.425781 43.394531 -45.679688 45.625 -43.421875 C 47.863281 -41.160156 49.582031 -38.488281 50.78125 -35.40625 C 51.988281 -32.332031 52.59375 -28.945312 52.59375 -25.25 C 52.59375 -21.539062 51.988281 -18.132812 50.78125 -15.03125 C 49.582031 -11.9375 47.863281 -9.269531 45.625 -7.03125 C 43.394531 -4.789062 40.738281 -3.054688 37.65625 -1.828125 C 34.582031 -0.609375 31.191406 0 27.484375 0 Z M 18.609375 -8.375 L 16.953125 -10.828125 L 27.125 -10.828125 C 29.144531 -10.828125 30.945312 -11.171875 32.53125 -11.859375 C 34.125 -12.554688 35.484375 -13.53125 36.609375 -14.78125 C 37.742188 -16.039062 38.625 -17.554688 39.25 -19.328125 C 39.875 -21.109375 40.1875 -23.082031 40.1875 -25.25 C 40.1875 -27.414062 39.875 -29.382812 39.25 -31.15625 C 38.625 -32.9375 37.742188 -34.453125 36.609375 -35.703125 C 35.484375 -36.953125 34.125 -37.925781 32.53125 -38.625 C 30.945312 -39.320312 29.144531 -39.671875 27.125 -39.671875 L 16.734375 -39.671875 L 18.609375 -41.984375 Z M 18.609375 -8.375 "/></g></g></g><g fill="#213343" fill-opacity="1"><g transform="translate(694.902808, 438.176221)"><g><path d="M 6.34375 0 L 6.34375 -50.5 L 41.546875 -50.5 L 41.546875 -40.03125 L 18.25 -40.03125 L 18.25 -10.453125 L 42.28125 -10.453125 L 42.28125 0 Z M 12.125 -20.703125 L 12.125 -30.65625 L 38.3125 -30.65625 L 38.3125 -20.703125 Z M 12.125 -20.703125 "/></g></g></g><g fill="#213343" fill-opacity="1"><g transform="translate(738.542452, 438.176221)"><g><path d="M 6.34375 0 L 6.34375 -50.5 L 17.3125 -50.5 L 43.796875 -14.421875 L 41.40625 -14.78125 C 41.164062 -16.375 40.972656 -17.890625 40.828125 -19.328125 C 40.679688 -20.773438 40.546875 -22.195312 40.421875 -23.59375 C 40.304688 -24.988281 40.210938 -26.40625 40.140625 -27.84375 C 40.066406 -29.289062 40.019531 -30.851562 40 -32.53125 C 39.976562 -34.21875 39.96875 -36.046875 39.96875 -38.015625 L 39.96875 -50.5 L 51.875 -50.5 L 51.875 0 L 40.765625 0 L 13.125 -37.21875 L 16.8125 -36.71875 C 17.050781 -34.40625 17.253906 -32.441406 17.421875 -30.828125 C 17.585938 -29.222656 17.726562 -27.796875 17.84375 -26.546875 C 17.96875 -25.296875 18.050781 -24.164062 18.09375 -23.15625 C 18.144531 -22.144531 18.179688 -21.144531 18.203125 -20.15625 C 18.234375 -19.175781 18.25 -18.082031 18.25 -16.875 L 18.25 0 Z M 6.34375 0 "/></g></g></g><g fill="#213343" fill-opacity="1"><g transform="translate(793.867549, 438.176221)"><g><path d="M 17.3125 0 L 17.3125 -39.671875 L 2.3125 -39.671875 L 2.3125 -50.5 L 44.9375 -50.5 L 44.9375 -39.671875 L 29.578125 -39.671875 L 29.578125 0 Z M 17.3125 0 "/></g></g></g><g fill="#213343" fill-opacity="1"><g transform="translate(838.2285, 438.176221)"><g><path d="M 5.34375 0 L 5.34375 -10.3125 L 13.84375 -10.3125 L 13.84375 -40.1875 L 5.34375 -40.1875 L 5.34375 -50.5 L 34.703125 -50.5 L 34.703125 -40.1875 L 26.109375 -40.1875 L 26.109375 -10.3125 L 34.703125 -10.3125 L 34.703125 0 Z M 5.34375 0 "/></g></g></g><g fill="#213343" fill-opacity="1"><g transform="translate(875.376203, 438.176221)"><g><path d="M 23.078125 0.71875 C 19.765625 0.71875 16.769531 0.320312 14.09375 -0.46875 C 11.425781 -1.257812 9.054688 -2.410156 6.984375 -3.921875 C 4.921875 -5.441406 3.070312 -7.238281 1.4375 -9.3125 L 8.875 -17.75 C 11.28125 -14.519531 13.695312 -12.351562 16.125 -11.25 C 18.550781 -10.144531 21.0625 -9.59375 23.65625 -9.59375 C 24.957031 -9.59375 26.132812 -9.757812 27.1875 -10.09375 C 28.25 -10.4375 29.066406 -10.929688 29.640625 -11.578125 C 30.222656 -12.222656 30.515625 -13.03125 30.515625 -14 C 30.515625 -14.71875 30.332031 -15.363281 29.96875 -15.9375 C 29.613281 -16.519531 29.125 -17.023438 28.5 -17.453125 C 27.875 -17.890625 27.125 -18.285156 26.25 -18.640625 C 25.382812 -19.003906 24.472656 -19.316406 23.515625 -19.578125 C 22.554688 -19.847656 21.570312 -20.078125 20.5625 -20.265625 C 17.769531 -20.890625 15.335938 -21.660156 13.265625 -22.578125 C 11.203125 -23.492188 9.484375 -24.613281 8.109375 -25.9375 C 6.742188 -27.257812 5.722656 -28.773438 5.046875 -30.484375 C 4.378906 -32.191406 4.046875 -34.101562 4.046875 -36.21875 C 4.046875 -38.476562 4.5625 -40.554688 5.59375 -42.453125 C 6.625 -44.347656 8.015625 -45.984375 9.765625 -47.359375 C 11.523438 -48.734375 13.554688 -49.789062 15.859375 -50.53125 C 18.171875 -51.28125 20.578125 -51.65625 23.078125 -51.65625 C 26.398438 -51.65625 29.25 -51.304688 31.625 -50.609375 C 34.007812 -49.910156 36.054688 -48.910156 37.765625 -47.609375 C 39.472656 -46.316406 40.925781 -44.753906 42.125 -42.921875 L 34.5625 -35.640625 C 33.550781 -36.890625 32.453125 -37.921875 31.265625 -38.734375 C 30.085938 -39.554688 28.835938 -40.179688 27.515625 -40.609375 C 26.191406 -41.046875 24.835938 -41.265625 23.453125 -41.265625 C 22.003906 -41.265625 20.757812 -41.082031 19.71875 -40.71875 C 18.6875 -40.363281 17.882812 -39.859375 17.3125 -39.203125 C 16.738281 -38.554688 16.453125 -37.773438 16.453125 -36.859375 C 16.453125 -36.046875 16.691406 -35.347656 17.171875 -34.765625 C 17.648438 -34.191406 18.296875 -33.675781 19.109375 -33.21875 C 19.929688 -32.757812 20.867188 -32.375 21.921875 -32.0625 C 22.984375 -31.75 24.09375 -31.5 25.25 -31.3125 C 27.894531 -30.78125 30.285156 -30.082031 32.421875 -29.21875 C 34.566406 -28.351562 36.421875 -27.296875 37.984375 -26.046875 C 39.546875 -24.796875 40.75 -23.316406 41.59375 -21.609375 C 42.4375 -19.898438 42.859375 -17.914062 42.859375 -15.65625 C 42.859375 -12.144531 42.003906 -9.175781 40.296875 -6.75 C 38.585938 -4.320312 36.253906 -2.46875 33.296875 -1.1875 C 30.335938 0.0820312 26.929688 0.71875 23.078125 0.71875 Z M 23.078125 0.71875 "/></g></g></g><g fill="#213343" fill-opacity="1"><g transform="translate(918.222389, 438.176221)"><g><path d="M 17.3125 0 L 17.3125 -39.671875 L 2.3125 -39.671875 L 2.3125 -50.5 L 44.9375 -50.5 L 44.9375 -39.671875 L 29.578125 -39.671875 L 29.578125 0 Z M 17.3125 0 "/></g></g></g><g fill="#213343" fill-opacity="1"><g transform="translate(962.595788, 438.176221)"><g><path d="M 8.21875 0.71875 C 7.207031 0.71875 6.425781 0.40625 5.875 -0.21875 C 5.320312 -0.84375 5.046875 -1.734375 5.046875 -2.890625 C 5.046875 -3.941406 5.332031 -4.804688 5.90625 -5.484375 C 6.488281 -6.160156 7.257812 -6.5 8.21875 -6.5 C 9.226562 -6.5 10.007812 -6.179688 10.5625 -5.546875 C 11.113281 -4.921875 11.390625 -4.035156 11.390625 -2.890625 C 11.390625 -1.828125 11.101562 -0.957031 10.53125 -0.28125 C 9.957031 0.382812 9.1875 0.71875 8.21875 0.71875 Z M 8.21875 0.71875 "/></g></g></g><g fill="#213343" fill-opacity="1"><g transform="translate(976.156181, 438.176221)"><g><path d="M 29.078125 0.71875 C 25.367188 0.71875 21.960938 0.0820312 18.859375 -1.1875 C 15.765625 -2.46875 13.070312 -4.269531 10.78125 -6.59375 C 8.5 -8.925781 6.734375 -11.679688 5.484375 -14.859375 C 4.234375 -18.035156 3.609375 -21.5 3.609375 -25.25 C 3.609375 -29 4.207031 -32.425781 5.40625 -35.53125 C 6.613281 -38.632812 8.332031 -41.335938 10.5625 -43.640625 C 12.800781 -45.953125 15.421875 -47.734375 18.421875 -48.984375 C 21.429688 -50.234375 24.738281 -50.859375 28.34375 -50.859375 C 30.601562 -50.859375 32.890625 -50.484375 35.203125 -49.734375 C 37.515625 -48.992188 39.65625 -47.972656 41.625 -46.671875 C 43.59375 -45.378906 45.226562 -43.890625 46.53125 -42.203125 L 43.859375 -39.390625 C 42.804688 -40.929688 41.4375 -42.289062 39.75 -43.46875 C 38.0625 -44.644531 36.234375 -45.566406 34.265625 -46.234375 C 32.296875 -46.910156 30.320312 -47.25 28.34375 -47.25 C 25.320312 -47.25 22.523438 -46.707031 19.953125 -45.625 C 17.378906 -44.539062 15.164062 -43.015625 13.3125 -41.046875 C 11.457031 -39.078125 10.015625 -36.742188 8.984375 -34.046875 C 7.953125 -31.359375 7.4375 -28.425781 7.4375 -25.25 C 7.4375 -22.03125 7.960938 -19.046875 9.015625 -16.296875 C 10.078125 -13.554688 11.582031 -11.1875 13.53125 -9.1875 C 15.476562 -7.195312 17.757812 -5.648438 20.375 -4.546875 C 23 -3.441406 25.898438 -2.890625 29.078125 -2.890625 C 30.992188 -2.890625 32.898438 -3.164062 34.796875 -3.71875 C 36.703125 -4.269531 38.425781 -5.035156 39.96875 -6.015625 C 41.507812 -7.003906 42.734375 -8.125 43.640625 -9.375 L 45.59375 -6.203125 C 44.4375 -4.859375 42.957031 -3.664062 41.15625 -2.625 C 39.351562 -1.59375 37.40625 -0.773438 35.3125 -0.171875 C 33.21875 0.421875 31.140625 0.71875 29.078125 0.71875 Z M 29.078125 0.71875 "/></g></g></g><g fill="#213343" fill-opacity="1"><g transform="translate(1021.887642, 438.176221)"><g><path d="M 28.34375 0.71875 C 24.738281 0.71875 21.429688 0.0820312 18.421875 -1.1875 C 15.421875 -2.46875 12.800781 -4.25 10.5625 -6.53125 C 8.332031 -8.8125 6.613281 -11.523438 5.40625 -14.671875 C 4.207031 -17.828125 3.609375 -21.28125 3.609375 -25.03125 C 3.609375 -28.78125 4.207031 -32.226562 5.40625 -35.375 C 6.613281 -38.53125 8.332031 -41.257812 10.5625 -43.5625 C 12.800781 -45.875 15.421875 -47.664062 18.421875 -48.9375 C 21.429688 -50.21875 24.738281 -50.859375 28.34375 -50.859375 C 31.957031 -50.859375 35.28125 -50.21875 38.3125 -48.9375 C 41.34375 -47.664062 43.960938 -45.875 46.171875 -43.5625 C 48.378906 -41.257812 50.097656 -38.53125 51.328125 -35.375 C 52.554688 -32.226562 53.171875 -28.78125 53.171875 -25.03125 C 53.171875 -21.28125 52.554688 -17.828125 51.328125 -14.671875 C 50.097656 -11.523438 48.378906 -8.8125 46.171875 -6.53125 C 43.960938 -4.25 41.34375 -2.46875 38.3125 -1.1875 C 35.28125 0.0820312 31.957031 0.71875 28.34375 0.71875 Z M 28.34375 -2.890625 C 31.375 -2.890625 34.175781 -3.425781 36.75 -4.5 C 39.320312 -5.582031 41.546875 -7.125 43.421875 -9.125 C 45.296875 -11.125 46.75 -13.46875 47.78125 -16.15625 C 48.820312 -18.851562 49.34375 -21.8125 49.34375 -25.03125 C 49.34375 -28.25 48.820312 -31.21875 47.78125 -33.9375 C 46.75 -36.65625 45.296875 -39 43.421875 -40.96875 C 41.546875 -42.945312 39.320312 -44.488281 36.75 -45.59375 C 34.175781 -46.695312 31.375 -47.25 28.34375 -47.25 C 25.320312 -47.25 22.523438 -46.695312 19.953125 -45.59375 C 17.378906 -44.488281 15.164062 -42.945312 13.3125 -40.96875 C 11.457031 -39 10.015625 -36.65625 8.984375 -33.9375 C 7.953125 -31.21875 7.4375 -28.25 7.4375 -25.03125 C 7.4375 -21.8125 7.953125 -18.851562 8.984375 -16.15625 C 10.015625 -13.46875 11.457031 -11.125 13.3125 -9.125 C 15.164062 -7.125 17.378906 -5.582031 19.953125 -4.5 C 22.523438 -3.425781 25.320312 -2.890625 28.34375 -2.890625 Z M 28.34375 -2.890625 "/></g></g></g><g fill="#213343" fill-opacity="1"><g transform="translate(1075.770087, 438.176221)"><g><path d="M 7.796875 0 L 7.796875 -50.5 L 11.25 -50.5 L 31.53125 -17.53125 L 30.015625 -17.53125 L 50.578125 -50.5 L 53.671875 -50.5 L 53.671875 0 L 50.0625 0 L 50.0625 -25.328125 C 50.0625 -29.648438 50.097656 -33.539062 50.171875 -37 C 50.242188 -40.46875 50.425781 -43.910156 50.71875 -47.328125 L 51.796875 -45.953125 L 32.109375 -14.78125 L 29.078125 -14.78125 L 10.03125 -45.515625 L 10.75 -47.328125 C 11.039062 -44.097656 11.21875 -40.785156 11.28125 -37.390625 C 11.351562 -34.003906 11.390625 -29.984375 11.390625 -25.328125 L 11.390625 0 Z M 7.796875 0 "/></g></g></g></svg>