<svg xmlns="http://www.w3.org/2000/svg" xmlns:xlink="http://www.w3.org/1999/xlink" width="2400" zoomAndPan="magnify" viewBox="0 0 1800 862.499974" height="1150" preserveAspectRatio="xMidYMid meet" version="1.0"><defs><g/><clipPath id="a796cc2354"><path d="M 53 328 L 326 328 L 326 417.074219 L 53 417.074219 Z M 53 328 " clip-rule="nonzero"/></clipPath><clipPath id="97844fab49"><path d="M 32 314.382812 L 73 314.382812 L 73 343 L 32 343 Z M 32 314.382812 " clip-rule="nonzero"/></clipPath><clipPath id="103ae5b834"><path d="M 305 314.382812 L 347 314.382812 L 347 343 L 305 343 Z M 305 314.382812 " clip-rule="nonzero"/></clipPath></defs><g clip-path="url(#a796cc2354)"><path fill="#282827" d="M 321.867188 328.925781 C 303.535156 348.324219 282.648438 362.644531 260.042969 372.15625 C 237.4375 381.667969 213.421875 386.304688 189.265625 386.375 C 165.109375 386.304688 141.046875 381.695312 118.484375 372.15625 C 95.921875 362.617188 74.984375 348.339844 56.652344 328.941406 L 56.652344 328.921875 C 56.496094 328.757812 56.320312 328.625 56.117188 328.523438 C 55.917969 328.417969 55.707031 328.351562 55.480469 328.324219 C 55.257812 328.292969 55.035156 328.300781 54.816406 328.347656 C 54.59375 328.394531 54.386719 328.476562 54.195312 328.59375 C 54.003906 328.710938 53.835938 328.855469 53.691406 329.03125 C 53.550781 329.207031 53.441406 329.402344 53.367188 329.613281 C 53.289062 329.828125 53.253906 330.046875 53.253906 330.269531 C 53.253906 330.496094 53.289062 330.714844 53.367188 330.929688 C 62.492188 357 82.535156 379.40625 106.910156 394.347656 C 131.371094 409.40625 160.40625 417.183594 189.269531 417.207031 C 218.132812 417.230469 247.164062 409.40625 271.625 394.347656 C 296 379.394531 316.042969 357.007812 325.175781 330.929688 C 325.25 330.714844 325.285156 330.496094 325.285156 330.269531 C 325.285156 330.042969 325.25 329.824219 325.171875 329.613281 C 325.097656 329.398438 324.988281 329.207031 324.84375 329.03125 C 324.703125 328.855469 324.535156 328.707031 324.34375 328.589844 C 324.148438 328.472656 323.941406 328.390625 323.722656 328.347656 C 323.5 328.300781 323.277344 328.292969 323.054688 328.324219 C 322.828125 328.351562 322.617188 328.421875 322.417969 328.523438 C 322.214844 328.628906 322.039062 328.761719 321.882812 328.925781 Z M 321.867188 328.925781 " fill-opacity="1" fill-rule="nonzero"/></g><g clip-path="url(#97844fab49)"><path fill="#282827" d="M 65.234375 323.625 C 67.046875 323.183594 68.921875 322.882812 70.9375 322.160156 L 71.21875 322.058594 C 71.589844 321.925781 71.902344 321.703125 72.144531 321.386719 C 72.390625 321.074219 72.53125 320.71875 72.566406 320.324219 C 72.605469 319.925781 72.535156 319.550781 72.355469 319.199219 C 72.175781 318.84375 71.914062 318.5625 71.574219 318.359375 C 69.671875 317.253906 67.671875 316.359375 65.582031 315.675781 C 63.441406 315.273438 61.257812 314.585938 58.976562 314.648438 C 54.429688 314.386719 49.660156 315.601562 45.410156 317.773438 C 43.289062 318.882812 41.367188 320.265625 39.640625 321.921875 C 37.917969 323.582031 36.460938 325.449219 35.269531 327.523438 C 32.96875 331.578125 31.75 335.996094 32.265625 340.734375 C 32.308594 341.121094 32.453125 341.464844 32.695312 341.769531 C 32.9375 342.074219 33.246094 342.292969 33.613281 342.421875 C 33.980469 342.546875 34.355469 342.570312 34.734375 342.480469 C 35.117188 342.390625 35.441406 342.210938 35.71875 341.933594 L 36 341.640625 C 38.730469 338.867188 41.171875 336.183594 43.667969 334.058594 C 46.007812 331.972656 48.550781 330.171875 51.296875 328.660156 C 53.980469 327.289062 56.796875 325.941406 60.089844 325.066406 C 61.695312 324.445312 63.464844 324.203125 65.234375 323.625 Z M 65.234375 323.625 " fill-opacity="1" fill-rule="nonzero"/></g><g clip-path="url(#103ae5b834)"><path fill="#282827" d="M 343.039062 327.523438 C 341.851562 325.449219 340.394531 323.582031 338.667969 321.921875 C 336.941406 320.265625 335.019531 318.882812 332.898438 317.773438 C 328.648438 315.601562 323.882812 314.386719 319.335938 314.648438 C 317.054688 314.585938 314.867188 315.273438 312.726562 315.675781 C 310.636719 316.359375 308.636719 317.253906 306.734375 318.359375 C 306.394531 318.5625 306.132812 318.84375 305.953125 319.199219 C 305.773438 319.554688 305.703125 319.929688 305.742188 320.324219 C 305.78125 320.71875 305.921875 321.074219 306.167969 321.390625 C 306.410156 321.703125 306.722656 321.925781 307.097656 322.058594 L 307.371094 322.160156 C 309.390625 322.882812 311.265625 323.183594 313.074219 323.625 C 314.84375 324.203125 316.613281 324.445312 318.199219 325.066406 C 321.492188 325.941406 324.300781 327.289062 327 328.660156 C 329.742188 330.175781 332.28125 331.972656 334.621094 334.058594 C 337.128906 336.183594 339.570312 338.867188 342.289062 341.640625 L 342.574219 341.933594 C 342.847656 342.210938 343.175781 342.390625 343.554688 342.480469 C 343.933594 342.570312 344.308594 342.546875 344.675781 342.421875 C 345.046875 342.292969 345.351562 342.074219 345.59375 341.769531 C 345.835938 341.464844 345.980469 341.121094 346.023438 340.734375 C 346.5625 336.003906 345.347656 331.578125 343.039062 327.523438 Z M 343.039062 327.523438 " fill-opacity="1" fill-rule="nonzero"/></g><g fill="#161f32" fill-opacity="1"><g transform="translate(472.333867, 414.765439)"><g><path d="M 12.328125 0 L 12.328125 -128.5 L 39.59375 -128.5 L 39.59375 -73.453125 L 34.03125 -71.359375 C 35.300781 -75.535156 37.585938 -79.328125 40.890625 -82.734375 C 44.191406 -86.148438 48.15625 -88.898438 52.78125 -90.984375 C 57.414062 -93.066406 62.28125 -94.109375 67.375 -94.109375 C 74.320312 -94.109375 80.164062 -92.691406 84.90625 -89.859375 C 89.65625 -87.023438 93.242188 -82.800781 95.671875 -77.1875 C 98.109375 -71.570312 99.328125 -64.710938 99.328125 -56.609375 L 99.328125 0 L 71.359375 0 L 71.359375 -54.34375 C 71.359375 -58.050781 70.835938 -61.117188 69.796875 -63.546875 C 68.753906 -65.984375 67.160156 -67.804688 65.015625 -69.015625 C 62.878906 -70.234375 60.25 -70.785156 57.125 -70.671875 C 54.695312 -70.671875 52.441406 -70.296875 50.359375 -69.546875 C 48.273438 -68.796875 46.476562 -67.695312 44.96875 -66.25 C 43.46875 -64.800781 42.28125 -63.148438 41.40625 -61.296875 C 40.539062 -59.441406 40.109375 -57.414062 40.109375 -55.21875 L 40.109375 0 L 26.390625 0 C 23.148438 0 20.367188 0 18.046875 0 C 15.734375 0 13.828125 0 12.328125 0 Z M 12.328125 0 "/></g></g></g><g fill="#161f32" fill-opacity="1"><g transform="translate(575.624726, 414.765439)"><g><path d="M 46.359375 1.5625 C 38.609375 1.5625 31.691406 -0.488281 25.609375 -4.59375 C 19.535156 -8.707031 14.703125 -14.378906 11.109375 -21.609375 C 7.523438 -28.847656 5.734375 -37.039062 5.734375 -46.1875 C 5.734375 -55.5625 7.523438 -63.835938 11.109375 -71.015625 C 14.703125 -78.191406 19.625 -83.832031 25.875 -87.9375 C 32.125 -92.050781 39.242188 -94.109375 47.234375 -94.109375 C 51.628906 -94.109375 55.648438 -93.472656 59.296875 -92.203125 C 62.941406 -90.929688 66.15625 -89.164062 68.9375 -86.90625 C 71.71875 -84.644531 74.085938 -82.039062 76.046875 -79.09375 C 78.015625 -76.144531 79.460938 -72.988281 80.390625 -69.625 L 74.671875 -70.328125 L 74.671875 -92.203125 L 102.28125 -92.203125 L 102.28125 0 L 74.140625 0 L 74.140625 -22.21875 L 80.390625 -22.40625 C 79.460938 -19.15625 77.957031 -16.082031 75.875 -13.1875 C 73.789062 -10.300781 71.242188 -7.753906 68.234375 -5.546875 C 65.222656 -3.347656 61.863281 -1.613281 58.15625 -0.34375 C 54.457031 0.925781 50.523438 1.5625 46.359375 1.5625 Z M 54 -21.875 C 58.28125 -21.875 61.984375 -22.859375 65.109375 -24.828125 C 68.234375 -26.796875 70.664062 -29.601562 72.40625 -33.25 C 74.144531 -36.894531 75.015625 -41.207031 75.015625 -46.1875 C 75.015625 -51.164062 74.144531 -55.476562 72.40625 -59.125 C 70.664062 -62.769531 68.234375 -65.601562 65.109375 -67.625 C 61.984375 -69.65625 58.28125 -70.671875 54 -70.671875 C 49.832031 -70.671875 46.210938 -69.65625 43.140625 -67.625 C 40.078125 -65.601562 37.675781 -62.769531 35.9375 -59.125 C 34.207031 -55.476562 33.34375 -51.164062 33.34375 -46.1875 C 33.34375 -41.207031 34.207031 -36.894531 35.9375 -33.25 C 37.675781 -29.601562 40.078125 -26.796875 43.140625 -24.828125 C 46.210938 -22.859375 49.832031 -21.875 54 -21.875 Z M 54 -21.875 "/></g></g></g><g fill="#161f32" fill-opacity="1"><g transform="translate(683.082091, 414.765439)"><g><path d="M 52.78125 1.734375 C 43.875 1.734375 35.890625 -0.347656 28.828125 -4.515625 C 21.765625 -8.679688 16.175781 -14.378906 12.0625 -21.609375 C 7.957031 -28.847656 5.90625 -37.039062 5.90625 -46.1875 C 5.90625 -55.332031 7.957031 -63.519531 12.0625 -70.75 C 16.175781 -77.988281 21.765625 -83.691406 28.828125 -87.859375 C 35.890625 -92.023438 43.875 -94.109375 52.78125 -94.109375 C 61 -94.109375 68.550781 -92.660156 75.4375 -89.765625 C 82.332031 -86.878906 87.804688 -82.832031 91.859375 -77.625 L 76.75 -59.5625 C 75.125 -61.414062 73.210938 -63.148438 71.015625 -64.765625 C 68.816406 -66.390625 66.382812 -67.664062 63.71875 -68.59375 C 61.0625 -69.519531 58.285156 -69.984375 55.390625 -69.984375 C 50.992188 -69.984375 47.113281 -68.96875 43.75 -66.9375 C 40.394531 -64.914062 37.789062 -62.109375 35.9375 -58.515625 C 34.09375 -54.929688 33.171875 -50.820312 33.171875 -46.1875 C 33.171875 -41.789062 34.125 -37.796875 36.03125 -34.203125 C 37.9375 -30.617188 40.566406 -27.785156 43.921875 -25.703125 C 47.285156 -23.617188 51.109375 -22.578125 55.390625 -22.578125 C 58.398438 -22.578125 61.175781 -22.953125 63.71875 -23.703125 C 66.269531 -24.453125 68.613281 -25.578125 70.75 -27.078125 C 72.894531 -28.585938 74.894531 -30.441406 76.75 -32.640625 L 91.6875 -14.40625 C 87.75 -9.4375 82.273438 -5.503906 75.265625 -2.609375 C 68.265625 0.285156 60.769531 1.734375 52.78125 1.734375 Z M 52.78125 1.734375 "/></g></g></g><g fill="#161f32" fill-opacity="1"><g transform="translate(770.748434, 414.765439)"><g><path d="M 39.0625 -27.09375 L 28.828125 -47.921875 L 71.890625 -92.203125 L 108.53125 -92.203125 Z M 12.328125 0 L 12.328125 -128.5 L 40.109375 -128.5 L 40.109375 0 Z M 74.84375 0 L 42.375 -42.015625 L 61.984375 -57.296875 L 107.65625 0 Z M 74.84375 0 "/></g></g></g><g fill="#161f32" fill-opacity="1"><g transform="translate(872.476805, 414.765439)"><g><path d="M 47.234375 1.90625 C 39.242188 1.90625 32.148438 -0.144531 25.953125 -4.25 C 19.765625 -8.363281 14.875 -14.035156 11.28125 -21.265625 C 7.695312 -28.503906 5.90625 -36.753906 5.90625 -46.015625 C 5.90625 -55.273438 7.695312 -63.519531 11.28125 -70.75 C 14.875 -77.988281 19.796875 -83.691406 26.046875 -87.859375 C 32.296875 -92.023438 39.472656 -94.109375 47.578125 -94.109375 C 51.742188 -94.109375 55.734375 -93.472656 59.546875 -92.203125 C 63.367188 -90.929688 66.84375 -89.191406 69.96875 -86.984375 C 73.101562 -84.785156 75.648438 -82.269531 77.609375 -79.4375 C 79.578125 -76.601562 80.738281 -73.679688 81.09375 -70.671875 L 74.484375 -69.109375 L 74.484375 -128.5 L 102.453125 -128.5 L 102.453125 0 L 76.578125 0 L 75.015625 -21.015625 L 80.5625 -20.140625 C 80.21875 -17.242188 79.085938 -14.460938 77.171875 -11.796875 C 75.265625 -9.140625 72.804688 -6.796875 69.796875 -4.765625 C 66.785156 -2.742188 63.34375 -1.128906 59.46875 0.078125 C 55.59375 1.296875 51.515625 1.90625 47.234375 1.90625 Z M 54.34375 -21.1875 C 58.632812 -21.1875 62.34375 -22.226562 65.46875 -24.3125 C 68.59375 -26.394531 70.992188 -29.285156 72.671875 -32.984375 C 74.347656 -36.691406 75.1875 -41.035156 75.1875 -46.015625 C 75.1875 -51.109375 74.347656 -55.503906 72.671875 -59.203125 C 70.992188 -62.910156 68.59375 -65.804688 65.46875 -67.890625 C 62.34375 -69.972656 58.632812 -71.015625 54.34375 -71.015625 C 50.0625 -71.015625 46.382812 -69.972656 43.3125 -67.890625 C 40.25 -65.804688 37.847656 -62.910156 36.109375 -59.203125 C 34.378906 -55.503906 33.515625 -51.109375 33.515625 -46.015625 C 33.515625 -41.035156 34.378906 -36.691406 36.109375 -32.984375 C 37.847656 -29.285156 40.25 -26.394531 43.3125 -24.3125 C 46.382812 -22.226562 50.0625 -21.1875 54.34375 -21.1875 Z M 54.34375 -21.1875 "/></g></g></g><g fill="#161f32" fill-opacity="1"><g transform="translate(979.066173, 414.765439)"><g><path d="M 56.265625 1.734375 C 46.078125 1.734375 37.21875 -0.316406 29.6875 -4.421875 C 22.164062 -8.535156 16.320312 -14.148438 12.15625 -21.265625 C 7.988281 -28.390625 5.90625 -36.523438 5.90625 -45.671875 C 5.90625 -52.734375 7.0625 -59.210938 9.375 -65.109375 C 11.6875 -71.015625 14.925781 -76.140625 19.09375 -80.484375 C 23.257812 -84.828125 28.207031 -88.179688 33.9375 -90.546875 C 39.675781 -92.921875 45.957031 -94.109375 52.78125 -94.109375 C 59.269531 -94.109375 65.203125 -92.953125 70.578125 -90.640625 C 75.960938 -88.328125 80.625 -85.085938 84.5625 -80.921875 C 88.5 -76.753906 91.507812 -71.832031 93.59375 -66.15625 C 95.675781 -60.488281 96.601562 -54.296875 96.375 -47.578125 L 96.203125 -40.109375 L 22.75 -40.109375 L 18.75 -55.734375 L 73.625 -55.734375 L 70.671875 -52.4375 L 70.671875 -55.90625 C 70.441406 -58.800781 69.546875 -61.378906 67.984375 -63.640625 C 66.421875 -65.898438 64.363281 -67.664062 61.8125 -68.9375 C 59.269531 -70.207031 56.378906 -70.84375 53.140625 -70.84375 C 48.617188 -70.84375 44.765625 -69.945312 41.578125 -68.15625 C 38.398438 -66.363281 36 -63.757812 34.375 -60.34375 C 32.757812 -56.925781 31.953125 -52.726562 31.953125 -47.75 C 31.953125 -42.65625 33.019531 -38.226562 35.15625 -34.46875 C 37.300781 -30.707031 40.425781 -27.785156 44.53125 -25.703125 C 48.644531 -23.617188 53.539062 -22.578125 59.21875 -22.578125 C 63.144531 -22.578125 66.640625 -23.15625 69.703125 -24.3125 C 72.773438 -25.46875 76.109375 -27.4375 79.703125 -30.21875 L 92.71875 -11.8125 C 89.132812 -8.6875 85.316406 -6.140625 81.265625 -4.171875 C 77.210938 -2.203125 73.070312 -0.726562 68.84375 0.25 C 64.625 1.238281 60.429688 1.734375 56.265625 1.734375 Z M 56.265625 1.734375 "/></g></g></g><g fill="#161f32" fill-opacity="1"><g transform="translate(1073.850265, 414.765439)"><g><path d="M 12.328125 0 L 12.328125 -92.203125 L 38.71875 -92.203125 L 39.59375 -73.453125 L 34.03125 -71.359375 C 35.300781 -75.535156 37.585938 -79.328125 40.890625 -82.734375 C 44.191406 -86.148438 48.15625 -88.898438 52.78125 -90.984375 C 57.414062 -93.066406 62.28125 -94.109375 67.375 -94.109375 C 74.320312 -94.109375 80.164062 -92.691406 84.90625 -89.859375 C 89.65625 -87.023438 93.242188 -82.800781 95.671875 -77.1875 C 98.109375 -71.570312 99.328125 -64.710938 99.328125 -56.609375 L 99.328125 0 L 71.359375 0 L 71.359375 -54.34375 C 71.359375 -58.050781 70.835938 -61.117188 69.796875 -63.546875 C 68.753906 -65.984375 67.160156 -67.804688 65.015625 -69.015625 C 62.878906 -70.234375 60.25 -70.785156 57.125 -70.671875 C 54.695312 -70.671875 52.441406 -70.296875 50.359375 -69.546875 C 48.273438 -68.796875 46.476562 -67.695312 44.96875 -66.25 C 43.46875 -64.800781 42.28125 -63.148438 41.40625 -61.296875 C 40.539062 -59.441406 40.109375 -57.414062 40.109375 -55.21875 L 40.109375 0 L 26.390625 0 C 23.148438 0 20.367188 0 18.046875 0 C 15.734375 0 13.828125 0 12.328125 0 Z M 12.328125 0 "/></g></g></g><g fill="#161f32" fill-opacity="1"><g transform="translate(1177.141103, 414.765439)"><g><path d="M 19.96875 0 L 19.96875 -115.46875 L 47.75 -115.46875 L 47.75 0 Z M 3.640625 -67.890625 L 3.640625 -92.203125 L 65.640625 -92.203125 L 65.640625 -67.890625 Z M 3.640625 -67.890625 "/></g></g></g><g fill="#161f32" fill-opacity="1"><g transform="translate(1239.287417, 414.765439)"><g><path d="M 46.359375 1.5625 C 38.609375 1.5625 31.691406 -0.488281 25.609375 -4.59375 C 19.535156 -8.707031 14.703125 -14.378906 11.109375 -21.609375 C 7.523438 -28.847656 5.734375 -37.039062 5.734375 -46.1875 C 5.734375 -55.5625 7.523438 -63.835938 11.109375 -71.015625 C 14.703125 -78.191406 19.625 -83.832031 25.875 -87.9375 C 32.125 -92.050781 39.242188 -94.109375 47.234375 -94.109375 C 51.628906 -94.109375 55.648438 -93.472656 59.296875 -92.203125 C 62.941406 -90.929688 66.15625 -89.164062 68.9375 -86.90625 C 71.71875 -84.644531 74.085938 -82.039062 76.046875 -79.09375 C 78.015625 -76.144531 79.460938 -72.988281 80.390625 -69.625 L 74.671875 -70.328125 L 74.671875 -92.203125 L 102.28125 -92.203125 L 102.28125 0 L 74.140625 0 L 74.140625 -22.21875 L 80.390625 -22.40625 C 79.460938 -19.15625 77.957031 -16.082031 75.875 -13.1875 C 73.789062 -10.300781 71.242188 -7.753906 68.234375 -5.546875 C 65.222656 -3.347656 61.863281 -1.613281 58.15625 -0.34375 C 54.457031 0.925781 50.523438 1.5625 46.359375 1.5625 Z M 54 -21.875 C 58.28125 -21.875 61.984375 -22.859375 65.109375 -24.828125 C 68.234375 -26.796875 70.664062 -29.601562 72.40625 -33.25 C 74.144531 -36.894531 75.015625 -41.207031 75.015625 -46.1875 C 75.015625 -51.164062 74.144531 -55.476562 72.40625 -59.125 C 70.664062 -62.769531 68.234375 -65.601562 65.109375 -67.625 C 61.984375 -69.65625 58.28125 -70.671875 54 -70.671875 C 49.832031 -70.671875 46.210938 -69.65625 43.140625 -67.625 C 40.078125 -65.601562 37.675781 -62.769531 35.9375 -59.125 C 34.207031 -55.476562 33.34375 -51.164062 33.34375 -46.1875 C 33.34375 -41.207031 34.207031 -36.894531 35.9375 -33.25 C 37.675781 -29.601562 40.078125 -26.796875 43.140625 -24.828125 C 46.210938 -22.859375 49.832031 -21.875 54 -21.875 Z M 54 -21.875 "/></g></g></g><g fill="#161f32" fill-opacity="1"><g transform="translate(1346.744761, 414.765439)"><g><path d="M 12.5 0 L 12.5 -128.5 L 40.28125 -128.5 L 40.28125 0 Z M 12.5 0 "/></g></g></g><g fill="#161f32" fill-opacity="1"><g transform="translate(1392.610843, 414.765439)"><g><path d="M 19.796875 1.734375 C 16.671875 1.734375 14.269531 0.8125 12.59375 -1.03125 C 10.914062 -2.882812 10.078125 -5.550781 10.078125 -9.03125 C 10.078125 -12.15625 10.972656 -14.726562 12.765625 -16.75 C 14.554688 -18.78125 16.898438 -19.796875 19.796875 -19.796875 C 22.921875 -19.796875 25.320312 -18.835938 27 -16.921875 C 28.675781 -15.015625 29.515625 -12.382812 29.515625 -9.03125 C 29.515625 -5.789062 28.617188 -3.1875 26.828125 -1.21875 C 25.035156 0.75 22.691406 1.734375 19.796875 1.734375 Z M 19.796875 1.734375 "/></g></g></g><g fill="#161f32" fill-opacity="1"><g transform="translate(1425.244169, 414.765439)"><g><path d="M 50.875 1.734375 C 42.3125 1.734375 34.671875 -0.316406 27.953125 -4.421875 C 21.242188 -8.535156 15.945312 -14.148438 12.0625 -21.265625 C 8.1875 -28.390625 6.25 -36.46875 6.25 -45.5 C 6.25 -54.519531 8.1875 -62.585938 12.0625 -69.703125 C 15.945312 -76.828125 21.242188 -82.414062 27.953125 -86.46875 C 34.671875 -90.519531 42.367188 -92.546875 51.046875 -92.546875 C 58.804688 -92.546875 65.867188 -91.007812 72.234375 -87.9375 C 78.597656 -84.875 83.691406 -80.625 87.515625 -75.1875 L 79.875 -65.8125 C 77.675781 -68.707031 75.039062 -71.253906 71.96875 -73.453125 C 68.90625 -75.648438 65.609375 -77.351562 62.078125 -78.5625 C 58.546875 -79.78125 55.046875 -80.390625 51.578125 -80.390625 C 45.441406 -80.390625 39.941406 -78.851562 35.078125 -75.78125 C 30.210938 -72.71875 26.363281 -68.582031 23.53125 -63.375 C 20.695312 -58.164062 19.28125 -52.207031 19.28125 -45.5 C 19.28125 -38.78125 20.695312 -32.785156 23.53125 -27.515625 C 26.363281 -22.253906 30.210938 -18.117188 35.078125 -15.109375 C 39.941406 -12.097656 45.378906 -10.59375 51.390625 -10.59375 C 54.867188 -10.59375 58.285156 -11.140625 61.640625 -12.234375 C 64.992188 -13.335938 68.175781 -14.929688 71.1875 -17.015625 C 74.195312 -19.097656 76.976562 -21.703125 79.53125 -24.828125 L 87.171875 -15.453125 C 83.234375 -10.242188 77.960938 -6.078125 71.359375 -2.953125 C 64.765625 0.171875 57.9375 1.734375 50.875 1.734375 Z M 50.875 1.734375 "/></g></g></g><g fill="#161f32" fill-opacity="1"><g transform="translate(1509.612017, 414.765439)"><g><path d="M 52.78125 1.734375 C 43.757812 1.734375 35.742188 -0.289062 28.734375 -4.34375 C 21.734375 -8.394531 16.234375 -14.007812 12.234375 -21.1875 C 8.242188 -28.363281 6.25 -36.523438 6.25 -45.671875 C 6.25 -54.703125 8.242188 -62.742188 12.234375 -69.796875 C 16.234375 -76.859375 21.734375 -82.414062 28.734375 -86.46875 C 35.742188 -90.519531 43.757812 -92.546875 52.78125 -92.546875 C 61.695312 -92.546875 69.65625 -90.519531 76.65625 -86.46875 C 83.664062 -82.414062 89.164062 -76.859375 93.15625 -69.796875 C 97.15625 -62.742188 99.15625 -54.703125 99.15625 -45.671875 C 99.15625 -36.523438 97.15625 -28.363281 93.15625 -21.1875 C 89.164062 -14.007812 83.664062 -8.394531 76.65625 -4.34375 C 69.65625 -0.289062 61.695312 1.734375 52.78125 1.734375 Z M 52.78125 -10.59375 C 59.15625 -10.59375 64.828125 -12.125 69.796875 -15.1875 C 74.773438 -18.257812 78.65625 -22.425781 81.4375 -27.6875 C 84.21875 -32.957031 85.609375 -38.953125 85.609375 -45.671875 C 85.609375 -52.378906 84.21875 -58.335938 81.4375 -63.546875 C 78.65625 -68.753906 74.773438 -72.832031 69.796875 -75.78125 C 64.828125 -78.738281 59.15625 -80.21875 52.78125 -80.21875 C 46.414062 -80.21875 40.710938 -78.738281 35.671875 -75.78125 C 30.640625 -72.832031 26.707031 -68.722656 23.875 -63.453125 C 21.039062 -58.191406 19.679688 -52.265625 19.796875 -45.671875 C 19.679688 -38.953125 21.039062 -32.957031 23.875 -27.6875 C 26.707031 -22.425781 30.640625 -18.257812 35.671875 -15.1875 C 40.710938 -12.125 46.414062 -10.59375 52.78125 -10.59375 Z M 52.78125 -10.59375 "/></g></g></g><g fill="#161f32" fill-opacity="1"><g transform="translate(1608.041871, 414.765439)"><g><path d="M 12.5 0 L 12.5 -90.640625 L 25.53125 -90.640625 L 25.875 -69.984375 L 23.265625 -69.109375 C 24.191406 -72.578125 25.722656 -75.726562 27.859375 -78.5625 C 30.003906 -81.40625 32.582031 -83.867188 35.59375 -85.953125 C 38.601562 -88.035156 41.898438 -89.625 45.484375 -90.71875 C 49.078125 -91.820312 52.84375 -92.375 56.78125 -92.375 C 61.53125 -92.375 65.785156 -91.59375 69.546875 -90.03125 C 73.304688 -88.46875 76.488281 -85.804688 79.09375 -82.046875 C 81.695312 -78.285156 83.691406 -73.335938 85.078125 -67.203125 L 81.953125 -68.765625 L 83.171875 -71.71875 C 84.328125 -74.375 86.035156 -76.945312 88.296875 -79.4375 C 90.554688 -81.925781 93.160156 -84.15625 96.109375 -86.125 C 99.054688 -88.09375 102.296875 -89.625 105.828125 -90.71875 C 109.359375 -91.820312 112.976562 -92.375 116.6875 -92.375 C 123.050781 -92.375 128.429688 -91.015625 132.828125 -88.296875 C 137.234375 -85.578125 140.5625 -81.4375 142.8125 -75.875 C 145.070312 -70.320312 146.203125 -63.265625 146.203125 -54.703125 L 146.203125 0 L 132.828125 0 L 132.828125 -54 C 132.828125 -60.019531 132.078125 -64.9375 130.578125 -68.75 C 129.078125 -72.570312 126.847656 -75.4375 123.890625 -77.34375 C 120.941406 -79.257812 117.207031 -80.21875 112.6875 -80.21875 C 108.75 -80.21875 105.128906 -79.550781 101.828125 -78.21875 C 98.535156 -76.894531 95.703125 -75.046875 93.328125 -72.671875 C 90.953125 -70.296875 89.097656 -67.601562 87.765625 -64.59375 C 86.441406 -61.582031 85.78125 -58.34375 85.78125 -54.875 L 85.78125 0 L 72.578125 0 L 72.578125 -54.171875 C 72.578125 -59.960938 71.796875 -64.765625 70.234375 -68.578125 C 68.671875 -72.398438 66.382812 -75.296875 63.375 -77.265625 C 60.363281 -79.234375 56.660156 -80.21875 52.265625 -80.21875 C 48.441406 -80.21875 44.910156 -79.550781 41.671875 -78.21875 C 38.429688 -76.894531 35.625 -75.070312 33.25 -72.75 C 30.875 -70.4375 29.019531 -67.773438 27.6875 -64.765625 C 26.363281 -61.753906 25.703125 -58.515625 25.703125 -55.046875 L 25.703125 0 Z M 12.5 0 "/></g></g></g><g fill="#383947" fill-opacity="1"><g transform="translate(31.566081, 569.831172)"><g><path d="M 11.40625 0 L 11.40625 -77.53125 L 19.828125 -77.53125 L 49.625 -29.125 L 45.640625 -29.234375 L 75.765625 -77.53125 L 83.625 -77.53125 L 83.625 0 L 74.984375 0 L 74.984375 -35.4375 C 74.984375 -42.082031 75.09375 -48.0625 75.3125 -53.375 C 75.539062 -58.695312 75.953125 -63.984375 76.546875 -69.234375 L 78.09375 -66.125 L 50.28125 -22.484375 L 44.3125 -22.484375 L 17.28125 -65.578125 L 18.5 -69.234375 C 19.09375 -64.285156 19.5 -59.207031 19.71875 -54 C 19.9375 -48.789062 20.046875 -42.601562 20.046875 -35.4375 L 20.046875 0 Z M 11.40625 0 "/></g></g></g><g fill="#383947" fill-opacity="1"><g transform="translate(126.608225, 569.831172)"><g><path d="M 30.6875 1.109375 C 25.664062 1.109375 21.125 -0.195312 17.0625 -2.8125 C 13 -5.4375 9.785156 -9.019531 7.421875 -13.5625 C 5.054688 -18.101562 3.875 -23.253906 3.875 -29.015625 C 3.875 -34.847656 5.09375 -40.015625 7.53125 -44.515625 C 9.96875 -49.023438 13.234375 -52.570312 17.328125 -55.15625 C 21.429688 -57.738281 26.03125 -59.03125 31.125 -59.03125 C 34.15625 -59.03125 36.960938 -58.585938 39.546875 -57.703125 C 42.128906 -56.816406 44.4375 -55.578125 46.46875 -53.984375 C 48.5 -52.398438 50.195312 -50.554688 51.5625 -48.453125 C 52.925781 -46.347656 53.867188 -44.078125 54.390625 -41.640625 L 51.953125 -42.859375 L 52.28125 -57.8125 L 60.59375 -57.8125 L 60.59375 0 L 52.171875 0 L 52.171875 -14.171875 L 54.390625 -15.625 C 53.867188 -13.40625 52.867188 -11.28125 51.390625 -9.25 C 49.921875 -7.21875 48.128906 -5.425781 46.015625 -3.875 C 43.910156 -2.320312 41.546875 -1.101562 38.921875 -0.21875 C 36.304688 0.664062 33.5625 1.109375 30.6875 1.109375 Z M 32.5625 -6.875 C 36.40625 -6.875 39.835938 -7.8125 42.859375 -9.6875 C 45.890625 -11.570312 48.269531 -14.191406 50 -17.546875 C 51.738281 -20.910156 52.609375 -24.734375 52.609375 -29.015625 C 52.609375 -33.296875 51.738281 -37.097656 50 -40.421875 C 48.269531 -43.742188 45.890625 -46.363281 42.859375 -48.28125 C 39.835938 -50.207031 36.40625 -51.171875 32.5625 -51.171875 C 28.644531 -51.171875 25.191406 -50.207031 22.203125 -48.28125 C 19.210938 -46.363281 16.847656 -43.742188 15.109375 -40.421875 C 13.378906 -37.097656 12.515625 -33.296875 12.515625 -29.015625 C 12.515625 -24.804688 13.363281 -21.019531 15.0625 -17.65625 C 16.757812 -14.300781 19.117188 -11.664062 22.140625 -9.75 C 25.171875 -7.832031 28.644531 -6.875 32.5625 -6.875 Z M 32.5625 -6.875 "/></g></g></g><g fill="#383947" fill-opacity="1"><g transform="translate(195.286653, 569.831172)"><g><path d="M 8.078125 0 L 8.078125 -57.8125 L 16.390625 -57.8125 L 16.609375 -42.421875 L 15.734375 -44.53125 C 16.546875 -47.113281 17.851562 -49.507812 19.65625 -51.71875 C 21.46875 -53.9375 23.628906 -55.707031 26.140625 -57.03125 C 28.648438 -58.363281 31.421875 -59.03125 34.453125 -59.03125 C 35.703125 -59.03125 36.878906 -58.9375 37.984375 -58.75 C 39.097656 -58.570312 40.023438 -58.335938 40.765625 -58.046875 L 38.4375 -48.734375 C 37.476562 -49.179688 36.5 -49.492188 35.5 -49.671875 C 34.5 -49.859375 33.554688 -49.953125 32.671875 -49.953125 C 30.160156 -49.953125 27.90625 -49.507812 25.90625 -48.625 C 23.914062 -47.738281 22.21875 -46.5 20.8125 -44.90625 C 19.414062 -43.320312 18.347656 -41.492188 17.609375 -39.421875 C 16.867188 -37.359375 16.5 -35.144531 16.5 -32.78125 L 16.5 0 Z M 8.078125 0 "/></g></g></g><g fill="#383947" fill-opacity="1"><g transform="translate(236.604548, 569.831172)"><g><path d="M 15.5 -18.609375 L 15.171875 -28.25 L 45.40625 -57.8125 L 56.59375 -57.8125 Z M 8.078125 0 L 8.078125 -81.96875 L 16.390625 -81.96875 L 16.390625 0 Z M 47.734375 0 L 23.375 -28.25 L 29.234375 -34 L 58.59375 0 Z M 47.734375 0 "/></g></g></g><g fill="#383947" fill-opacity="1"><g transform="translate(296.199737, 569.831172)"><g><path d="M 33.5625 1.109375 C 27.800781 1.109375 22.6875 -0.144531 18.21875 -2.65625 C 13.75 -5.164062 10.257812 -8.671875 7.75 -13.171875 C 5.238281 -17.679688 3.984375 -22.851562 3.984375 -28.6875 C 3.984375 -33.1875 4.6875 -37.265625 6.09375 -40.921875 C 7.5 -44.578125 9.472656 -47.769531 12.015625 -50.5 C 14.566406 -53.238281 17.613281 -55.363281 21.15625 -56.875 C 24.695312 -58.394531 28.535156 -59.15625 32.671875 -59.15625 C 36.585938 -59.15625 40.148438 -58.453125 43.359375 -57.046875 C 46.578125 -55.640625 49.347656 -53.695312 51.671875 -51.21875 C 53.992188 -48.75 55.742188 -45.816406 56.921875 -42.421875 C 58.109375 -39.023438 58.628906 -35.296875 58.484375 -31.234375 L 58.375 -27.359375 L 10.1875 -27.359375 L 8.96875 -34.34375 L 52.0625 -34.34375 L 50.0625 -32.453125 L 50.0625 -35.109375 C 49.914062 -37.765625 49.140625 -40.328125 47.734375 -42.796875 C 46.335938 -45.273438 44.363281 -47.289062 41.8125 -48.84375 C 39.269531 -50.394531 36.222656 -51.171875 32.671875 -51.171875 C 28.535156 -51.171875 24.953125 -50.335938 21.921875 -48.671875 C 18.898438 -47.015625 16.578125 -44.5625 14.953125 -41.3125 C 13.328125 -38.0625 12.515625 -34.035156 12.515625 -29.234375 C 12.515625 -24.660156 13.398438 -20.691406 15.171875 -17.328125 C 16.941406 -13.972656 19.46875 -11.367188 22.75 -9.515625 C 26.039062 -7.671875 30.015625 -6.75 34.671875 -6.75 C 37.398438 -6.75 40.113281 -7.210938 42.8125 -8.140625 C 45.507812 -9.066406 48.484375 -10.894531 51.734375 -13.625 L 56.046875 -7.640625 C 54.347656 -5.941406 52.316406 -4.445312 49.953125 -3.15625 C 47.585938 -1.863281 45.003906 -0.828125 42.203125 -0.046875 C 39.398438 0.722656 36.519531 1.109375 33.5625 1.109375 Z M 33.5625 1.109375 "/></g></g></g><g fill="#383947" fill-opacity="1"><g transform="translate(358.453462, 569.831172)"><g><path d="M 16.0625 0 L 16.0625 -73 L 24.375 -73 L 24.375 0 Z M 2.984375 -49.84375 L 2.984375 -57.8125 L 38.984375 -57.8125 L 38.984375 -49.84375 Z M 2.984375 -49.84375 "/></g></g></g><g fill="#383947" fill-opacity="1"><g transform="translate(399.549724, 569.831172)"><g><path d="M 10.296875 0 L 10.296875 -57.8125 L 18.609375 -57.8125 L 18.609375 0 Z M 14.40625 -70.34375 C 12.332031 -70.34375 10.757812 -70.875 9.6875 -71.9375 C 8.613281 -73.007812 8.078125 -74.46875 8.078125 -76.3125 C 8.078125 -78.164062 8.628906 -79.644531 9.734375 -80.75 C 10.847656 -81.851562 12.40625 -82.40625 14.40625 -82.40625 C 16.394531 -82.40625 17.941406 -81.867188 19.046875 -80.796875 C 20.160156 -79.734375 20.71875 -78.238281 20.71875 -76.3125 C 20.71875 -74.539062 20.160156 -73.101562 19.046875 -72 C 17.941406 -70.894531 16.394531 -70.34375 14.40625 -70.34375 Z M 14.40625 -70.34375 "/></g></g></g><g fill="#383947" fill-opacity="1"><g transform="translate(428.239631, 569.831172)"><g><path d="M 8.078125 0 L 8.078125 -57.8125 L 16.28125 -57.8125 L 16.609375 -45.75 L 15.28125 -45.1875 C 16.019531 -47.695312 17.457031 -49.984375 19.59375 -52.046875 C 21.738281 -54.117188 24.304688 -55.800781 27.296875 -57.09375 C 30.296875 -58.382812 33.378906 -59.03125 36.546875 -59.03125 C 40.835938 -59.03125 44.421875 -58.179688 47.296875 -56.484375 C 50.171875 -54.785156 52.347656 -52.164062 53.828125 -48.625 C 55.304688 -45.082031 56.046875 -40.578125 56.046875 -35.109375 L 56.046875 0 L 47.625 0 L 47.625 -34.671875 C 47.625 -38.503906 47.125 -41.65625 46.125 -44.125 C 45.132812 -46.601562 43.601562 -48.429688 41.53125 -49.609375 C 39.46875 -50.796875 36.921875 -51.351562 33.890625 -51.28125 C 31.378906 -51.28125 29.050781 -50.851562 26.90625 -50 C 24.769531 -49.15625 22.925781 -47.992188 21.375 -46.515625 C 19.820312 -45.046875 18.601562 -43.347656 17.71875 -41.421875 C 16.832031 -39.503906 16.390625 -37.4375 16.390625 -35.21875 L 16.390625 0 L 12.296875 0 C 11.773438 0 11.179688 0 10.515625 0 C 9.859375 0 9.046875 0 8.078125 0 Z M 8.078125 0 "/></g></g></g><g fill="#383947" fill-opacity="1"><g transform="translate(492.04415, 569.831172)"><g><path d="M 33.015625 25.46875 C 28.722656 25.46875 24.65625 24.800781 20.8125 23.46875 C 16.976562 22.144531 13.804688 20.488281 11.296875 18.5 L 14.625 11.515625 C 16.101562 12.703125 17.816406 13.753906 19.765625 14.671875 C 21.722656 15.597656 23.847656 16.335938 26.140625 16.890625 C 28.429688 17.441406 30.757812 17.71875 33.125 17.71875 C 37.40625 17.71875 41.039062 16.921875 44.03125 15.328125 C 47.019531 13.742188 49.304688 11.398438 50.890625 8.296875 C 52.484375 5.203125 53.28125 1.363281 53.28125 -3.21875 L 53.28125 -14.28125 L 54.609375 -14.625 C 53.941406 -11.8125 52.5 -9.207031 50.28125 -6.8125 C 48.070312 -4.414062 45.378906 -2.492188 42.203125 -1.046875 C 39.023438 0.390625 35.664062 1.109375 32.125 1.109375 C 26.726562 1.109375 21.90625 -0.179688 17.65625 -2.765625 C 13.414062 -5.347656 10.078125 -8.910156 7.640625 -13.453125 C 5.203125 -17.992188 3.984375 -23.144531 3.984375 -28.90625 C 3.984375 -34.738281 5.21875 -39.925781 7.6875 -44.46875 C 10.164062 -49.007812 13.507812 -52.570312 17.71875 -55.15625 C 21.925781 -57.738281 26.65625 -59.03125 31.90625 -59.03125 C 34.1875 -59.03125 36.398438 -58.753906 38.546875 -58.203125 C 40.691406 -57.648438 42.664062 -56.859375 44.46875 -55.828125 C 46.28125 -54.796875 47.921875 -53.613281 49.390625 -52.28125 C 50.867188 -50.945312 52.109375 -49.503906 53.109375 -47.953125 C 54.109375 -46.410156 54.828125 -44.828125 55.265625 -43.203125 L 52.953125 -43.53125 L 53.28125 -57.8125 L 61.578125 -57.8125 L 61.578125 -3.546875 C 61.578125 1.109375 60.910156 5.222656 59.578125 8.796875 C 58.253906 12.378906 56.316406 15.40625 53.765625 17.875 C 51.222656 20.351562 48.195312 22.238281 44.6875 23.53125 C 41.1875 24.820312 37.296875 25.46875 33.015625 25.46875 Z M 33.125 -6.875 C 37.03125 -6.875 40.515625 -7.8125 43.578125 -9.6875 C 46.648438 -11.570312 49.070312 -14.175781 50.84375 -17.5 C 52.613281 -20.820312 53.5 -24.660156 53.5 -29.015625 C 53.5 -33.296875 52.628906 -37.097656 50.890625 -40.421875 C 49.160156 -43.742188 46.742188 -46.363281 43.640625 -48.28125 C 40.535156 -50.207031 37.03125 -51.171875 33.125 -51.171875 C 29.132812 -51.171875 25.601562 -50.207031 22.53125 -48.28125 C 19.46875 -46.363281 17.050781 -43.742188 15.28125 -40.421875 C 13.507812 -37.097656 12.625 -33.296875 12.625 -29.015625 C 12.625 -24.804688 13.488281 -21.019531 15.21875 -17.65625 C 16.957031 -14.300781 19.359375 -11.664062 22.421875 -9.75 C 25.492188 -7.832031 29.0625 -6.875 33.125 -6.875 Z M 33.125 -6.875 "/></g></g></g><g fill="#383947" fill-opacity="1"><g transform="translate(561.719608, 569.831172)"><g/></g></g><g fill="#383947" fill-opacity="1"><g transform="translate(592.735707, 569.831172)"><g><path d="M 8.078125 24.375 L 8.078125 -57.8125 L 16.390625 -57.8125 L 16.609375 -43.75 L 15.0625 -43.53125 C 15.726562 -46.332031 17.164062 -48.894531 19.375 -51.21875 C 21.59375 -53.550781 24.289062 -55.414062 27.46875 -56.8125 C 30.644531 -58.21875 34.003906 -58.921875 37.546875 -58.921875 C 42.710938 -58.921875 47.34375 -57.628906 51.4375 -55.046875 C 55.539062 -52.460938 58.8125 -48.914062 61.25 -44.40625 C 63.6875 -39.90625 64.90625 -34.738281 64.90625 -28.90625 C 64.90625 -23.144531 63.722656 -18.007812 61.359375 -13.5 C 58.992188 -9 55.742188 -5.4375 51.609375 -2.8125 C 47.472656 -0.195312 42.820312 1.109375 37.65625 1.109375 C 34.039062 1.109375 30.609375 0.367188 27.359375 -1.109375 C 24.109375 -2.585938 21.335938 -4.523438 19.046875 -6.921875 C 16.765625 -9.316406 15.253906 -11.921875 14.515625 -14.734375 L 16.5 -14.734375 L 16.5 24.375 Z M 36.328125 -6.875 C 40.242188 -6.875 43.710938 -7.832031 46.734375 -9.75 C 49.765625 -11.664062 52.164062 -14.285156 53.9375 -17.609375 C 55.707031 -20.929688 56.59375 -24.695312 56.59375 -28.90625 C 56.59375 -33.1875 55.707031 -36.988281 53.9375 -40.3125 C 52.164062 -43.632812 49.765625 -46.253906 46.734375 -48.171875 C 43.710938 -50.097656 40.242188 -51.0625 36.328125 -51.0625 C 32.410156 -51.0625 28.921875 -50.117188 25.859375 -48.234375 C 22.796875 -46.347656 20.378906 -43.742188 18.609375 -40.421875 C 16.835938 -37.097656 15.953125 -33.296875 15.953125 -29.015625 C 15.953125 -24.734375 16.835938 -20.929688 18.609375 -17.609375 C 20.378906 -14.285156 22.796875 -11.664062 25.859375 -9.75 C 28.921875 -7.832031 32.410156 -6.875 36.328125 -6.875 Z M 36.328125 -6.875 "/></g></g></g><g fill="#383947" fill-opacity="1"><g transform="translate(661.635769, 569.831172)"><g><path d="M 30.6875 1.109375 C 25.664062 1.109375 21.125 -0.195312 17.0625 -2.8125 C 13 -5.4375 9.785156 -9.019531 7.421875 -13.5625 C 5.054688 -18.101562 3.875 -23.253906 3.875 -29.015625 C 3.875 -34.847656 5.09375 -40.015625 7.53125 -44.515625 C 9.96875 -49.023438 13.234375 -52.570312 17.328125 -55.15625 C 21.429688 -57.738281 26.03125 -59.03125 31.125 -59.03125 C 34.15625 -59.03125 36.960938 -58.585938 39.546875 -57.703125 C 42.128906 -56.816406 44.4375 -55.578125 46.46875 -53.984375 C 48.5 -52.398438 50.195312 -50.554688 51.5625 -48.453125 C 52.925781 -46.347656 53.867188 -44.078125 54.390625 -41.640625 L 51.953125 -42.859375 L 52.28125 -57.8125 L 60.59375 -57.8125 L 60.59375 0 L 52.171875 0 L 52.171875 -14.171875 L 54.390625 -15.625 C 53.867188 -13.40625 52.867188 -11.28125 51.390625 -9.25 C 49.921875 -7.21875 48.128906 -5.425781 46.015625 -3.875 C 43.910156 -2.320312 41.546875 -1.101562 38.921875 -0.21875 C 36.304688 0.664062 33.5625 1.109375 30.6875 1.109375 Z M 32.5625 -6.875 C 36.40625 -6.875 39.835938 -7.8125 42.859375 -9.6875 C 45.890625 -11.570312 48.269531 -14.191406 50 -17.546875 C 51.738281 -20.910156 52.609375 -24.734375 52.609375 -29.015625 C 52.609375 -33.296875 51.738281 -37.097656 50 -40.421875 C 48.269531 -43.742188 45.890625 -46.363281 42.859375 -48.28125 C 39.835938 -50.207031 36.40625 -51.171875 32.5625 -51.171875 C 28.644531 -51.171875 25.191406 -50.207031 22.203125 -48.28125 C 19.210938 -46.363281 16.847656 -43.742188 15.109375 -40.421875 C 13.378906 -37.097656 12.515625 -33.296875 12.515625 -29.015625 C 12.515625 -24.804688 13.363281 -21.019531 15.0625 -17.65625 C 16.757812 -14.300781 19.117188 -11.664062 22.140625 -9.75 C 25.171875 -7.832031 28.644531 -6.875 32.5625 -6.875 Z M 32.5625 -6.875 "/></g></g></g><g fill="#383947" fill-opacity="1"><g transform="translate(730.314197, 569.831172)"><g><path d="M 8.078125 0 L 8.078125 -57.8125 L 16.390625 -57.8125 L 16.609375 -42.421875 L 15.734375 -44.53125 C 16.546875 -47.113281 17.851562 -49.507812 19.65625 -51.71875 C 21.46875 -53.9375 23.628906 -55.707031 26.140625 -57.03125 C 28.648438 -58.363281 31.421875 -59.03125 34.453125 -59.03125 C 35.703125 -59.03125 36.878906 -58.9375 37.984375 -58.75 C 39.097656 -58.570312 40.023438 -58.335938 40.765625 -58.046875 L 38.4375 -48.734375 C 37.476562 -49.179688 36.5 -49.492188 35.5 -49.671875 C 34.5 -49.859375 33.554688 -49.953125 32.671875 -49.953125 C 30.160156 -49.953125 27.90625 -49.507812 25.90625 -48.625 C 23.914062 -47.738281 22.21875 -46.5 20.8125 -44.90625 C 19.414062 -43.320312 18.347656 -41.492188 17.609375 -39.421875 C 16.867188 -37.359375 16.5 -35.144531 16.5 -32.78125 L 16.5 0 Z M 8.078125 0 "/></g></g></g><g fill="#383947" fill-opacity="1"><g transform="translate(771.632092, 569.831172)"><g><path d="M 30.6875 1.109375 C 25.664062 1.109375 21.125 -0.195312 17.0625 -2.8125 C 13 -5.4375 9.785156 -9.019531 7.421875 -13.5625 C 5.054688 -18.101562 3.875 -23.253906 3.875 -29.015625 C 3.875 -34.847656 5.09375 -40.015625 7.53125 -44.515625 C 9.96875 -49.023438 13.234375 -52.570312 17.328125 -55.15625 C 21.429688 -57.738281 26.03125 -59.03125 31.125 -59.03125 C 34.15625 -59.03125 36.960938 -58.585938 39.546875 -57.703125 C 42.128906 -56.816406 44.4375 -55.578125 46.46875 -53.984375 C 48.5 -52.398438 50.195312 -50.554688 51.5625 -48.453125 C 52.925781 -46.347656 53.867188 -44.078125 54.390625 -41.640625 L 51.953125 -42.859375 L 52.28125 -57.8125 L 60.59375 -57.8125 L 60.59375 0 L 52.171875 0 L 52.171875 -14.171875 L 54.390625 -15.625 C 53.867188 -13.40625 52.867188 -11.28125 51.390625 -9.25 C 49.921875 -7.21875 48.128906 -5.425781 46.015625 -3.875 C 43.910156 -2.320312 41.546875 -1.101562 38.921875 -0.21875 C 36.304688 0.664062 33.5625 1.109375 30.6875 1.109375 Z M 32.5625 -6.875 C 36.40625 -6.875 39.835938 -7.8125 42.859375 -9.6875 C 45.890625 -11.570312 48.269531 -14.191406 50 -17.546875 C 51.738281 -20.910156 52.609375 -24.734375 52.609375 -29.015625 C 52.609375 -33.296875 51.738281 -37.097656 50 -40.421875 C 48.269531 -43.742188 45.890625 -46.363281 42.859375 -48.28125 C 39.835938 -50.207031 36.40625 -51.171875 32.5625 -51.171875 C 28.644531 -51.171875 25.191406 -50.207031 22.203125 -48.28125 C 19.210938 -46.363281 16.847656 -43.742188 15.109375 -40.421875 C 13.378906 -37.097656 12.515625 -33.296875 12.515625 -29.015625 C 12.515625 -24.804688 13.363281 -21.019531 15.0625 -17.65625 C 16.757812 -14.300781 19.117188 -11.664062 22.140625 -9.75 C 25.171875 -7.832031 28.644531 -6.875 32.5625 -6.875 Z M 32.5625 -6.875 "/></g></g></g><g fill="#383947" fill-opacity="1"><g transform="translate(840.31052, 569.831172)"><g/></g></g><g fill="#383947" fill-opacity="1"><g transform="translate(871.326619, 569.831172)"><g><path d="M 43.53125 1.109375 C 37.988281 1.109375 32.890625 0.128906 28.234375 -1.828125 C 23.585938 -3.785156 19.566406 -6.550781 16.171875 -10.125 C 12.773438 -13.707031 10.132812 -17.9375 8.25 -22.8125 C 6.363281 -27.6875 5.421875 -33.003906 5.421875 -38.765625 C 5.421875 -44.453125 6.363281 -49.675781 8.25 -54.4375 C 10.132812 -59.195312 12.8125 -63.367188 16.28125 -66.953125 C 19.75 -70.535156 23.769531 -73.285156 28.34375 -75.203125 C 32.925781 -77.128906 37.953125 -78.09375 43.421875 -78.09375 C 47.035156 -78.09375 50.613281 -77.519531 54.15625 -76.375 C 57.707031 -75.226562 60.976562 -73.65625 63.96875 -71.65625 C 66.957031 -69.664062 69.410156 -67.378906 71.328125 -64.796875 L 65.359375 -58.59375 C 63.503906 -60.8125 61.378906 -62.734375 58.984375 -64.359375 C 56.585938 -65.984375 54.054688 -67.238281 51.390625 -68.125 C 48.734375 -69.007812 46.078125 -69.453125 43.421875 -69.453125 C 39.285156 -69.453125 35.425781 -68.691406 31.84375 -67.171875 C 28.257812 -65.660156 25.175781 -63.539062 22.59375 -60.8125 C 20.007812 -58.082031 18 -54.832031 16.5625 -51.0625 C 15.125 -47.289062 14.40625 -43.191406 14.40625 -38.765625 C 14.40625 -34.191406 15.125 -29.984375 16.5625 -26.140625 C 18 -22.296875 20.066406 -18.988281 22.765625 -16.21875 C 25.460938 -13.457031 28.632812 -11.316406 32.28125 -9.796875 C 35.9375 -8.285156 40.019531 -7.53125 44.53125 -7.53125 C 47.1875 -7.53125 49.84375 -7.914062 52.5 -8.6875 C 55.15625 -9.46875 57.59375 -10.554688 59.8125 -11.953125 C 62.03125 -13.359375 63.914062 -14.945312 65.46875 -16.71875 L 69.890625 -9.53125 C 68.191406 -7.457031 65.921875 -5.625 63.078125 -4.03125 C 60.234375 -2.445312 57.113281 -1.191406 53.71875 -0.265625 C 50.320312 0.648438 46.925781 1.109375 43.53125 1.109375 Z M 43.53125 1.109375 "/></g></g></g><g fill="#383947" fill-opacity="1"><g transform="translate(946.208331, 569.831172)"><g><path d="M 8.3125 0 L 8.3125 -81.96875 L 16.609375 -81.96875 L 16.609375 0 Z M 8.3125 0 "/></g></g></g><g fill="#383947" fill-opacity="1"><g transform="translate(971.131963, 569.831172)"><g><path d="M 10.296875 0 L 10.296875 -57.8125 L 18.609375 -57.8125 L 18.609375 0 Z M 14.40625 -70.34375 C 12.332031 -70.34375 10.757812 -70.875 9.6875 -71.9375 C 8.613281 -73.007812 8.078125 -74.46875 8.078125 -76.3125 C 8.078125 -78.164062 8.628906 -79.644531 9.734375 -80.75 C 10.847656 -81.851562 12.40625 -82.40625 14.40625 -82.40625 C 16.394531 -82.40625 17.941406 -81.867188 19.046875 -80.796875 C 20.160156 -79.734375 20.71875 -78.238281 20.71875 -76.3125 C 20.71875 -74.539062 20.160156 -73.101562 19.046875 -72 C 17.941406 -70.894531 16.394531 -70.34375 14.40625 -70.34375 Z M 14.40625 -70.34375 "/></g></g></g><g fill="#383947" fill-opacity="1"><g transform="translate(999.82187, 569.831172)"><g><path d="M 8.078125 0 L 8.078125 -57.8125 L 16.28125 -57.8125 L 16.609375 -45.75 L 15.28125 -45.1875 C 16.019531 -47.695312 17.457031 -49.984375 19.59375 -52.046875 C 21.738281 -54.117188 24.304688 -55.800781 27.296875 -57.09375 C 30.296875 -58.382812 33.378906 -59.03125 36.546875 -59.03125 C 40.835938 -59.03125 44.421875 -58.179688 47.296875 -56.484375 C 50.171875 -54.785156 52.347656 -52.164062 53.828125 -48.625 C 55.304688 -45.082031 56.046875 -40.578125 56.046875 -35.109375 L 56.046875 0 L 47.625 0 L 47.625 -34.671875 C 47.625 -38.503906 47.125 -41.65625 46.125 -44.125 C 45.132812 -46.601562 43.601562 -48.429688 41.53125 -49.609375 C 39.46875 -50.796875 36.921875 -51.351562 33.890625 -51.28125 C 31.378906 -51.28125 29.050781 -50.851562 26.90625 -50 C 24.769531 -49.15625 22.925781 -47.992188 21.375 -46.515625 C 19.820312 -45.046875 18.601562 -43.347656 17.71875 -41.421875 C 16.832031 -39.503906 16.390625 -37.4375 16.390625 -35.21875 L 16.390625 0 L 12.296875 0 C 11.773438 0 11.179688 0 10.515625 0 C 9.859375 0 9.046875 0 8.078125 0 Z M 8.078125 0 "/></g></g></g><g fill="#383947" fill-opacity="1"><g transform="translate(1063.626389, 569.831172)"><g><path d="M 10.296875 0 L 10.296875 -57.8125 L 18.609375 -57.8125 L 18.609375 0 Z M 14.40625 -70.34375 C 12.332031 -70.34375 10.757812 -70.875 9.6875 -71.9375 C 8.613281 -73.007812 8.078125 -74.46875 8.078125 -76.3125 C 8.078125 -78.164062 8.628906 -79.644531 9.734375 -80.75 C 10.847656 -81.851562 12.40625 -82.40625 14.40625 -82.40625 C 16.394531 -82.40625 17.941406 -81.867188 19.046875 -80.796875 C 20.160156 -79.734375 20.71875 -78.238281 20.71875 -76.3125 C 20.71875 -74.539062 20.160156 -73.101562 19.046875 -72 C 17.941406 -70.894531 16.394531 -70.34375 14.40625 -70.34375 Z M 14.40625 -70.34375 "/></g></g></g><g fill="#383947" fill-opacity="1"><g transform="translate(1092.316296, 569.831172)"><g><path d="M 32.453125 1.109375 C 26.984375 1.109375 22.109375 -0.195312 17.828125 -2.8125 C 13.546875 -5.4375 10.164062 -9.019531 7.6875 -13.5625 C 5.21875 -18.101562 3.984375 -23.253906 3.984375 -29.015625 C 3.984375 -34.773438 5.21875 -39.925781 7.6875 -44.46875 C 10.164062 -49.007812 13.546875 -52.570312 17.828125 -55.15625 C 22.109375 -57.738281 27.019531 -59.03125 32.5625 -59.03125 C 37.507812 -59.03125 42.015625 -58.050781 46.078125 -56.09375 C 50.140625 -54.144531 53.390625 -51.4375 55.828125 -47.96875 L 50.953125 -41.984375 C 49.546875 -43.828125 47.863281 -45.445312 45.90625 -46.84375 C 43.957031 -48.25 41.851562 -49.335938 39.59375 -50.109375 C 37.34375 -50.890625 35.109375 -51.28125 32.890625 -51.28125 C 28.984375 -51.28125 25.476562 -50.300781 22.375 -48.34375 C 19.269531 -46.382812 16.8125 -43.742188 15 -40.421875 C 13.195312 -37.097656 12.296875 -33.296875 12.296875 -29.015625 C 12.296875 -24.734375 13.195312 -20.910156 15 -17.546875 C 16.8125 -14.191406 19.269531 -11.550781 22.375 -9.625 C 25.476562 -7.707031 28.945312 -6.75 32.78125 -6.75 C 35 -6.75 37.175781 -7.097656 39.3125 -7.796875 C 41.457031 -8.503906 43.488281 -9.519531 45.40625 -10.84375 C 47.332031 -12.175781 49.109375 -13.84375 50.734375 -15.84375 L 55.609375 -9.859375 C 53.097656 -6.535156 49.738281 -3.875 45.53125 -1.875 C 41.320312 0.113281 36.960938 1.109375 32.453125 1.109375 Z M 32.453125 1.109375 "/></g></g></g><g fill="#383947" fill-opacity="1"><g transform="translate(1150.582218, 569.831172)"><g><path d="M 30.6875 1.109375 C 25.664062 1.109375 21.125 -0.195312 17.0625 -2.8125 C 13 -5.4375 9.785156 -9.019531 7.421875 -13.5625 C 5.054688 -18.101562 3.875 -23.253906 3.875 -29.015625 C 3.875 -34.847656 5.09375 -40.015625 7.53125 -44.515625 C 9.96875 -49.023438 13.234375 -52.570312 17.328125 -55.15625 C 21.429688 -57.738281 26.03125 -59.03125 31.125 -59.03125 C 34.15625 -59.03125 36.960938 -58.585938 39.546875 -57.703125 C 42.128906 -56.816406 44.4375 -55.578125 46.46875 -53.984375 C 48.5 -52.398438 50.195312 -50.554688 51.5625 -48.453125 C 52.925781 -46.347656 53.867188 -44.078125 54.390625 -41.640625 L 51.953125 -42.859375 L 52.28125 -57.8125 L 60.59375 -57.8125 L 60.59375 0 L 52.171875 0 L 52.171875 -14.171875 L 54.390625 -15.625 C 53.867188 -13.40625 52.867188 -11.28125 51.390625 -9.25 C 49.921875 -7.21875 48.128906 -5.425781 46.015625 -3.875 C 43.910156 -2.320312 41.546875 -1.101562 38.921875 -0.21875 C 36.304688 0.664062 33.5625 1.109375 30.6875 1.109375 Z M 32.5625 -6.875 C 36.40625 -6.875 39.835938 -7.8125 42.859375 -9.6875 C 45.890625 -11.570312 48.269531 -14.191406 50 -17.546875 C 51.738281 -20.910156 52.609375 -24.734375 52.609375 -29.015625 C 52.609375 -33.296875 51.738281 -37.097656 50 -40.421875 C 48.269531 -43.742188 45.890625 -46.363281 42.859375 -48.28125 C 39.835938 -50.207031 36.40625 -51.171875 32.5625 -51.171875 C 28.644531 -51.171875 25.191406 -50.207031 22.203125 -48.28125 C 19.210938 -46.363281 16.847656 -43.742188 15.109375 -40.421875 C 13.378906 -37.097656 12.515625 -33.296875 12.515625 -29.015625 C 12.515625 -24.804688 13.363281 -21.019531 15.0625 -17.65625 C 16.757812 -14.300781 19.117188 -11.664062 22.140625 -9.75 C 25.171875 -7.832031 28.644531 -6.875 32.5625 -6.875 Z M 32.5625 -6.875 "/></g></g></g><g fill="#383947" fill-opacity="1"><g transform="translate(1219.260647, 569.831172)"><g><path d="M 27.03125 1.109375 C 22.082031 1.109375 17.648438 0.1875 13.734375 -1.65625 C 9.816406 -3.507812 6.71875 -5.945312 4.4375 -8.96875 L 10.296875 -14.0625 C 12.441406 -11.476562 14.972656 -9.519531 17.890625 -8.1875 C 20.804688 -6.863281 24.070312 -6.203125 27.6875 -6.203125 C 29.53125 -6.203125 31.191406 -6.40625 32.671875 -6.8125 C 34.148438 -7.21875 35.441406 -7.828125 36.546875 -8.640625 C 37.660156 -9.453125 38.507812 -10.410156 39.09375 -11.515625 C 39.6875 -12.628906 39.984375 -13.847656 39.984375 -15.171875 C 39.984375 -17.609375 38.914062 -19.640625 36.78125 -21.265625 C 35.8125 -21.929688 34.441406 -22.613281 32.671875 -23.3125 C 30.898438 -24.019531 28.757812 -24.703125 26.25 -25.359375 C 22.113281 -26.546875 18.679688 -27.75 15.953125 -28.96875 C 13.222656 -30.1875 11.082031 -31.609375 9.53125 -33.234375 C 8.414062 -34.554688 7.582031 -35.992188 7.03125 -37.546875 C 6.476562 -39.097656 6.203125 -40.796875 6.203125 -42.640625 C 6.203125 -45.003906 6.695312 -47.179688 7.6875 -49.171875 C 8.6875 -51.171875 10.09375 -52.925781 11.90625 -54.4375 C 13.71875 -55.957031 15.859375 -57.101562 18.328125 -57.875 C 20.804688 -58.644531 23.484375 -59.03125 26.359375 -59.03125 C 29.085938 -59.03125 31.78125 -58.660156 34.4375 -57.921875 C 37.101562 -57.191406 39.578125 -56.125 41.859375 -54.71875 C 44.148438 -53.3125 46.109375 -51.648438 47.734375 -49.734375 L 42.640625 -44.203125 C 41.242188 -45.671875 39.691406 -46.992188 37.984375 -48.171875 C 36.285156 -49.359375 34.492188 -50.285156 32.609375 -50.953125 C 30.734375 -51.617188 28.800781 -51.953125 26.8125 -51.953125 C 25.03125 -51.953125 23.382812 -51.726562 21.875 -51.28125 C 20.363281 -50.84375 19.070312 -50.234375 18 -49.453125 C 16.925781 -48.679688 16.113281 -47.738281 15.5625 -46.625 C 15.007812 -45.519531 14.734375 -44.304688 14.734375 -42.984375 C 14.734375 -41.867188 14.953125 -40.867188 15.390625 -39.984375 C 15.835938 -39.097656 16.46875 -38.320312 17.28125 -37.65625 C 18.3125 -36.84375 19.769531 -36.085938 21.65625 -35.390625 C 23.539062 -34.691406 25.882812 -33.972656 28.6875 -33.234375 C 31.9375 -32.347656 34.6875 -31.441406 36.9375 -30.515625 C 39.1875 -29.585938 41.050781 -28.5 42.53125 -27.25 C 44.53125 -25.769531 45.953125 -24.066406 46.796875 -22.140625 C 47.648438 -20.222656 48.078125 -18.050781 48.078125 -15.625 C 48.078125 -12.375 47.171875 -9.492188 45.359375 -6.984375 C 43.546875 -4.472656 41.050781 -2.492188 37.875 -1.046875 C 34.707031 0.390625 31.09375 1.109375 27.03125 1.109375 Z M 27.03125 1.109375 "/></g></g></g><g fill="#383947" fill-opacity="1"><g transform="translate(1272.320315, 569.831172)"><g/></g></g><g fill="#383947" fill-opacity="1"><g transform="translate(1303.336414, 569.831172)"><g><path d="M 11.40625 0 L 11.40625 -77.53125 L 40.65625 -77.53125 C 45.96875 -77.53125 50.820312 -76.585938 55.21875 -74.703125 C 59.613281 -72.828125 63.429688 -70.148438 66.671875 -66.671875 C 69.921875 -63.203125 72.429688 -59.101562 74.203125 -54.375 C 75.984375 -49.65625 76.875 -44.453125 76.875 -38.765625 C 76.875 -33.078125 75.984375 -27.851562 74.203125 -23.09375 C 72.429688 -18.332031 69.941406 -14.234375 66.734375 -10.796875 C 63.523438 -7.367188 59.703125 -4.710938 55.265625 -2.828125 C 50.835938 -0.941406 45.96875 0 40.65625 0 Z M 20.046875 -6.875 L 19.046875 -8.421875 L 40.09375 -8.421875 C 44.15625 -8.421875 47.898438 -9.140625 51.328125 -10.578125 C 54.765625 -12.015625 57.71875 -14.082031 60.1875 -16.78125 C 62.664062 -19.476562 64.585938 -22.671875 65.953125 -26.359375 C 67.328125 -30.054688 68.015625 -34.191406 68.015625 -38.765625 C 68.015625 -43.347656 67.328125 -47.484375 65.953125 -51.171875 C 64.585938 -54.867188 62.648438 -58.0625 60.140625 -60.75 C 57.628906 -63.445312 54.675781 -65.515625 51.28125 -66.953125 C 47.882812 -68.398438 44.15625 -69.125 40.09375 -69.125 L 18.71875 -69.125 L 20.046875 -70.453125 Z M 20.046875 -6.875 "/></g></g></g><g fill="#383947" fill-opacity="1"><g transform="translate(1385.63986, 569.831172)"><g><path d="M 33.5625 1.109375 C 27.800781 1.109375 22.6875 -0.144531 18.21875 -2.65625 C 13.75 -5.164062 10.257812 -8.671875 7.75 -13.171875 C 5.238281 -17.679688 3.984375 -22.851562 3.984375 -28.6875 C 3.984375 -33.1875 4.6875 -37.265625 6.09375 -40.921875 C 7.5 -44.578125 9.472656 -47.769531 12.015625 -50.5 C 14.566406 -53.238281 17.613281 -55.363281 21.15625 -56.875 C 24.695312 -58.394531 28.535156 -59.15625 32.671875 -59.15625 C 36.585938 -59.15625 40.148438 -58.453125 43.359375 -57.046875 C 46.578125 -55.640625 49.347656 -53.695312 51.671875 -51.21875 C 53.992188 -48.75 55.742188 -45.816406 56.921875 -42.421875 C 58.109375 -39.023438 58.628906 -35.296875 58.484375 -31.234375 L 58.375 -27.359375 L 10.1875 -27.359375 L 8.96875 -34.34375 L 52.0625 -34.34375 L 50.0625 -32.453125 L 50.0625 -35.109375 C 49.914062 -37.765625 49.140625 -40.328125 47.734375 -42.796875 C 46.335938 -45.273438 44.363281 -47.289062 41.8125 -48.84375 C 39.269531 -50.394531 36.222656 -51.171875 32.671875 -51.171875 C 28.535156 -51.171875 24.953125 -50.335938 21.921875 -48.671875 C 18.898438 -47.015625 16.578125 -44.5625 14.953125 -41.3125 C 13.328125 -38.0625 12.515625 -34.035156 12.515625 -29.234375 C 12.515625 -24.660156 13.398438 -20.691406 15.171875 -17.328125 C 16.941406 -13.972656 19.46875 -11.367188 22.75 -9.515625 C 26.039062 -7.671875 30.015625 -6.75 34.671875 -6.75 C 37.398438 -6.75 40.113281 -7.210938 42.8125 -8.140625 C 45.507812 -9.066406 48.484375 -10.894531 51.734375 -13.625 L 56.046875 -7.640625 C 54.347656 -5.941406 52.316406 -4.445312 49.953125 -3.15625 C 47.585938 -1.863281 45.003906 -0.828125 42.203125 -0.046875 C 39.398438 0.722656 36.519531 1.109375 33.5625 1.109375 Z M 33.5625 1.109375 "/></g></g></g><g fill="#383947" fill-opacity="1"><g transform="translate(1447.893585, 569.831172)"><g><path d="M 8.078125 0 L 8.078125 -57.8125 L 16.28125 -57.8125 L 16.609375 -45.75 L 15.28125 -45.1875 C 16.019531 -47.695312 17.457031 -49.984375 19.59375 -52.046875 C 21.738281 -54.117188 24.304688 -55.800781 27.296875 -57.09375 C 30.296875 -58.382812 33.378906 -59.03125 36.546875 -59.03125 C 40.835938 -59.03125 44.421875 -58.179688 47.296875 -56.484375 C 50.171875 -54.785156 52.347656 -52.164062 53.828125 -48.625 C 55.304688 -45.082031 56.046875 -40.578125 56.046875 -35.109375 L 56.046875 0 L 47.625 0 L 47.625 -34.671875 C 47.625 -38.503906 47.125 -41.65625 46.125 -44.125 C 45.132812 -46.601562 43.601562 -48.429688 41.53125 -49.609375 C 39.46875 -50.796875 36.921875 -51.351562 33.890625 -51.28125 C 31.378906 -51.28125 29.050781 -50.851562 26.90625 -50 C 24.769531 -49.15625 22.925781 -47.992188 21.375 -46.515625 C 19.820312 -45.046875 18.601562 -43.347656 17.71875 -41.421875 C 16.832031 -39.503906 16.390625 -37.4375 16.390625 -35.21875 L 16.390625 0 L 12.296875 0 C 11.773438 0 11.179688 0 10.515625 0 C 9.859375 0 9.046875 0 8.078125 0 Z M 8.078125 0 "/></g></g></g><g fill="#383947" fill-opacity="1"><g transform="translate(1511.698103, 569.831172)"><g><path d="M 16.0625 0 L 16.0625 -73 L 24.375 -73 L 24.375 0 Z M 2.984375 -49.84375 L 2.984375 -57.8125 L 38.984375 -57.8125 L 38.984375 -49.84375 Z M 2.984375 -49.84375 "/></g></g></g><g fill="#383947" fill-opacity="1"><g transform="translate(1552.794365, 569.831172)"><g><path d="M 30.6875 1.109375 C 25.664062 1.109375 21.125 -0.195312 17.0625 -2.8125 C 13 -5.4375 9.785156 -9.019531 7.421875 -13.5625 C 5.054688 -18.101562 3.875 -23.253906 3.875 -29.015625 C 3.875 -34.847656 5.09375 -40.015625 7.53125 -44.515625 C 9.96875 -49.023438 13.234375 -52.570312 17.328125 -55.15625 C 21.429688 -57.738281 26.03125 -59.03125 31.125 -59.03125 C 34.15625 -59.03125 36.960938 -58.585938 39.546875 -57.703125 C 42.128906 -56.816406 44.4375 -55.578125 46.46875 -53.984375 C 48.5 -52.398438 50.195312 -50.554688 51.5625 -48.453125 C 52.925781 -46.347656 53.867188 -44.078125 54.390625 -41.640625 L 51.953125 -42.859375 L 52.28125 -57.8125 L 60.59375 -57.8125 L 60.59375 0 L 52.171875 0 L 52.171875 -14.171875 L 54.390625 -15.625 C 53.867188 -13.40625 52.867188 -11.28125 51.390625 -9.25 C 49.921875 -7.21875 48.128906 -5.425781 46.015625 -3.875 C 43.910156 -2.320312 41.546875 -1.101562 38.921875 -0.21875 C 36.304688 0.664062 33.5625 1.109375 30.6875 1.109375 Z M 32.5625 -6.875 C 36.40625 -6.875 39.835938 -7.8125 42.859375 -9.6875 C 45.890625 -11.570312 48.269531 -14.191406 50 -17.546875 C 51.738281 -20.910156 52.609375 -24.734375 52.609375 -29.015625 C 52.609375 -33.296875 51.738281 -37.097656 50 -40.421875 C 48.269531 -43.742188 45.890625 -46.363281 42.859375 -48.28125 C 39.835938 -50.207031 36.40625 -51.171875 32.5625 -51.171875 C 28.644531 -51.171875 25.191406 -50.207031 22.203125 -48.28125 C 19.210938 -46.363281 16.847656 -43.742188 15.109375 -40.421875 C 13.378906 -37.097656 12.515625 -33.296875 12.515625 -29.015625 C 12.515625 -24.804688 13.363281 -21.019531 15.0625 -17.65625 C 16.757812 -14.300781 19.117188 -11.664062 22.140625 -9.75 C 25.171875 -7.832031 28.644531 -6.875 32.5625 -6.875 Z M 32.5625 -6.875 "/></g></g></g><g fill="#383947" fill-opacity="1"><g transform="translate(1621.472794, 569.831172)"><g><path d="M 8.3125 0 L 8.3125 -81.96875 L 16.609375 -81.96875 L 16.609375 0 Z M 8.3125 0 "/></g></g></g><g fill="#383947" fill-opacity="1"><g transform="translate(1646.396425, 569.831172)"><g><path d="M 33.5625 1.109375 C 27.800781 1.109375 22.6875 -0.144531 18.21875 -2.65625 C 13.75 -5.164062 10.257812 -8.671875 7.75 -13.171875 C 5.238281 -17.679688 3.984375 -22.851562 3.984375 -28.6875 C 3.984375 -33.1875 4.6875 -37.265625 6.09375 -40.921875 C 7.5 -44.578125 9.472656 -47.769531 12.015625 -50.5 C 14.566406 -53.238281 17.613281 -55.363281 21.15625 -56.875 C 24.695312 -58.394531 28.535156 -59.15625 32.671875 -59.15625 C 36.585938 -59.15625 40.148438 -58.453125 43.359375 -57.046875 C 46.578125 -55.640625 49.347656 -53.695312 51.671875 -51.21875 C 53.992188 -48.75 55.742188 -45.816406 56.921875 -42.421875 C 58.109375 -39.023438 58.628906 -35.296875 58.484375 -31.234375 L 58.375 -27.359375 L 10.1875 -27.359375 L 8.96875 -34.34375 L 52.0625 -34.34375 L 50.0625 -32.453125 L 50.0625 -35.109375 C 49.914062 -37.765625 49.140625 -40.328125 47.734375 -42.796875 C 46.335938 -45.273438 44.363281 -47.289062 41.8125 -48.84375 C 39.269531 -50.394531 36.222656 -51.171875 32.671875 -51.171875 C 28.535156 -51.171875 24.953125 -50.335938 21.921875 -48.671875 C 18.898438 -47.015625 16.578125 -44.5625 14.953125 -41.3125 C 13.328125 -38.0625 12.515625 -34.035156 12.515625 -29.234375 C 12.515625 -24.660156 13.398438 -20.691406 15.171875 -17.328125 C 16.941406 -13.972656 19.46875 -11.367188 22.75 -9.515625 C 26.039062 -7.671875 30.015625 -6.75 34.671875 -6.75 C 37.398438 -6.75 40.113281 -7.210938 42.8125 -8.140625 C 45.507812 -9.066406 48.484375 -10.894531 51.734375 -13.625 L 56.046875 -7.640625 C 54.347656 -5.941406 52.316406 -4.445312 49.953125 -3.15625 C 47.585938 -1.863281 45.003906 -0.828125 42.203125 -0.046875 C 39.398438 0.722656 36.519531 1.109375 33.5625 1.109375 Z M 33.5625 1.109375 "/></g></g></g><g fill="#383947" fill-opacity="1"><g transform="translate(1708.65015, 569.831172)"><g><path d="M 27.03125 1.109375 C 22.082031 1.109375 17.648438 0.1875 13.734375 -1.65625 C 9.816406 -3.507812 6.71875 -5.945312 4.4375 -8.96875 L 10.296875 -14.0625 C 12.441406 -11.476562 14.972656 -9.519531 17.890625 -8.1875 C 20.804688 -6.863281 24.070312 -6.203125 27.6875 -6.203125 C 29.53125 -6.203125 31.191406 -6.40625 32.671875 -6.8125 C 34.148438 -7.21875 35.441406 -7.828125 36.546875 -8.640625 C 37.660156 -9.453125 38.507812 -10.410156 39.09375 -11.515625 C 39.6875 -12.628906 39.984375 -13.847656 39.984375 -15.171875 C 39.984375 -17.609375 38.914062 -19.640625 36.78125 -21.265625 C 35.8125 -21.929688 34.441406 -22.613281 32.671875 -23.3125 C 30.898438 -24.019531 28.757812 -24.703125 26.25 -25.359375 C 22.113281 -26.546875 18.679688 -27.75 15.953125 -28.96875 C 13.222656 -30.1875 11.082031 -31.609375 9.53125 -33.234375 C 8.414062 -34.554688 7.582031 -35.992188 7.03125 -37.546875 C 6.476562 -39.097656 6.203125 -40.796875 6.203125 -42.640625 C 6.203125 -45.003906 6.695312 -47.179688 7.6875 -49.171875 C 8.6875 -51.171875 10.09375 -52.925781 11.90625 -54.4375 C 13.71875 -55.957031 15.859375 -57.101562 18.328125 -57.875 C 20.804688 -58.644531 23.484375 -59.03125 26.359375 -59.03125 C 29.085938 -59.03125 31.78125 -58.660156 34.4375 -57.921875 C 37.101562 -57.191406 39.578125 -56.125 41.859375 -54.71875 C 44.148438 -53.3125 46.109375 -51.648438 47.734375 -49.734375 L 42.640625 -44.203125 C 41.242188 -45.671875 39.691406 -46.992188 37.984375 -48.171875 C 36.285156 -49.359375 34.492188 -50.285156 32.609375 -50.953125 C 30.734375 -51.617188 28.800781 -51.953125 26.8125 -51.953125 C 25.03125 -51.953125 23.382812 -51.726562 21.875 -51.28125 C 20.363281 -50.84375 19.070312 -50.234375 18 -49.453125 C 16.925781 -48.679688 16.113281 -47.738281 15.5625 -46.625 C 15.007812 -45.519531 14.734375 -44.304688 14.734375 -42.984375 C 14.734375 -41.867188 14.953125 -40.867188 15.390625 -39.984375 C 15.835938 -39.097656 16.46875 -38.320312 17.28125 -37.65625 C 18.3125 -36.84375 19.769531 -36.085938 21.65625 -35.390625 C 23.539062 -34.691406 25.882812 -33.972656 28.6875 -33.234375 C 31.9375 -32.347656 34.6875 -31.441406 36.9375 -30.515625 C 39.1875 -29.585938 41.050781 -28.5 42.53125 -27.25 C 44.53125 -25.769531 45.953125 -24.066406 46.796875 -22.140625 C 47.648438 -20.222656 48.078125 -18.050781 48.078125 -15.625 C 48.078125 -12.375 47.171875 -9.492188 45.359375 -6.984375 C 43.546875 -4.472656 41.050781 -2.492188 37.875 -1.046875 C 34.707031 0.390625 31.09375 1.109375 27.03125 1.109375 Z M 27.03125 1.109375 "/></g></g></g></svg>