<svg xmlns="http://www.w3.org/2000/svg" xmlns:xlink="http://www.w3.org/1999/xlink" width="2000" zoomAndPan="magnify" viewBox="0 0 1500 824.999997" height="1100" preserveAspectRatio="xMidYMid meet" version="1.0"><defs><g/></defs><g fill="#01dbb0" fill-opacity="1"><g transform="translate(28.8916, 448.434434)"><g><path d="M 13.78125 0 L 13.78125 -143.703125 L 44.28125 -143.703125 L 44.28125 -82.140625 L 38.0625 -79.8125 C 39.488281 -84.46875 42.046875 -88.707031 45.734375 -92.53125 C 49.421875 -96.351562 53.851562 -99.425781 59.03125 -101.75 C 64.207031 -104.082031 69.644531 -105.25 75.34375 -105.25 C 83.113281 -105.25 89.648438 -103.660156 94.953125 -100.484375 C 100.265625 -97.316406 104.28125 -92.59375 107 -86.3125 C 109.71875 -80.03125 111.078125 -72.363281 111.078125 -63.3125 L 111.078125 0 L 79.8125 0 L 79.8125 -60.78125 C 79.8125 -64.925781 79.226562 -68.359375 78.0625 -71.078125 C 76.894531 -73.796875 75.113281 -75.832031 72.71875 -77.1875 C 70.320312 -78.550781 67.378906 -79.164062 63.890625 -79.03125 C 61.171875 -79.03125 58.644531 -78.609375 56.3125 -77.765625 C 53.976562 -76.929688 51.96875 -75.703125 50.28125 -74.078125 C 48.601562 -72.460938 47.28125 -70.617188 46.3125 -68.546875 C 45.34375 -66.472656 44.859375 -64.207031 44.859375 -61.75 L 44.859375 0 L 29.515625 0 C 25.890625 0 22.78125 0 20.1875 0 C 17.601562 0 15.46875 0 13.78125 0 Z M 13.78125 0 "/></g></g></g><g fill="#01dbb0" fill-opacity="1"><g transform="translate(144.429761, 448.434434)"><g><path d="M 51.84375 1.75 C 43.175781 1.75 35.441406 -0.546875 28.640625 -5.140625 C 21.847656 -9.742188 16.441406 -16.085938 12.421875 -24.171875 C 8.410156 -32.265625 6.40625 -41.425781 6.40625 -51.65625 C 6.40625 -62.144531 8.410156 -71.398438 12.421875 -79.421875 C 16.441406 -87.453125 21.945312 -93.765625 28.9375 -98.359375 C 35.925781 -102.953125 43.882812 -105.25 52.8125 -105.25 C 57.738281 -105.25 62.238281 -104.535156 66.3125 -103.109375 C 70.394531 -101.691406 73.988281 -99.71875 77.09375 -97.1875 C 80.195312 -94.664062 82.847656 -91.753906 85.046875 -88.453125 C 87.253906 -85.148438 88.875 -81.625 89.90625 -77.875 L 83.5 -78.640625 L 83.5 -103.109375 L 114.375 -103.109375 L 114.375 0 L 82.921875 0 L 82.921875 -24.859375 L 89.90625 -25.046875 C 88.875 -21.421875 87.191406 -17.988281 84.859375 -14.75 C 82.523438 -11.519531 79.675781 -8.675781 76.3125 -6.21875 C 72.945312 -3.757812 69.191406 -1.816406 65.046875 -0.390625 C 60.910156 1.035156 56.507812 1.75 51.84375 1.75 Z M 60.390625 -24.46875 C 65.179688 -24.46875 69.320312 -25.566406 72.8125 -27.765625 C 76.3125 -29.960938 79.03125 -33.097656 80.96875 -37.171875 C 82.914062 -41.253906 83.890625 -46.082031 83.890625 -51.65625 C 83.890625 -57.21875 82.914062 -62.035156 80.96875 -66.109375 C 79.03125 -70.191406 76.3125 -73.363281 72.8125 -75.625 C 69.320312 -77.894531 65.179688 -79.03125 60.390625 -79.03125 C 55.734375 -79.03125 51.6875 -77.894531 48.25 -75.625 C 44.820312 -73.363281 42.132812 -70.191406 40.1875 -66.109375 C 38.25 -62.035156 37.28125 -57.21875 37.28125 -51.65625 C 37.28125 -46.082031 38.25 -41.253906 40.1875 -37.171875 C 42.132812 -33.097656 44.820312 -29.960938 48.25 -27.765625 C 51.6875 -25.566406 55.734375 -24.46875 60.390625 -24.46875 Z M 60.390625 -24.46875 "/></g></g></g><g fill="#01dbb0" fill-opacity="1"><g transform="translate(264.628299, 448.434434)"><g><path d="M 59.03125 1.9375 C 49.0625 1.9375 40.128906 -0.390625 32.234375 -5.046875 C 24.335938 -9.710938 18.09375 -16.085938 13.5 -24.171875 C 8.90625 -32.265625 6.609375 -41.425781 6.609375 -51.65625 C 6.609375 -61.882812 8.90625 -71.039062 13.5 -79.125 C 18.09375 -87.21875 24.335938 -93.59375 32.234375 -98.25 C 40.128906 -102.914062 49.0625 -105.25 59.03125 -105.25 C 68.21875 -105.25 76.660156 -103.628906 84.359375 -100.390625 C 92.066406 -97.160156 98.1875 -92.628906 102.71875 -86.796875 L 85.828125 -66.609375 C 84.015625 -68.679688 81.878906 -70.625 79.421875 -72.4375 C 76.960938 -74.25 74.242188 -75.671875 71.265625 -76.703125 C 68.285156 -77.734375 65.179688 -78.25 61.953125 -78.25 C 57.023438 -78.25 52.679688 -77.117188 48.921875 -74.859375 C 45.171875 -72.597656 42.257812 -69.457031 40.1875 -65.4375 C 38.125 -61.425781 37.09375 -56.832031 37.09375 -51.65625 C 37.09375 -46.738281 38.160156 -42.269531 40.296875 -38.25 C 42.429688 -34.238281 45.375 -31.066406 49.125 -28.734375 C 52.882812 -26.410156 57.160156 -25.25 61.953125 -25.25 C 65.316406 -25.25 68.421875 -25.664062 71.265625 -26.5 C 74.109375 -27.34375 76.726562 -28.601562 79.125 -30.28125 C 81.519531 -31.96875 83.753906 -34.039062 85.828125 -36.5 L 102.53125 -16.125 C 98.125 -10.550781 92.003906 -6.144531 84.171875 -2.90625 C 76.347656 0.320312 67.96875 1.9375 59.03125 1.9375 Z M 59.03125 1.9375 "/></g></g></g><g fill="#01dbb0" fill-opacity="1"><g transform="translate(362.690062, 448.434434)"><g><path d="M 43.6875 -30.296875 L 32.234375 -53.59375 L 80.390625 -103.109375 L 121.359375 -103.109375 Z M 13.78125 0 L 13.78125 -143.703125 L 44.859375 -143.703125 L 44.859375 0 Z M 83.6875 0 L 47.375 -47 L 69.328125 -64.078125 L 120.390625 0 Z M 83.6875 0 "/></g></g></g><g fill="#fafafa" fill-opacity="1"><g transform="translate(476.489236, 448.434434)"><g><path d="M 52.8125 2.140625 C 43.882812 2.140625 35.957031 -0.15625 29.03125 -4.75 C 22.101562 -9.351562 16.632812 -15.695312 12.625 -23.78125 C 8.613281 -31.875 6.609375 -41.097656 6.609375 -51.453125 C 6.609375 -61.816406 8.613281 -71.039062 12.625 -79.125 C 16.632812 -87.21875 22.132812 -93.59375 29.125 -98.25 C 36.113281 -102.914062 44.140625 -105.25 53.203125 -105.25 C 57.867188 -105.25 62.335938 -104.535156 66.609375 -103.109375 C 70.878906 -101.691406 74.757812 -99.75 78.25 -97.28125 C 81.75 -94.820312 84.597656 -92.003906 86.796875 -88.828125 C 89.003906 -85.660156 90.300781 -82.394531 90.6875 -79.03125 L 83.3125 -77.28125 L 83.3125 -143.703125 L 114.578125 -143.703125 L 114.578125 0 L 85.640625 0 L 83.890625 -23.5 L 90.109375 -22.53125 C 89.710938 -19.289062 88.445312 -16.179688 86.3125 -13.203125 C 84.175781 -10.222656 81.425781 -7.597656 78.0625 -5.328125 C 74.695312 -3.066406 70.84375 -1.257812 66.5 0.09375 C 62.164062 1.457031 57.601562 2.140625 52.8125 2.140625 Z M 60.78125 -23.6875 C 65.570312 -23.6875 69.710938 -24.851562 73.203125 -27.1875 C 76.703125 -29.519531 79.390625 -32.753906 81.265625 -36.890625 C 83.140625 -41.035156 84.078125 -45.890625 84.078125 -51.453125 C 84.078125 -57.148438 83.140625 -62.070312 81.265625 -66.21875 C 79.390625 -70.363281 76.703125 -73.597656 73.203125 -75.921875 C 69.710938 -78.253906 65.570312 -79.421875 60.78125 -79.421875 C 55.988281 -79.421875 51.875 -78.253906 48.4375 -75.921875 C 45.007812 -73.597656 42.328125 -70.363281 40.390625 -66.21875 C 38.453125 -62.070312 37.484375 -57.148438 37.484375 -51.453125 C 37.484375 -45.890625 38.453125 -41.035156 40.390625 -36.890625 C 42.328125 -32.753906 45.007812 -29.519531 48.4375 -27.1875 C 51.875 -24.851562 55.988281 -23.6875 60.78125 -23.6875 Z M 60.78125 -23.6875 "/></g></g></g><g fill="#fafafa" fill-opacity="1"><g transform="translate(595.716823, 448.434434)"><g><path d="M 62.921875 1.9375 C 51.523438 1.9375 41.617188 -0.359375 33.203125 -4.953125 C 24.785156 -9.546875 18.25 -15.820312 13.59375 -23.78125 C 8.9375 -31.75 6.609375 -40.847656 6.609375 -51.078125 C 6.609375 -58.972656 7.898438 -66.21875 10.484375 -72.8125 C 13.078125 -79.414062 16.703125 -85.144531 21.359375 -90 C 26.015625 -94.851562 31.546875 -98.609375 37.953125 -101.265625 C 44.367188 -103.921875 51.394531 -105.25 59.03125 -105.25 C 66.28125 -105.25 72.914062 -103.953125 78.9375 -101.359375 C 84.957031 -98.773438 90.164062 -95.148438 94.5625 -90.484375 C 98.96875 -85.828125 102.332031 -80.328125 104.65625 -73.984375 C 106.988281 -67.640625 108.03125 -60.710938 107.78125 -53.203125 L 107.578125 -44.859375 L 25.4375 -44.859375 L 20.96875 -62.328125 L 82.328125 -62.328125 L 79.03125 -58.640625 L 79.03125 -62.53125 C 78.769531 -65.769531 77.765625 -68.648438 76.015625 -71.171875 C 74.273438 -73.691406 71.976562 -75.664062 69.125 -77.09375 C 66.28125 -78.519531 63.046875 -79.234375 59.421875 -79.234375 C 54.367188 -79.234375 50.0625 -78.226562 46.5 -76.21875 C 42.945312 -74.207031 40.265625 -71.289062 38.453125 -67.46875 C 36.640625 -63.65625 35.734375 -58.96875 35.734375 -53.40625 C 35.734375 -47.707031 36.929688 -42.753906 39.328125 -38.546875 C 41.722656 -34.335938 45.21875 -31.066406 49.8125 -28.734375 C 54.40625 -26.410156 59.875 -25.25 66.21875 -25.25 C 70.613281 -25.25 74.523438 -25.894531 77.953125 -27.1875 C 81.390625 -28.476562 85.113281 -30.675781 89.125 -33.78125 L 103.703125 -13.203125 C 99.679688 -9.710938 95.40625 -6.863281 90.875 -4.65625 C 86.34375 -2.457031 81.710938 -0.8125 76.984375 0.28125 C 72.265625 1.382812 67.578125 1.9375 62.921875 1.9375 Z M 62.921875 1.9375 "/></g></g></g><g fill="#fafafa" fill-opacity="1"><g transform="translate(701.740034, 448.434434)"><g><path d="M 13.78125 0 L 13.78125 -103.109375 L 43.296875 -103.109375 L 44.28125 -82.140625 L 38.0625 -79.8125 C 39.488281 -84.46875 42.046875 -88.707031 45.734375 -92.53125 C 49.421875 -96.351562 53.851562 -99.425781 59.03125 -101.75 C 64.207031 -104.082031 69.644531 -105.25 75.34375 -105.25 C 83.113281 -105.25 89.648438 -103.660156 94.953125 -100.484375 C 100.265625 -97.316406 104.28125 -92.59375 107 -86.3125 C 109.71875 -80.03125 111.078125 -72.363281 111.078125 -63.3125 L 111.078125 0 L 79.8125 0 L 79.8125 -60.78125 C 79.8125 -64.925781 79.226562 -68.359375 78.0625 -71.078125 C 76.894531 -73.796875 75.113281 -75.832031 72.71875 -77.1875 C 70.320312 -78.550781 67.378906 -79.164062 63.890625 -79.03125 C 61.171875 -79.03125 58.644531 -78.609375 56.3125 -77.765625 C 53.976562 -76.929688 51.96875 -75.703125 50.28125 -74.078125 C 48.601562 -72.460938 47.28125 -70.617188 46.3125 -68.546875 C 45.34375 -66.472656 44.859375 -64.207031 44.859375 -61.75 L 44.859375 0 L 29.515625 0 C 25.890625 0 22.78125 0 20.1875 0 C 17.601562 0 15.46875 0 13.78125 0 Z M 13.78125 0 "/></g></g></g><g fill="#fafafa" fill-opacity="1"><g transform="translate(817.278206, 448.434434)"><g><path d="M 22.328125 0 L 22.328125 -129.140625 L 53.40625 -129.140625 L 53.40625 0 Z M 4.078125 -75.921875 L 4.078125 -103.109375 L 73.40625 -103.109375 L 73.40625 -75.921875 Z M 4.078125 -75.921875 "/></g></g></g><g fill="#fafafa" fill-opacity="1"><g transform="translate(886.795155, 448.434434)"><g><path d="M 51.84375 1.75 C 43.175781 1.75 35.441406 -0.546875 28.640625 -5.140625 C 21.847656 -9.742188 16.441406 -16.085938 12.421875 -24.171875 C 8.410156 -32.265625 6.40625 -41.425781 6.40625 -51.65625 C 6.40625 -62.144531 8.410156 -71.398438 12.421875 -79.421875 C 16.441406 -87.453125 21.945312 -93.765625 28.9375 -98.359375 C 35.925781 -102.953125 43.882812 -105.25 52.8125 -105.25 C 57.738281 -105.25 62.238281 -104.535156 66.3125 -103.109375 C 70.394531 -101.691406 73.988281 -99.71875 77.09375 -97.1875 C 80.195312 -94.664062 82.847656 -91.753906 85.046875 -88.453125 C 87.253906 -85.148438 88.875 -81.625 89.90625 -77.875 L 83.5 -78.640625 L 83.5 -103.109375 L 114.375 -103.109375 L 114.375 0 L 82.921875 0 L 82.921875 -24.859375 L 89.90625 -25.046875 C 88.875 -21.421875 87.191406 -17.988281 84.859375 -14.75 C 82.523438 -11.519531 79.675781 -8.675781 76.3125 -6.21875 C 72.945312 -3.757812 69.191406 -1.816406 65.046875 -0.390625 C 60.910156 1.035156 56.507812 1.75 51.84375 1.75 Z M 60.390625 -24.46875 C 65.179688 -24.46875 69.320312 -25.566406 72.8125 -27.765625 C 76.3125 -29.960938 79.03125 -33.097656 80.96875 -37.171875 C 82.914062 -41.253906 83.890625 -46.082031 83.890625 -51.65625 C 83.890625 -57.21875 82.914062 -62.035156 80.96875 -66.109375 C 79.03125 -70.191406 76.3125 -73.363281 72.8125 -75.625 C 69.320312 -77.894531 65.179688 -79.03125 60.390625 -79.03125 C 55.734375 -79.03125 51.6875 -77.894531 48.25 -75.625 C 44.820312 -73.363281 42.132812 -70.191406 40.1875 -66.109375 C 38.25 -62.035156 37.28125 -57.21875 37.28125 -51.65625 C 37.28125 -46.082031 38.25 -41.253906 40.1875 -37.171875 C 42.132812 -33.097656 44.820312 -29.960938 48.25 -27.765625 C 51.6875 -25.566406 55.734375 -24.46875 60.390625 -24.46875 Z M 60.390625 -24.46875 "/></g></g></g><g fill="#fafafa" fill-opacity="1"><g transform="translate(1006.993682, 448.434434)"><g><path d="M 13.984375 0 L 13.984375 -143.703125 L 45.046875 -143.703125 L 45.046875 0 Z M 13.984375 0 "/></g></g></g><g fill="#fafafa" fill-opacity="1"><g transform="translate(1058.266557, 448.434434)"><g><path d="M 22.140625 1.9375 C 19.421875 1.9375 17.316406 1.097656 15.828125 -0.578125 C 14.335938 -2.265625 13.59375 -4.660156 13.59375 -7.765625 C 13.59375 -10.617188 14.367188 -12.953125 15.921875 -14.765625 C 17.472656 -16.578125 19.546875 -17.484375 22.140625 -17.484375 C 24.859375 -17.484375 26.960938 -16.640625 28.453125 -14.953125 C 29.941406 -13.265625 30.6875 -10.867188 30.6875 -7.765625 C 30.6875 -4.921875 29.90625 -2.59375 28.34375 -0.78125 C 26.789062 1.03125 24.722656 1.9375 22.140625 1.9375 Z M 22.140625 1.9375 "/></g></g></g><g fill="#fafafa" fill-opacity="1"><g transform="translate(1094.772556, 448.434434)"><g><path d="M 56.515625 1.9375 C 46.796875 1.9375 38.148438 -0.328125 30.578125 -4.859375 C 23.003906 -9.390625 17.050781 -15.601562 12.71875 -23.5 C 8.382812 -31.394531 6.21875 -40.457031 6.21875 -50.6875 C 6.21875 -60.914062 8.382812 -69.976562 12.71875 -77.875 C 17.050781 -85.769531 23.035156 -91.945312 30.671875 -96.40625 C 38.316406 -100.875 47.125 -103.109375 57.09375 -103.109375 C 65.375 -103.109375 72.910156 -101.488281 79.703125 -98.25 C 86.503906 -95.019531 92.171875 -90.492188 96.703125 -84.671875 L 90.484375 -77.09375 C 87.640625 -80.582031 84.40625 -83.523438 80.78125 -85.921875 C 77.15625 -88.316406 73.269531 -90.160156 69.125 -91.453125 C 64.988281 -92.753906 60.71875 -93.40625 56.3125 -93.40625 C 48.675781 -93.40625 41.878906 -91.554688 35.921875 -87.859375 C 29.960938 -84.171875 25.234375 -79.125 21.734375 -72.71875 C 18.242188 -66.3125 16.5 -58.96875 16.5 -50.6875 C 16.5 -42.394531 18.210938 -35.015625 21.640625 -28.546875 C 25.078125 -22.078125 29.769531 -16.992188 35.71875 -13.296875 C 41.675781 -9.609375 48.347656 -7.765625 55.734375 -7.765625 C 60.003906 -7.765625 64.207031 -8.410156 68.34375 -9.703125 C 72.488281 -11.003906 76.375 -12.851562 80 -15.25 C 83.625 -17.644531 86.925781 -20.585938 89.90625 -24.078125 L 96.125 -16.5 C 91.457031 -10.675781 85.597656 -6.144531 78.546875 -2.90625 C 71.492188 0.320312 64.148438 1.9375 56.515625 1.9375 Z M 56.515625 1.9375 "/></g></g></g><g fill="#fafafa" fill-opacity="1"><g transform="translate(1187.591391, 448.434434)"><g><path d="M 58.25 1.9375 C 48.15625 1.9375 39.191406 -0.328125 31.359375 -4.859375 C 23.523438 -9.390625 17.375 -15.664062 12.90625 -23.6875 C 8.445312 -31.71875 6.21875 -40.847656 6.21875 -51.078125 C 6.21875 -61.171875 8.445312 -70.132812 12.90625 -77.96875 C 17.375 -85.800781 23.523438 -91.945312 31.359375 -96.40625 C 39.191406 -100.875 48.15625 -103.109375 58.25 -103.109375 C 68.351562 -103.109375 77.320312 -100.875 85.15625 -96.40625 C 92.988281 -91.945312 99.101562 -85.800781 103.5 -77.96875 C 107.90625 -70.132812 110.109375 -61.171875 110.109375 -51.078125 C 110.109375 -40.847656 107.90625 -31.71875 103.5 -23.6875 C 99.101562 -15.664062 92.988281 -9.390625 85.15625 -4.859375 C 77.320312 -0.328125 68.351562 1.9375 58.25 1.9375 Z M 58.25 -7.765625 C 66.28125 -7.765625 73.429688 -9.640625 79.703125 -13.390625 C 85.984375 -17.148438 90.90625 -22.265625 94.46875 -28.734375 C 98.03125 -35.210938 99.8125 -42.660156 99.8125 -51.078125 C 99.8125 -59.234375 98.03125 -66.515625 94.46875 -72.921875 C 90.90625 -79.328125 85.984375 -84.34375 79.703125 -87.96875 C 73.429688 -91.59375 66.28125 -93.40625 58.25 -93.40625 C 50.09375 -93.40625 42.875 -91.59375 36.59375 -87.96875 C 30.320312 -84.34375 25.40625 -79.328125 21.84375 -72.921875 C 18.28125 -66.515625 16.5 -59.234375 16.5 -51.078125 C 16.5 -42.660156 18.28125 -35.210938 21.84375 -28.734375 C 25.40625 -22.265625 30.320312 -17.148438 36.59375 -13.390625 C 42.875 -9.640625 50.09375 -7.765625 58.25 -7.765625 Z M 58.25 -7.765625 "/></g></g></g><g fill="#fafafa" fill-opacity="1"><g transform="translate(1296.138975, 448.434434)"><g><path d="M 14.171875 0 L 14.171875 -100.984375 L 23.5 -100.984375 L 24.46875 -76.515625 L 22.140625 -76.890625 C 23.304688 -81.035156 25.148438 -84.726562 27.671875 -87.96875 C 30.191406 -91.207031 33.164062 -93.957031 36.59375 -96.21875 C 40.03125 -98.488281 43.816406 -100.203125 47.953125 -101.359375 C 52.097656 -102.523438 56.503906 -103.109375 61.171875 -103.109375 C 66.085938 -103.109375 70.582031 -102.265625 74.65625 -100.578125 C 78.738281 -98.898438 82.269531 -95.859375 85.25 -91.453125 C 88.226562 -87.054688 90.554688 -80.84375 92.234375 -72.8125 L 88.359375 -75.53125 L 89.71875 -78.84375 C 91.007812 -81.945312 92.882812 -84.953125 95.34375 -87.859375 C 97.800781 -90.773438 100.710938 -93.363281 104.078125 -95.625 C 107.453125 -97.894531 111.238281 -99.707031 115.4375 -101.0625 C 119.644531 -102.425781 124.144531 -103.109375 128.9375 -103.109375 C 135.664062 -103.109375 141.425781 -101.617188 146.21875 -98.640625 C 151.007812 -95.671875 154.664062 -91.078125 157.1875 -84.859375 C 159.71875 -78.640625 160.984375 -70.742188 160.984375 -61.171875 L 160.984375 0 L 151.265625 0 L 151.265625 -60.78125 C 151.265625 -68.289062 150.328125 -74.472656 148.453125 -79.328125 C 146.578125 -84.179688 143.796875 -87.804688 140.109375 -90.203125 C 136.421875 -92.597656 131.859375 -93.796875 126.421875 -93.796875 C 121.367188 -93.796875 116.769531 -92.921875 112.625 -91.171875 C 108.488281 -89.421875 104.929688 -87.054688 101.953125 -84.078125 C 98.972656 -81.097656 96.640625 -77.695312 94.953125 -73.875 C 93.273438 -70.0625 92.4375 -66.019531 92.4375 -61.75 L 92.4375 0 L 82.71875 0 L 82.71875 -60.78125 C 82.71875 -68.289062 81.78125 -74.472656 79.90625 -79.328125 C 78.03125 -84.179688 75.210938 -87.804688 71.453125 -90.203125 C 67.703125 -92.597656 63.109375 -93.796875 57.671875 -93.796875 C 52.753906 -93.796875 48.222656 -92.921875 44.078125 -91.171875 C 39.929688 -89.421875 36.367188 -87.054688 33.390625 -84.078125 C 30.421875 -81.097656 28.09375 -77.695312 26.40625 -73.875 C 24.726562 -70.0625 23.890625 -66.019531 23.890625 -61.75 L 23.890625 0 Z M 14.171875 0 "/></g></g></g></svg>