<svg xmlns="http://www.w3.org/2000/svg" xmlns:xlink="http://www.w3.org/1999/xlink" width="2000" zoomAndPan="magnify" viewBox="0 0 1500 824.999997" height="1100" preserveAspectRatio="xMidYMid meet" version="1.0"><defs><g/><clipPath id="ede9082d5e"><path d="M 685.714844 400.183594 L 692.144531 400.183594 L 692.144531 406.613281 L 685.714844 406.613281 Z M 685.714844 400.183594 " clip-rule="nonzero"/></clipPath><clipPath id="b1ec423955"><path d="M 688.929688 400.183594 C 687.152344 400.183594 685.714844 401.621094 685.714844 403.398438 C 685.714844 405.175781 687.152344 406.613281 688.929688 406.613281 C 690.703125 406.613281 692.144531 405.175781 692.144531 403.398438 C 692.144531 401.621094 690.703125 400.183594 688.929688 400.183594 Z M 688.929688 400.183594 " clip-rule="nonzero"/></clipPath></defs><g fill="#ffffff" fill-opacity="1"><g transform="translate(685.762824, 420.378899)"><g><path d="M 1.9375 0 L 1.9375 -12.8125 L 5.796875 -12.8125 L 5.796875 0 Z M 3.859375 -15.359375 C 3.140625 -15.359375 2.570312 -15.53125 2.15625 -15.875 C 1.75 -16.21875 1.546875 -16.710938 1.546875 -17.359375 C 1.546875 -17.929688 1.753906 -18.40625 2.171875 -18.78125 C 2.585938 -19.15625 3.148438 -19.34375 3.859375 -19.34375 C 4.585938 -19.34375 5.148438 -19.164062 5.546875 -18.8125 C 5.953125 -18.46875 6.15625 -17.984375 6.15625 -17.359375 C 6.15625 -16.765625 5.945312 -16.28125 5.53125 -15.90625 C 5.125 -15.539062 4.566406 -15.359375 3.859375 -15.359375 Z M 3.859375 -15.359375 "/></g></g></g><g fill="#ffffff" fill-opacity="1"><g transform="translate(692.494472, 420.378899)"><g><path d="M 1.71875 0 L 1.71875 -12.8125 L 5.390625 -12.8125 L 5.5 -10.21875 L 4.734375 -9.921875 C 4.910156 -10.503906 5.226562 -11.03125 5.6875 -11.5 C 6.144531 -11.976562 6.691406 -12.359375 7.328125 -12.640625 C 7.972656 -12.929688 8.648438 -13.078125 9.359375 -13.078125 C 10.328125 -13.078125 11.140625 -12.878906 11.796875 -12.484375 C 12.460938 -12.097656 12.960938 -11.515625 13.296875 -10.734375 C 13.640625 -9.953125 13.8125 -9 13.8125 -7.875 L 13.8125 0 L 9.921875 0 L 9.921875 -7.5625 C 9.921875 -8.070312 9.847656 -8.492188 9.703125 -8.828125 C 9.554688 -9.171875 9.332031 -9.425781 9.03125 -9.59375 C 8.738281 -9.757812 8.375 -9.835938 7.9375 -9.828125 C 7.601562 -9.828125 7.289062 -9.773438 7 -9.671875 C 6.707031 -9.566406 6.457031 -9.410156 6.25 -9.203125 C 6.039062 -9.003906 5.875 -8.773438 5.75 -8.515625 C 5.632812 -8.265625 5.578125 -7.984375 5.578125 -7.671875 L 5.578125 0 L 3.671875 0 C 3.222656 0 2.835938 0 2.515625 0 C 2.191406 0 1.925781 0 1.71875 0 Z M 1.71875 0 "/></g></g></g><g fill="#ffffff" fill-opacity="1"><g transform="translate(706.850871, 420.378899)"><g><path d="M 5.4375 -3.765625 L 4 -6.65625 L 10 -12.8125 L 15.09375 -12.8125 Z M 1.71875 0 L 1.71875 -17.859375 L 5.578125 -17.859375 L 5.578125 0 Z M 10.40625 0 L 5.890625 -5.84375 L 8.625 -7.96875 L 14.96875 0 Z M 10.40625 0 "/></g></g></g><g fill="#ffffff" fill-opacity="1"><g transform="translate(720.990106, 420.378899)"><g><path d="M 6.453125 0.21875 C 5.367188 0.21875 4.40625 -0.0664062 3.5625 -0.640625 C 2.71875 -1.210938 2.046875 -2 1.546875 -3 C 1.046875 -4.007812 0.796875 -5.148438 0.796875 -6.421875 C 0.796875 -7.722656 1.046875 -8.875 1.546875 -9.875 C 2.046875 -10.875 2.726562 -11.65625 3.59375 -12.21875 C 4.46875 -12.789062 5.457031 -13.078125 6.5625 -13.078125 C 7.175781 -13.078125 7.734375 -12.988281 8.234375 -12.8125 C 8.742188 -12.632812 9.191406 -12.390625 9.578125 -12.078125 C 9.960938 -11.765625 10.289062 -11.398438 10.5625 -10.984375 C 10.84375 -10.578125 11.046875 -10.144531 11.171875 -9.6875 L 10.375 -9.78125 L 10.375 -12.8125 L 14.21875 -12.8125 L 14.21875 0 L 10.3125 0 L 10.3125 -3.09375 L 11.171875 -3.109375 C 11.046875 -2.660156 10.835938 -2.234375 10.546875 -1.828125 C 10.253906 -1.429688 9.898438 -1.078125 9.484375 -0.765625 C 9.066406 -0.460938 8.597656 -0.222656 8.078125 -0.046875 C 7.566406 0.128906 7.023438 0.21875 6.453125 0.21875 Z M 7.5 -3.046875 C 8.101562 -3.046875 8.617188 -3.179688 9.046875 -3.453125 C 9.484375 -3.722656 9.820312 -4.113281 10.0625 -4.625 C 10.300781 -5.132812 10.421875 -5.734375 10.421875 -6.421875 C 10.421875 -7.109375 10.300781 -7.707031 10.0625 -8.21875 C 9.820312 -8.726562 9.484375 -9.125 9.046875 -9.40625 C 8.617188 -9.6875 8.101562 -9.828125 7.5 -9.828125 C 6.925781 -9.828125 6.425781 -9.6875 6 -9.40625 C 5.570312 -9.125 5.238281 -8.726562 5 -8.21875 C 4.757812 -7.707031 4.640625 -7.109375 4.640625 -6.421875 C 4.640625 -5.734375 4.757812 -5.132812 5 -4.625 C 5.238281 -4.113281 5.570312 -3.722656 6 -3.453125 C 6.425781 -3.179688 6.925781 -3.046875 7.5 -3.046875 Z M 7.5 -3.046875 "/></g></g></g><g fill="#01dbb0" fill-opacity="1"><g transform="translate(735.930791, 420.378899)"><g><path d="M 6.5625 0.265625 C 5.457031 0.265625 4.472656 -0.0195312 3.609375 -0.59375 C 2.742188 -1.164062 2.0625 -1.953125 1.5625 -2.953125 C 1.070312 -3.960938 0.828125 -5.109375 0.828125 -6.390625 C 0.828125 -7.679688 1.070312 -8.828125 1.5625 -9.828125 C 2.0625 -10.835938 2.742188 -11.628906 3.609375 -12.203125 C 4.484375 -12.785156 5.484375 -13.078125 6.609375 -13.078125 C 7.191406 -13.078125 7.75 -12.988281 8.28125 -12.8125 C 8.8125 -12.632812 9.289062 -12.394531 9.71875 -12.09375 C 10.15625 -11.789062 10.507812 -11.441406 10.78125 -11.046875 C 11.0625 -10.648438 11.226562 -10.242188 11.28125 -9.828125 L 10.359375 -9.609375 L 10.359375 -17.859375 L 14.25 -17.859375 L 14.25 0 L 10.640625 0 L 10.421875 -2.921875 L 11.203125 -2.796875 C 11.148438 -2.398438 10.988281 -2.015625 10.71875 -1.640625 C 10.457031 -1.273438 10.117188 -0.945312 9.703125 -0.65625 C 9.285156 -0.375 8.804688 -0.148438 8.265625 0.015625 C 7.722656 0.179688 7.15625 0.265625 6.5625 0.265625 Z M 7.5625 -2.9375 C 8.15625 -2.9375 8.664062 -3.082031 9.09375 -3.375 C 9.53125 -3.664062 9.863281 -4.066406 10.09375 -4.578125 C 10.332031 -5.097656 10.453125 -5.703125 10.453125 -6.390625 C 10.453125 -7.097656 10.332031 -7.707031 10.09375 -8.21875 C 9.863281 -8.738281 9.53125 -9.144531 9.09375 -9.4375 C 8.664062 -9.726562 8.15625 -9.875 7.5625 -9.875 C 6.957031 -9.875 6.441406 -9.726562 6.015625 -9.4375 C 5.597656 -9.144531 5.265625 -8.738281 5.015625 -8.21875 C 4.773438 -7.707031 4.65625 -7.097656 4.65625 -6.390625 C 4.65625 -5.703125 4.773438 -5.097656 5.015625 -4.578125 C 5.265625 -4.066406 5.597656 -3.664062 6.015625 -3.375 C 6.441406 -3.082031 6.957031 -2.9375 7.5625 -2.9375 Z M 7.5625 -2.9375 "/></g></g></g><g fill="#01dbb0" fill-opacity="1"><g transform="translate(750.74564, 420.378899)"><g><path d="M 7.828125 0.234375 C 6.410156 0.234375 5.175781 -0.046875 4.125 -0.609375 C 3.082031 -1.179688 2.269531 -1.960938 1.6875 -2.953125 C 1.113281 -3.941406 0.828125 -5.070312 0.828125 -6.34375 C 0.828125 -7.332031 0.984375 -8.234375 1.296875 -9.046875 C 1.617188 -9.867188 2.070312 -10.582031 2.65625 -11.1875 C 3.238281 -11.789062 3.925781 -12.253906 4.71875 -12.578125 C 5.519531 -12.910156 6.394531 -13.078125 7.34375 -13.078125 C 8.238281 -13.078125 9.0625 -12.914062 9.8125 -12.59375 C 10.5625 -12.28125 11.207031 -11.832031 11.75 -11.25 C 12.300781 -10.664062 12.722656 -9.976562 13.015625 -9.1875 C 13.304688 -8.40625 13.429688 -7.546875 13.390625 -6.609375 L 13.375 -5.578125 L 3.15625 -5.578125 L 2.609375 -7.75 L 10.234375 -7.75 L 9.828125 -7.296875 L 9.828125 -7.765625 C 9.796875 -8.171875 9.671875 -8.53125 9.453125 -8.84375 C 9.234375 -9.15625 8.945312 -9.398438 8.59375 -9.578125 C 8.238281 -9.753906 7.835938 -9.84375 7.390625 -9.84375 C 6.765625 -9.84375 6.226562 -9.71875 5.78125 -9.46875 C 5.34375 -9.21875 5.007812 -8.851562 4.78125 -8.375 C 4.550781 -7.90625 4.4375 -7.328125 4.4375 -6.640625 C 4.4375 -5.929688 4.582031 -5.3125 4.875 -4.78125 C 5.175781 -4.257812 5.613281 -3.851562 6.1875 -3.5625 C 6.757812 -3.28125 7.441406 -3.140625 8.234375 -3.140625 C 8.773438 -3.140625 9.257812 -3.21875 9.6875 -3.375 C 10.113281 -3.539062 10.578125 -3.816406 11.078125 -4.203125 L 12.890625 -1.640625 C 12.390625 -1.203125 11.859375 -0.847656 11.296875 -0.578125 C 10.734375 -0.304688 10.15625 -0.101562 9.5625 0.03125 C 8.976562 0.164062 8.398438 0.234375 7.828125 0.234375 Z M 7.828125 0.234375 "/></g></g></g><g fill="#01dbb0" fill-opacity="1"><g transform="translate(763.919716, 420.378899)"><g><path d="M 1.71875 0 L 1.71875 -12.8125 L 5.390625 -12.8125 L 5.5 -10.21875 L 4.734375 -9.921875 C 4.910156 -10.503906 5.226562 -11.03125 5.6875 -11.5 C 6.144531 -11.976562 6.691406 -12.359375 7.328125 -12.640625 C 7.972656 -12.929688 8.648438 -13.078125 9.359375 -13.078125 C 10.328125 -13.078125 11.140625 -12.878906 11.796875 -12.484375 C 12.460938 -12.097656 12.960938 -11.515625 13.296875 -10.734375 C 13.640625 -9.953125 13.8125 -9 13.8125 -7.875 L 13.8125 0 L 9.921875 0 L 9.921875 -7.5625 C 9.921875 -8.070312 9.847656 -8.492188 9.703125 -8.828125 C 9.554688 -9.171875 9.332031 -9.425781 9.03125 -9.59375 C 8.738281 -9.757812 8.375 -9.835938 7.9375 -9.828125 C 7.601562 -9.828125 7.289062 -9.773438 7 -9.671875 C 6.707031 -9.566406 6.457031 -9.410156 6.25 -9.203125 C 6.039062 -9.003906 5.875 -8.773438 5.75 -8.515625 C 5.632812 -8.265625 5.578125 -7.984375 5.578125 -7.671875 L 5.578125 0 L 3.671875 0 C 3.222656 0 2.835938 0 2.515625 0 C 2.191406 0 1.925781 0 1.71875 0 Z M 1.71875 0 "/></g></g></g><g fill="#01dbb0" fill-opacity="1"><g transform="translate(778.276114, 420.378899)"><g><path d="M 2.78125 0 L 2.78125 -16.046875 L 6.640625 -16.046875 L 6.640625 0 Z M 0.5 -9.4375 L 0.5 -12.8125 L 9.125 -12.8125 L 9.125 -9.4375 Z M 0.5 -9.4375 "/></g></g></g><g fill="#01dbb0" fill-opacity="1"><g transform="translate(786.913948, 420.378899)"><g><path d="M 1.9375 0 L 1.9375 -12.8125 L 5.796875 -12.8125 L 5.796875 0 Z M 3.859375 -15.359375 C 3.140625 -15.359375 2.570312 -15.53125 2.15625 -15.875 C 1.75 -16.21875 1.546875 -16.710938 1.546875 -17.359375 C 1.546875 -17.929688 1.753906 -18.40625 2.171875 -18.78125 C 2.585938 -19.15625 3.148438 -19.34375 3.859375 -19.34375 C 4.585938 -19.34375 5.148438 -19.164062 5.546875 -18.8125 C 5.953125 -18.46875 6.15625 -17.984375 6.15625 -17.359375 C 6.15625 -16.765625 5.945312 -16.28125 5.53125 -15.90625 C 5.125 -15.539062 4.566406 -15.359375 3.859375 -15.359375 Z M 3.859375 -15.359375 "/></g></g></g><g fill="#01dbb0" fill-opacity="1"><g transform="translate(793.645597, 420.378899)"><g><path d="M 6.03125 0.234375 C 4.78125 0.234375 3.675781 0.0351562 2.71875 -0.359375 C 1.757812 -0.765625 1 -1.304688 0.4375 -1.984375 L 2.78125 -4 C 3.28125 -3.507812 3.84375 -3.144531 4.46875 -2.90625 C 5.09375 -2.675781 5.6875 -2.5625 6.25 -2.5625 C 6.476562 -2.5625 6.679688 -2.582031 6.859375 -2.625 C 7.035156 -2.675781 7.179688 -2.742188 7.296875 -2.828125 C 7.421875 -2.921875 7.515625 -3.023438 7.578125 -3.140625 C 7.640625 -3.265625 7.671875 -3.410156 7.671875 -3.578125 C 7.671875 -3.898438 7.523438 -4.148438 7.234375 -4.328125 C 7.097656 -4.398438 6.859375 -4.492188 6.515625 -4.609375 C 6.179688 -4.722656 5.75 -4.851562 5.21875 -5 C 4.457031 -5.1875 3.796875 -5.410156 3.234375 -5.671875 C 2.679688 -5.941406 2.234375 -6.253906 1.890625 -6.609375 C 1.566406 -6.953125 1.316406 -7.328125 1.140625 -7.734375 C 0.960938 -8.148438 0.875 -8.613281 0.875 -9.125 C 0.875 -9.71875 1.015625 -10.253906 1.296875 -10.734375 C 1.578125 -11.222656 1.953125 -11.644531 2.421875 -12 C 2.898438 -12.351562 3.445312 -12.617188 4.0625 -12.796875 C 4.6875 -12.984375 5.328125 -13.078125 5.984375 -13.078125 C 6.691406 -13.078125 7.367188 -12.992188 8.015625 -12.828125 C 8.660156 -12.671875 9.257812 -12.445312 9.8125 -12.15625 C 10.363281 -11.875 10.859375 -11.53125 11.296875 -11.125 L 9.265625 -8.859375 C 8.972656 -9.128906 8.644531 -9.375 8.28125 -9.59375 C 7.925781 -9.8125 7.554688 -9.984375 7.171875 -10.109375 C 6.785156 -10.242188 6.429688 -10.3125 6.109375 -10.3125 C 5.867188 -10.3125 5.65625 -10.289062 5.46875 -10.25 C 5.28125 -10.207031 5.117188 -10.140625 4.984375 -10.046875 C 4.859375 -9.960938 4.765625 -9.859375 4.703125 -9.734375 C 4.640625 -9.617188 4.609375 -9.476562 4.609375 -9.3125 C 4.609375 -9.15625 4.648438 -9.003906 4.734375 -8.859375 C 4.828125 -8.710938 4.957031 -8.59375 5.125 -8.5 C 5.28125 -8.40625 5.535156 -8.296875 5.890625 -8.171875 C 6.242188 -8.046875 6.726562 -7.894531 7.34375 -7.71875 C 8.09375 -7.507812 8.738281 -7.273438 9.28125 -7.015625 C 9.832031 -6.765625 10.269531 -6.460938 10.59375 -6.109375 C 10.851562 -5.835938 11.046875 -5.519531 11.171875 -5.15625 C 11.304688 -4.789062 11.375 -4.398438 11.375 -3.984375 C 11.375 -3.160156 11.144531 -2.429688 10.6875 -1.796875 C 10.226562 -1.160156 9.59375 -0.660156 8.78125 -0.296875 C 7.976562 0.0546875 7.0625 0.234375 6.03125 0.234375 Z M 6.03125 0.234375 "/></g></g></g><g fill="#01dbb0" fill-opacity="1"><g transform="translate(804.623943, 420.378899)"><g><path d="M 2.78125 0 L 2.78125 -16.046875 L 6.640625 -16.046875 L 6.640625 0 Z M 0.5 -9.4375 L 0.5 -12.8125 L 9.125 -12.8125 L 9.125 -9.4375 Z M 0.5 -9.4375 "/></g></g></g><g clip-path="url(#ede9082d5e)"><g clip-path="url(#b1ec423955)"><path fill="#01dbb0" d="M 685.714844 400.183594 L 692.144531 400.183594 L 692.144531 406.613281 L 685.714844 406.613281 Z M 685.714844 400.183594 " fill-opacity="1" fill-rule="nonzero"/></g></g></svg>