<svg xmlns="http://www.w3.org/2000/svg" xmlns:xlink="http://www.w3.org/1999/xlink" width="2400" zoomAndPan="magnify" viewBox="0 0 1800 862.499974" height="1150" preserveAspectRatio="xMidYMid meet" version="1.0"><defs><g/></defs><g fill="#000000" fill-opacity="1"><g transform="translate(195.10648, 623.333993)"><g><path d="M 10.5625 0 L 10.5625 -71.8125 L 18.359375 -71.8125 L 45.96875 -26.984375 L 42.265625 -27.078125 L 70.171875 -71.8125 L 77.453125 -71.8125 L 77.453125 0 L 69.453125 0 L 69.453125 -32.828125 C 69.453125 -38.984375 69.554688 -44.523438 69.765625 -49.453125 C 69.972656 -54.378906 70.347656 -59.269531 70.890625 -64.125 L 72.328125 -61.25 L 46.578125 -20.828125 L 41.03125 -20.828125 L 16 -60.734375 L 17.140625 -64.125 C 17.679688 -59.539062 18.050781 -54.835938 18.25 -50.015625 C 18.457031 -45.191406 18.5625 -39.460938 18.5625 -32.828125 L 18.5625 0 Z M 10.5625 0 "/></g></g></g><g fill="#000000" fill-opacity="1"><g transform="translate(283.133781, 623.333993)"><g><path d="M 28.421875 1.03125 C 23.765625 1.03125 19.554688 -0.179688 15.796875 -2.609375 C 12.035156 -5.046875 9.0625 -8.363281 6.875 -12.5625 C 4.6875 -16.769531 3.59375 -21.539062 3.59375 -26.875 C 3.59375 -32.28125 4.71875 -37.066406 6.96875 -41.234375 C 9.226562 -45.410156 12.253906 -48.695312 16.046875 -51.09375 C 19.847656 -53.488281 24.109375 -54.6875 28.828125 -54.6875 C 31.628906 -54.6875 34.226562 -54.273438 36.625 -53.453125 C 39.019531 -52.628906 41.15625 -51.484375 43.03125 -50.015625 C 44.914062 -48.546875 46.488281 -46.832031 47.75 -44.875 C 49.019531 -42.925781 49.894531 -40.828125 50.375 -38.578125 L 48.109375 -39.703125 L 48.421875 -53.546875 L 56.125 -53.546875 L 56.125 0 L 48.328125 0 L 48.328125 -13.125 L 50.375 -14.46875 C 49.894531 -12.414062 48.96875 -10.445312 47.59375 -8.5625 C 46.226562 -6.6875 44.570312 -5.03125 42.625 -3.59375 C 40.675781 -2.15625 38.488281 -1.023438 36.0625 -0.203125 C 33.632812 0.617188 31.085938 1.03125 28.421875 1.03125 Z M 30.15625 -6.359375 C 33.71875 -6.359375 36.898438 -7.226562 39.703125 -8.96875 C 42.503906 -10.71875 44.707031 -13.144531 46.3125 -16.25 C 47.925781 -19.363281 48.734375 -22.90625 48.734375 -26.875 C 48.734375 -30.84375 47.925781 -34.363281 46.3125 -37.4375 C 44.707031 -40.519531 42.503906 -42.945312 39.703125 -44.71875 C 36.898438 -46.5 33.71875 -47.390625 30.15625 -47.390625 C 26.53125 -47.390625 23.332031 -46.5 20.5625 -44.71875 C 17.800781 -42.945312 15.613281 -40.519531 14 -37.4375 C 12.394531 -34.363281 11.59375 -30.84375 11.59375 -26.875 C 11.59375 -22.976562 12.378906 -19.472656 13.953125 -16.359375 C 15.523438 -13.253906 17.710938 -10.8125 20.515625 -9.03125 C 23.316406 -7.25 26.53125 -6.359375 30.15625 -6.359375 Z M 30.15625 -6.359375 "/></g></g></g><g fill="#000000" fill-opacity="1"><g transform="translate(346.743305, 623.333993)"><g><path d="M 7.484375 0 L 7.484375 -53.546875 L 15.1875 -53.546875 L 15.390625 -39.296875 L 14.5625 -41.25 C 15.320312 -43.632812 16.535156 -45.851562 18.203125 -47.90625 C 19.878906 -49.957031 21.878906 -51.597656 24.203125 -52.828125 C 26.535156 -54.066406 29.101562 -54.6875 31.90625 -54.6875 C 33.070312 -54.6875 34.164062 -54.597656 35.1875 -54.421875 C 36.21875 -54.253906 37.070312 -54.035156 37.75 -53.765625 L 35.59375 -45.140625 C 34.707031 -45.546875 33.800781 -45.832031 32.875 -46 C 31.957031 -46.175781 31.085938 -46.265625 30.265625 -46.265625 C 27.941406 -46.265625 25.851562 -45.851562 24 -45.03125 C 22.15625 -44.21875 20.582031 -43.070312 19.28125 -41.59375 C 17.988281 -40.125 17 -38.429688 16.3125 -36.515625 C 15.625 -34.609375 15.28125 -32.5625 15.28125 -30.375 L 15.28125 0 Z M 7.484375 0 "/></g></g></g><g fill="#000000" fill-opacity="1"><g transform="translate(385.011597, 623.333993)"><g><path d="M 14.359375 -17.234375 L 14.0625 -26.15625 L 42.0625 -53.546875 L 52.421875 -53.546875 Z M 7.484375 0 L 7.484375 -75.921875 L 15.1875 -75.921875 L 15.1875 0 Z M 44.21875 0 L 21.640625 -26.15625 L 27.078125 -31.5 L 54.265625 0 Z M 44.21875 0 "/></g></g></g><g fill="#000000" fill-opacity="1"><g transform="translate(440.208188, 623.333993)"><g><path d="M 31.078125 1.03125 C 25.742188 1.03125 21.007812 -0.128906 16.875 -2.453125 C 12.738281 -4.785156 9.503906 -8.035156 7.171875 -12.203125 C 4.847656 -16.378906 3.6875 -21.171875 3.6875 -26.578125 C 3.6875 -30.742188 4.335938 -34.519531 5.640625 -37.90625 C 6.941406 -41.289062 8.769531 -44.25 11.125 -46.78125 C 13.488281 -49.3125 16.3125 -51.273438 19.59375 -52.671875 C 22.875 -54.078125 26.429688 -54.78125 30.265625 -54.78125 C 33.890625 -54.78125 37.1875 -54.128906 40.15625 -52.828125 C 43.132812 -51.535156 45.703125 -49.742188 47.859375 -47.453125 C 50.015625 -45.160156 51.640625 -42.441406 52.734375 -39.296875 C 53.828125 -36.148438 54.304688 -32.695312 54.171875 -28.9375 L 54.0625 -25.34375 L 9.4375 -25.34375 L 8.3125 -31.796875 L 48.21875 -31.796875 L 46.375 -30.0625 L 46.375 -32.515625 C 46.238281 -34.984375 45.519531 -37.363281 44.21875 -39.65625 C 42.914062 -41.945312 41.082031 -43.804688 38.71875 -45.234375 C 36.363281 -46.671875 33.546875 -47.390625 30.265625 -47.390625 C 26.429688 -47.390625 23.113281 -46.617188 20.3125 -45.078125 C 17.507812 -43.546875 15.351562 -41.273438 13.84375 -38.265625 C 12.34375 -35.253906 11.59375 -31.523438 11.59375 -27.078125 C 11.59375 -22.835938 12.410156 -19.160156 14.046875 -16.046875 C 15.691406 -12.941406 18.035156 -10.535156 21.078125 -8.828125 C 24.117188 -7.117188 27.796875 -6.265625 32.109375 -6.265625 C 34.640625 -6.265625 37.148438 -6.691406 39.640625 -7.546875 C 42.140625 -8.398438 44.894531 -10.09375 47.90625 -12.625 L 51.90625 -7.078125 C 50.332031 -5.503906 48.453125 -4.117188 46.265625 -2.921875 C 44.078125 -1.722656 41.679688 -0.765625 39.078125 -0.046875 C 36.484375 0.671875 33.816406 1.03125 31.078125 1.03125 Z M 31.078125 1.03125 "/></g></g></g><g fill="#000000" fill-opacity="1"><g transform="translate(497.867127, 623.333993)"><g><path d="M 14.875 0 L 14.875 -67.609375 L 22.578125 -67.609375 L 22.578125 0 Z M 2.765625 -46.171875 L 2.765625 -53.546875 L 36.109375 -53.546875 L 36.109375 -46.171875 Z M 2.765625 -46.171875 "/></g></g></g><g fill="#000000" fill-opacity="1"><g transform="translate(535.930193, 623.333993)"><g><path d="M 9.546875 0 L 9.546875 -53.546875 L 17.234375 -53.546875 L 17.234375 0 Z M 13.34375 -65.140625 C 11.425781 -65.140625 9.96875 -65.632812 8.96875 -66.625 C 7.976562 -67.625 7.484375 -68.976562 7.484375 -70.6875 C 7.484375 -72.394531 7.992188 -73.757812 9.015625 -74.78125 C 10.046875 -75.8125 11.488281 -76.328125 13.34375 -76.328125 C 15.1875 -76.328125 16.617188 -75.832031 17.640625 -74.84375 C 18.671875 -73.851562 19.1875 -72.46875 19.1875 -70.6875 C 19.1875 -69.039062 18.671875 -67.703125 17.640625 -66.671875 C 16.617188 -65.648438 15.1875 -65.140625 13.34375 -65.140625 Z M 13.34375 -65.140625 "/></g></g></g><g fill="#000000" fill-opacity="1"><g transform="translate(562.50254, 623.333993)"><g><path d="M 7.484375 0 L 7.484375 -53.546875 L 15.078125 -53.546875 L 15.390625 -42.375 L 14.15625 -41.859375 C 14.84375 -44.179688 16.175781 -46.300781 18.15625 -48.21875 C 20.144531 -50.132812 22.519531 -51.691406 25.28125 -52.890625 C 28.050781 -54.085938 30.910156 -54.6875 33.859375 -54.6875 C 37.828125 -54.6875 41.144531 -53.898438 43.8125 -52.328125 C 46.476562 -50.753906 48.492188 -48.320312 49.859375 -45.03125 C 51.222656 -41.75 51.90625 -37.578125 51.90625 -32.515625 L 51.90625 0 L 44.109375 0 L 44.109375 -32.109375 C 44.109375 -35.671875 43.644531 -38.597656 42.71875 -40.890625 C 41.800781 -43.179688 40.382812 -44.875 38.46875 -45.96875 C 36.550781 -47.0625 34.191406 -47.570312 31.390625 -47.5 C 29.066406 -47.5 26.910156 -47.101562 24.921875 -46.3125 C 22.941406 -45.53125 21.234375 -44.453125 19.796875 -43.078125 C 18.359375 -41.710938 17.226562 -40.140625 16.40625 -38.359375 C 15.59375 -36.585938 15.1875 -34.675781 15.1875 -32.625 L 15.1875 0 L 11.390625 0 C 10.910156 0 10.363281 0 9.75 0 C 9.132812 0 8.378906 0 7.484375 0 Z M 7.484375 0 "/></g></g></g><g fill="#000000" fill-opacity="1"><g transform="translate(621.597819, 623.333993)"><g><path d="M 30.578125 23.59375 C 26.609375 23.59375 22.84375 22.976562 19.28125 21.75 C 15.726562 20.519531 12.789062 18.984375 10.46875 17.140625 L 13.546875 10.671875 C 14.910156 11.765625 16.5 12.738281 18.3125 13.59375 C 20.125 14.445312 22.085938 15.128906 24.203125 15.640625 C 26.328125 16.160156 28.484375 16.421875 30.671875 16.421875 C 34.640625 16.421875 38.007812 15.679688 40.78125 14.203125 C 43.550781 12.734375 45.671875 10.5625 47.140625 7.6875 C 48.609375 4.820312 49.34375 1.269531 49.34375 -2.96875 L 49.34375 -13.234375 L 50.578125 -13.546875 C 49.960938 -10.941406 48.628906 -8.523438 46.578125 -6.296875 C 44.523438 -4.078125 42.023438 -2.300781 39.078125 -0.96875 C 36.140625 0.363281 33.03125 1.03125 29.75 1.03125 C 24.757812 1.03125 20.296875 -0.164062 16.359375 -2.5625 C 12.429688 -4.957031 9.335938 -8.257812 7.078125 -12.46875 C 4.816406 -16.675781 3.6875 -21.445312 3.6875 -26.78125 C 3.6875 -32.175781 4.832031 -36.976562 7.125 -41.1875 C 9.414062 -45.394531 12.507812 -48.695312 16.40625 -51.09375 C 20.3125 -53.488281 24.691406 -54.6875 29.546875 -54.6875 C 31.671875 -54.6875 33.722656 -54.425781 35.703125 -53.90625 C 37.679688 -53.394531 39.507812 -52.660156 41.1875 -51.703125 C 42.863281 -50.742188 44.382812 -49.648438 45.75 -48.421875 C 47.125 -47.191406 48.269531 -45.859375 49.1875 -44.421875 C 50.113281 -42.984375 50.78125 -41.515625 51.1875 -40.015625 L 49.046875 -40.3125 L 49.34375 -53.546875 L 57.046875 -53.546875 L 57.046875 -3.28125 C 57.046875 1.03125 56.425781 4.84375 55.1875 8.15625 C 53.957031 11.46875 52.160156 14.269531 49.796875 16.5625 C 47.441406 18.851562 44.640625 20.597656 41.390625 21.796875 C 38.140625 22.992188 34.535156 23.59375 30.578125 23.59375 Z M 30.671875 -6.359375 C 34.296875 -6.359375 37.523438 -7.226562 40.359375 -8.96875 C 43.203125 -10.71875 45.441406 -13.128906 47.078125 -16.203125 C 48.722656 -19.285156 49.546875 -22.84375 49.546875 -26.875 C 49.546875 -30.84375 48.742188 -34.363281 47.140625 -37.4375 C 45.535156 -40.519531 43.296875 -42.945312 40.421875 -44.71875 C 37.546875 -46.5 34.296875 -47.390625 30.671875 -47.390625 C 26.984375 -47.390625 23.71875 -46.5 20.875 -44.71875 C 18.039062 -42.945312 15.800781 -40.519531 14.15625 -37.4375 C 12.519531 -34.363281 11.703125 -30.84375 11.703125 -26.875 C 11.703125 -22.976562 12.503906 -19.472656 14.109375 -16.359375 C 15.710938 -13.253906 17.929688 -10.8125 20.765625 -9.03125 C 23.609375 -7.25 26.910156 -6.359375 30.671875 -6.359375 Z M 30.671875 -6.359375 "/></g></g></g><g fill="#000000" fill-opacity="1"><g transform="translate(686.130679, 623.333993)"><g/></g></g><g fill="#000000" fill-opacity="1"><g transform="translate(714.857595, 623.333993)"><g><path d="M 7.484375 22.578125 L 7.484375 -53.546875 L 15.1875 -53.546875 L 15.390625 -40.53125 L 13.953125 -40.3125 C 14.566406 -42.914062 15.898438 -45.296875 17.953125 -47.453125 C 20.003906 -49.609375 22.5 -51.332031 25.4375 -52.625 C 28.382812 -53.925781 31.5 -54.578125 34.78125 -54.578125 C 39.5625 -54.578125 43.847656 -53.378906 47.640625 -50.984375 C 51.441406 -48.585938 54.472656 -45.300781 56.734375 -41.125 C 58.992188 -36.957031 60.125 -32.175781 60.125 -26.78125 C 60.125 -21.445312 59.023438 -16.691406 56.828125 -12.515625 C 54.640625 -8.347656 51.628906 -5.046875 47.796875 -2.609375 C 43.972656 -0.179688 39.664062 1.03125 34.875 1.03125 C 31.53125 1.03125 28.351562 0.347656 25.34375 -1.015625 C 22.332031 -2.390625 19.765625 -4.1875 17.640625 -6.40625 C 15.523438 -8.632812 14.125 -11.046875 13.4375 -13.640625 L 15.28125 -13.640625 L 15.28125 22.578125 Z M 33.65625 -6.359375 C 37.28125 -6.359375 40.492188 -7.25 43.296875 -9.03125 C 46.097656 -10.8125 48.316406 -13.238281 49.953125 -16.3125 C 51.597656 -19.382812 52.421875 -22.875 52.421875 -26.78125 C 52.421875 -30.75 51.597656 -34.269531 49.953125 -37.34375 C 48.316406 -40.414062 46.097656 -42.84375 43.296875 -44.625 C 40.492188 -46.40625 37.28125 -47.296875 33.65625 -47.296875 C 30.03125 -47.296875 26.796875 -46.421875 23.953125 -44.671875 C 21.117188 -42.929688 18.878906 -40.519531 17.234375 -37.4375 C 15.597656 -34.363281 14.78125 -30.84375 14.78125 -26.875 C 14.78125 -22.90625 15.597656 -19.382812 17.234375 -16.3125 C 18.878906 -13.238281 21.117188 -10.8125 23.953125 -9.03125 C 26.796875 -7.25 30.03125 -6.359375 33.65625 -6.359375 Z M 33.65625 -6.359375 "/></g></g></g><g fill="#000000" fill-opacity="1"><g transform="translate(778.672343, 623.333993)"><g><path d="M 28.421875 1.03125 C 23.765625 1.03125 19.554688 -0.179688 15.796875 -2.609375 C 12.035156 -5.046875 9.0625 -8.363281 6.875 -12.5625 C 4.6875 -16.769531 3.59375 -21.539062 3.59375 -26.875 C 3.59375 -32.28125 4.71875 -37.066406 6.96875 -41.234375 C 9.226562 -45.410156 12.253906 -48.695312 16.046875 -51.09375 C 19.847656 -53.488281 24.109375 -54.6875 28.828125 -54.6875 C 31.628906 -54.6875 34.226562 -54.273438 36.625 -53.453125 C 39.019531 -52.628906 41.15625 -51.484375 43.03125 -50.015625 C 44.914062 -48.546875 46.488281 -46.832031 47.75 -44.875 C 49.019531 -42.925781 49.894531 -40.828125 50.375 -38.578125 L 48.109375 -39.703125 L 48.421875 -53.546875 L 56.125 -53.546875 L 56.125 0 L 48.328125 0 L 48.328125 -13.125 L 50.375 -14.46875 C 49.894531 -12.414062 48.96875 -10.445312 47.59375 -8.5625 C 46.226562 -6.6875 44.570312 -5.03125 42.625 -3.59375 C 40.675781 -2.15625 38.488281 -1.023438 36.0625 -0.203125 C 33.632812 0.617188 31.085938 1.03125 28.421875 1.03125 Z M 30.15625 -6.359375 C 33.71875 -6.359375 36.898438 -7.226562 39.703125 -8.96875 C 42.503906 -10.71875 44.707031 -13.144531 46.3125 -16.25 C 47.925781 -19.363281 48.734375 -22.90625 48.734375 -26.875 C 48.734375 -30.84375 47.925781 -34.363281 46.3125 -37.4375 C 44.707031 -40.519531 42.503906 -42.945312 39.703125 -44.71875 C 36.898438 -46.5 33.71875 -47.390625 30.15625 -47.390625 C 26.53125 -47.390625 23.332031 -46.5 20.5625 -44.71875 C 17.800781 -42.945312 15.613281 -40.519531 14 -37.4375 C 12.394531 -34.363281 11.59375 -30.84375 11.59375 -26.875 C 11.59375 -22.976562 12.378906 -19.472656 13.953125 -16.359375 C 15.523438 -13.253906 17.710938 -10.8125 20.515625 -9.03125 C 23.316406 -7.25 26.53125 -6.359375 30.15625 -6.359375 Z M 30.15625 -6.359375 "/></g></g></g><g fill="#000000" fill-opacity="1"><g transform="translate(842.281867, 623.333993)"><g><path d="M 7.484375 0 L 7.484375 -53.546875 L 15.1875 -53.546875 L 15.390625 -39.296875 L 14.5625 -41.25 C 15.320312 -43.632812 16.535156 -45.851562 18.203125 -47.90625 C 19.878906 -49.957031 21.878906 -51.597656 24.203125 -52.828125 C 26.535156 -54.066406 29.101562 -54.6875 31.90625 -54.6875 C 33.070312 -54.6875 34.164062 -54.597656 35.1875 -54.421875 C 36.21875 -54.253906 37.070312 -54.035156 37.75 -53.765625 L 35.59375 -45.140625 C 34.707031 -45.546875 33.800781 -45.832031 32.875 -46 C 31.957031 -46.175781 31.085938 -46.265625 30.265625 -46.265625 C 27.941406 -46.265625 25.851562 -45.851562 24 -45.03125 C 22.15625 -44.21875 20.582031 -43.070312 19.28125 -41.59375 C 17.988281 -40.125 17 -38.429688 16.3125 -36.515625 C 15.625 -34.609375 15.28125 -32.5625 15.28125 -30.375 L 15.28125 0 Z M 7.484375 0 "/></g></g></g><g fill="#000000" fill-opacity="1"><g transform="translate(880.550158, 623.333993)"><g><path d="M 28.421875 1.03125 C 23.765625 1.03125 19.554688 -0.179688 15.796875 -2.609375 C 12.035156 -5.046875 9.0625 -8.363281 6.875 -12.5625 C 4.6875 -16.769531 3.59375 -21.539062 3.59375 -26.875 C 3.59375 -32.28125 4.71875 -37.066406 6.96875 -41.234375 C 9.226562 -45.410156 12.253906 -48.695312 16.046875 -51.09375 C 19.847656 -53.488281 24.109375 -54.6875 28.828125 -54.6875 C 31.628906 -54.6875 34.226562 -54.273438 36.625 -53.453125 C 39.019531 -52.628906 41.15625 -51.484375 43.03125 -50.015625 C 44.914062 -48.546875 46.488281 -46.832031 47.75 -44.875 C 49.019531 -42.925781 49.894531 -40.828125 50.375 -38.578125 L 48.109375 -39.703125 L 48.421875 -53.546875 L 56.125 -53.546875 L 56.125 0 L 48.328125 0 L 48.328125 -13.125 L 50.375 -14.46875 C 49.894531 -12.414062 48.96875 -10.445312 47.59375 -8.5625 C 46.226562 -6.6875 44.570312 -5.03125 42.625 -3.59375 C 40.675781 -2.15625 38.488281 -1.023438 36.0625 -0.203125 C 33.632812 0.617188 31.085938 1.03125 28.421875 1.03125 Z M 30.15625 -6.359375 C 33.71875 -6.359375 36.898438 -7.226562 39.703125 -8.96875 C 42.503906 -10.71875 44.707031 -13.144531 46.3125 -16.25 C 47.925781 -19.363281 48.734375 -22.90625 48.734375 -26.875 C 48.734375 -30.84375 47.925781 -34.363281 46.3125 -37.4375 C 44.707031 -40.519531 42.503906 -42.945312 39.703125 -44.71875 C 36.898438 -46.5 33.71875 -47.390625 30.15625 -47.390625 C 26.53125 -47.390625 23.332031 -46.5 20.5625 -44.71875 C 17.800781 -42.945312 15.613281 -40.519531 14 -37.4375 C 12.394531 -34.363281 11.59375 -30.84375 11.59375 -26.875 C 11.59375 -22.976562 12.378906 -19.472656 13.953125 -16.359375 C 15.523438 -13.253906 17.710938 -10.8125 20.515625 -9.03125 C 23.316406 -7.25 26.53125 -6.359375 30.15625 -6.359375 Z M 30.15625 -6.359375 "/></g></g></g><g fill="#000000" fill-opacity="1"><g transform="translate(944.159682, 623.333993)"><g/></g></g><g fill="#000000" fill-opacity="1"><g transform="translate(972.886598, 623.333993)"><g><path d="M 40.3125 1.03125 C 35.1875 1.03125 30.46875 0.125 26.15625 -1.6875 C 21.851562 -3.5 18.128906 -6.0625 14.984375 -9.375 C 11.835938 -12.695312 9.390625 -16.613281 7.640625 -21.125 C 5.898438 -25.644531 5.03125 -30.570312 5.03125 -35.90625 C 5.03125 -41.175781 5.898438 -46.015625 7.640625 -50.421875 C 9.390625 -54.835938 11.867188 -58.703125 15.078125 -62.015625 C 18.296875 -65.335938 22.023438 -67.882812 26.265625 -69.65625 C 30.503906 -71.4375 35.15625 -72.328125 40.21875 -72.328125 C 43.570312 -72.328125 46.890625 -71.796875 50.171875 -70.734375 C 53.453125 -69.671875 56.476562 -68.21875 59.25 -66.375 C 62.019531 -64.53125 64.296875 -62.410156 66.078125 -60.015625 L 60.53125 -54.265625 C 58.820312 -56.316406 56.851562 -58.09375 54.625 -59.59375 C 52.40625 -61.101562 50.0625 -62.269531 47.59375 -63.09375 C 45.132812 -63.914062 42.675781 -64.328125 40.21875 -64.328125 C 36.382812 -64.328125 32.804688 -63.625 29.484375 -62.21875 C 26.171875 -60.820312 23.316406 -58.859375 20.921875 -56.328125 C 18.535156 -53.796875 16.675781 -50.785156 15.34375 -47.296875 C 14.007812 -43.804688 13.34375 -40.007812 13.34375 -35.90625 C 13.34375 -31.664062 14.007812 -27.765625 15.34375 -24.203125 C 16.675781 -20.648438 18.585938 -17.59375 21.078125 -15.03125 C 23.578125 -12.46875 26.519531 -10.484375 29.90625 -9.078125 C 33.289062 -7.671875 37.070312 -6.96875 41.25 -6.96875 C 43.707031 -6.96875 46.164062 -7.328125 48.625 -8.046875 C 51.09375 -8.765625 53.351562 -9.773438 55.40625 -11.078125 C 57.457031 -12.378906 59.203125 -13.847656 60.640625 -15.484375 L 64.734375 -8.828125 C 63.160156 -6.910156 61.054688 -5.210938 58.421875 -3.734375 C 55.796875 -2.265625 52.90625 -1.101562 49.75 -0.25 C 46.601562 0.601562 43.457031 1.03125 40.3125 1.03125 Z M 40.3125 1.03125 "/></g></g></g><g fill="#000000" fill-opacity="1"><g transform="translate(1042.241481, 623.333993)"><g><path d="M 31.1875 1.03125 C 25.851562 1.03125 21.113281 -0.164062 16.96875 -2.5625 C 12.832031 -4.957031 9.582031 -8.273438 7.21875 -12.515625 C 4.863281 -16.753906 3.6875 -21.578125 3.6875 -26.984375 C 3.6875 -32.316406 4.863281 -37.066406 7.21875 -41.234375 C 9.582031 -45.410156 12.832031 -48.695312 16.96875 -51.09375 C 21.113281 -53.488281 25.851562 -54.6875 31.1875 -54.6875 C 36.457031 -54.6875 41.160156 -53.488281 45.296875 -51.09375 C 49.429688 -48.695312 52.675781 -45.410156 55.03125 -41.234375 C 57.394531 -37.066406 58.578125 -32.316406 58.578125 -26.984375 C 58.578125 -21.578125 57.394531 -16.753906 55.03125 -12.515625 C 52.675781 -8.273438 49.429688 -4.957031 45.296875 -2.5625 C 41.160156 -0.164062 36.457031 1.03125 31.1875 1.03125 Z M 31.1875 -6.265625 C 34.945312 -6.265625 38.296875 -7.171875 41.234375 -8.984375 C 44.179688 -10.796875 46.472656 -13.253906 48.109375 -16.359375 C 49.753906 -19.472656 50.578125 -23.015625 50.578125 -26.984375 C 50.578125 -30.953125 49.753906 -34.472656 48.109375 -37.546875 C 46.472656 -40.628906 44.179688 -43.039062 41.234375 -44.78125 C 38.296875 -46.519531 34.945312 -47.390625 31.1875 -47.390625 C 27.425781 -47.390625 24.054688 -46.519531 21.078125 -44.78125 C 18.109375 -43.039062 15.785156 -40.613281 14.109375 -37.5 C 12.429688 -34.382812 11.628906 -30.878906 11.703125 -26.984375 C 11.628906 -23.015625 12.429688 -19.472656 14.109375 -16.359375 C 15.785156 -13.253906 18.109375 -10.796875 21.078125 -8.984375 C 24.054688 -7.171875 27.425781 -6.265625 31.1875 -6.265625 Z M 31.1875 -6.265625 "/></g></g></g><g fill="#000000" fill-opacity="1"><g transform="translate(1104.517218, 623.333993)"><g><path d="M 7.484375 0 L 7.484375 -53.546875 L 15.078125 -53.546875 L 15.390625 -42.375 L 14.15625 -41.859375 C 14.84375 -44.179688 16.175781 -46.300781 18.15625 -48.21875 C 20.144531 -50.132812 22.519531 -51.691406 25.28125 -52.890625 C 28.050781 -54.085938 30.910156 -54.6875 33.859375 -54.6875 C 37.828125 -54.6875 41.144531 -53.898438 43.8125 -52.328125 C 46.476562 -50.753906 48.492188 -48.320312 49.859375 -45.03125 C 51.222656 -41.75 51.90625 -37.578125 51.90625 -32.515625 L 51.90625 0 L 44.109375 0 L 44.109375 -32.109375 C 44.109375 -35.671875 43.644531 -38.597656 42.71875 -40.890625 C 41.800781 -43.179688 40.382812 -44.875 38.46875 -45.96875 C 36.550781 -47.0625 34.191406 -47.570312 31.390625 -47.5 C 29.066406 -47.5 26.910156 -47.101562 24.921875 -46.3125 C 22.941406 -45.53125 21.234375 -44.453125 19.796875 -43.078125 C 18.359375 -41.710938 17.226562 -40.140625 16.40625 -38.359375 C 15.59375 -36.585938 15.1875 -34.675781 15.1875 -32.625 L 15.1875 0 L 11.390625 0 C 10.910156 0 10.363281 0 9.75 0 C 9.132812 0 8.378906 0 7.484375 0 Z M 7.484375 0 "/></g></g></g><g fill="#000000" fill-opacity="1"><g transform="translate(1163.612497, 623.333993)"><g><path d="M 25.03125 1.03125 C 20.445312 1.03125 16.34375 0.175781 12.71875 -1.53125 C 9.09375 -3.25 6.222656 -5.507812 4.109375 -8.3125 L 9.546875 -13.03125 C 11.523438 -10.632812 13.863281 -8.820312 16.5625 -7.59375 C 19.269531 -6.363281 22.296875 -5.75 25.640625 -5.75 C 27.359375 -5.75 28.898438 -5.9375 30.265625 -6.3125 C 31.628906 -6.6875 32.820312 -7.25 33.84375 -8 C 34.875 -8.75 35.660156 -9.632812 36.203125 -10.65625 C 36.753906 -11.6875 37.03125 -12.820312 37.03125 -14.0625 C 37.03125 -16.3125 36.039062 -18.191406 34.0625 -19.703125 C 33.175781 -20.316406 31.910156 -20.945312 30.265625 -21.59375 C 28.617188 -22.25 26.632812 -22.882812 24.3125 -23.5 C 20.476562 -24.59375 17.296875 -25.703125 14.765625 -26.828125 C 12.242188 -27.953125 10.265625 -29.269531 8.828125 -30.78125 C 7.796875 -32.007812 7.023438 -33.34375 6.515625 -34.78125 C 6.003906 -36.21875 5.75 -37.789062 5.75 -39.5 C 5.75 -41.6875 6.207031 -43.703125 7.125 -45.546875 C 8.050781 -47.398438 9.351562 -49.023438 11.03125 -50.421875 C 12.707031 -51.828125 14.691406 -52.890625 16.984375 -53.609375 C 19.273438 -54.328125 21.753906 -54.6875 24.421875 -54.6875 C 26.953125 -54.6875 29.445312 -54.34375 31.90625 -53.65625 C 34.363281 -52.96875 36.648438 -51.972656 38.765625 -50.671875 C 40.890625 -49.378906 42.707031 -47.84375 44.21875 -46.0625 L 39.5 -40.9375 C 38.195312 -42.300781 36.757812 -43.53125 35.1875 -44.625 C 33.613281 -45.71875 31.953125 -46.570312 30.203125 -47.1875 C 28.460938 -47.800781 26.671875 -48.109375 24.828125 -48.109375 C 23.179688 -48.109375 21.65625 -47.90625 20.25 -47.5 C 18.851562 -47.09375 17.660156 -46.53125 16.671875 -45.8125 C 15.679688 -45.09375 14.925781 -44.21875 14.40625 -43.1875 C 13.894531 -42.164062 13.640625 -41.039062 13.640625 -39.8125 C 13.640625 -38.78125 13.84375 -37.851562 14.25 -37.03125 C 14.664062 -36.21875 15.25 -35.5 16 -34.875 C 16.957031 -34.125 18.304688 -33.421875 20.046875 -32.765625 C 21.796875 -32.117188 23.972656 -31.457031 26.578125 -30.78125 C 29.578125 -29.957031 32.117188 -29.117188 34.203125 -28.265625 C 36.296875 -27.410156 38.023438 -26.398438 39.390625 -25.234375 C 41.242188 -23.867188 42.5625 -22.296875 43.34375 -20.515625 C 44.132812 -18.734375 44.53125 -16.71875 44.53125 -14.46875 C 44.53125 -11.457031 43.691406 -8.785156 42.015625 -6.453125 C 40.335938 -4.128906 38.023438 -2.300781 35.078125 -0.96875 C 32.140625 0.363281 28.789062 1.03125 25.03125 1.03125 Z M 25.03125 1.03125 "/></g></g></g><g fill="#000000" fill-opacity="1"><g transform="translate(1212.755951, 623.333993)"><g><path d="M 26.46875 1.03125 C 22.363281 1.03125 18.890625 0.191406 16.046875 -1.484375 C 13.210938 -3.160156 11.0625 -5.601562 9.59375 -8.8125 C 8.125 -12.03125 7.390625 -16.035156 7.390625 -20.828125 L 7.390625 -53.546875 L 15.1875 -53.546875 L 15.1875 -22.359375 C 15.1875 -18.734375 15.679688 -15.707031 16.671875 -13.28125 C 17.660156 -10.851562 19.164062 -9.023438 21.1875 -7.796875 C 23.207031 -6.566406 25.6875 -5.953125 28.625 -5.953125 C 30.882812 -5.953125 32.96875 -6.34375 34.875 -7.125 C 36.789062 -7.914062 38.46875 -8.992188 39.90625 -10.359375 C 41.34375 -11.722656 42.472656 -13.328125 43.296875 -15.171875 C 44.117188 -17.023438 44.53125 -18.976562 44.53125 -21.03125 L 44.53125 -53.546875 L 52.21875 -53.546875 L 52.21875 0 L 44.625 0 L 44.328125 -11.28125 L 45.546875 -11.90625 C 44.734375 -9.507812 43.367188 -7.335938 41.453125 -5.390625 C 39.535156 -3.441406 37.257812 -1.882812 34.625 -0.71875 C 31.988281 0.445312 29.269531 1.03125 26.46875 1.03125 Z M 26.46875 1.03125 "/></g></g></g><g fill="#000000" fill-opacity="1"><g transform="translate(1272.466787, 623.333993)"><g><path d="M 7.6875 0 L 7.6875 -75.921875 L 15.390625 -75.921875 L 15.390625 0 Z M 7.6875 0 "/></g></g></g><g fill="#000000" fill-opacity="1"><g transform="translate(1295.550897, 623.333993)"><g><path d="M 14.875 0 L 14.875 -67.609375 L 22.578125 -67.609375 L 22.578125 0 Z M 2.765625 -46.171875 L 2.765625 -53.546875 L 36.109375 -53.546875 L 36.109375 -46.171875 Z M 2.765625 -46.171875 "/></g></g></g><g fill="#000000" fill-opacity="1"><g transform="translate(1333.613963, 623.333993)"><g><path d="M 31.1875 1.03125 C 25.851562 1.03125 21.113281 -0.164062 16.96875 -2.5625 C 12.832031 -4.957031 9.582031 -8.273438 7.21875 -12.515625 C 4.863281 -16.753906 3.6875 -21.578125 3.6875 -26.984375 C 3.6875 -32.316406 4.863281 -37.066406 7.21875 -41.234375 C 9.582031 -45.410156 12.832031 -48.695312 16.96875 -51.09375 C 21.113281 -53.488281 25.851562 -54.6875 31.1875 -54.6875 C 36.457031 -54.6875 41.160156 -53.488281 45.296875 -51.09375 C 49.429688 -48.695312 52.675781 -45.410156 55.03125 -41.234375 C 57.394531 -37.066406 58.578125 -32.316406 58.578125 -26.984375 C 58.578125 -21.578125 57.394531 -16.753906 55.03125 -12.515625 C 52.675781 -8.273438 49.429688 -4.957031 45.296875 -2.5625 C 41.160156 -0.164062 36.457031 1.03125 31.1875 1.03125 Z M 31.1875 -6.265625 C 34.945312 -6.265625 38.296875 -7.171875 41.234375 -8.984375 C 44.179688 -10.796875 46.472656 -13.253906 48.109375 -16.359375 C 49.753906 -19.472656 50.578125 -23.015625 50.578125 -26.984375 C 50.578125 -30.953125 49.753906 -34.472656 48.109375 -37.546875 C 46.472656 -40.628906 44.179688 -43.039062 41.234375 -44.78125 C 38.296875 -46.519531 34.945312 -47.390625 31.1875 -47.390625 C 27.425781 -47.390625 24.054688 -46.519531 21.078125 -44.78125 C 18.109375 -43.039062 15.785156 -40.613281 14.109375 -37.5 C 12.429688 -34.382812 11.628906 -30.878906 11.703125 -26.984375 C 11.628906 -23.015625 12.429688 -19.472656 14.109375 -16.359375 C 15.785156 -13.253906 18.109375 -10.796875 21.078125 -8.984375 C 24.054688 -7.171875 27.425781 -6.265625 31.1875 -6.265625 Z M 31.1875 -6.265625 "/></g></g></g><g fill="#000000" fill-opacity="1"><g transform="translate(1395.889701, 623.333993)"><g><path d="M 7.484375 0 L 7.484375 -53.546875 L 15.1875 -53.546875 L 15.390625 -39.296875 L 14.5625 -41.25 C 15.320312 -43.632812 16.535156 -45.851562 18.203125 -47.90625 C 19.878906 -49.957031 21.878906 -51.597656 24.203125 -52.828125 C 26.535156 -54.066406 29.101562 -54.6875 31.90625 -54.6875 C 33.070312 -54.6875 34.164062 -54.597656 35.1875 -54.421875 C 36.21875 -54.253906 37.070312 -54.035156 37.75 -53.765625 L 35.59375 -45.140625 C 34.707031 -45.546875 33.800781 -45.832031 32.875 -46 C 31.957031 -46.175781 31.085938 -46.265625 30.265625 -46.265625 C 27.941406 -46.265625 25.851562 -45.851562 24 -45.03125 C 22.15625 -44.21875 20.582031 -43.070312 19.28125 -41.59375 C 17.988281 -40.125 17 -38.429688 16.3125 -36.515625 C 15.625 -34.609375 15.28125 -32.5625 15.28125 -30.375 L 15.28125 0 Z M 7.484375 0 "/></g></g></g><g fill="#000000" fill-opacity="1"><g transform="translate(1434.157992, 623.333993)"><g><path d="M 9.546875 0 L 9.546875 -53.546875 L 17.234375 -53.546875 L 17.234375 0 Z M 13.34375 -65.140625 C 11.425781 -65.140625 9.96875 -65.632812 8.96875 -66.625 C 7.976562 -67.625 7.484375 -68.976562 7.484375 -70.6875 C 7.484375 -72.394531 7.992188 -73.757812 9.015625 -74.78125 C 10.046875 -75.8125 11.488281 -76.328125 13.34375 -76.328125 C 15.1875 -76.328125 16.617188 -75.832031 17.640625 -74.84375 C 18.671875 -73.851562 19.1875 -72.46875 19.1875 -70.6875 C 19.1875 -69.039062 18.671875 -67.703125 17.640625 -66.671875 C 16.617188 -65.648438 15.1875 -65.140625 13.34375 -65.140625 Z M 13.34375 -65.140625 "/></g></g></g><g fill="#000000" fill-opacity="1"><g transform="translate(1460.73034, 623.333993)"><g><path d="M 31.1875 1.03125 C 25.851562 1.03125 21.113281 -0.164062 16.96875 -2.5625 C 12.832031 -4.957031 9.582031 -8.273438 7.21875 -12.515625 C 4.863281 -16.753906 3.6875 -21.578125 3.6875 -26.984375 C 3.6875 -32.316406 4.863281 -37.066406 7.21875 -41.234375 C 9.582031 -45.410156 12.832031 -48.695312 16.96875 -51.09375 C 21.113281 -53.488281 25.851562 -54.6875 31.1875 -54.6875 C 36.457031 -54.6875 41.160156 -53.488281 45.296875 -51.09375 C 49.429688 -48.695312 52.675781 -45.410156 55.03125 -41.234375 C 57.394531 -37.066406 58.578125 -32.316406 58.578125 -26.984375 C 58.578125 -21.578125 57.394531 -16.753906 55.03125 -12.515625 C 52.675781 -8.273438 49.429688 -4.957031 45.296875 -2.5625 C 41.160156 -0.164062 36.457031 1.03125 31.1875 1.03125 Z M 31.1875 -6.265625 C 34.945312 -6.265625 38.296875 -7.171875 41.234375 -8.984375 C 44.179688 -10.796875 46.472656 -13.253906 48.109375 -16.359375 C 49.753906 -19.472656 50.578125 -23.015625 50.578125 -26.984375 C 50.578125 -30.953125 49.753906 -34.472656 48.109375 -37.546875 C 46.472656 -40.628906 44.179688 -43.039062 41.234375 -44.78125 C 38.296875 -46.519531 34.945312 -47.390625 31.1875 -47.390625 C 27.425781 -47.390625 24.054688 -46.519531 21.078125 -44.78125 C 18.109375 -43.039062 15.785156 -40.613281 14.109375 -37.5 C 12.429688 -34.382812 11.628906 -30.878906 11.703125 -26.984375 C 11.628906 -23.015625 12.429688 -19.472656 14.109375 -16.359375 C 15.785156 -13.253906 18.109375 -10.796875 21.078125 -8.984375 C 24.054688 -7.171875 27.425781 -6.265625 31.1875 -6.265625 Z M 31.1875 -6.265625 "/></g></g></g><g fill="#000000" fill-opacity="1"><g transform="translate(1523.006077, 623.333993)"><g><path d="M 25.03125 1.03125 C 20.445312 1.03125 16.34375 0.175781 12.71875 -1.53125 C 9.09375 -3.25 6.222656 -5.507812 4.109375 -8.3125 L 9.546875 -13.03125 C 11.523438 -10.632812 13.863281 -8.820312 16.5625 -7.59375 C 19.269531 -6.363281 22.296875 -5.75 25.640625 -5.75 C 27.359375 -5.75 28.898438 -5.9375 30.265625 -6.3125 C 31.628906 -6.6875 32.820312 -7.25 33.84375 -8 C 34.875 -8.75 35.660156 -9.632812 36.203125 -10.65625 C 36.753906 -11.6875 37.03125 -12.820312 37.03125 -14.0625 C 37.03125 -16.3125 36.039062 -18.191406 34.0625 -19.703125 C 33.175781 -20.316406 31.910156 -20.945312 30.265625 -21.59375 C 28.617188 -22.25 26.632812 -22.882812 24.3125 -23.5 C 20.476562 -24.59375 17.296875 -25.703125 14.765625 -26.828125 C 12.242188 -27.953125 10.265625 -29.269531 8.828125 -30.78125 C 7.796875 -32.007812 7.023438 -33.34375 6.515625 -34.78125 C 6.003906 -36.21875 5.75 -37.789062 5.75 -39.5 C 5.75 -41.6875 6.207031 -43.703125 7.125 -45.546875 C 8.050781 -47.398438 9.351562 -49.023438 11.03125 -50.421875 C 12.707031 -51.828125 14.691406 -52.890625 16.984375 -53.609375 C 19.273438 -54.328125 21.753906 -54.6875 24.421875 -54.6875 C 26.953125 -54.6875 29.445312 -54.34375 31.90625 -53.65625 C 34.363281 -52.96875 36.648438 -51.972656 38.765625 -50.671875 C 40.890625 -49.378906 42.707031 -47.84375 44.21875 -46.0625 L 39.5 -40.9375 C 38.195312 -42.300781 36.757812 -43.53125 35.1875 -44.625 C 33.613281 -45.71875 31.953125 -46.570312 30.203125 -47.1875 C 28.460938 -47.800781 26.671875 -48.109375 24.828125 -48.109375 C 23.179688 -48.109375 21.65625 -47.90625 20.25 -47.5 C 18.851562 -47.09375 17.660156 -46.53125 16.671875 -45.8125 C 15.679688 -45.09375 14.925781 -44.21875 14.40625 -43.1875 C 13.894531 -42.164062 13.640625 -41.039062 13.640625 -39.8125 C 13.640625 -38.78125 13.84375 -37.851562 14.25 -37.03125 C 14.664062 -36.21875 15.25 -35.5 16 -34.875 C 16.957031 -34.125 18.304688 -33.421875 20.046875 -32.765625 C 21.796875 -32.117188 23.972656 -31.457031 26.578125 -30.78125 C 29.578125 -29.957031 32.117188 -29.117188 34.203125 -28.265625 C 36.296875 -27.410156 38.023438 -26.398438 39.390625 -25.234375 C 41.242188 -23.867188 42.5625 -22.296875 43.34375 -20.515625 C 44.132812 -18.734375 44.53125 -16.71875 44.53125 -14.46875 C 44.53125 -11.457031 43.691406 -8.785156 42.015625 -6.453125 C 40.335938 -4.128906 38.023438 -2.300781 35.078125 -0.96875 C 32.140625 0.363281 28.789062 1.03125 25.03125 1.03125 Z M 25.03125 1.03125 "/></g></g></g><g fill="#006a5a" fill-opacity="1"><g transform="translate(195.10648, 462.236548)"><g><path d="M 130.375 -30.5625 L 130.375 -75.765625 L 56.4375 -75.765625 L 56.4375 -22.984375 L 71.59375 -22.203125 L 71.59375 0 L 8.359375 0 L 8.359375 -21.15625 L 16.984375 -21.953125 C 22.035156 -22.472656 24.5625 -24.910156 24.5625 -29.265625 L 24.5625 -150.75 L 9.671875 -151.53125 L 9.671875 -173.734375 L 72.890625 -173.734375 L 72.890625 -152.578125 L 64.265625 -151.796875 C 61.484375 -151.441406 59.484375 -150.695312 58.265625 -149.5625 C 57.046875 -148.4375 56.4375 -146.304688 56.4375 -143.171875 L 56.4375 -102.671875 L 130.375 -102.671875 L 130.375 -150.75 L 115.484375 -151.53125 L 115.484375 -173.734375 L 178.703125 -173.734375 L 178.703125 -152.578125 L 170.078125 -151.796875 C 165.023438 -151.273438 162.5 -148.488281 162.5 -143.4375 L 162.5 -22.984375 L 177.40625 -22.203125 L 177.40625 0 L 114.171875 0 L 114.171875 -21.15625 L 122.796875 -21.953125 C 125.410156 -22.296875 127.328125 -23.03125 128.546875 -24.15625 C 129.765625 -25.289062 130.375 -27.425781 130.375 -30.5625 Z M 130.375 -30.5625 "/></g></g></g><g fill="#006a5a" fill-opacity="1"><g transform="translate(381.093099, 462.236548)"><g><path d="M 125.9375 -126.1875 L 125.9375 -29 C 125.9375 -26.207031 126.410156 -24.289062 127.359375 -23.25 C 128.316406 -22.207031 130.019531 -21.597656 132.46875 -21.421875 L 140.828125 -20.90625 L 140.828125 0 L 99.28125 0 L 99.28125 -15.15625 L 98.5 -15.421875 C 89.789062 -2.878906 77.859375 3.390625 62.703125 3.390625 C 44.929688 3.390625 31.78125 -2.265625 23.25 -13.578125 C 14.71875 -24.898438 10.453125 -40.40625 10.453125 -60.09375 C 10.453125 -83.78125 16.195312 -102.238281 27.6875 -115.46875 C 39.1875 -128.707031 56.429688 -135.328125 79.421875 -135.328125 C 94.222656 -135.328125 109.726562 -132.28125 125.9375 -126.1875 Z M 95.625 -41.546875 L 95.625 -109.203125 C 90.75 -111.472656 84.039062 -112.609375 75.5 -112.609375 C 63.832031 -112.609375 55.382812 -107.90625 50.15625 -98.5 C 44.9375 -89.09375 42.328125 -76.640625 42.328125 -61.140625 C 42.328125 -32.921875 51.382812 -18.8125 69.5 -18.8125 C 77.164062 -18.8125 83.4375 -21.117188 88.3125 -25.734375 C 93.1875 -30.347656 95.625 -35.617188 95.625 -41.546875 Z M 95.625 -41.546875 "/></g></g></g><g fill="#006a5a" fill-opacity="1"><g transform="translate(529.203232, 462.236548)"><g><path d="M 40.234375 -67.140625 C 40.234375 -52.335938 43.019531 -40.84375 48.59375 -32.65625 C 54.164062 -24.46875 62.21875 -20.375 72.75 -20.375 C 83.289062 -20.375 93.703125 -24.117188 103.984375 -31.609375 L 115.21875 -11.5 C 102.851562 -1.394531 87.347656 3.65625 68.703125 3.65625 C 50.066406 3.65625 35.394531 -2.21875 24.6875 -13.96875 C 13.976562 -25.726562 8.625 -43.101562 8.625 -66.09375 C 8.625 -89.09375 14.757812 -106.378906 27.03125 -117.953125 C 39.3125 -129.535156 53.160156 -135.328125 68.578125 -135.328125 C 83.992188 -135.328125 98.320312 -131.757812 111.5625 -124.625 L 111.5625 -90.65625 L 87.53125 -88.828125 L 87.53125 -101.375 C 87.53125 -106.070312 85.828125 -108.988281 82.421875 -110.125 C 79.023438 -111.257812 75.5 -111.828125 71.84375 -111.828125 C 50.769531 -111.828125 40.234375 -96.929688 40.234375 -67.140625 Z M 40.234375 -67.140625 "/></g></g></g><g fill="#006a5a" fill-opacity="1"><g transform="translate(652.236468, 462.236548)"><g><path d="M 24.8125 -29.265625 L 24.8125 -156.5 C 24.8125 -159.28125 24.332031 -161.191406 23.375 -162.234375 C 22.425781 -163.285156 20.726562 -163.898438 18.28125 -164.078125 L 9.140625 -164.59375 L 9.140625 -186.28125 L 55.65625 -186.28125 L 55.65625 -73.15625 C 65.226562 -74.019531 73.582031 -76.976562 80.71875 -82.03125 C 87.863281 -87.082031 92.742188 -93.703125 95.359375 -101.890625 C 95.878906 -103.628906 96.140625 -105.023438 96.140625 -106.078125 C 96.140625 -109.035156 94.488281 -110.515625 91.1875 -110.515625 L 81.25 -111.03125 L 81.25 -131.421875 L 135.328125 -131.421875 L 135.328125 -110.25 L 122.796875 -109.734375 C 120.523438 -91.960938 112.859375 -77.941406 99.796875 -67.671875 L 125.40625 -21.6875 L 141.34375 -20.90625 L 141.34375 0 L 103.203125 0 L 73.421875 -54.34375 C 67.671875 -52.769531 61.75 -51.550781 55.65625 -50.6875 L 55.65625 -21.6875 L 55.90625 -21.6875 L 70.796875 -20.90625 L 70.796875 0 L 8.625 0 L 8.625 -19.859375 L 17.25 -20.640625 C 19.851562 -20.984375 21.765625 -21.722656 22.984375 -22.859375 C 24.203125 -23.992188 24.8125 -26.128906 24.8125 -29.265625 Z M 24.8125 -29.265625 "/></g></g></g><g fill="#006a5a" fill-opacity="1"><g transform="translate(797.473164, 462.236548)"><g><path d="M 8.890625 0 L 8.890625 -21.15625 L 17.5 -21.953125 C 22.550781 -22.472656 25.078125 -24.910156 25.078125 -29.265625 L 25.078125 -150.75 L 10.1875 -151.53125 L 10.1875 -173.734375 L 81.78125 -173.734375 C 107.382812 -173.734375 127.367188 -166.941406 141.734375 -153.359375 C 156.109375 -139.773438 163.296875 -119.660156 163.296875 -93.015625 C 163.296875 -76.460938 161.117188 -62.046875 156.765625 -49.765625 C 152.410156 -37.492188 146.488281 -27.875 139 -20.90625 C 124.019531 -6.96875 105.378906 0 83.078125 0 Z M 56.953125 -148.40625 L 56.953125 -25.078125 L 83.609375 -25.078125 C 98.585938 -25.078125 110.253906 -30.476562 118.609375 -41.28125 C 126.972656 -52.082031 131.15625 -67.757812 131.15625 -88.3125 C 131.15625 -128.375 114.171875 -148.40625 80.203125 -148.40625 Z M 56.953125 -148.40625 "/></g></g></g><g fill="#006a5a" fill-opacity="1"><g transform="translate(971.182579, 462.236548)"><g><path d="M 74.203125 -135.328125 C 87.265625 -135.328125 97.625 -132.148438 105.28125 -125.796875 C 112.945312 -119.441406 116.78125 -110.515625 116.78125 -99.015625 C 116.78125 -91.359375 115.125 -84.609375 111.8125 -78.765625 C 108.507812 -72.929688 104.421875 -68.359375 99.546875 -65.046875 C 94.671875 -61.742188 88.75 -59.046875 81.78125 -56.953125 C 70.101562 -53.472656 56.953125 -51.734375 42.328125 -51.734375 C 42.847656 -42.503906 45.71875 -35.054688 50.9375 -29.390625 C 56.164062 -23.734375 64.179688 -20.90625 74.984375 -20.90625 C 85.785156 -20.90625 96.582031 -24.734375 107.375 -32.390625 L 117.3125 -11.234375 C 113.820312 -8.097656 107.941406 -4.875 99.671875 -1.5625 C 91.398438 1.738281 81.953125 3.390625 71.328125 3.390625 C 50.078125 3.390625 34.488281 -2.484375 24.5625 -14.234375 C 14.632812 -25.992188 9.671875 -42.148438 9.671875 -62.703125 C 9.671875 -83.253906 15.328125 -100.492188 26.640625 -114.421875 C 37.960938 -128.359375 53.816406 -135.328125 74.203125 -135.328125 Z M 62.3125 -75.625 C 68.664062 -76.757812 74.539062 -79.285156 79.9375 -83.203125 C 85.34375 -87.128906 88.046875 -91.789062 88.046875 -97.1875 C 88.046875 -107.8125 82.820312 -113.125 72.375 -113.125 C 62.613281 -113.125 55.117188 -109.25 49.890625 -101.5 C 44.671875 -93.75 41.800781 -84.472656 41.28125 -73.671875 C 48.945312 -73.847656 55.957031 -74.5 62.3125 -75.625 Z M 62.3125 -75.625 "/></g></g></g><g fill="#006a5a" fill-opacity="1"><g transform="translate(1097.611631, 462.236548)"><g><path d="M 7.046875 -110.515625 L 7.046875 -131.421875 L 51.203125 -131.421875 L 51.203125 -114.4375 C 55.734375 -120.875 61.742188 -125.960938 69.234375 -129.703125 C 76.722656 -133.453125 84.820312 -135.328125 93.53125 -135.328125 C 106.769531 -135.328125 117.003906 -131.539062 124.234375 -123.96875 C 131.460938 -116.394531 135.078125 -105.03125 135.078125 -89.875 L 135.078125 -21.6875 L 149.96875 -20.90625 L 149.96875 0 L 87.78125 0 L 87.78125 -19.859375 L 96.40625 -20.640625 C 99.019531 -20.984375 100.9375 -21.722656 102.15625 -22.859375 C 103.375 -23.992188 103.984375 -26.128906 103.984375 -29.265625 L 103.984375 -83.078125 C 103.984375 -92.660156 102.5 -99.757812 99.53125 -104.375 C 96.570312 -108.988281 90.957031 -111.296875 82.6875 -111.296875 C 74.414062 -111.296875 67.84375 -108.679688 62.96875 -103.453125 C 58.09375 -98.234375 55.65625 -92.050781 55.65625 -84.90625 L 55.65625 -21.6875 L 70.546875 -20.90625 L 70.546875 0 L 8.359375 0 L 8.359375 -19.859375 L 16.984375 -20.640625 C 19.597656 -20.984375 21.515625 -21.722656 22.734375 -22.859375 C 23.953125 -23.992188 24.5625 -26.128906 24.5625 -29.265625 L 24.5625 -101.625 C 24.5625 -106.851562 22.382812 -109.554688 18.03125 -109.734375 Z M 7.046875 -110.515625 "/></g></g></g><g fill="#006a5a" fill-opacity="1"><g transform="translate(1254.341952, 462.236548)"><g><path d="M 37.625 -159.109375 L 54.609375 -159.109375 L 54.609375 -131.421875 L 89.359375 -131.421875 L 86.734375 -109.46875 L 54.609375 -109.46875 L 54.609375 -40.75 C 54.609375 -33.09375 56 -27.738281 58.78125 -24.6875 C 61.570312 -21.644531 65.882812 -20.125 71.71875 -20.125 C 77.550781 -20.125 83.429688 -21.953125 89.359375 -25.609375 L 97.1875 -5.484375 C 88.476562 0.609375 77.421875 3.65625 64.015625 3.65625 C 56.171875 3.65625 49.546875 2.65625 44.140625 0.65625 C 38.742188 -1.34375 34.738281 -3.5625 32.125 -6 C 29.519531 -8.445312 27.519531 -12.019531 26.125 -16.71875 C 24.726562 -21.425781 23.941406 -25.128906 23.765625 -27.828125 C 23.597656 -30.523438 23.515625 -34.488281 23.515625 -39.71875 L 23.515625 -109.46875 L 4.96875 -109.46875 L 7.578125 -128.546875 C 15.765625 -129.242188 21.945312 -132.160156 26.125 -137.296875 C 30.300781 -142.429688 34.132812 -149.703125 37.625 -159.109375 Z M 37.625 -159.109375 "/></g></g></g><g fill="#006a5a" fill-opacity="1"><g transform="translate(1352.820777, 462.236548)"><g><path d="M 125.9375 -126.1875 L 125.9375 -29 C 125.9375 -26.207031 126.410156 -24.289062 127.359375 -23.25 C 128.316406 -22.207031 130.019531 -21.597656 132.46875 -21.421875 L 140.828125 -20.90625 L 140.828125 0 L 99.28125 0 L 99.28125 -15.15625 L 98.5 -15.421875 C 89.789062 -2.878906 77.859375 3.390625 62.703125 3.390625 C 44.929688 3.390625 31.78125 -2.265625 23.25 -13.578125 C 14.71875 -24.898438 10.453125 -40.40625 10.453125 -60.09375 C 10.453125 -83.78125 16.195312 -102.238281 27.6875 -115.46875 C 39.1875 -128.707031 56.429688 -135.328125 79.421875 -135.328125 C 94.222656 -135.328125 109.726562 -132.28125 125.9375 -126.1875 Z M 95.625 -41.546875 L 95.625 -109.203125 C 90.75 -111.472656 84.039062 -112.609375 75.5 -112.609375 C 63.832031 -112.609375 55.382812 -107.90625 50.15625 -98.5 C 44.9375 -89.09375 42.328125 -76.640625 42.328125 -61.140625 C 42.328125 -32.921875 51.382812 -18.8125 69.5 -18.8125 C 77.164062 -18.8125 83.4375 -21.117188 88.3125 -25.734375 C 93.1875 -30.347656 95.625 -35.617188 95.625 -41.546875 Z M 95.625 -41.546875 "/></g></g></g><g fill="#006a5a" fill-opacity="1"><g transform="translate(1500.93091, 462.236548)"><g><path d="M 55.390625 -186.28125 L 55.390625 -21.6875 L 70.28125 -20.90625 L 70.28125 0 L 8.09375 0 L 8.09375 -19.859375 L 16.71875 -20.640625 C 21.769531 -21.160156 24.296875 -23.945312 24.296875 -29 L 24.296875 -157.796875 C 24.296875 -161.628906 22.117188 -163.722656 17.765625 -164.078125 L 8.625 -164.59375 L 8.625 -186.28125 Z M 55.390625 -186.28125 "/></g></g></g></svg>