<svg xmlns="http://www.w3.org/2000/svg" xmlns:xlink="http://www.w3.org/1999/xlink" width="2000" zoomAndPan="magnify" viewBox="0 0 1500 824.999997" height="1100" preserveAspectRatio="xMidYMid meet" version="1.0"><defs><g/><clipPath id="14a663f2f8"><path d="M 26.554688 272.730469 L 99.527344 272.730469 L 99.527344 345.707031 L 26.554688 345.707031 Z M 26.554688 272.730469 " clip-rule="nonzero"/></clipPath><clipPath id="5b16871251"><path d="M 63.039062 272.730469 C 42.890625 272.730469 26.554688 289.066406 26.554688 309.21875 C 26.554688 329.371094 42.890625 345.707031 63.039062 345.707031 C 83.191406 345.707031 99.527344 329.371094 99.527344 309.21875 C 99.527344 289.066406 83.191406 272.730469 63.039062 272.730469 Z M 63.039062 272.730469 " clip-rule="nonzero"/></clipPath></defs><g fill="#ffffff" fill-opacity="1"><g transform="translate(21.117644, 501.905568)"><g><path d="M 21.90625 0 L 21.90625 -145.421875 L 65.734375 -145.421875 L 65.734375 0 Z M 43.8125 -174.1875 C 35.601562 -174.1875 29.171875 -176.148438 24.515625 -180.078125 C 19.859375 -184.003906 17.53125 -189.617188 17.53125 -196.921875 C 17.53125 -203.492188 19.898438 -208.878906 24.640625 -213.078125 C 29.390625 -217.273438 35.78125 -219.375 43.8125 -219.375 C 52.03125 -219.375 58.421875 -217.410156 62.984375 -213.484375 C 67.554688 -209.554688 69.84375 -204.035156 69.84375 -196.921875 C 69.84375 -190.160156 67.515625 -184.679688 62.859375 -180.484375 C 58.203125 -176.285156 51.851562 -174.1875 43.8125 -174.1875 Z M 43.8125 -174.1875 "/></g></g></g><g fill="#ffffff" fill-opacity="1"><g transform="translate(97.504795, 501.905568)"><g><path d="M 19.4375 0 L 19.4375 -145.421875 L 61.078125 -145.421875 L 62.4375 -115.84375 L 53.671875 -112.5625 C 55.679688 -119.132812 59.285156 -125.113281 64.484375 -130.5 C 69.691406 -135.882812 75.945312 -140.21875 83.25 -143.5 C 90.5625 -146.789062 98.234375 -148.4375 106.265625 -148.4375 C 117.222656 -148.4375 126.441406 -146.195312 133.921875 -141.71875 C 141.410156 -137.25 147.070312 -130.585938 150.90625 -121.734375 C 154.738281 -112.878906 156.65625 -102.0625 156.65625 -89.28125 L 156.65625 0 L 112.5625 0 L 112.5625 -85.71875 C 112.5625 -91.5625 111.738281 -96.398438 110.09375 -100.234375 C 108.457031 -104.066406 105.945312 -106.941406 102.5625 -108.859375 C 99.1875 -110.773438 95.035156 -111.644531 90.109375 -111.46875 C 86.273438 -111.46875 82.710938 -110.875 79.421875 -109.6875 C 76.140625 -108.5 73.3125 -106.765625 70.9375 -104.484375 C 68.5625 -102.203125 66.6875 -99.597656 65.3125 -96.671875 C 63.945312 -93.753906 63.265625 -90.5625 63.265625 -87.09375 L 63.265625 0 L 41.625 0 C 36.507812 0 32.125 0 28.46875 0 C 24.820312 0 21.8125 0 19.4375 0 Z M 19.4375 0 "/></g></g></g><g fill="#ffffff" fill-opacity="1"><g transform="translate(260.413569, 501.905568)"><g><path d="M 61.625 -42.71875 L 45.46875 -75.59375 L 113.390625 -145.421875 L 171.171875 -145.421875 Z M 19.4375 0 L 19.4375 -202.671875 L 63.265625 -202.671875 L 63.265625 0 Z M 118.046875 0 L 66.828125 -66.28125 L 97.765625 -90.375 L 169.796875 0 Z M 118.046875 0 "/></g></g></g><g fill="#ffffff" fill-opacity="1"><g transform="translate(420.858073, 501.905568)"><g><path d="M 73.125 2.46875 C 60.894531 2.46875 49.984375 -0.769531 40.390625 -7.25 C 30.804688 -13.738281 23.179688 -22.6875 17.515625 -34.09375 C 11.859375 -45.507812 9.03125 -58.425781 9.03125 -72.84375 C 9.03125 -87.632812 11.859375 -100.691406 17.515625 -112.015625 C 23.179688 -123.335938 30.941406 -132.238281 40.796875 -138.71875 C 50.660156 -145.195312 61.894531 -148.4375 74.5 -148.4375 C 81.4375 -148.4375 87.78125 -147.429688 93.53125 -145.421875 C 99.28125 -143.421875 104.34375 -140.640625 108.71875 -137.078125 C 113.101562 -133.515625 116.847656 -129.40625 119.953125 -124.75 C 123.054688 -120.09375 125.335938 -115.117188 126.796875 -109.828125 L 117.765625 -110.921875 L 117.765625 -145.421875 L 161.3125 -145.421875 L 161.3125 0 L 116.9375 0 L 116.9375 -35.0625 L 126.796875 -35.328125 C 125.335938 -30.210938 122.960938 -25.375 119.671875 -20.8125 C 116.390625 -16.25 112.375 -12.234375 107.625 -8.765625 C 102.882812 -5.296875 97.59375 -2.554688 91.75 -0.546875 C 85.90625 1.460938 79.695312 2.46875 73.125 2.46875 Z M 85.171875 -34.515625 C 91.929688 -34.515625 97.773438 -36.0625 102.703125 -39.15625 C 107.628906 -42.257812 111.460938 -46.6875 114.203125 -52.4375 C 116.941406 -58.195312 118.3125 -65 118.3125 -72.84375 C 118.3125 -80.695312 116.941406 -87.5 114.203125 -93.25 C 111.460938 -99 107.628906 -103.472656 102.703125 -106.671875 C 97.773438 -109.867188 91.929688 -111.46875 85.171875 -111.46875 C 78.597656 -111.46875 72.890625 -109.867188 68.046875 -106.671875 C 63.210938 -103.472656 59.425781 -99 56.6875 -93.25 C 53.945312 -87.5 52.578125 -80.695312 52.578125 -72.84375 C 52.578125 -65 53.945312 -58.195312 56.6875 -52.4375 C 59.425781 -46.6875 63.210938 -42.257812 68.046875 -39.15625 C 72.890625 -36.0625 78.597656 -34.515625 85.171875 -34.515625 Z M 85.171875 -34.515625 "/></g></g></g><g fill="#01dbb0" fill-opacity="1"><g transform="translate(590.396998, 501.905568)"><g><path d="M 74.5 3.015625 C 61.894531 3.015625 50.707031 -0.222656 40.9375 -6.703125 C 31.175781 -13.191406 23.460938 -22.140625 17.796875 -33.546875 C 12.140625 -44.960938 9.3125 -57.972656 9.3125 -72.578125 C 9.3125 -87.179688 12.140625 -100.1875 17.796875 -111.59375 C 23.460938 -123.007812 31.222656 -132.003906 41.078125 -138.578125 C 50.941406 -145.148438 62.265625 -148.4375 75.046875 -148.4375 C 81.617188 -148.4375 87.914062 -147.429688 93.9375 -145.421875 C 99.96875 -143.421875 105.445312 -140.679688 110.375 -137.203125 C 115.300781 -133.734375 119.316406 -129.765625 122.421875 -125.296875 C 125.523438 -120.828125 127.351562 -116.21875 127.90625 -111.46875 L 117.5 -109 L 117.5 -202.671875 L 161.59375 -202.671875 L 161.59375 0 L 120.78125 0 L 118.3125 -33.140625 L 127.078125 -31.765625 C 126.523438 -27.203125 124.742188 -22.820312 121.734375 -18.625 C 118.722656 -14.425781 114.84375 -10.726562 110.09375 -7.53125 C 105.351562 -4.332031 99.921875 -1.773438 93.796875 0.140625 C 87.679688 2.054688 81.25 3.015625 74.5 3.015625 Z M 85.71875 -33.40625 C 92.476562 -33.40625 98.320312 -35.046875 103.25 -38.328125 C 108.175781 -41.617188 111.960938 -46.1875 114.609375 -52.03125 C 117.265625 -57.875 118.59375 -64.722656 118.59375 -72.578125 C 118.59375 -80.609375 117.265625 -87.546875 114.609375 -93.390625 C 111.960938 -99.234375 108.175781 -103.796875 103.25 -107.078125 C 98.320312 -110.367188 92.476562 -112.015625 85.71875 -112.015625 C 78.96875 -112.015625 73.171875 -110.367188 68.328125 -107.078125 C 63.492188 -103.796875 59.707031 -99.234375 56.96875 -93.390625 C 54.226562 -87.546875 52.859375 -80.609375 52.859375 -72.578125 C 52.859375 -64.722656 54.226562 -57.875 56.96875 -52.03125 C 59.707031 -46.1875 63.492188 -41.617188 68.328125 -38.328125 C 73.171875 -35.046875 78.96875 -33.40625 85.71875 -33.40625 Z M 85.71875 -33.40625 "/></g></g></g><g fill="#01dbb0" fill-opacity="1"><g transform="translate(758.508021, 501.905568)"><g><path d="M 88.734375 2.734375 C 72.671875 2.734375 58.703125 -0.503906 46.828125 -6.984375 C 34.960938 -13.460938 25.742188 -22.316406 19.171875 -33.546875 C 12.597656 -44.773438 9.3125 -57.601562 9.3125 -72.03125 C 9.3125 -83.164062 11.132812 -93.390625 14.78125 -102.703125 C 18.4375 -112.015625 23.550781 -120.09375 30.125 -126.9375 C 36.695312 -133.789062 44.5 -139.085938 53.53125 -142.828125 C 62.570312 -146.566406 72.484375 -148.4375 83.265625 -148.4375 C 93.484375 -148.4375 102.835938 -146.609375 111.328125 -142.953125 C 119.816406 -139.304688 127.164062 -134.195312 133.375 -127.625 C 139.582031 -121.050781 144.328125 -113.289062 147.609375 -104.34375 C 150.898438 -95.394531 152.363281 -85.628906 152 -75.046875 L 151.734375 -63.265625 L 35.875 -63.265625 L 29.578125 -87.90625 L 116.125 -87.90625 L 111.46875 -82.703125 L 111.46875 -88.1875 C 111.101562 -92.75 109.6875 -96.8125 107.21875 -100.375 C 104.757812 -103.9375 101.519531 -106.71875 97.5 -108.71875 C 93.476562 -110.726562 88.914062 -111.734375 83.8125 -111.734375 C 76.6875 -111.734375 70.613281 -110.316406 65.59375 -107.484375 C 60.570312 -104.660156 56.78125 -100.554688 54.21875 -95.171875 C 51.664062 -89.785156 50.390625 -83.164062 50.390625 -75.3125 C 50.390625 -67.28125 52.078125 -60.296875 55.453125 -54.359375 C 58.835938 -48.429688 63.769531 -43.820312 70.25 -40.53125 C 76.726562 -37.25 84.441406 -35.609375 93.390625 -35.609375 C 99.597656 -35.609375 105.117188 -36.519531 109.953125 -38.34375 C 114.796875 -40.164062 120.046875 -43.269531 125.703125 -47.65625 L 146.25 -18.625 C 140.59375 -13.695312 134.566406 -9.679688 128.171875 -6.578125 C 121.785156 -3.472656 115.257812 -1.144531 108.59375 0.40625 C 101.925781 1.957031 95.304688 2.734375 88.734375 2.734375 Z M 88.734375 2.734375 "/></g></g></g><g fill="#01dbb0" fill-opacity="1"><g transform="translate(908.000412, 501.905568)"><g><path d="M 19.4375 0 L 19.4375 -145.421875 L 61.078125 -145.421875 L 62.4375 -115.84375 L 53.671875 -112.5625 C 55.679688 -119.132812 59.285156 -125.113281 64.484375 -130.5 C 69.691406 -135.882812 75.945312 -140.21875 83.25 -143.5 C 90.5625 -146.789062 98.234375 -148.4375 106.265625 -148.4375 C 117.222656 -148.4375 126.441406 -146.195312 133.921875 -141.71875 C 141.410156 -137.25 147.070312 -130.585938 150.90625 -121.734375 C 154.738281 -112.878906 156.65625 -102.0625 156.65625 -89.28125 L 156.65625 0 L 112.5625 0 L 112.5625 -85.71875 C 112.5625 -91.5625 111.738281 -96.398438 110.09375 -100.234375 C 108.457031 -104.066406 105.945312 -106.941406 102.5625 -108.859375 C 99.1875 -110.773438 95.035156 -111.644531 90.109375 -111.46875 C 86.273438 -111.46875 82.710938 -110.875 79.421875 -109.6875 C 76.140625 -108.5 73.3125 -106.765625 70.9375 -104.484375 C 68.5625 -102.203125 66.6875 -99.597656 65.3125 -96.671875 C 63.945312 -93.753906 63.265625 -90.5625 63.265625 -87.09375 L 63.265625 0 L 41.625 0 C 36.507812 0 32.125 0 28.46875 0 C 24.820312 0 21.8125 0 19.4375 0 Z M 19.4375 0 "/></g></g></g><g fill="#01dbb0" fill-opacity="1"><g transform="translate(1070.909169, 501.905568)"><g><path d="M 31.5 0 L 31.5 -182.125 L 75.3125 -182.125 L 75.3125 0 Z M 5.75 -107.078125 L 5.75 -145.421875 L 103.53125 -145.421875 L 103.53125 -107.078125 Z M 5.75 -107.078125 "/></g></g></g><g fill="#01dbb0" fill-opacity="1"><g transform="translate(1168.926708, 501.905568)"><g><path d="M 21.90625 0 L 21.90625 -145.421875 L 65.734375 -145.421875 L 65.734375 0 Z M 43.8125 -174.1875 C 35.601562 -174.1875 29.171875 -176.148438 24.515625 -180.078125 C 19.859375 -184.003906 17.53125 -189.617188 17.53125 -196.921875 C 17.53125 -203.492188 19.898438 -208.878906 24.640625 -213.078125 C 29.390625 -217.273438 35.78125 -219.375 43.8125 -219.375 C 52.03125 -219.375 58.421875 -217.410156 62.984375 -213.484375 C 67.554688 -209.554688 69.84375 -204.035156 69.84375 -196.921875 C 69.84375 -190.160156 67.515625 -184.679688 62.859375 -180.484375 C 58.203125 -176.285156 51.851562 -174.1875 43.8125 -174.1875 Z M 43.8125 -174.1875 "/></g></g></g><g fill="#01dbb0" fill-opacity="1"><g transform="translate(1245.313875, 501.905568)"><g><path d="M 68.46875 2.734375 C 54.226562 2.734375 41.675781 0.453125 30.8125 -4.109375 C 19.945312 -8.671875 11.320312 -14.785156 4.9375 -22.453125 L 31.5 -45.46875 C 37.15625 -39.800781 43.539062 -35.644531 50.65625 -33 C 57.78125 -30.351562 64.539062 -29.03125 70.9375 -29.03125 C 73.488281 -29.03125 75.769531 -29.300781 77.78125 -29.84375 C 79.789062 -30.394531 81.476562 -31.171875 82.84375 -32.171875 C 84.21875 -33.179688 85.269531 -34.367188 86 -35.734375 C 86.726562 -37.109375 87.09375 -38.707031 87.09375 -40.53125 C 87.09375 -44.1875 85.445312 -47.019531 82.15625 -49.03125 C 80.519531 -49.9375 77.78125 -51.03125 73.9375 -52.3125 C 70.101562 -53.59375 65.175781 -55.050781 59.15625 -56.6875 C 50.570312 -58.882812 43.128906 -61.488281 36.828125 -64.5 C 30.535156 -67.507812 25.378906 -71.023438 21.359375 -75.046875 C 17.710938 -78.878906 14.882812 -83.125 12.875 -87.78125 C 10.863281 -92.4375 9.859375 -97.6875 9.859375 -103.53125 C 9.859375 -110.28125 11.453125 -116.394531 14.640625 -121.875 C 17.835938 -127.351562 22.128906 -132.097656 27.515625 -136.109375 C 32.910156 -140.128906 39.117188 -143.1875 46.140625 -145.28125 C 53.171875 -147.382812 60.429688 -148.4375 67.921875 -148.4375 C 75.953125 -148.4375 83.617188 -147.523438 90.921875 -145.703125 C 98.222656 -143.878906 105.023438 -141.320312 111.328125 -138.03125 C 117.628906 -134.75 123.242188 -130.820312 128.171875 -126.25 L 105.171875 -100.515625 C 101.878906 -103.617188 98.175781 -106.398438 94.0625 -108.859375 C 89.957031 -111.328125 85.710938 -113.289062 81.328125 -114.75 C 76.953125 -116.207031 72.941406 -116.9375 69.296875 -116.9375 C 66.554688 -116.9375 64.132812 -116.707031 62.03125 -116.25 C 59.9375 -115.800781 58.15625 -115.070312 56.6875 -114.0625 C 55.226562 -113.0625 54.132812 -111.875 53.40625 -110.5 C 52.675781 -109.132812 52.3125 -107.539062 52.3125 -105.71875 C 52.3125 -103.894531 52.8125 -102.160156 53.8125 -100.515625 C 54.820312 -98.867188 56.238281 -97.5 58.0625 -96.40625 C 59.882812 -95.3125 62.800781 -94.078125 66.8125 -92.703125 C 70.832031 -91.335938 76.316406 -89.648438 83.265625 -87.640625 C 91.835938 -85.265625 99.226562 -82.613281 105.4375 -79.6875 C 111.644531 -76.769531 116.578125 -73.304688 120.234375 -69.296875 C 123.148438 -66.191406 125.335938 -62.582031 126.796875 -58.46875 C 128.265625 -54.363281 129 -49.9375 129 -45.1875 C 129 -35.875 126.394531 -27.609375 121.1875 -20.390625 C 115.988281 -13.179688 108.820312 -7.523438 99.6875 -3.421875 C 90.5625 0.679688 80.15625 2.734375 68.46875 2.734375 Z M 68.46875 2.734375 "/></g></g></g><g fill="#01dbb0" fill-opacity="1"><g transform="translate(1369.890289, 501.905568)"><g><path d="M 31.5 0 L 31.5 -182.125 L 75.3125 -182.125 L 75.3125 0 Z M 5.75 -107.078125 L 5.75 -145.421875 L 103.53125 -145.421875 L 103.53125 -107.078125 Z M 5.75 -107.078125 "/></g></g></g><g clip-path="url(#14a663f2f8)"><g clip-path="url(#5b16871251)"><path fill="#01dbb0" d="M 26.554688 272.730469 L 99.527344 272.730469 L 99.527344 345.707031 L 26.554688 345.707031 Z M 26.554688 272.730469 " fill-opacity="1" fill-rule="nonzero"/></g></g></svg>