<svg xmlns="http://www.w3.org/2000/svg" xmlns:xlink="http://www.w3.org/1999/xlink" width="300" zoomAndPan="magnify" viewBox="0 0 224.87999 89.999999" height="120" preserveAspectRatio="xMidYMid meet" version="1.0"><defs><g/><clipPath id="6e68e7d4fb"><path d="M 3 30 L 27 30 L 27 37.894531 L 3 37.894531 Z M 3 30 " clip-rule="nonzero"/></clipPath><clipPath id="fdea92fd7e"><path d="M 1.808594 28.898438 L 6 28.898438 L 6 32 L 1.808594 32 Z M 1.808594 28.898438 " clip-rule="nonzero"/></clipPath><clipPath id="f870631d45"><path d="M 25 28.898438 L 28.796875 28.898438 L 28.796875 32 L 25 32 Z M 25 28.898438 " clip-rule="nonzero"/></clipPath></defs><g clip-path="url(#6e68e7d4fb)"><path fill="#01dbb0" d="M 26.582031 30.140625 C 25.015625 31.792969 23.234375 33.015625 21.308594 33.828125 C 19.378906 34.636719 17.328125 35.035156 15.269531 35.039062 C 13.207031 35.035156 11.15625 34.640625 9.230469 33.828125 C 7.304688 33.011719 5.519531 31.796875 3.957031 30.140625 L 3.957031 30.136719 C 3.894531 30.074219 3.824219 30.0625 3.746094 30.109375 C 3.667969 30.15625 3.644531 30.222656 3.675781 30.308594 C 4.453125 32.535156 6.164062 34.445312 8.242188 35.71875 C 10.328125 37.003906 12.808594 37.667969 15.269531 37.671875 C 17.730469 37.671875 20.207031 37.003906 22.296875 35.71875 C 24.375 34.445312 26.085938 32.535156 26.863281 30.308594 C 26.894531 30.222656 26.871094 30.15625 26.792969 30.109375 C 26.714844 30.0625 26.644531 30.074219 26.582031 30.140625 Z M 26.582031 30.140625 " fill-opacity="1" fill-rule="nonzero"/></g><g clip-path="url(#fdea92fd7e)"><path fill="#01dbb0" d="M 4.6875 29.6875 C 4.84375 29.648438 5.003906 29.625 5.175781 29.5625 L 5.199219 29.554688 C 5.269531 29.527344 5.304688 29.480469 5.3125 29.40625 C 5.320312 29.332031 5.292969 29.273438 5.230469 29.238281 C 5.066406 29.144531 4.894531 29.066406 4.71875 29.007812 C 4.535156 28.972656 4.347656 28.914062 4.152344 28.921875 C 3.765625 28.898438 3.359375 29.003906 2.996094 29.1875 C 2.628906 29.378906 2.339844 29.65625 2.132812 30.019531 C 1.933594 30.363281 1.832031 30.742188 1.875 31.144531 C 1.882812 31.21875 1.921875 31.265625 1.992188 31.289062 C 2.058594 31.3125 2.117188 31.300781 2.167969 31.25 L 2.195312 31.222656 C 2.425781 30.988281 2.636719 30.757812 2.847656 30.578125 C 3.046875 30.398438 3.265625 30.246094 3.5 30.117188 C 3.726562 30 3.96875 29.882812 4.25 29.808594 C 4.386719 29.757812 4.535156 29.734375 4.6875 29.6875 Z M 4.6875 29.6875 " fill-opacity="1" fill-rule="nonzero"/></g><g clip-path="url(#f870631d45)"><path fill="#01dbb0" d="M 28.386719 30.019531 C 28.179688 29.65625 27.890625 29.378906 27.523438 29.1875 C 27.160156 29.003906 26.753906 28.898438 26.367188 28.921875 C 26.171875 28.914062 25.984375 28.972656 25.800781 29.007812 C 25.625 29.066406 25.453125 29.144531 25.289062 29.238281 C 25.226562 29.277344 25.199219 29.332031 25.207031 29.40625 C 25.214844 29.480469 25.25 29.527344 25.320312 29.554688 L 25.34375 29.5625 C 25.515625 29.625 25.675781 29.648438 25.832031 29.6875 C 25.984375 29.734375 26.132812 29.757812 26.269531 29.808594 C 26.550781 29.882812 26.789062 30 27.019531 30.117188 C 27.253906 30.246094 27.46875 30.398438 27.667969 30.578125 C 27.882812 30.757812 28.09375 30.988281 28.324219 31.222656 L 28.347656 31.25 C 28.398438 31.300781 28.457031 31.3125 28.527344 31.289062 C 28.597656 31.265625 28.632812 31.21875 28.640625 31.144531 C 28.6875 30.742188 28.585938 30.363281 28.386719 30.019531 Z M 28.386719 30.019531 " fill-opacity="1" fill-rule="nonzero"/></g><g fill="#01dbb0" fill-opacity="1"><g transform="translate(37.901262, 39.030862)"><g><path d="M 1.15625 0 L 1.15625 -11.984375 L 3.6875 -11.984375 L 3.6875 -6.84375 L 3.171875 -6.65625 C 3.285156 -7.039062 3.5 -7.390625 3.8125 -7.703125 C 4.125 -8.023438 4.492188 -8.285156 4.921875 -8.484375 C 5.347656 -8.679688 5.800781 -8.78125 6.28125 -8.78125 C 6.925781 -8.78125 7.46875 -8.644531 7.90625 -8.375 C 8.351562 -8.113281 8.691406 -7.71875 8.921875 -7.1875 C 9.148438 -6.664062 9.265625 -6.03125 9.265625 -5.28125 L 9.265625 0 L 6.65625 0 L 6.65625 -5.0625 C 6.65625 -5.40625 6.601562 -5.691406 6.5 -5.921875 C 6.40625 -6.148438 6.257812 -6.320312 6.0625 -6.4375 C 5.863281 -6.550781 5.617188 -6.601562 5.328125 -6.59375 C 5.097656 -6.59375 4.882812 -6.554688 4.6875 -6.484375 C 4.5 -6.410156 4.332031 -6.304688 4.1875 -6.171875 C 4.050781 -6.035156 3.941406 -5.878906 3.859375 -5.703125 C 3.773438 -5.535156 3.734375 -5.347656 3.734375 -5.140625 L 3.734375 0 L 2.453125 0 C 2.148438 0 1.890625 0 1.671875 0 C 1.460938 0 1.289062 0 1.15625 0 Z M 1.15625 0 "/></g></g></g><g fill="#01dbb0" fill-opacity="1"><g transform="translate(47.533445, 39.030862)"><g><path d="M 4.328125 0.140625 C 3.597656 0.140625 2.945312 -0.046875 2.375 -0.421875 C 1.8125 -0.804688 1.363281 -1.335938 1.03125 -2.015625 C 0.695312 -2.691406 0.53125 -3.457031 0.53125 -4.3125 C 0.53125 -5.175781 0.695312 -5.941406 1.03125 -6.609375 C 1.363281 -7.285156 1.820312 -7.816406 2.40625 -8.203125 C 2.988281 -8.585938 3.65625 -8.78125 4.40625 -8.78125 C 4.8125 -8.78125 5.179688 -8.71875 5.515625 -8.59375 C 5.859375 -8.476562 6.160156 -8.3125 6.421875 -8.09375 C 6.679688 -7.882812 6.898438 -7.640625 7.078125 -7.359375 C 7.265625 -7.085938 7.40625 -6.796875 7.5 -6.484375 L 6.953125 -6.5625 L 6.953125 -8.59375 L 9.53125 -8.59375 L 9.53125 0 L 6.90625 0 L 6.90625 -2.078125 L 7.5 -2.09375 C 7.40625 -1.789062 7.257812 -1.503906 7.0625 -1.234375 C 6.875 -0.960938 6.640625 -0.722656 6.359375 -0.515625 C 6.078125 -0.304688 5.765625 -0.144531 5.421875 -0.03125 C 5.078125 0.0820312 4.710938 0.140625 4.328125 0.140625 Z M 5.03125 -2.046875 C 5.4375 -2.046875 5.78125 -2.132812 6.0625 -2.3125 C 6.351562 -2.5 6.582031 -2.757812 6.75 -3.09375 C 6.914062 -3.4375 7 -3.84375 7 -4.3125 C 7 -4.769531 6.914062 -5.164062 6.75 -5.5 C 6.582031 -5.84375 6.351562 -6.109375 6.0625 -6.296875 C 5.78125 -6.492188 5.4375 -6.59375 5.03125 -6.59375 C 4.644531 -6.59375 4.304688 -6.492188 4.015625 -6.296875 C 3.734375 -6.109375 3.507812 -5.84375 3.34375 -5.5 C 3.1875 -5.164062 3.109375 -4.769531 3.109375 -4.3125 C 3.109375 -3.84375 3.1875 -3.4375 3.34375 -3.09375 C 3.507812 -2.757812 3.734375 -2.5 4.015625 -2.3125 C 4.304688 -2.132812 4.644531 -2.046875 5.03125 -2.046875 Z M 5.03125 -2.046875 "/></g></g></g><g fill="#01dbb0" fill-opacity="1"><g transform="translate(57.554167, 39.030862)"><g><path d="M 4.921875 0.15625 C 4.085938 0.15625 3.34375 -0.0351562 2.6875 -0.421875 C 2.03125 -0.804688 1.507812 -1.335938 1.125 -2.015625 C 0.738281 -2.691406 0.546875 -3.457031 0.546875 -4.3125 C 0.546875 -5.15625 0.738281 -5.914062 1.125 -6.59375 C 1.507812 -7.269531 2.03125 -7.800781 2.6875 -8.1875 C 3.34375 -8.582031 4.085938 -8.78125 4.921875 -8.78125 C 5.679688 -8.78125 6.382812 -8.644531 7.03125 -8.375 C 7.675781 -8.101562 8.1875 -7.722656 8.5625 -7.234375 L 7.15625 -5.546875 C 7 -5.722656 6.816406 -5.882812 6.609375 -6.03125 C 6.410156 -6.1875 6.1875 -6.304688 5.9375 -6.390625 C 5.6875 -6.484375 5.425781 -6.53125 5.15625 -6.53125 C 4.75 -6.53125 4.390625 -6.429688 4.078125 -6.234375 C 3.765625 -6.046875 3.519531 -5.785156 3.34375 -5.453125 C 3.175781 -5.117188 3.09375 -4.738281 3.09375 -4.3125 C 3.09375 -3.894531 3.179688 -3.519531 3.359375 -3.1875 C 3.535156 -2.851562 3.78125 -2.585938 4.09375 -2.390625 C 4.40625 -2.203125 4.757812 -2.109375 5.15625 -2.109375 C 5.4375 -2.109375 5.695312 -2.140625 5.9375 -2.203125 C 6.175781 -2.273438 6.394531 -2.378906 6.59375 -2.515625 C 6.789062 -2.660156 6.976562 -2.835938 7.15625 -3.046875 L 8.546875 -1.34375 C 8.179688 -0.875 7.671875 -0.503906 7.015625 -0.234375 C 6.359375 0.0234375 5.660156 0.15625 4.921875 0.15625 Z M 4.921875 0.15625 "/></g></g></g><g fill="#01dbb0" fill-opacity="1"><g transform="translate(65.729357, 39.030862)"><g><path d="M 3.640625 -2.53125 L 2.6875 -4.46875 L 6.703125 -8.59375 L 10.109375 -8.59375 Z M 1.15625 0 L 1.15625 -11.984375 L 3.734375 -11.984375 L 3.734375 0 Z M 6.984375 0 L 3.953125 -3.921875 L 5.78125 -5.34375 L 10.03125 0 Z M 6.984375 0 "/></g></g></g><g fill="#f5f5f5" fill-opacity="1"><g transform="translate(75.224313, 39.030862)"><g><path d="M 4.40625 0.171875 C 3.65625 0.171875 2.988281 -0.015625 2.40625 -0.390625 C 1.832031 -0.773438 1.378906 -1.304688 1.046875 -1.984375 C 0.710938 -2.660156 0.546875 -3.429688 0.546875 -4.296875 C 0.546875 -5.148438 0.710938 -5.914062 1.046875 -6.59375 C 1.378906 -7.269531 1.835938 -7.800781 2.421875 -8.1875 C 3.003906 -8.582031 3.675781 -8.78125 4.4375 -8.78125 C 4.820312 -8.78125 5.191406 -8.71875 5.546875 -8.59375 C 5.910156 -8.476562 6.234375 -8.316406 6.515625 -8.109375 C 6.804688 -7.898438 7.046875 -7.664062 7.234375 -7.40625 C 7.421875 -7.144531 7.53125 -6.875 7.5625 -6.59375 L 6.9375 -6.4375 L 6.9375 -11.984375 L 9.546875 -11.984375 L 9.546875 0 L 7.140625 0 L 7 -1.953125 L 7.515625 -1.875 C 7.484375 -1.601562 7.375 -1.34375 7.1875 -1.09375 C 7.007812 -0.851562 6.78125 -0.632812 6.5 -0.4375 C 6.226562 -0.25 5.910156 -0.101562 5.546875 0 C 5.179688 0.113281 4.800781 0.171875 4.40625 0.171875 Z M 5.0625 -1.96875 C 5.46875 -1.96875 5.816406 -2.066406 6.109375 -2.265625 C 6.398438 -2.460938 6.625 -2.734375 6.78125 -3.078125 C 6.9375 -3.421875 7.015625 -3.828125 7.015625 -4.296875 C 7.015625 -4.765625 6.9375 -5.171875 6.78125 -5.515625 C 6.625 -5.859375 6.398438 -6.128906 6.109375 -6.328125 C 5.816406 -6.523438 5.46875 -6.625 5.0625 -6.625 C 4.664062 -6.625 4.320312 -6.523438 4.03125 -6.328125 C 3.75 -6.128906 3.523438 -5.859375 3.359375 -5.515625 C 3.203125 -5.171875 3.125 -4.765625 3.125 -4.296875 C 3.125 -3.828125 3.203125 -3.421875 3.359375 -3.078125 C 3.523438 -2.734375 3.75 -2.460938 4.03125 -2.265625 C 4.320312 -2.066406 4.664062 -1.96875 5.0625 -1.96875 Z M 5.0625 -1.96875 "/></g></g></g><g fill="#f5f5f5" fill-opacity="1"><g transform="translate(85.164089, 39.030862)"><g><path d="M 5.25 0.15625 C 4.289062 0.15625 3.460938 -0.03125 2.765625 -0.40625 C 2.066406 -0.789062 1.519531 -1.316406 1.125 -1.984375 C 0.738281 -2.648438 0.546875 -3.40625 0.546875 -4.25 C 0.546875 -4.914062 0.65625 -5.519531 0.875 -6.0625 C 1.09375 -6.613281 1.394531 -7.09375 1.78125 -7.5 C 2.164062 -7.90625 2.625 -8.21875 3.15625 -8.4375 C 3.695312 -8.664062 4.285156 -8.78125 4.921875 -8.78125 C 5.523438 -8.78125 6.078125 -8.671875 6.578125 -8.453125 C 7.078125 -8.234375 7.507812 -7.925781 7.875 -7.53125 C 8.25 -7.144531 8.53125 -6.6875 8.71875 -6.15625 C 8.914062 -5.632812 9.003906 -5.0625 8.984375 -4.4375 L 8.96875 -3.734375 L 2.125 -3.734375 L 1.75 -5.203125 L 6.859375 -5.203125 L 6.59375 -4.890625 L 6.59375 -5.21875 C 6.570312 -5.476562 6.488281 -5.710938 6.34375 -5.921875 C 6.195312 -6.140625 6.003906 -6.304688 5.765625 -6.421875 C 5.523438 -6.546875 5.253906 -6.609375 4.953125 -6.609375 C 4.535156 -6.609375 4.175781 -6.523438 3.875 -6.359375 C 3.582031 -6.191406 3.359375 -5.945312 3.203125 -5.625 C 3.054688 -5.300781 2.984375 -4.910156 2.984375 -4.453125 C 2.984375 -3.972656 3.082031 -3.554688 3.28125 -3.203125 C 3.476562 -2.859375 3.769531 -2.585938 4.15625 -2.390625 C 4.539062 -2.203125 4.992188 -2.109375 5.515625 -2.109375 C 5.878906 -2.109375 6.203125 -2.160156 6.484375 -2.265625 C 6.773438 -2.367188 7.09375 -2.550781 7.4375 -2.8125 L 8.640625 -1.09375 C 8.304688 -0.800781 7.953125 -0.5625 7.578125 -0.375 C 7.203125 -0.195312 6.816406 -0.0664062 6.421875 0.015625 C 6.023438 0.109375 5.632812 0.15625 5.25 0.15625 Z M 5.25 0.15625 "/></g></g></g><g fill="#f5f5f5" fill-opacity="1"><g transform="translate(94.003026, 39.030862)"><g><path d="M 1.15625 0 L 1.15625 -8.59375 L 3.609375 -8.59375 L 3.6875 -6.84375 L 3.171875 -6.65625 C 3.285156 -7.039062 3.5 -7.390625 3.8125 -7.703125 C 4.125 -8.023438 4.492188 -8.285156 4.921875 -8.484375 C 5.347656 -8.679688 5.800781 -8.78125 6.28125 -8.78125 C 6.925781 -8.78125 7.46875 -8.644531 7.90625 -8.375 C 8.351562 -8.113281 8.691406 -7.71875 8.921875 -7.1875 C 9.148438 -6.664062 9.265625 -6.03125 9.265625 -5.28125 L 9.265625 0 L 6.65625 0 L 6.65625 -5.0625 C 6.65625 -5.40625 6.601562 -5.691406 6.5 -5.921875 C 6.40625 -6.148438 6.257812 -6.320312 6.0625 -6.4375 C 5.863281 -6.550781 5.617188 -6.601562 5.328125 -6.59375 C 5.097656 -6.59375 4.882812 -6.554688 4.6875 -6.484375 C 4.5 -6.410156 4.332031 -6.304688 4.1875 -6.171875 C 4.050781 -6.035156 3.941406 -5.878906 3.859375 -5.703125 C 3.773438 -5.535156 3.734375 -5.347656 3.734375 -5.140625 L 3.734375 0 L 2.453125 0 C 2.148438 0 1.890625 0 1.671875 0 C 1.460938 0 1.289062 0 1.15625 0 Z M 1.15625 0 "/></g></g></g><g fill="#f5f5f5" fill-opacity="1"><g transform="translate(103.635209, 39.030862)"><g><path d="M 1.859375 0 L 1.859375 -10.765625 L 4.453125 -10.765625 L 4.453125 0 Z M 0.34375 -6.328125 L 0.34375 -8.59375 L 6.125 -8.59375 L 6.125 -6.328125 Z M 0.34375 -6.328125 "/></g></g></g><g fill="#f5f5f5" fill-opacity="1"><g transform="translate(109.43065, 39.030862)"><g><path d="M 4.328125 0.140625 C 3.597656 0.140625 2.945312 -0.046875 2.375 -0.421875 C 1.8125 -0.804688 1.363281 -1.335938 1.03125 -2.015625 C 0.695312 -2.691406 0.53125 -3.457031 0.53125 -4.3125 C 0.53125 -5.175781 0.695312 -5.941406 1.03125 -6.609375 C 1.363281 -7.285156 1.820312 -7.816406 2.40625 -8.203125 C 2.988281 -8.585938 3.65625 -8.78125 4.40625 -8.78125 C 4.8125 -8.78125 5.179688 -8.71875 5.515625 -8.59375 C 5.859375 -8.476562 6.160156 -8.3125 6.421875 -8.09375 C 6.679688 -7.882812 6.898438 -7.640625 7.078125 -7.359375 C 7.265625 -7.085938 7.40625 -6.796875 7.5 -6.484375 L 6.953125 -6.5625 L 6.953125 -8.59375 L 9.53125 -8.59375 L 9.53125 0 L 6.90625 0 L 6.90625 -2.078125 L 7.5 -2.09375 C 7.40625 -1.789062 7.257812 -1.503906 7.0625 -1.234375 C 6.875 -0.960938 6.640625 -0.722656 6.359375 -0.515625 C 6.078125 -0.304688 5.765625 -0.144531 5.421875 -0.03125 C 5.078125 0.0820312 4.710938 0.140625 4.328125 0.140625 Z M 5.03125 -2.046875 C 5.4375 -2.046875 5.78125 -2.132812 6.0625 -2.3125 C 6.351562 -2.5 6.582031 -2.757812 6.75 -3.09375 C 6.914062 -3.4375 7 -3.84375 7 -4.3125 C 7 -4.769531 6.914062 -5.164062 6.75 -5.5 C 6.582031 -5.84375 6.351562 -6.109375 6.0625 -6.296875 C 5.78125 -6.492188 5.4375 -6.59375 5.03125 -6.59375 C 4.644531 -6.59375 4.304688 -6.492188 4.015625 -6.296875 C 3.734375 -6.109375 3.507812 -5.84375 3.34375 -5.5 C 3.1875 -5.164062 3.109375 -4.769531 3.109375 -4.3125 C 3.109375 -3.84375 3.1875 -3.4375 3.34375 -3.09375 C 3.507812 -2.757812 3.734375 -2.5 4.015625 -2.3125 C 4.304688 -2.132812 4.644531 -2.046875 5.03125 -2.046875 Z M 5.03125 -2.046875 "/></g></g></g><g fill="#f5f5f5" fill-opacity="1"><g transform="translate(119.451371, 39.030862)"><g><path d="M 1.171875 0 L 1.171875 -11.984375 L 3.75 -11.984375 L 3.75 0 Z M 1.171875 0 "/></g></g></g><g fill="#f5f5f5" fill-opacity="1"><g transform="translate(123.731233, 39.030862)"><g><path d="M 1.84375 0.15625 C 1.550781 0.15625 1.328125 0.0703125 1.171875 -0.09375 C 1.015625 -0.269531 0.9375 -0.519531 0.9375 -0.84375 C 0.9375 -1.132812 1.019531 -1.375 1.1875 -1.5625 C 1.351562 -1.75 1.570312 -1.84375 1.84375 -1.84375 C 2.132812 -1.84375 2.359375 -1.753906 2.515625 -1.578125 C 2.671875 -1.398438 2.75 -1.15625 2.75 -0.84375 C 2.75 -0.539062 2.664062 -0.296875 2.5 -0.109375 C 2.332031 0.0664062 2.113281 0.15625 1.84375 0.15625 Z M 1.84375 0.15625 "/></g></g></g><g fill="#f5f5f5" fill-opacity="1"><g transform="translate(126.774579, 39.030862)"><g><path d="M 4.75 0.15625 C 3.945312 0.15625 3.234375 -0.03125 2.609375 -0.40625 C 1.984375 -0.789062 1.488281 -1.316406 1.125 -1.984375 C 0.757812 -2.648438 0.578125 -3.398438 0.578125 -4.234375 C 0.578125 -5.078125 0.757812 -5.832031 1.125 -6.5 C 1.488281 -7.164062 1.984375 -7.6875 2.609375 -8.0625 C 3.234375 -8.4375 3.953125 -8.625 4.765625 -8.625 C 5.484375 -8.625 6.140625 -8.476562 6.734375 -8.1875 C 7.328125 -7.90625 7.800781 -7.515625 8.15625 -7.015625 L 7.453125 -6.140625 C 7.242188 -6.410156 6.992188 -6.644531 6.703125 -6.84375 C 6.421875 -7.050781 6.113281 -7.210938 5.78125 -7.328125 C 5.457031 -7.441406 5.132812 -7.5 4.8125 -7.5 C 4.238281 -7.5 3.722656 -7.351562 3.265625 -7.0625 C 2.816406 -6.78125 2.457031 -6.394531 2.1875 -5.90625 C 1.925781 -5.425781 1.796875 -4.867188 1.796875 -4.234375 C 1.796875 -3.609375 1.925781 -3.050781 2.1875 -2.5625 C 2.457031 -2.070312 2.816406 -1.6875 3.265625 -1.40625 C 3.722656 -1.125 4.234375 -0.984375 4.796875 -0.984375 C 5.117188 -0.984375 5.4375 -1.035156 5.75 -1.140625 C 6.0625 -1.242188 6.359375 -1.390625 6.640625 -1.578125 C 6.921875 -1.773438 7.175781 -2.019531 7.40625 -2.3125 L 8.125 -1.4375 C 7.757812 -0.957031 7.269531 -0.570312 6.65625 -0.28125 C 6.039062 0.0078125 5.40625 0.15625 4.75 0.15625 Z M 4.75 0.15625 "/></g></g></g><g fill="#f5f5f5" fill-opacity="1"><g transform="translate(134.642188, 39.030862)"><g><path d="M 4.921875 0.15625 C 4.078125 0.15625 3.328125 -0.03125 2.671875 -0.40625 C 2.023438 -0.78125 1.515625 -1.300781 1.140625 -1.96875 C 0.765625 -2.644531 0.578125 -3.40625 0.578125 -4.25 C 0.578125 -5.09375 0.765625 -5.84375 1.140625 -6.5 C 1.515625 -7.164062 2.023438 -7.6875 2.671875 -8.0625 C 3.328125 -8.4375 4.078125 -8.625 4.921875 -8.625 C 5.753906 -8.625 6.492188 -8.4375 7.140625 -8.0625 C 7.796875 -7.6875 8.3125 -7.164062 8.6875 -6.5 C 9.0625 -5.84375 9.25 -5.09375 9.25 -4.25 C 9.25 -3.40625 9.0625 -2.644531 8.6875 -1.96875 C 8.3125 -1.300781 7.796875 -0.78125 7.140625 -0.40625 C 6.492188 -0.03125 5.753906 0.15625 4.921875 0.15625 Z M 4.921875 -0.984375 C 5.515625 -0.984375 6.039062 -1.125 6.5 -1.40625 C 6.96875 -1.695312 7.332031 -2.085938 7.59375 -2.578125 C 7.851562 -3.066406 7.984375 -3.625 7.984375 -4.25 C 7.984375 -4.882812 7.851562 -5.441406 7.59375 -5.921875 C 7.332031 -6.410156 6.96875 -6.789062 6.5 -7.0625 C 6.039062 -7.34375 5.515625 -7.484375 4.921875 -7.484375 C 4.328125 -7.484375 3.796875 -7.34375 3.328125 -7.0625 C 2.859375 -6.789062 2.488281 -6.410156 2.21875 -5.921875 C 1.957031 -5.429688 1.832031 -4.875 1.84375 -4.25 C 1.832031 -3.625 1.957031 -3.066406 2.21875 -2.578125 C 2.488281 -2.085938 2.859375 -1.695312 3.328125 -1.40625 C 3.796875 -1.125 4.328125 -0.984375 4.921875 -0.984375 Z M 4.921875 -0.984375 "/></g></g></g><g fill="#f5f5f5" fill-opacity="1"><g transform="translate(143.82109, 39.030862)"><g><path d="M 1.171875 0 L 1.171875 -8.453125 L 2.375 -8.453125 L 2.40625 -6.53125 L 2.171875 -6.4375 C 2.253906 -6.757812 2.394531 -7.050781 2.59375 -7.3125 C 2.789062 -7.582031 3.03125 -7.8125 3.3125 -8 C 3.59375 -8.195312 3.898438 -8.347656 4.234375 -8.453125 C 4.578125 -8.554688 4.929688 -8.609375 5.296875 -8.609375 C 5.734375 -8.609375 6.128906 -8.535156 6.484375 -8.390625 C 6.835938 -8.242188 7.132812 -7.992188 7.375 -7.640625 C 7.613281 -7.296875 7.800781 -6.835938 7.9375 -6.265625 L 7.640625 -6.40625 L 7.75 -6.6875 C 7.863281 -6.9375 8.023438 -7.175781 8.234375 -7.40625 C 8.441406 -7.632812 8.679688 -7.835938 8.953125 -8.015625 C 9.234375 -8.203125 9.535156 -8.347656 9.859375 -8.453125 C 10.191406 -8.554688 10.53125 -8.609375 10.875 -8.609375 C 11.46875 -8.609375 11.96875 -8.476562 12.375 -8.21875 C 12.789062 -7.96875 13.101562 -7.582031 13.3125 -7.0625 C 13.519531 -6.550781 13.625 -5.894531 13.625 -5.09375 L 13.625 0 L 12.390625 0 L 12.390625 -5.03125 C 12.390625 -5.59375 12.316406 -6.050781 12.171875 -6.40625 C 12.035156 -6.757812 11.828125 -7.023438 11.546875 -7.203125 C 11.273438 -7.390625 10.925781 -7.484375 10.5 -7.484375 C 10.132812 -7.484375 9.796875 -7.421875 9.484375 -7.296875 C 9.179688 -7.171875 8.921875 -6.992188 8.703125 -6.765625 C 8.484375 -6.546875 8.3125 -6.296875 8.1875 -6.015625 C 8.0625 -5.734375 8 -5.429688 8 -5.109375 L 8 0 L 6.765625 0 L 6.765625 -5.046875 C 6.765625 -5.585938 6.691406 -6.035156 6.546875 -6.390625 C 6.398438 -6.742188 6.1875 -7.015625 5.90625 -7.203125 C 5.625 -7.390625 5.28125 -7.484375 4.875 -7.484375 C 4.519531 -7.484375 4.191406 -7.421875 3.890625 -7.296875 C 3.585938 -7.171875 3.320312 -7 3.09375 -6.78125 C 2.875 -6.5625 2.703125 -6.3125 2.578125 -6.03125 C 2.453125 -5.75 2.390625 -5.445312 2.390625 -5.125 L 2.390625 0 Z M 1.171875 0 "/></g></g></g><g fill="#bcccdc" fill-opacity="1"><g transform="translate(1.809518, 62.519507)"><g><path d="M 1.453125 0 L 1.453125 -9.90625 L 2.53125 -9.90625 L 6.34375 -3.71875 L 5.828125 -3.734375 L 9.6875 -9.90625 L 10.6875 -9.90625 L 10.6875 0 L 9.578125 0 L 9.578125 -4.53125 C 9.578125 -5.375 9.59375 -6.132812 9.625 -6.8125 C 9.65625 -7.5 9.707031 -8.175781 9.78125 -8.84375 L 9.984375 -8.453125 L 6.421875 -2.875 L 5.65625 -2.875 L 2.203125 -8.375 L 2.359375 -8.84375 C 2.441406 -8.21875 2.492188 -7.570312 2.515625 -6.90625 C 2.546875 -6.238281 2.5625 -5.445312 2.5625 -4.53125 L 2.5625 0 Z M 1.453125 0 "/></g></g></g><g fill="#bcccdc" fill-opacity="1"><g transform="translate(13.959401, 62.519507)"><g><path d="M 3.921875 0.140625 C 3.273438 0.140625 2.691406 -0.0234375 2.171875 -0.359375 C 1.660156 -0.691406 1.253906 -1.148438 0.953125 -1.734375 C 0.648438 -2.316406 0.5 -2.972656 0.5 -3.703125 C 0.5 -4.453125 0.65625 -5.113281 0.96875 -5.6875 C 1.28125 -6.257812 1.695312 -6.710938 2.21875 -7.046875 C 2.738281 -7.378906 3.328125 -7.546875 3.984375 -7.546875 C 4.367188 -7.546875 4.722656 -7.488281 5.046875 -7.375 C 5.378906 -7.257812 5.675781 -7.097656 5.9375 -6.890625 C 6.195312 -6.691406 6.414062 -6.457031 6.59375 -6.1875 C 6.769531 -5.925781 6.890625 -5.640625 6.953125 -5.328125 L 6.640625 -5.484375 L 6.6875 -7.390625 L 7.75 -7.390625 L 7.75 0 L 6.671875 0 L 6.671875 -1.8125 L 6.953125 -2 C 6.890625 -1.71875 6.757812 -1.445312 6.5625 -1.1875 C 6.375 -0.925781 6.144531 -0.695312 5.875 -0.5 C 5.613281 -0.300781 5.3125 -0.144531 4.96875 -0.03125 C 4.632812 0.0820312 4.285156 0.140625 3.921875 0.140625 Z M 4.15625 -0.875 C 4.644531 -0.875 5.082031 -0.992188 5.46875 -1.234375 C 5.863281 -1.472656 6.171875 -1.804688 6.390625 -2.234375 C 6.609375 -2.671875 6.71875 -3.160156 6.71875 -3.703125 C 6.71875 -4.253906 6.609375 -4.738281 6.390625 -5.15625 C 6.171875 -5.582031 5.863281 -5.921875 5.46875 -6.171875 C 5.082031 -6.421875 4.644531 -6.546875 4.15625 -6.546875 C 3.65625 -6.546875 3.210938 -6.421875 2.828125 -6.171875 C 2.453125 -5.921875 2.148438 -5.582031 1.921875 -5.15625 C 1.703125 -4.738281 1.59375 -4.253906 1.59375 -3.703125 C 1.59375 -3.171875 1.703125 -2.6875 1.921875 -2.25 C 2.140625 -1.820312 2.441406 -1.484375 2.828125 -1.234375 C 3.210938 -0.992188 3.65625 -0.875 4.15625 -0.875 Z M 4.15625 -0.875 "/></g></g></g><g fill="#bcccdc" fill-opacity="1"><g transform="translate(22.739038, 62.519507)"><g><path d="M 1.03125 0 L 1.03125 -7.390625 L 2.09375 -7.390625 L 2.125 -5.421875 L 2.015625 -5.6875 C 2.117188 -6.019531 2.285156 -6.328125 2.515625 -6.609375 C 2.742188 -6.890625 3.019531 -7.113281 3.34375 -7.28125 C 3.664062 -7.457031 4.019531 -7.546875 4.40625 -7.546875 C 4.5625 -7.546875 4.707031 -7.53125 4.84375 -7.5 C 4.988281 -7.476562 5.109375 -7.453125 5.203125 -7.421875 L 4.90625 -6.234375 C 4.789062 -6.285156 4.664062 -6.320312 4.53125 -6.34375 C 4.40625 -6.375 4.285156 -6.390625 4.171875 -6.390625 C 3.847656 -6.390625 3.5625 -6.332031 3.3125 -6.21875 C 3.0625 -6.101562 2.84375 -5.941406 2.65625 -5.734375 C 2.476562 -5.535156 2.34375 -5.300781 2.25 -5.03125 C 2.15625 -4.769531 2.109375 -4.488281 2.109375 -4.1875 L 2.109375 0 Z M 1.03125 0 "/></g></g></g><g fill="#bcccdc" fill-opacity="1"><g transform="translate(28.020983, 62.519507)"><g><path d="M 1.984375 -2.375 L 1.9375 -3.609375 L 5.796875 -7.390625 L 7.234375 -7.390625 Z M 1.03125 0 L 1.03125 -10.46875 L 2.09375 -10.46875 L 2.09375 0 Z M 6.09375 0 L 2.984375 -3.609375 L 3.734375 -4.34375 L 7.484375 0 Z M 6.09375 0 "/></g></g></g><g fill="#bcccdc" fill-opacity="1"><g transform="translate(35.63944, 62.519507)"><g><path d="M 4.296875 0.140625 C 3.554688 0.140625 2.898438 -0.0195312 2.328125 -0.34375 C 1.753906 -0.664062 1.304688 -1.113281 0.984375 -1.6875 C 0.671875 -2.257812 0.515625 -2.921875 0.515625 -3.671875 C 0.515625 -4.242188 0.601562 -4.765625 0.78125 -5.234375 C 0.957031 -5.703125 1.207031 -6.109375 1.53125 -6.453125 C 1.863281 -6.804688 2.253906 -7.078125 2.703125 -7.265625 C 3.160156 -7.460938 3.648438 -7.5625 4.171875 -7.5625 C 4.671875 -7.5625 5.125 -7.46875 5.53125 -7.28125 C 5.945312 -7.101562 6.300781 -6.859375 6.59375 -6.546875 C 6.894531 -6.234375 7.117188 -5.859375 7.265625 -5.421875 C 7.421875 -4.984375 7.488281 -4.503906 7.46875 -3.984375 L 7.453125 -3.5 L 1.296875 -3.5 L 1.140625 -4.390625 L 6.65625 -4.390625 L 6.40625 -4.140625 L 6.40625 -4.484375 C 6.382812 -4.828125 6.28125 -5.15625 6.09375 -5.46875 C 5.914062 -5.789062 5.664062 -6.050781 5.34375 -6.25 C 5.019531 -6.445312 4.628906 -6.546875 4.171875 -6.546875 C 3.648438 -6.546875 3.191406 -6.4375 2.796875 -6.21875 C 2.410156 -6.007812 2.113281 -5.695312 1.90625 -5.28125 C 1.695312 -4.863281 1.59375 -4.347656 1.59375 -3.734375 C 1.59375 -3.148438 1.707031 -2.644531 1.9375 -2.21875 C 2.164062 -1.789062 2.488281 -1.457031 2.90625 -1.21875 C 3.332031 -0.976562 3.84375 -0.859375 4.4375 -0.859375 C 4.78125 -0.859375 5.125 -0.914062 5.46875 -1.03125 C 5.8125 -1.15625 6.191406 -1.390625 6.609375 -1.734375 L 7.15625 -0.984375 C 6.945312 -0.765625 6.691406 -0.570312 6.390625 -0.40625 C 6.085938 -0.238281 5.753906 -0.101562 5.390625 0 C 5.035156 0.09375 4.671875 0.140625 4.296875 0.140625 Z M 4.296875 0.140625 "/></g></g></g><g fill="#bcccdc" fill-opacity="1"><g transform="translate(43.597757, 62.519507)"><g><path d="M 2.046875 0 L 2.046875 -9.328125 L 3.109375 -9.328125 L 3.109375 0 Z M 0.375 -6.375 L 0.375 -7.390625 L 4.984375 -7.390625 L 4.984375 -6.375 Z M 0.375 -6.375 "/></g></g></g><g fill="#bcccdc" fill-opacity="1"><g transform="translate(48.851373, 62.519507)"><g><path d="M 1.3125 0 L 1.3125 -7.390625 L 2.375 -7.390625 L 2.375 0 Z M 1.84375 -8.984375 C 1.570312 -8.984375 1.367188 -9.050781 1.234375 -9.1875 C 1.097656 -9.332031 1.03125 -9.519531 1.03125 -9.75 C 1.03125 -9.988281 1.097656 -10.175781 1.234375 -10.3125 C 1.378906 -10.457031 1.582031 -10.53125 1.84375 -10.53125 C 2.09375 -10.53125 2.285156 -10.460938 2.421875 -10.328125 C 2.566406 -10.191406 2.640625 -10 2.640625 -9.75 C 2.640625 -9.519531 2.566406 -9.332031 2.421875 -9.1875 C 2.285156 -9.050781 2.09375 -8.984375 1.84375 -8.984375 Z M 1.84375 -8.984375 "/></g></g></g><g fill="#bcccdc" fill-opacity="1"><g transform="translate(52.518995, 62.519507)"><g><path d="M 1.03125 0 L 1.03125 -7.390625 L 2.078125 -7.390625 L 2.125 -5.84375 L 1.953125 -5.78125 C 2.046875 -6.09375 2.226562 -6.378906 2.5 -6.640625 C 2.78125 -6.910156 3.109375 -7.128906 3.484375 -7.296875 C 3.867188 -7.460938 4.265625 -7.546875 4.671875 -7.546875 C 5.222656 -7.546875 5.679688 -7.4375 6.046875 -7.21875 C 6.410156 -7 6.6875 -6.660156 6.875 -6.203125 C 7.0625 -5.753906 7.15625 -5.179688 7.15625 -4.484375 L 7.15625 0 L 6.09375 0 L 6.09375 -4.4375 C 6.09375 -4.925781 6.023438 -5.328125 5.890625 -5.640625 C 5.765625 -5.953125 5.566406 -6.179688 5.296875 -6.328125 C 5.035156 -6.484375 4.710938 -6.554688 4.328125 -6.546875 C 4.003906 -6.546875 3.707031 -6.492188 3.4375 -6.390625 C 3.164062 -6.285156 2.929688 -6.132812 2.734375 -5.9375 C 2.535156 -5.75 2.378906 -5.53125 2.265625 -5.28125 C 2.148438 -5.039062 2.09375 -4.78125 2.09375 -4.5 L 2.09375 0 L 1.578125 0 C 1.503906 0 1.425781 0 1.34375 0 C 1.257812 0 1.15625 0 1.03125 0 Z M 1.03125 0 "/></g></g></g><g fill="#bcccdc" fill-opacity="1"><g transform="translate(60.67556, 62.519507)"><g><path d="M 4.21875 3.25 C 3.664062 3.25 3.144531 3.164062 2.65625 3 C 2.164062 2.832031 1.757812 2.617188 1.4375 2.359375 L 1.875 1.46875 C 2.0625 1.625 2.28125 1.757812 2.53125 1.875 C 2.78125 1.988281 3.050781 2.082031 3.34375 2.15625 C 3.632812 2.226562 3.929688 2.265625 4.234375 2.265625 C 4.773438 2.265625 5.238281 2.160156 5.625 1.953125 C 6.007812 1.753906 6.300781 1.457031 6.5 1.0625 C 6.707031 0.664062 6.8125 0.175781 6.8125 -0.40625 L 6.8125 -1.828125 L 6.984375 -1.875 C 6.898438 -1.507812 6.710938 -1.171875 6.421875 -0.859375 C 6.140625 -0.554688 5.796875 -0.3125 5.390625 -0.125 C 4.984375 0.0507812 4.554688 0.140625 4.109375 0.140625 C 3.421875 0.140625 2.800781 -0.0195312 2.25 -0.34375 C 1.707031 -0.675781 1.28125 -1.132812 0.96875 -1.71875 C 0.664062 -2.300781 0.515625 -2.957031 0.515625 -3.6875 C 0.515625 -4.4375 0.671875 -5.097656 0.984375 -5.671875 C 1.296875 -6.253906 1.722656 -6.710938 2.265625 -7.046875 C 2.804688 -7.378906 3.410156 -7.546875 4.078125 -7.546875 C 4.367188 -7.546875 4.648438 -7.507812 4.921875 -7.4375 C 5.203125 -7.363281 5.457031 -7.257812 5.6875 -7.125 C 5.914062 -7 6.125 -6.847656 6.3125 -6.671875 C 6.5 -6.503906 6.65625 -6.320312 6.78125 -6.125 C 6.914062 -5.925781 7.007812 -5.722656 7.0625 -5.515625 L 6.765625 -5.5625 L 6.8125 -7.390625 L 7.875 -7.390625 L 7.875 -0.453125 C 7.875 0.140625 7.785156 0.664062 7.609375 1.125 C 7.441406 1.582031 7.195312 1.96875 6.875 2.28125 C 6.550781 2.601562 6.164062 2.84375 5.71875 3 C 5.269531 3.164062 4.769531 3.25 4.21875 3.25 Z M 4.234375 -0.875 C 4.734375 -0.875 5.175781 -0.992188 5.5625 -1.234375 C 5.957031 -1.472656 6.269531 -1.804688 6.5 -2.234375 C 6.726562 -2.660156 6.84375 -3.148438 6.84375 -3.703125 C 6.84375 -4.253906 6.726562 -4.738281 6.5 -5.15625 C 6.28125 -5.582031 5.972656 -5.921875 5.578125 -6.171875 C 5.179688 -6.421875 4.734375 -6.546875 4.234375 -6.546875 C 3.722656 -6.546875 3.269531 -6.421875 2.875 -6.171875 C 2.488281 -5.921875 2.179688 -5.582031 1.953125 -5.15625 C 1.722656 -4.738281 1.609375 -4.253906 1.609375 -3.703125 C 1.609375 -3.171875 1.71875 -2.6875 1.9375 -2.25 C 2.164062 -1.820312 2.472656 -1.484375 2.859375 -1.234375 C 3.253906 -0.992188 3.710938 -0.875 4.234375 -0.875 Z M 4.234375 -0.875 "/></g></g></g><g fill="#bcccdc" fill-opacity="1"><g transform="translate(69.582644, 62.519507)"><g/></g></g><g fill="#bcccdc" fill-opacity="1"><g transform="translate(73.547644, 62.519507)"><g><path d="M 1.03125 3.109375 L 1.03125 -7.390625 L 2.09375 -7.390625 L 2.125 -5.59375 L 1.921875 -5.5625 C 2.003906 -5.914062 2.1875 -6.242188 2.46875 -6.546875 C 2.757812 -6.847656 3.109375 -7.085938 3.515625 -7.265625 C 3.921875 -7.441406 4.347656 -7.53125 4.796875 -7.53125 C 5.460938 -7.53125 6.054688 -7.363281 6.578125 -7.03125 C 7.097656 -6.707031 7.515625 -6.253906 7.828125 -5.671875 C 8.140625 -5.097656 8.296875 -4.4375 8.296875 -3.6875 C 8.296875 -2.957031 8.144531 -2.300781 7.84375 -1.71875 C 7.539062 -1.144531 7.125 -0.691406 6.59375 -0.359375 C 6.0625 -0.0234375 5.46875 0.140625 4.8125 0.140625 C 4.351562 0.140625 3.914062 0.046875 3.5 -0.140625 C 3.082031 -0.328125 2.726562 -0.570312 2.4375 -0.875 C 2.144531 -1.1875 1.953125 -1.519531 1.859375 -1.875 L 2.109375 -1.875 L 2.109375 3.109375 Z M 4.640625 -0.875 C 5.140625 -0.875 5.582031 -0.992188 5.96875 -1.234375 C 6.351562 -1.484375 6.660156 -1.820312 6.890625 -2.25 C 7.117188 -2.675781 7.234375 -3.15625 7.234375 -3.6875 C 7.234375 -4.238281 7.117188 -4.726562 6.890625 -5.15625 C 6.660156 -5.582031 6.351562 -5.914062 5.96875 -6.15625 C 5.582031 -6.40625 5.140625 -6.53125 4.640625 -6.53125 C 4.140625 -6.53125 3.691406 -6.40625 3.296875 -6.15625 C 2.910156 -5.914062 2.601562 -5.582031 2.375 -5.15625 C 2.144531 -4.738281 2.03125 -4.253906 2.03125 -3.703125 C 2.03125 -3.160156 2.144531 -2.675781 2.375 -2.25 C 2.601562 -1.820312 2.910156 -1.484375 3.296875 -1.234375 C 3.691406 -0.992188 4.140625 -0.875 4.640625 -0.875 Z M 4.640625 -0.875 "/></g></g></g><g fill="#bcccdc" fill-opacity="1"><g transform="translate(82.355599, 62.519507)"><g><path d="M 3.921875 0.140625 C 3.273438 0.140625 2.691406 -0.0234375 2.171875 -0.359375 C 1.660156 -0.691406 1.253906 -1.148438 0.953125 -1.734375 C 0.648438 -2.316406 0.5 -2.972656 0.5 -3.703125 C 0.5 -4.453125 0.65625 -5.113281 0.96875 -5.6875 C 1.28125 -6.257812 1.695312 -6.710938 2.21875 -7.046875 C 2.738281 -7.378906 3.328125 -7.546875 3.984375 -7.546875 C 4.367188 -7.546875 4.722656 -7.488281 5.046875 -7.375 C 5.378906 -7.257812 5.675781 -7.097656 5.9375 -6.890625 C 6.195312 -6.691406 6.414062 -6.457031 6.59375 -6.1875 C 6.769531 -5.925781 6.890625 -5.640625 6.953125 -5.328125 L 6.640625 -5.484375 L 6.6875 -7.390625 L 7.75 -7.390625 L 7.75 0 L 6.671875 0 L 6.671875 -1.8125 L 6.953125 -2 C 6.890625 -1.71875 6.757812 -1.445312 6.5625 -1.1875 C 6.375 -0.925781 6.144531 -0.695312 5.875 -0.5 C 5.613281 -0.300781 5.3125 -0.144531 4.96875 -0.03125 C 4.632812 0.0820312 4.285156 0.140625 3.921875 0.140625 Z M 4.15625 -0.875 C 4.644531 -0.875 5.082031 -0.992188 5.46875 -1.234375 C 5.863281 -1.472656 6.171875 -1.804688 6.390625 -2.234375 C 6.609375 -2.671875 6.71875 -3.160156 6.71875 -3.703125 C 6.71875 -4.253906 6.609375 -4.738281 6.390625 -5.15625 C 6.171875 -5.582031 5.863281 -5.921875 5.46875 -6.171875 C 5.082031 -6.421875 4.644531 -6.546875 4.15625 -6.546875 C 3.65625 -6.546875 3.210938 -6.421875 2.828125 -6.171875 C 2.453125 -5.921875 2.148438 -5.582031 1.921875 -5.15625 C 1.703125 -4.738281 1.59375 -4.253906 1.59375 -3.703125 C 1.59375 -3.171875 1.703125 -2.6875 1.921875 -2.25 C 2.140625 -1.820312 2.441406 -1.484375 2.828125 -1.234375 C 3.210938 -0.992188 3.65625 -0.875 4.15625 -0.875 Z M 4.15625 -0.875 "/></g></g></g><g fill="#bcccdc" fill-opacity="1"><g transform="translate(91.135236, 62.519507)"><g><path d="M 1.03125 0 L 1.03125 -7.390625 L 2.09375 -7.390625 L 2.125 -5.421875 L 2.015625 -5.6875 C 2.117188 -6.019531 2.285156 -6.328125 2.515625 -6.609375 C 2.742188 -6.890625 3.019531 -7.113281 3.34375 -7.28125 C 3.664062 -7.457031 4.019531 -7.546875 4.40625 -7.546875 C 4.5625 -7.546875 4.707031 -7.53125 4.84375 -7.5 C 4.988281 -7.476562 5.109375 -7.453125 5.203125 -7.421875 L 4.90625 -6.234375 C 4.789062 -6.285156 4.664062 -6.320312 4.53125 -6.34375 C 4.40625 -6.375 4.285156 -6.390625 4.171875 -6.390625 C 3.847656 -6.390625 3.5625 -6.332031 3.3125 -6.21875 C 3.0625 -6.101562 2.84375 -5.941406 2.65625 -5.734375 C 2.476562 -5.535156 2.34375 -5.300781 2.25 -5.03125 C 2.15625 -4.769531 2.109375 -4.488281 2.109375 -4.1875 L 2.109375 0 Z M 1.03125 0 "/></g></g></g><g fill="#bcccdc" fill-opacity="1"><g transform="translate(96.417181, 62.519507)"><g><path d="M 3.921875 0.140625 C 3.273438 0.140625 2.691406 -0.0234375 2.171875 -0.359375 C 1.660156 -0.691406 1.253906 -1.148438 0.953125 -1.734375 C 0.648438 -2.316406 0.5 -2.972656 0.5 -3.703125 C 0.5 -4.453125 0.65625 -5.113281 0.96875 -5.6875 C 1.28125 -6.257812 1.695312 -6.710938 2.21875 -7.046875 C 2.738281 -7.378906 3.328125 -7.546875 3.984375 -7.546875 C 4.367188 -7.546875 4.722656 -7.488281 5.046875 -7.375 C 5.378906 -7.257812 5.675781 -7.097656 5.9375 -6.890625 C 6.195312 -6.691406 6.414062 -6.457031 6.59375 -6.1875 C 6.769531 -5.925781 6.890625 -5.640625 6.953125 -5.328125 L 6.640625 -5.484375 L 6.6875 -7.390625 L 7.75 -7.390625 L 7.75 0 L 6.671875 0 L 6.671875 -1.8125 L 6.953125 -2 C 6.890625 -1.71875 6.757812 -1.445312 6.5625 -1.1875 C 6.375 -0.925781 6.144531 -0.695312 5.875 -0.5 C 5.613281 -0.300781 5.3125 -0.144531 4.96875 -0.03125 C 4.632812 0.0820312 4.285156 0.140625 3.921875 0.140625 Z M 4.15625 -0.875 C 4.644531 -0.875 5.082031 -0.992188 5.46875 -1.234375 C 5.863281 -1.472656 6.171875 -1.804688 6.390625 -2.234375 C 6.609375 -2.671875 6.71875 -3.160156 6.71875 -3.703125 C 6.71875 -4.253906 6.609375 -4.738281 6.390625 -5.15625 C 6.171875 -5.582031 5.863281 -5.921875 5.46875 -6.171875 C 5.082031 -6.421875 4.644531 -6.546875 4.15625 -6.546875 C 3.65625 -6.546875 3.210938 -6.421875 2.828125 -6.171875 C 2.453125 -5.921875 2.148438 -5.582031 1.921875 -5.15625 C 1.703125 -4.738281 1.59375 -4.253906 1.59375 -3.703125 C 1.59375 -3.171875 1.703125 -2.6875 1.921875 -2.25 C 2.140625 -1.820312 2.441406 -1.484375 2.828125 -1.234375 C 3.210938 -0.992188 3.65625 -0.875 4.15625 -0.875 Z M 4.15625 -0.875 "/></g></g></g><g fill="#bcccdc" fill-opacity="1"><g transform="translate(105.196818, 62.519507)"><g/></g></g><g fill="#bcccdc" fill-opacity="1"><g transform="translate(109.161818, 62.519507)"><g><path d="M 5.5625 0.140625 C 4.851562 0.140625 4.203125 0.015625 3.609375 -0.234375 C 3.015625 -0.484375 2.5 -0.835938 2.0625 -1.296875 C 1.632812 -1.753906 1.296875 -2.289062 1.046875 -2.90625 C 0.804688 -3.53125 0.6875 -4.210938 0.6875 -4.953125 C 0.6875 -5.679688 0.804688 -6.347656 1.046875 -6.953125 C 1.296875 -7.566406 1.640625 -8.101562 2.078125 -8.5625 C 2.523438 -9.019531 3.039062 -9.367188 3.625 -9.609375 C 4.207031 -9.859375 4.847656 -9.984375 5.546875 -9.984375 C 6.015625 -9.984375 6.472656 -9.910156 6.921875 -9.765625 C 7.378906 -9.617188 7.796875 -9.414062 8.171875 -9.15625 C 8.554688 -8.90625 8.867188 -8.613281 9.109375 -8.28125 L 8.359375 -7.484375 C 8.117188 -7.765625 7.84375 -8.007812 7.53125 -8.21875 C 7.226562 -8.425781 6.90625 -8.585938 6.5625 -8.703125 C 6.226562 -8.816406 5.890625 -8.875 5.546875 -8.875 C 5.015625 -8.875 4.519531 -8.773438 4.0625 -8.578125 C 3.613281 -8.390625 3.222656 -8.117188 2.890625 -7.765625 C 2.554688 -7.421875 2.296875 -7.003906 2.109375 -6.515625 C 1.929688 -6.035156 1.84375 -5.515625 1.84375 -4.953125 C 1.84375 -4.367188 1.929688 -3.832031 2.109375 -3.34375 C 2.296875 -2.851562 2.5625 -2.429688 2.90625 -2.078125 C 3.25 -1.722656 3.65625 -1.445312 4.125 -1.25 C 4.59375 -1.0625 5.113281 -0.96875 5.6875 -0.96875 C 6.03125 -0.96875 6.367188 -1.015625 6.703125 -1.109375 C 7.046875 -1.210938 7.359375 -1.351562 7.640625 -1.53125 C 7.921875 -1.707031 8.160156 -1.910156 8.359375 -2.140625 L 8.9375 -1.21875 C 8.71875 -0.957031 8.425781 -0.722656 8.0625 -0.515625 C 7.695312 -0.316406 7.296875 -0.15625 6.859375 -0.03125 C 6.429688 0.0820312 6 0.140625 5.5625 0.140625 Z M 5.5625 0.140625 "/></g></g></g><g fill="#bcccdc" fill-opacity="1"><g transform="translate(118.734457, 62.519507)"><g><path d="M 1.0625 0 L 1.0625 -10.46875 L 2.125 -10.46875 L 2.125 0 Z M 1.0625 0 "/></g></g></g><g fill="#bcccdc" fill-opacity="1"><g transform="translate(121.92062, 62.519507)"><g><path d="M 1.3125 0 L 1.3125 -7.390625 L 2.375 -7.390625 L 2.375 0 Z M 1.84375 -8.984375 C 1.570312 -8.984375 1.367188 -9.050781 1.234375 -9.1875 C 1.097656 -9.332031 1.03125 -9.519531 1.03125 -9.75 C 1.03125 -9.988281 1.097656 -10.175781 1.234375 -10.3125 C 1.378906 -10.457031 1.582031 -10.53125 1.84375 -10.53125 C 2.09375 -10.53125 2.285156 -10.460938 2.421875 -10.328125 C 2.566406 -10.191406 2.640625 -10 2.640625 -9.75 C 2.640625 -9.519531 2.566406 -9.332031 2.421875 -9.1875 C 2.285156 -9.050781 2.09375 -8.984375 1.84375 -8.984375 Z M 1.84375 -8.984375 "/></g></g></g><g fill="#bcccdc" fill-opacity="1"><g transform="translate(125.588242, 62.519507)"><g><path d="M 1.03125 0 L 1.03125 -7.390625 L 2.078125 -7.390625 L 2.125 -5.84375 L 1.953125 -5.78125 C 2.046875 -6.09375 2.226562 -6.378906 2.5 -6.640625 C 2.78125 -6.910156 3.109375 -7.128906 3.484375 -7.296875 C 3.867188 -7.460938 4.265625 -7.546875 4.671875 -7.546875 C 5.222656 -7.546875 5.679688 -7.4375 6.046875 -7.21875 C 6.410156 -7 6.6875 -6.660156 6.875 -6.203125 C 7.0625 -5.753906 7.15625 -5.179688 7.15625 -4.484375 L 7.15625 0 L 6.09375 0 L 6.09375 -4.4375 C 6.09375 -4.925781 6.023438 -5.328125 5.890625 -5.640625 C 5.765625 -5.953125 5.566406 -6.179688 5.296875 -6.328125 C 5.035156 -6.484375 4.710938 -6.554688 4.328125 -6.546875 C 4.003906 -6.546875 3.707031 -6.492188 3.4375 -6.390625 C 3.164062 -6.285156 2.929688 -6.132812 2.734375 -5.9375 C 2.535156 -5.75 2.378906 -5.53125 2.265625 -5.28125 C 2.148438 -5.039062 2.09375 -4.78125 2.09375 -4.5 L 2.09375 0 L 1.578125 0 C 1.503906 0 1.425781 0 1.34375 0 C 1.257812 0 1.15625 0 1.03125 0 Z M 1.03125 0 "/></g></g></g><g fill="#bcccdc" fill-opacity="1"><g transform="translate(133.744807, 62.519507)"><g><path d="M 1.3125 0 L 1.3125 -7.390625 L 2.375 -7.390625 L 2.375 0 Z M 1.84375 -8.984375 C 1.570312 -8.984375 1.367188 -9.050781 1.234375 -9.1875 C 1.097656 -9.332031 1.03125 -9.519531 1.03125 -9.75 C 1.03125 -9.988281 1.097656 -10.175781 1.234375 -10.3125 C 1.378906 -10.457031 1.582031 -10.53125 1.84375 -10.53125 C 2.09375 -10.53125 2.285156 -10.460938 2.421875 -10.328125 C 2.566406 -10.191406 2.640625 -10 2.640625 -9.75 C 2.640625 -9.519531 2.566406 -9.332031 2.421875 -9.1875 C 2.285156 -9.050781 2.09375 -8.984375 1.84375 -8.984375 Z M 1.84375 -8.984375 "/></g></g></g><g fill="#bcccdc" fill-opacity="1"><g transform="translate(137.412429, 62.519507)"><g><path d="M 4.140625 0.140625 C 3.441406 0.140625 2.816406 -0.0234375 2.265625 -0.359375 C 1.722656 -0.691406 1.296875 -1.148438 0.984375 -1.734375 C 0.671875 -2.316406 0.515625 -2.972656 0.515625 -3.703125 C 0.515625 -4.441406 0.671875 -5.097656 0.984375 -5.671875 C 1.296875 -6.253906 1.722656 -6.710938 2.265625 -7.046875 C 2.816406 -7.378906 3.445312 -7.546875 4.15625 -7.546875 C 4.789062 -7.546875 5.367188 -7.421875 5.890625 -7.171875 C 6.410156 -6.921875 6.828125 -6.570312 7.140625 -6.125 L 6.515625 -5.359375 C 6.335938 -5.597656 6.125 -5.804688 5.875 -5.984375 C 5.625 -6.160156 5.351562 -6.296875 5.0625 -6.390625 C 4.769531 -6.492188 4.484375 -6.546875 4.203125 -6.546875 C 3.703125 -6.546875 3.253906 -6.421875 2.859375 -6.171875 C 2.460938 -5.921875 2.148438 -5.582031 1.921875 -5.15625 C 1.691406 -4.738281 1.578125 -4.253906 1.578125 -3.703125 C 1.578125 -3.160156 1.691406 -2.671875 1.921875 -2.234375 C 2.148438 -1.804688 2.460938 -1.46875 2.859375 -1.21875 C 3.253906 -0.976562 3.695312 -0.859375 4.1875 -0.859375 C 4.46875 -0.859375 4.742188 -0.898438 5.015625 -0.984375 C 5.296875 -1.078125 5.554688 -1.207031 5.796875 -1.375 C 6.046875 -1.550781 6.273438 -1.769531 6.484375 -2.03125 L 7.109375 -1.265625 C 6.785156 -0.835938 6.351562 -0.492188 5.8125 -0.234375 C 5.28125 0.015625 4.722656 0.140625 4.140625 0.140625 Z M 4.140625 0.140625 "/></g></g></g><g fill="#bcccdc" fill-opacity="1"><g transform="translate(144.860957, 62.519507)"><g><path d="M 3.921875 0.140625 C 3.273438 0.140625 2.691406 -0.0234375 2.171875 -0.359375 C 1.660156 -0.691406 1.253906 -1.148438 0.953125 -1.734375 C 0.648438 -2.316406 0.5 -2.972656 0.5 -3.703125 C 0.5 -4.453125 0.65625 -5.113281 0.96875 -5.6875 C 1.28125 -6.257812 1.695312 -6.710938 2.21875 -7.046875 C 2.738281 -7.378906 3.328125 -7.546875 3.984375 -7.546875 C 4.367188 -7.546875 4.722656 -7.488281 5.046875 -7.375 C 5.378906 -7.257812 5.675781 -7.097656 5.9375 -6.890625 C 6.195312 -6.691406 6.414062 -6.457031 6.59375 -6.1875 C 6.769531 -5.925781 6.890625 -5.640625 6.953125 -5.328125 L 6.640625 -5.484375 L 6.6875 -7.390625 L 7.75 -7.390625 L 7.75 0 L 6.671875 0 L 6.671875 -1.8125 L 6.953125 -2 C 6.890625 -1.71875 6.757812 -1.445312 6.5625 -1.1875 C 6.375 -0.925781 6.144531 -0.695312 5.875 -0.5 C 5.613281 -0.300781 5.3125 -0.144531 4.96875 -0.03125 C 4.632812 0.0820312 4.285156 0.140625 3.921875 0.140625 Z M 4.15625 -0.875 C 4.644531 -0.875 5.082031 -0.992188 5.46875 -1.234375 C 5.863281 -1.472656 6.171875 -1.804688 6.390625 -2.234375 C 6.609375 -2.671875 6.71875 -3.160156 6.71875 -3.703125 C 6.71875 -4.253906 6.609375 -4.738281 6.390625 -5.15625 C 6.171875 -5.582031 5.863281 -5.921875 5.46875 -6.171875 C 5.082031 -6.421875 4.644531 -6.546875 4.15625 -6.546875 C 3.65625 -6.546875 3.210938 -6.421875 2.828125 -6.171875 C 2.453125 -5.921875 2.148438 -5.582031 1.921875 -5.15625 C 1.703125 -4.738281 1.59375 -4.253906 1.59375 -3.703125 C 1.59375 -3.171875 1.703125 -2.6875 1.921875 -2.25 C 2.140625 -1.820312 2.441406 -1.484375 2.828125 -1.234375 C 3.210938 -0.992188 3.65625 -0.875 4.15625 -0.875 Z M 4.15625 -0.875 "/></g></g></g><g fill="#bcccdc" fill-opacity="1"><g transform="translate(153.640594, 62.519507)"><g><path d="M 3.453125 0.140625 C 2.816406 0.140625 2.25 0.0234375 1.75 -0.203125 C 1.25 -0.441406 0.851562 -0.753906 0.5625 -1.140625 L 1.3125 -1.796875 C 1.59375 -1.460938 1.914062 -1.210938 2.28125 -1.046875 C 2.65625 -0.878906 3.078125 -0.796875 3.546875 -0.796875 C 3.773438 -0.796875 3.984375 -0.820312 4.171875 -0.875 C 4.359375 -0.925781 4.523438 -1.003906 4.671875 -1.109375 C 4.816406 -1.210938 4.925781 -1.332031 5 -1.46875 C 5.070312 -1.613281 5.109375 -1.769531 5.109375 -1.9375 C 5.109375 -2.25 4.972656 -2.507812 4.703125 -2.71875 C 4.578125 -2.800781 4.398438 -2.882812 4.171875 -2.96875 C 3.953125 -3.0625 3.679688 -3.148438 3.359375 -3.234375 C 2.828125 -3.390625 2.382812 -3.546875 2.03125 -3.703125 C 1.6875 -3.859375 1.414062 -4.039062 1.21875 -4.25 C 1.070312 -4.414062 0.960938 -4.597656 0.890625 -4.796875 C 0.828125 -4.992188 0.796875 -5.210938 0.796875 -5.453125 C 0.796875 -5.753906 0.859375 -6.03125 0.984375 -6.28125 C 1.109375 -6.539062 1.285156 -6.765625 1.515625 -6.953125 C 1.753906 -7.148438 2.03125 -7.296875 2.34375 -7.390625 C 2.65625 -7.492188 3 -7.546875 3.375 -7.546875 C 3.71875 -7.546875 4.054688 -7.5 4.390625 -7.40625 C 4.734375 -7.3125 5.050781 -7.171875 5.34375 -6.984375 C 5.644531 -6.804688 5.894531 -6.597656 6.09375 -6.359375 L 5.453125 -5.640625 C 5.273438 -5.835938 5.078125 -6.007812 4.859375 -6.15625 C 4.640625 -6.3125 4.410156 -6.429688 4.171875 -6.515625 C 3.929688 -6.597656 3.679688 -6.640625 3.421875 -6.640625 C 3.203125 -6.640625 2.992188 -6.609375 2.796875 -6.546875 C 2.597656 -6.492188 2.429688 -6.414062 2.296875 -6.3125 C 2.160156 -6.21875 2.054688 -6.097656 1.984375 -5.953125 C 1.910156 -5.816406 1.875 -5.664062 1.875 -5.5 C 1.875 -5.351562 1.898438 -5.222656 1.953125 -5.109375 C 2.015625 -4.992188 2.097656 -4.894531 2.203125 -4.8125 C 2.335938 -4.707031 2.523438 -4.609375 2.765625 -4.515625 C 3.003906 -4.429688 3.304688 -4.34375 3.671875 -4.25 C 4.085938 -4.132812 4.4375 -4.015625 4.71875 -3.890625 C 5.007812 -3.773438 5.25 -3.640625 5.4375 -3.484375 C 5.6875 -3.296875 5.863281 -3.078125 5.96875 -2.828125 C 6.082031 -2.585938 6.140625 -2.3125 6.140625 -2 C 6.140625 -1.582031 6.023438 -1.210938 5.796875 -0.890625 C 5.566406 -0.566406 5.25 -0.3125 4.84375 -0.125 C 4.4375 0.0507812 3.972656 0.140625 3.453125 0.140625 Z M 3.453125 0.140625 "/></g></g></g><g fill="#bcccdc" fill-opacity="1"><g transform="translate(160.423567, 62.519507)"><g/></g></g><g fill="#bcccdc" fill-opacity="1"><g transform="translate(164.388566, 62.519507)"><g><path d="M 1.453125 0 L 1.453125 -9.90625 L 5.203125 -9.90625 C 5.878906 -9.90625 6.5 -9.785156 7.0625 -9.546875 C 7.625 -9.304688 8.109375 -8.960938 8.515625 -8.515625 C 8.929688 -8.078125 9.253906 -7.554688 9.484375 -6.953125 C 9.710938 -6.347656 9.828125 -5.679688 9.828125 -4.953125 C 9.828125 -4.222656 9.710938 -3.550781 9.484375 -2.9375 C 9.253906 -2.332031 8.929688 -1.8125 8.515625 -1.375 C 8.109375 -0.9375 7.625 -0.597656 7.0625 -0.359375 C 6.5 -0.117188 5.878906 0 5.203125 0 Z M 2.5625 -0.875 L 2.4375 -1.078125 L 5.125 -1.078125 C 5.644531 -1.078125 6.125 -1.164062 6.5625 -1.34375 C 7 -1.53125 7.375 -1.796875 7.6875 -2.140625 C 8.007812 -2.484375 8.253906 -2.890625 8.421875 -3.359375 C 8.597656 -3.835938 8.6875 -4.367188 8.6875 -4.953125 C 8.6875 -5.535156 8.597656 -6.0625 8.421875 -6.53125 C 8.253906 -7.007812 8.007812 -7.421875 7.6875 -7.765625 C 7.363281 -8.109375 6.984375 -8.367188 6.546875 -8.546875 C 6.117188 -8.734375 5.644531 -8.828125 5.125 -8.828125 L 2.390625 -8.828125 L 2.5625 -9 Z M 2.5625 -0.875 "/></g></g></g><g fill="#bcccdc" fill-opacity="1"><g transform="translate(174.909973, 62.519507)"><g><path d="M 4.296875 0.140625 C 3.554688 0.140625 2.898438 -0.0195312 2.328125 -0.34375 C 1.753906 -0.664062 1.304688 -1.113281 0.984375 -1.6875 C 0.671875 -2.257812 0.515625 -2.921875 0.515625 -3.671875 C 0.515625 -4.242188 0.601562 -4.765625 0.78125 -5.234375 C 0.957031 -5.703125 1.207031 -6.109375 1.53125 -6.453125 C 1.863281 -6.804688 2.253906 -7.078125 2.703125 -7.265625 C 3.160156 -7.460938 3.648438 -7.5625 4.171875 -7.5625 C 4.671875 -7.5625 5.125 -7.46875 5.53125 -7.28125 C 5.945312 -7.101562 6.300781 -6.859375 6.59375 -6.546875 C 6.894531 -6.234375 7.117188 -5.859375 7.265625 -5.421875 C 7.421875 -4.984375 7.488281 -4.503906 7.46875 -3.984375 L 7.453125 -3.5 L 1.296875 -3.5 L 1.140625 -4.390625 L 6.65625 -4.390625 L 6.40625 -4.140625 L 6.40625 -4.484375 C 6.382812 -4.828125 6.28125 -5.15625 6.09375 -5.46875 C 5.914062 -5.789062 5.664062 -6.050781 5.34375 -6.25 C 5.019531 -6.445312 4.628906 -6.546875 4.171875 -6.546875 C 3.648438 -6.546875 3.191406 -6.4375 2.796875 -6.21875 C 2.410156 -6.007812 2.113281 -5.695312 1.90625 -5.28125 C 1.695312 -4.863281 1.59375 -4.347656 1.59375 -3.734375 C 1.59375 -3.148438 1.707031 -2.644531 1.9375 -2.21875 C 2.164062 -1.789062 2.488281 -1.457031 2.90625 -1.21875 C 3.332031 -0.976562 3.84375 -0.859375 4.4375 -0.859375 C 4.78125 -0.859375 5.125 -0.914062 5.46875 -1.03125 C 5.8125 -1.15625 6.191406 -1.390625 6.609375 -1.734375 L 7.15625 -0.984375 C 6.945312 -0.765625 6.691406 -0.570312 6.390625 -0.40625 C 6.085938 -0.238281 5.753906 -0.101562 5.390625 0 C 5.035156 0.09375 4.671875 0.140625 4.296875 0.140625 Z M 4.296875 0.140625 "/></g></g></g><g fill="#bcccdc" fill-opacity="1"><g transform="translate(182.86829, 62.519507)"><g><path d="M 1.03125 0 L 1.03125 -7.390625 L 2.078125 -7.390625 L 2.125 -5.84375 L 1.953125 -5.78125 C 2.046875 -6.09375 2.226562 -6.378906 2.5 -6.640625 C 2.78125 -6.910156 3.109375 -7.128906 3.484375 -7.296875 C 3.867188 -7.460938 4.265625 -7.546875 4.671875 -7.546875 C 5.222656 -7.546875 5.679688 -7.4375 6.046875 -7.21875 C 6.410156 -7 6.6875 -6.660156 6.875 -6.203125 C 7.0625 -5.753906 7.15625 -5.179688 7.15625 -4.484375 L 7.15625 0 L 6.09375 0 L 6.09375 -4.4375 C 6.09375 -4.925781 6.023438 -5.328125 5.890625 -5.640625 C 5.765625 -5.953125 5.566406 -6.179688 5.296875 -6.328125 C 5.035156 -6.484375 4.710938 -6.554688 4.328125 -6.546875 C 4.003906 -6.546875 3.707031 -6.492188 3.4375 -6.390625 C 3.164062 -6.285156 2.929688 -6.132812 2.734375 -5.9375 C 2.535156 -5.75 2.378906 -5.53125 2.265625 -5.28125 C 2.148438 -5.039062 2.09375 -4.78125 2.09375 -4.5 L 2.09375 0 L 1.578125 0 C 1.503906 0 1.425781 0 1.34375 0 C 1.257812 0 1.15625 0 1.03125 0 Z M 1.03125 0 "/></g></g></g><g fill="#bcccdc" fill-opacity="1"><g transform="translate(191.024855, 62.519507)"><g><path d="M 2.046875 0 L 2.046875 -9.328125 L 3.109375 -9.328125 L 3.109375 0 Z M 0.375 -6.375 L 0.375 -7.390625 L 4.984375 -7.390625 L 4.984375 -6.375 Z M 0.375 -6.375 "/></g></g></g><g fill="#bcccdc" fill-opacity="1"><g transform="translate(196.278471, 62.519507)"><g><path d="M 3.921875 0.140625 C 3.273438 0.140625 2.691406 -0.0234375 2.171875 -0.359375 C 1.660156 -0.691406 1.253906 -1.148438 0.953125 -1.734375 C 0.648438 -2.316406 0.5 -2.972656 0.5 -3.703125 C 0.5 -4.453125 0.65625 -5.113281 0.96875 -5.6875 C 1.28125 -6.257812 1.695312 -6.710938 2.21875 -7.046875 C 2.738281 -7.378906 3.328125 -7.546875 3.984375 -7.546875 C 4.367188 -7.546875 4.722656 -7.488281 5.046875 -7.375 C 5.378906 -7.257812 5.675781 -7.097656 5.9375 -6.890625 C 6.195312 -6.691406 6.414062 -6.457031 6.59375 -6.1875 C 6.769531 -5.925781 6.890625 -5.640625 6.953125 -5.328125 L 6.640625 -5.484375 L 6.6875 -7.390625 L 7.75 -7.390625 L 7.75 0 L 6.671875 0 L 6.671875 -1.8125 L 6.953125 -2 C 6.890625 -1.71875 6.757812 -1.445312 6.5625 -1.1875 C 6.375 -0.925781 6.144531 -0.695312 5.875 -0.5 C 5.613281 -0.300781 5.3125 -0.144531 4.96875 -0.03125 C 4.632812 0.0820312 4.285156 0.140625 3.921875 0.140625 Z M 4.15625 -0.875 C 4.644531 -0.875 5.082031 -0.992188 5.46875 -1.234375 C 5.863281 -1.472656 6.171875 -1.804688 6.390625 -2.234375 C 6.609375 -2.671875 6.71875 -3.160156 6.71875 -3.703125 C 6.71875 -4.253906 6.609375 -4.738281 6.390625 -5.15625 C 6.171875 -5.582031 5.863281 -5.921875 5.46875 -6.171875 C 5.082031 -6.421875 4.644531 -6.546875 4.15625 -6.546875 C 3.65625 -6.546875 3.210938 -6.421875 2.828125 -6.171875 C 2.453125 -5.921875 2.148438 -5.582031 1.921875 -5.15625 C 1.703125 -4.738281 1.59375 -4.253906 1.59375 -3.703125 C 1.59375 -3.171875 1.703125 -2.6875 1.921875 -2.25 C 2.140625 -1.820312 2.441406 -1.484375 2.828125 -1.234375 C 3.210938 -0.992188 3.65625 -0.875 4.15625 -0.875 Z M 4.15625 -0.875 "/></g></g></g><g fill="#bcccdc" fill-opacity="1"><g transform="translate(205.058119, 62.519507)"><g><path d="M 1.0625 0 L 1.0625 -10.46875 L 2.125 -10.46875 L 2.125 0 Z M 1.0625 0 "/></g></g></g><g fill="#bcccdc" fill-opacity="1"><g transform="translate(208.244281, 62.519507)"><g><path d="M 4.296875 0.140625 C 3.554688 0.140625 2.898438 -0.0195312 2.328125 -0.34375 C 1.753906 -0.664062 1.304688 -1.113281 0.984375 -1.6875 C 0.671875 -2.257812 0.515625 -2.921875 0.515625 -3.671875 C 0.515625 -4.242188 0.601562 -4.765625 0.78125 -5.234375 C 0.957031 -5.703125 1.207031 -6.109375 1.53125 -6.453125 C 1.863281 -6.804688 2.253906 -7.078125 2.703125 -7.265625 C 3.160156 -7.460938 3.648438 -7.5625 4.171875 -7.5625 C 4.671875 -7.5625 5.125 -7.46875 5.53125 -7.28125 C 5.945312 -7.101562 6.300781 -6.859375 6.59375 -6.546875 C 6.894531 -6.234375 7.117188 -5.859375 7.265625 -5.421875 C 7.421875 -4.984375 7.488281 -4.503906 7.46875 -3.984375 L 7.453125 -3.5 L 1.296875 -3.5 L 1.140625 -4.390625 L 6.65625 -4.390625 L 6.40625 -4.140625 L 6.40625 -4.484375 C 6.382812 -4.828125 6.28125 -5.15625 6.09375 -5.46875 C 5.914062 -5.789062 5.664062 -6.050781 5.34375 -6.25 C 5.019531 -6.445312 4.628906 -6.546875 4.171875 -6.546875 C 3.648438 -6.546875 3.191406 -6.4375 2.796875 -6.21875 C 2.410156 -6.007812 2.113281 -5.695312 1.90625 -5.28125 C 1.695312 -4.863281 1.59375 -4.347656 1.59375 -3.734375 C 1.59375 -3.148438 1.707031 -2.644531 1.9375 -2.21875 C 2.164062 -1.789062 2.488281 -1.457031 2.90625 -1.21875 C 3.332031 -0.976562 3.84375 -0.859375 4.4375 -0.859375 C 4.78125 -0.859375 5.125 -0.914062 5.46875 -1.03125 C 5.8125 -1.15625 6.191406 -1.390625 6.609375 -1.734375 L 7.15625 -0.984375 C 6.945312 -0.765625 6.691406 -0.570312 6.390625 -0.40625 C 6.085938 -0.238281 5.753906 -0.101562 5.390625 0 C 5.035156 0.09375 4.671875 0.140625 4.296875 0.140625 Z M 4.296875 0.140625 "/></g></g></g><g fill="#bcccdc" fill-opacity="1"><g transform="translate(216.20261, 62.519507)"><g><path d="M 3.453125 0.140625 C 2.816406 0.140625 2.25 0.0234375 1.75 -0.203125 C 1.25 -0.441406 0.851562 -0.753906 0.5625 -1.140625 L 1.3125 -1.796875 C 1.59375 -1.460938 1.914062 -1.210938 2.28125 -1.046875 C 2.65625 -0.878906 3.078125 -0.796875 3.546875 -0.796875 C 3.773438 -0.796875 3.984375 -0.820312 4.171875 -0.875 C 4.359375 -0.925781 4.523438 -1.003906 4.671875 -1.109375 C 4.816406 -1.210938 4.925781 -1.332031 5 -1.46875 C 5.070312 -1.613281 5.109375 -1.769531 5.109375 -1.9375 C 5.109375 -2.25 4.972656 -2.507812 4.703125 -2.71875 C 4.578125 -2.800781 4.398438 -2.882812 4.171875 -2.96875 C 3.953125 -3.0625 3.679688 -3.148438 3.359375 -3.234375 C 2.828125 -3.390625 2.382812 -3.546875 2.03125 -3.703125 C 1.6875 -3.859375 1.414062 -4.039062 1.21875 -4.25 C 1.070312 -4.414062 0.960938 -4.597656 0.890625 -4.796875 C 0.828125 -4.992188 0.796875 -5.210938 0.796875 -5.453125 C 0.796875 -5.753906 0.859375 -6.03125 0.984375 -6.28125 C 1.109375 -6.539062 1.285156 -6.765625 1.515625 -6.953125 C 1.753906 -7.148438 2.03125 -7.296875 2.34375 -7.390625 C 2.65625 -7.492188 3 -7.546875 3.375 -7.546875 C 3.71875 -7.546875 4.054688 -7.5 4.390625 -7.40625 C 4.734375 -7.3125 5.050781 -7.171875 5.34375 -6.984375 C 5.644531 -6.804688 5.894531 -6.597656 6.09375 -6.359375 L 5.453125 -5.640625 C 5.273438 -5.835938 5.078125 -6.007812 4.859375 -6.15625 C 4.640625 -6.3125 4.410156 -6.429688 4.171875 -6.515625 C 3.929688 -6.597656 3.679688 -6.640625 3.421875 -6.640625 C 3.203125 -6.640625 2.992188 -6.609375 2.796875 -6.546875 C 2.597656 -6.492188 2.429688 -6.414062 2.296875 -6.3125 C 2.160156 -6.21875 2.054688 -6.097656 1.984375 -5.953125 C 1.910156 -5.816406 1.875 -5.664062 1.875 -5.5 C 1.875 -5.351562 1.898438 -5.222656 1.953125 -5.109375 C 2.015625 -4.992188 2.097656 -4.894531 2.203125 -4.8125 C 2.335938 -4.707031 2.523438 -4.609375 2.765625 -4.515625 C 3.003906 -4.429688 3.304688 -4.34375 3.671875 -4.25 C 4.085938 -4.132812 4.4375 -4.015625 4.71875 -3.890625 C 5.007812 -3.773438 5.25 -3.640625 5.4375 -3.484375 C 5.6875 -3.296875 5.863281 -3.078125 5.96875 -2.828125 C 6.082031 -2.585938 6.140625 -2.3125 6.140625 -2 C 6.140625 -1.582031 6.023438 -1.210938 5.796875 -0.890625 C 5.566406 -0.566406 5.25 -0.3125 4.84375 -0.125 C 4.4375 0.0507812 3.972656 0.140625 3.453125 0.140625 Z M 3.453125 0.140625 "/></g></g></g></svg>