<svg xmlns="http://www.w3.org/2000/svg" xmlns:xlink="http://www.w3.org/1999/xlink" width="2400" zoomAndPan="magnify" viewBox="0 0 1800 937.499967" height="1250" preserveAspectRatio="xMidYMid meet" version="1.0"><defs><g/><clipPath id="df44f8b83e"><path d="M 1026 506 L 1458 506 L 1458 836 L 1026 836 Z M 1026 506 " clip-rule="nonzero"/></clipPath><clipPath id="27ddd8bdd6"><path d="M 1101.277344 406.402344 L 1535.867188 722.628906 L 1397.824219 912.34375 L 963.230469 596.117188 Z M 1101.277344 406.402344 " clip-rule="nonzero"/></clipPath><clipPath id="5ccc4d3306"><path d="M 1101.277344 406.402344 L 1535.867188 722.628906 L 1397.824219 912.34375 L 963.230469 596.117188 Z M 1101.277344 406.402344 " clip-rule="nonzero"/></clipPath></defs><g clip-path="url(#df44f8b83e)"><g clip-path="url(#27ddd8bdd6)"><g clip-path="url(#5ccc4d3306)"><path fill="#01dbb0" d="M 1387.070312 736.679688 C 1384.230469 716.449219 1381.132812 696.972656 1378.886719 677.402344 C 1377.390625 664.390625 1379.21875 651.621094 1387.644531 640.945312 C 1390.421875 637.425781 1394.296875 634.210938 1398.355469 632.378906 C 1406.421875 628.757812 1411.496094 632.132812 1412.394531 640.917969 C 1412.785156 644.699219 1412.824219 648.527344 1412.890625 652.339844 C 1413.703125 697.15625 1426.535156 739.035156 1443.960938 779.820312 C 1446.476562 785.695312 1448.394531 791.824219 1450.671875 797.800781 C 1451.339844 799.558594 1452.070312 801.378906 1453.167969 802.882812 C 1462.40625 815.503906 1457.574219 829.910156 1442.554688 834.359375 C 1436.589844 836.132812 1431.269531 834.230469 1426.144531 831.445312 C 1402.414062 818.566406 1377.535156 808.703125 1350.984375 803.535156 C 1331.878906 799.8125 1312.8125 799.800781 1293.96875 805.671875 C 1286.699219 807.941406 1279.253906 809.679688 1271.832031 811.417969 C 1263.199219 813.441406 1255.421875 808.9375 1252.550781 800.535156 C 1248.601562 788.980469 1254.503906 777.007812 1266.140625 773.046875 C 1288.542969 765.417969 1311.75 763.082031 1335.242188 762.636719 C 1337.445312 762.597656 1339.652344 762.664062 1342.207031 762.683594 C 1337.011719 758.902344 1332.363281 755.230469 1327.433594 751.976562 C 1251.585938 701.929688 1177.511719 649.351562 1104.402344 595.394531 C 1085.988281 581.808594 1067.078125 568.890625 1048.628906 555.359375 C 1039.753906 548.851562 1032.058594 540.996094 1028.21875 530.367188 C 1026.78125 526.394531 1025.863281 521.941406 1026.015625 517.761719 C 1026.320312 509.425781 1032.027344 504.992188 1040.113281 506.953125 C 1045.046875 508.15625 1049.988281 510.367188 1054.246094 513.15625 C 1069.480469 523.109375 1084.472656 533.441406 1099.472656 543.757812 C 1126.328125 562.226562 1153.003906 580.960938 1179.976562 599.261719 C 1214.398438 622.625 1249.035156 645.671875 1283.578125 668.851562 C 1301.140625 680.632812 1318.609375 692.542969 1336.296875 704.140625 C 1353.222656 715.234375 1370.363281 725.992188 1387.070312 736.675781 Z M 1387.070312 736.679688 " fill-opacity="1" fill-rule="nonzero"/></g></g></g><g fill="#01dbb0" fill-opacity="1"><g transform="translate(294.579287, 670.965433)"><g><path d="M -21.34375 -111.9375 L 23.640625 -15.875 C 24.972656 -13.007812 25.03125 -10.613281 23.8125 -8.6875 C 22.601562 -6.757812 20.910156 -5.382812 18.734375 -4.5625 C 16.566406 -3.738281 14.351562 -3.488281 12.09375 -3.8125 C 9.832031 -4.144531 8.285156 -5.210938 7.453125 -7.015625 L -53.21875 -133.953125 C -53.957031 -136.359375 -53.796875 -138.488281 -52.734375 -140.34375 C -51.679688 -142.207031 -50.226562 -143.703125 -48.375 -144.828125 C -46.519531 -145.960938 -44.457031 -146.550781 -42.1875 -146.59375 C -39.925781 -146.632812 -37.992188 -146.113281 -36.390625 -145.03125 L 67.15625 -73.0625 L 21.578125 -168.578125 C 20.773438 -171.492188 21.109375 -173.929688 22.578125 -175.890625 C 24.046875 -177.859375 25.867188 -179.253906 28.046875 -180.078125 C 30.234375 -180.898438 32.46875 -181.015625 34.75 -180.421875 C 37.039062 -179.828125 38.640625 -178.554688 39.546875 -176.609375 L 98.65625 -50.03125 C 99.488281 -48.226562 99.414062 -46.507812 98.4375 -44.875 C 97.46875 -43.238281 96.09375 -41.867188 94.3125 -40.765625 C 92.53125 -39.671875 90.597656 -39.003906 88.515625 -38.765625 C 86.429688 -38.535156 84.691406 -38.925781 83.296875 -39.9375 Z M -21.34375 -111.9375 "/></g></g></g><g fill="#01dbb0" fill-opacity="1"><g transform="translate(397.522997, 623.321538)"><g><path d="M -9.125 -85.5 C -3.757812 -71.15625 1.054688 -60.257812 5.328125 -52.8125 C 9.597656 -45.363281 13.410156 -40.085938 16.765625 -36.984375 C 20.128906 -33.878906 23.070312 -32.359375 25.59375 -32.421875 C 28.125 -32.492188 30.296875 -32.953125 32.109375 -33.796875 C 35.265625 -35.253906 37.90625 -37.25 40.03125 -39.78125 C 42.15625 -42.3125 43.757812 -45.15625 44.84375 -48.3125 C 45.9375 -51.476562 46.425781 -54.769531 46.3125 -58.1875 C 46.195312 -61.613281 45.40625 -64.910156 43.9375 -68.078125 L 29.09375 -100.15625 C 28.125 -102.644531 28.101562 -105.0625 29.03125 -107.40625 C 29.96875 -109.757812 31.394531 -111.515625 33.3125 -112.671875 C 35.238281 -113.835938 37.421875 -114.253906 39.859375 -113.921875 C 42.296875 -113.585938 44.476562 -111.941406 46.40625 -108.984375 L 77.640625 -40.875 C 78.972656 -38.007812 79.035156 -35.613281 77.828125 -33.6875 C 76.617188 -31.757812 74.925781 -30.382812 72.75 -29.5625 C 70.570312 -28.738281 68.351562 -28.488281 66.09375 -28.8125 C 63.832031 -29.144531 62.285156 -30.210938 61.453125 -32.015625 L 59.5625 -35.515625 C 57.4375 -31.421875 54.765625 -27.804688 51.546875 -24.671875 C 48.328125 -21.535156 44.535156 -18.957031 40.171875 -16.9375 C 32.335938 -13.3125 25.320312 -12.164062 19.125 -13.5 C 12.925781 -14.84375 7.25 -18.210938 2.09375 -23.609375 C -3.050781 -29.003906 -7.898438 -36.222656 -12.453125 -45.265625 C -17.003906 -54.316406 -21.59375 -64.628906 -26.21875 -76.203125 C -27.382812 -79.140625 -27.289062 -81.609375 -25.9375 -83.609375 C -24.582031 -85.609375 -22.773438 -87.035156 -20.515625 -87.890625 C -18.265625 -88.753906 -15.972656 -89.039062 -13.640625 -88.75 C -11.304688 -88.457031 -9.800781 -87.375 -9.125 -85.5 Z M -9.125 -85.5 "/></g></g></g><g fill="#01dbb0" fill-opacity="1"><g transform="translate(479.903634, 585.194542)"><g><path d="M 55.78125 -53.796875 C 56.507812 -56.140625 58.003906 -57.832031 60.265625 -58.875 C 62.523438 -59.925781 64.816406 -60.304688 67.140625 -60.015625 C 69.472656 -59.734375 71.414062 -58.800781 72.96875 -57.21875 C 74.519531 -55.644531 74.953125 -53.425781 74.265625 -50.5625 C 72.503906 -43.332031 69.550781 -37.160156 65.40625 -32.046875 C 61.269531 -26.941406 56.539062 -22.925781 51.21875 -20 C 45.90625 -17.082031 40.210938 -15.269531 34.140625 -14.5625 C 28.066406 -13.863281 22.117188 -14.359375 16.296875 -16.046875 C 10.484375 -17.742188 5.097656 -20.691406 0.140625 -24.890625 C -4.816406 -29.085938 -8.832031 -34.5 -11.90625 -41.125 C -14.414062 -46.550781 -15.785156 -52.1875 -16.015625 -58.03125 C -16.242188 -63.875 -15.40625 -69.472656 -13.5 -74.828125 C -11.601562 -80.179688 -8.75 -85.066406 -4.9375 -89.484375 C -1.125 -93.910156 3.460938 -97.445312 8.828125 -100.09375 C 13.421875 -102.414062 18.175781 -103.890625 23.09375 -104.515625 C 28.007812 -105.148438 32.753906 -104.96875 37.328125 -103.96875 C 41.910156 -102.976562 46.203125 -101.125 50.203125 -98.40625 C 54.210938 -95.6875 57.671875 -92.171875 60.578125 -87.859375 C 63.710938 -83.078125 64.785156 -78.675781 63.796875 -74.65625 C 62.816406 -70.644531 58.335938 -66.789062 50.359375 -63.09375 L 7.546875 -43.5625 C 10.609375 -39.300781 14.484375 -36.148438 19.171875 -34.109375 C 23.867188 -32.078125 28.585938 -31.378906 33.328125 -32.015625 C 38.066406 -32.660156 42.492188 -34.753906 46.609375 -38.296875 C 50.734375 -41.847656 53.789062 -47.015625 55.78125 -53.796875 Z M 16.4375 -83.0625 C 12.132812 -80.875 8.789062 -77.8125 6.40625 -73.875 C 4.03125 -69.945312 2.734375 -65.648438 2.515625 -60.984375 L 44.296875 -79.765625 C 42.210938 -82.285156 40.019531 -84.0625 37.71875 -85.09375 C 35.414062 -86.125 33.054688 -86.675781 30.640625 -86.75 C 28.222656 -86.832031 25.816406 -86.5 23.421875 -85.75 C 21.023438 -85 18.695312 -84.101562 16.4375 -83.0625 Z M 16.4375 -83.0625 "/></g></g></g><g fill="#01dbb0" fill-opacity="1"><g transform="translate(565.899739, 545.394253)"><g><path d="M 43.90625 -96.59375 C 45.945312 -94.976562 46.835938 -93.054688 46.578125 -90.828125 C 46.328125 -88.609375 45.414062 -86.628906 43.84375 -84.890625 C 42.269531 -83.160156 40.414062 -82.03125 38.28125 -81.5 C 36.144531 -80.976562 34.285156 -81.628906 32.703125 -83.453125 C 29.503906 -85.640625 26.03125 -86.734375 22.28125 -86.734375 C 18.539062 -86.734375 15.46875 -86.359375 13.0625 -85.609375 C 8.851562 -84.398438 5.4375 -82.085938 2.8125 -78.671875 C 0.1875 -75.265625 -0.863281 -72.222656 -0.34375 -69.546875 C 0.3125 -66.910156 1.382812 -65.066406 2.875 -64.015625 C 4.363281 -62.972656 6.144531 -62.382812 8.21875 -62.25 C 10.300781 -62.113281 12.6875 -62.300781 15.375 -62.8125 C 18.070312 -63.332031 20.875 -63.988281 23.78125 -64.78125 C 28.0625 -65.84375 32.34375 -66.679688 36.625 -67.296875 C 40.90625 -67.910156 44.945312 -67.859375 48.75 -67.140625 C 52.5625 -66.429688 56.03125 -64.878906 59.15625 -62.484375 C 62.28125 -60.085938 64.765625 -56.300781 66.609375 -51.125 C 68.179688 -46.925781 68.484375 -42.8125 67.515625 -38.78125 C 66.546875 -34.757812 64.765625 -31.097656 62.171875 -27.796875 C 59.578125 -24.503906 56.347656 -21.597656 52.484375 -19.078125 C 48.617188 -16.554688 44.550781 -14.582031 40.28125 -13.15625 C 36.457031 -11.9375 32.515625 -11.164062 28.453125 -10.84375 C 24.398438 -10.519531 20.414062 -10.734375 16.5 -11.484375 C 12.59375 -12.234375 8.847656 -13.609375 5.265625 -15.609375 C 1.679688 -17.609375 -1.539062 -20.316406 -4.40625 -23.734375 C -5.957031 -26.316406 -6.4375 -28.84375 -5.84375 -31.3125 C -5.25 -33.78125 -4.128906 -35.804688 -2.484375 -37.390625 C -0.847656 -38.984375 1.007812 -39.894531 3.09375 -40.125 C 5.1875 -40.351562 6.945312 -39.519531 8.375 -37.625 C 12.507812 -31.851562 17.054688 -28.742188 22.015625 -28.296875 C 26.984375 -27.859375 31.644531 -28.460938 36 -30.109375 C 40.207031 -31.691406 43.632812 -33.875 46.28125 -36.65625 C 48.9375 -39.4375 49.925781 -41.945312 49.25 -44.1875 C 48.03125 -48.382812 45.566406 -50.628906 41.859375 -50.921875 C 38.160156 -51.222656 33.84375 -50.78125 28.90625 -49.59375 C 25.082031 -48.738281 21.023438 -47.816406 16.734375 -46.828125 C 12.441406 -45.847656 8.234375 -45.457031 4.109375 -45.65625 C -0.00390625 -45.851562 -3.847656 -47.046875 -7.421875 -49.234375 C -10.992188 -51.421875 -14.003906 -55.15625 -16.453125 -60.4375 C -18.398438 -64.644531 -19.164062 -68.769531 -18.75 -72.8125 C -18.332031 -76.851562 -17.082031 -80.679688 -15 -84.296875 C -12.925781 -87.910156 -10.097656 -91.09375 -6.515625 -93.84375 C -2.941406 -96.59375 1.019531 -98.789062 5.375 -100.4375 C 11.300781 -102.625 17.675781 -103.5625 24.5 -103.25 C 31.332031 -102.9375 37.800781 -100.71875 43.90625 -96.59375 Z M 43.90625 -96.59375 "/></g></g></g><g fill="#01dbb0" fill-opacity="1"><g transform="translate(640.145551, 511.032176)"><g><path d="M -9.390625 -98.53125 L -26.359375 -134.03125 C -27.171875 -136.945312 -26.742188 -139.382812 -25.078125 -141.34375 C -23.421875 -143.3125 -21.445312 -144.6875 -19.15625 -145.46875 C -16.875 -146.25 -14.585938 -146.34375 -12.296875 -145.75 C -10.015625 -145.164062 -8.679688 -143.863281 -8.296875 -141.84375 L 8.015625 -106.59375 L 27.890625 -115.796875 C 30.816406 -116.597656 33.296875 -116.28125 35.328125 -114.84375 C 37.367188 -113.414062 38.707031 -111.613281 39.34375 -109.4375 C 39.988281 -107.257812 39.828125 -105.03125 38.859375 -102.75 C 37.898438 -100.476562 35.921875 -98.835938 32.921875 -97.828125 L 15.96875 -89.96875 L 45.171875 -27.484375 C 46.484375 -24.628906 46.5 -22.21875 45.21875 -20.25 C 43.9375 -18.289062 42.207031 -16.894531 40.03125 -16.0625 C 37.851562 -15.238281 35.597656 -14.972656 33.265625 -15.265625 C 30.929688 -15.554688 29.347656 -16.601562 28.515625 -18.40625 L -1.4375 -81.921875 L -20.1875 -73.25 C -23.050781 -71.914062 -25.445312 -71.851562 -27.375 -73.0625 C -29.300781 -74.28125 -30.675781 -75.976562 -31.5 -78.15625 C -32.332031 -80.332031 -32.582031 -82.546875 -32.25 -84.796875 C -31.925781 -87.054688 -30.859375 -88.601562 -29.046875 -89.4375 Z M -9.390625 -98.53125 "/></g></g></g><g fill="#01dbb0" fill-opacity="1"><g transform="translate(713.939427, 476.879262)"><g><path d="M 38.9375 -83.046875 C 35.695312 -84.109375 32.300781 -84.820312 28.75 -85.1875 C 25.195312 -85.550781 21.84375 -85.003906 18.6875 -83.546875 C 15.519531 -82.078125 12.875 -80.078125 10.75 -77.546875 C 8.625 -75.015625 7.015625 -72.164062 5.921875 -69 C 4.828125 -65.832031 4.335938 -62.539062 4.453125 -59.125 C 4.578125 -55.707031 5.375 -52.414062 6.84375 -49.25 L 21.6875 -17.171875 C 22.644531 -14.679688 22.660156 -12.265625 21.734375 -9.921875 C 20.816406 -7.578125 19.394531 -5.820312 17.46875 -4.65625 C 15.539062 -3.488281 13.351562 -3.070312 10.90625 -3.40625 C 8.46875 -3.738281 6.289062 -5.382812 4.375 -8.34375 L -26.875 -76.453125 C -28.207031 -79.304688 -28.265625 -81.703125 -27.046875 -83.640625 C -25.835938 -85.578125 -24.144531 -86.957031 -21.96875 -87.78125 C -19.789062 -88.601562 -17.570312 -88.847656 -15.3125 -88.515625 C -13.0625 -88.191406 -11.519531 -87.128906 -10.6875 -85.328125 L -8.78125 -81.8125 C -6.65625 -85.914062 -3.984375 -89.53125 -0.765625 -92.65625 C 2.441406 -95.789062 6.234375 -98.367188 10.609375 -100.390625 C 16.941406 -103.316406 23.347656 -104.679688 29.828125 -104.484375 C 36.316406 -104.296875 42.296875 -102.441406 47.765625 -98.921875 C 49.378906 -97.847656 50.410156 -96.222656 50.859375 -94.046875 C 51.304688 -91.867188 51.164062 -89.789062 50.4375 -87.8125 C 49.71875 -85.832031 48.425781 -84.273438 46.5625 -83.140625 C 44.707031 -82.015625 42.164062 -81.984375 38.9375 -83.046875 Z M 38.9375 -83.046875 "/></g></g></g><g fill="#01dbb0" fill-opacity="1"><g transform="translate(792.02669, 440.739305)"><g><path d="M -11.90625 -41.125 C -14.414062 -46.550781 -15.800781 -52.21875 -16.0625 -58.125 C -16.320312 -64.039062 -15.5 -69.679688 -13.59375 -75.046875 C -11.695312 -80.410156 -8.84375 -85.296875 -5.03125 -89.703125 C -1.21875 -94.117188 3.398438 -97.582031 8.828125 -100.09375 C 14.253906 -102.601562 19.878906 -103.882812 25.703125 -103.9375 C 31.535156 -103.988281 37.113281 -103.003906 42.4375 -100.984375 C 47.769531 -98.960938 52.597656 -95.9375 56.921875 -91.90625 C 61.253906 -87.882812 64.675781 -83.160156 67.1875 -77.734375 C 69.695312 -72.316406 71.085938 -66.648438 71.359375 -60.734375 C 71.628906 -54.828125 70.820312 -49.148438 68.9375 -43.703125 C 67.0625 -38.265625 64.21875 -33.335938 60.40625 -28.921875 C 56.601562 -24.503906 51.988281 -21.039062 46.5625 -18.53125 C 41.132812 -16.019531 35.503906 -14.738281 29.671875 -14.6875 C 23.835938 -14.644531 18.242188 -15.671875 12.890625 -17.765625 C 7.546875 -19.867188 2.707031 -22.929688 -1.625 -26.953125 C -5.96875 -30.984375 -9.394531 -35.707031 -11.90625 -41.125 Z M 4.703125 -48.546875 C 6.171875 -45.378906 8.164062 -42.644531 10.6875 -40.34375 C 13.21875 -38.039062 16.039062 -36.285156 19.15625 -35.078125 C 22.28125 -33.867188 25.492188 -33.25 28.796875 -33.21875 C 32.097656 -33.195312 35.332031 -33.921875 38.5 -35.390625 C 41.664062 -36.847656 44.304688 -38.84375 46.421875 -41.375 C 48.535156 -43.914062 50.144531 -46.765625 51.25 -49.921875 C 52.351562 -53.085938 52.84375 -56.378906 52.71875 -59.796875 C 52.601562 -63.210938 51.8125 -66.503906 50.34375 -69.671875 C 48.875 -72.835938 46.875 -75.570312 44.34375 -77.875 C 41.820312 -80.175781 39.015625 -81.894531 35.921875 -83.03125 C 32.828125 -84.164062 29.628906 -84.742188 26.328125 -84.765625 C 23.035156 -84.785156 19.804688 -84.066406 16.640625 -82.609375 C 13.472656 -81.140625 10.828125 -79.140625 8.703125 -76.609375 C 6.585938 -74.078125 4.960938 -71.265625 3.828125 -68.171875 C 2.703125 -65.085938 2.195312 -61.835938 2.3125 -58.421875 C 2.4375 -55.003906 3.234375 -51.710938 4.703125 -48.546875 Z M 4.703125 -48.546875 "/></g></g></g><g fill="#01dbb0" fill-opacity="1"><g transform="translate(879.152665, 400.416095)"><g/></g></g><g fill="#01dbb0" fill-opacity="1"><g transform="translate(932.38347, 375.780079)"><g><path d="M -14.671875 -97.484375 L 23.859375 -15.421875 C 25.179688 -12.554688 25.238281 -10.160156 24.03125 -8.234375 C 22.820312 -6.304688 21.128906 -4.929688 18.953125 -4.109375 C 16.773438 -3.285156 14.554688 -3.035156 12.296875 -3.359375 C 10.046875 -3.679688 8.503906 -4.75 7.671875 -6.5625 L -53.21875 -133.953125 C -53.820312 -136.054688 -53.535156 -138.015625 -52.359375 -139.828125 C -51.191406 -141.648438 -49.664062 -143.085938 -47.78125 -144.140625 C -45.894531 -145.203125 -43.894531 -145.722656 -41.78125 -145.703125 C -39.664062 -145.679688 -37.8125 -144.929688 -36.21875 -143.453125 L 56.0625 -59.6875 L 51.828125 -185.03125 C 51.441406 -187.039062 52.085938 -188.800781 53.765625 -190.3125 C 55.441406 -191.820312 57.441406 -192.835938 59.765625 -193.359375 C 62.085938 -193.890625 64.410156 -193.914062 66.734375 -193.4375 C 69.054688 -192.957031 70.59375 -191.703125 71.34375 -189.671875 L 129.9375 -64.25 C 131.257812 -61.382812 131.316406 -58.984375 130.109375 -57.046875 C 128.898438 -55.117188 127.207031 -53.742188 125.03125 -52.921875 C 122.851562 -52.097656 120.632812 -51.847656 118.375 -52.171875 C 116.113281 -52.503906 114.566406 -53.570312 113.734375 -55.375 L 72.890625 -140.734375 L 75.40625 -40.390625 C 75.425781 -38.378906 74.820312 -36.628906 73.59375 -35.140625 C 72.363281 -33.660156 70.785156 -32.519531 68.859375 -31.71875 C 66.941406 -30.925781 64.945312 -30.597656 62.875 -30.734375 C 60.800781 -30.867188 59 -31.597656 57.46875 -32.921875 Z M -14.671875 -97.484375 "/></g></g></g><g fill="#01dbb0" fill-opacity="1"><g transform="translate(1067.414622, 313.285634)"><g><path d="M 55.78125 -53.796875 C 56.507812 -56.140625 58.003906 -57.832031 60.265625 -58.875 C 62.523438 -59.925781 64.816406 -60.304688 67.140625 -60.015625 C 69.472656 -59.734375 71.414062 -58.800781 72.96875 -57.21875 C 74.519531 -55.644531 74.953125 -53.425781 74.265625 -50.5625 C 72.503906 -43.332031 69.550781 -37.160156 65.40625 -32.046875 C 61.269531 -26.941406 56.539062 -22.925781 51.21875 -20 C 45.90625 -17.082031 40.210938 -15.269531 34.140625 -14.5625 C 28.066406 -13.863281 22.117188 -14.359375 16.296875 -16.046875 C 10.484375 -17.742188 5.097656 -20.691406 0.140625 -24.890625 C -4.816406 -29.085938 -8.832031 -34.5 -11.90625 -41.125 C -14.414062 -46.550781 -15.785156 -52.1875 -16.015625 -58.03125 C -16.242188 -63.875 -15.40625 -69.472656 -13.5 -74.828125 C -11.601562 -80.179688 -8.75 -85.066406 -4.9375 -89.484375 C -1.125 -93.910156 3.460938 -97.445312 8.828125 -100.09375 C 13.421875 -102.414062 18.175781 -103.890625 23.09375 -104.515625 C 28.007812 -105.148438 32.753906 -104.96875 37.328125 -103.96875 C 41.910156 -102.976562 46.203125 -101.125 50.203125 -98.40625 C 54.210938 -95.6875 57.671875 -92.171875 60.578125 -87.859375 C 63.710938 -83.078125 64.785156 -78.675781 63.796875 -74.65625 C 62.816406 -70.644531 58.335938 -66.789062 50.359375 -63.09375 L 7.546875 -43.5625 C 10.609375 -39.300781 14.484375 -36.148438 19.171875 -34.109375 C 23.867188 -32.078125 28.585938 -31.378906 33.328125 -32.015625 C 38.066406 -32.660156 42.492188 -34.753906 46.609375 -38.296875 C 50.734375 -41.847656 53.789062 -47.015625 55.78125 -53.796875 Z M 16.4375 -83.0625 C 12.132812 -80.875 8.789062 -77.8125 6.40625 -73.875 C 4.03125 -69.945312 2.734375 -65.648438 2.515625 -60.984375 L 44.296875 -79.765625 C 42.210938 -82.285156 40.019531 -84.0625 37.71875 -85.09375 C 35.414062 -86.125 33.054688 -86.675781 30.640625 -86.75 C 28.222656 -86.832031 25.816406 -86.5 23.421875 -85.75 C 21.023438 -85 18.695312 -84.101562 16.4375 -83.0625 Z M -6.65625 -133.546875 C -5.164062 -136.253906 -3.238281 -137.925781 -0.875 -138.5625 C 1.476562 -139.195312 3.660156 -139.109375 5.671875 -138.296875 C 7.691406 -137.492188 9.285156 -136.125 10.453125 -134.1875 C 11.617188 -132.257812 11.789062 -130.007812 10.96875 -127.4375 L 4.046875 -105.046875 C 3.066406 -102.023438 1.457031 -100.269531 -0.78125 -99.78125 C -3.019531 -99.289062 -5.203125 -99.46875 -7.328125 -100.3125 C -9.460938 -101.15625 -11.222656 -102.488281 -12.609375 -104.3125 C -14.003906 -106.132812 -14.378906 -107.929688 -13.734375 -109.703125 Z M -6.65625 -133.546875 "/></g></g></g><g fill="#01dbb0" fill-opacity="1"><g transform="translate(1153.410761, 273.48533)"><g><path d="M -9.390625 -98.53125 L -26.359375 -134.03125 C -27.171875 -136.945312 -26.742188 -139.382812 -25.078125 -141.34375 C -23.421875 -143.3125 -21.445312 -144.6875 -19.15625 -145.46875 C -16.875 -146.25 -14.585938 -146.34375 -12.296875 -145.75 C -10.015625 -145.164062 -8.679688 -143.863281 -8.296875 -141.84375 L 8.015625 -106.59375 L 27.890625 -115.796875 C 30.816406 -116.597656 33.296875 -116.28125 35.328125 -114.84375 C 37.367188 -113.414062 38.707031 -111.613281 39.34375 -109.4375 C 39.988281 -107.257812 39.828125 -105.03125 38.859375 -102.75 C 37.898438 -100.476562 35.921875 -98.835938 32.921875 -97.828125 L 15.96875 -89.96875 L 45.171875 -27.484375 C 46.484375 -24.628906 46.5 -22.21875 45.21875 -20.25 C 43.9375 -18.289062 42.207031 -16.894531 40.03125 -16.0625 C 37.851562 -15.238281 35.597656 -14.972656 33.265625 -15.265625 C 30.929688 -15.554688 29.347656 -16.601562 28.515625 -18.40625 L -1.4375 -81.921875 L -20.1875 -73.25 C -23.050781 -71.914062 -25.445312 -71.851562 -27.375 -73.0625 C -29.300781 -74.28125 -30.675781 -75.976562 -31.5 -78.15625 C -32.332031 -80.332031 -32.582031 -82.546875 -32.25 -84.796875 C -31.925781 -87.054688 -30.859375 -88.601562 -29.046875 -89.4375 Z M -9.390625 -98.53125 "/></g></g></g><g fill="#01dbb0" fill-opacity="1"><g transform="translate(1227.204637, 239.332416)"><g><path d="M -11.90625 -41.125 C -14.414062 -46.550781 -15.800781 -52.21875 -16.0625 -58.125 C -16.320312 -64.039062 -15.5 -69.679688 -13.59375 -75.046875 C -11.695312 -80.410156 -8.84375 -85.296875 -5.03125 -89.703125 C -1.21875 -94.117188 3.398438 -97.582031 8.828125 -100.09375 C 14.253906 -102.601562 19.878906 -103.882812 25.703125 -103.9375 C 31.535156 -103.988281 37.113281 -103.003906 42.4375 -100.984375 C 47.769531 -98.960938 52.597656 -95.9375 56.921875 -91.90625 C 61.253906 -87.882812 64.675781 -83.160156 67.1875 -77.734375 C 69.695312 -72.316406 71.085938 -66.648438 71.359375 -60.734375 C 71.628906 -54.828125 70.820312 -49.148438 68.9375 -43.703125 C 67.0625 -38.265625 64.21875 -33.335938 60.40625 -28.921875 C 56.601562 -24.503906 51.988281 -21.039062 46.5625 -18.53125 C 41.132812 -16.019531 35.503906 -14.738281 29.671875 -14.6875 C 23.835938 -14.644531 18.242188 -15.671875 12.890625 -17.765625 C 7.546875 -19.867188 2.707031 -22.929688 -1.625 -26.953125 C -5.96875 -30.984375 -9.394531 -35.707031 -11.90625 -41.125 Z M 4.703125 -48.546875 C 6.171875 -45.378906 8.164062 -42.644531 10.6875 -40.34375 C 13.21875 -38.039062 16.039062 -36.285156 19.15625 -35.078125 C 22.28125 -33.867188 25.492188 -33.25 28.796875 -33.21875 C 32.097656 -33.195312 35.332031 -33.921875 38.5 -35.390625 C 41.664062 -36.847656 44.304688 -38.84375 46.421875 -41.375 C 48.535156 -43.914062 50.144531 -46.765625 51.25 -49.921875 C 52.351562 -53.085938 52.84375 -56.378906 52.71875 -59.796875 C 52.601562 -63.210938 51.8125 -66.503906 50.34375 -69.671875 C 48.875 -72.835938 46.875 -75.570312 44.34375 -77.875 C 41.820312 -80.175781 39.015625 -81.894531 35.921875 -83.03125 C 32.828125 -84.164062 29.628906 -84.742188 26.328125 -84.765625 C 23.035156 -84.785156 19.804688 -84.066406 16.640625 -82.609375 C 13.472656 -81.140625 10.828125 -79.140625 8.703125 -76.609375 C 6.585938 -74.078125 4.960938 -71.265625 3.828125 -68.171875 C 2.703125 -65.085938 2.195312 -61.835938 2.3125 -58.421875 C 2.4375 -55.003906 3.234375 -51.710938 4.703125 -48.546875 Z M 4.703125 -48.546875 "/></g></g></g><g fill="#01dbb0" fill-opacity="1"><g transform="translate(1314.330612, 199.009206)"><g><path d="M 65.75 -37 C 63.601562 -32.914062 60.921875 -29.304688 57.703125 -26.171875 C 54.492188 -23.035156 50.703125 -20.457031 46.328125 -18.4375 C 40.898438 -15.914062 35.273438 -14.628906 29.453125 -14.578125 C 23.628906 -14.535156 18.035156 -15.5625 12.671875 -17.65625 C 7.316406 -19.757812 2.472656 -22.820312 -1.859375 -26.84375 C -6.203125 -30.875 -9.628906 -35.597656 -12.140625 -41.015625 C -14.648438 -46.441406 -16.035156 -52.109375 -16.296875 -58.015625 C -16.554688 -63.929688 -15.726562 -69.570312 -13.8125 -74.9375 C -11.90625 -80.300781 -9.050781 -85.1875 -5.25 -89.59375 C -1.445312 -94.007812 3.164062 -97.476562 8.59375 -100 C 12.65625 -101.875 16.863281 -103.046875 21.21875 -103.515625 C 25.582031 -103.984375 29.867188 -103.820312 34.078125 -103.03125 C 34.015625 -103.175781 33.359375 -104.695312 32.109375 -107.59375 C 30.859375 -110.488281 29.222656 -114.117188 27.203125 -118.484375 C 25.179688 -122.847656 23.054688 -127.535156 20.828125 -132.546875 C 18.609375 -137.554688 16.503906 -142.207031 14.515625 -146.5 C 12.523438 -150.789062 10.867188 -154.367188 9.546875 -157.234375 C 8.222656 -160.097656 7.523438 -161.609375 7.453125 -161.765625 C 6.484375 -164.242188 6.460938 -166.65625 7.390625 -169 C 8.316406 -171.34375 9.742188 -173.097656 11.671875 -174.265625 C 13.597656 -175.429688 15.78125 -175.847656 18.21875 -175.515625 C 20.664062 -175.179688 22.847656 -173.539062 24.765625 -170.59375 L 83.828125 -42.359375 C 85.148438 -39.492188 85.207031 -37.09375 84 -35.15625 C 82.789062 -33.226562 81.097656 -31.851562 78.921875 -31.03125 C 76.742188 -30.207031 74.523438 -29.957031 72.265625 -30.28125 C 70.003906 -30.613281 68.457031 -31.679688 67.625 -33.484375 Z M 4.484375 -48.4375 C 5.953125 -45.269531 7.945312 -42.535156 10.46875 -40.234375 C 13 -37.929688 15.820312 -36.175781 18.9375 -34.96875 C 22.0625 -33.757812 25.273438 -33.144531 28.578125 -33.125 C 31.890625 -33.101562 35.125 -33.820312 38.28125 -35.28125 C 41.445312 -36.75 44.085938 -38.75 46.203125 -41.28125 C 48.328125 -43.820312 49.9375 -46.671875 51.03125 -49.828125 C 52.125 -52.984375 52.613281 -56.269531 52.5 -59.6875 C 52.382812 -63.101562 51.59375 -66.394531 50.125 -69.5625 C 48.65625 -72.726562 46.65625 -75.460938 44.125 -77.765625 C 41.59375 -80.066406 38.785156 -81.785156 35.703125 -82.921875 C 32.617188 -84.066406 29.425781 -84.648438 26.125 -84.671875 C 22.820312 -84.691406 19.585938 -83.96875 16.421875 -82.5 C 13.265625 -81.039062 10.625 -79.039062 8.5 -76.5 C 6.375 -73.96875 4.742188 -71.15625 3.609375 -68.0625 C 2.484375 -64.976562 1.976562 -61.726562 2.09375 -58.3125 C 2.21875 -54.894531 3.015625 -51.601562 4.484375 -48.4375 Z M 4.484375 -48.4375 "/></g></g></g><g fill="#01dbb0" fill-opacity="1"><g transform="translate(1403.264268, 157.849374)"><g><path d="M -11.90625 -41.125 C -14.414062 -46.550781 -15.800781 -52.21875 -16.0625 -58.125 C -16.320312 -64.039062 -15.5 -69.679688 -13.59375 -75.046875 C -11.695312 -80.410156 -8.84375 -85.296875 -5.03125 -89.703125 C -1.21875 -94.117188 3.398438 -97.582031 8.828125 -100.09375 C 14.253906 -102.601562 19.878906 -103.882812 25.703125 -103.9375 C 31.535156 -103.988281 37.113281 -103.003906 42.4375 -100.984375 C 47.769531 -98.960938 52.597656 -95.9375 56.921875 -91.90625 C 61.253906 -87.882812 64.675781 -83.160156 67.1875 -77.734375 C 69.695312 -72.316406 71.085938 -66.648438 71.359375 -60.734375 C 71.628906 -54.828125 70.820312 -49.148438 68.9375 -43.703125 C 67.0625 -38.265625 64.21875 -33.335938 60.40625 -28.921875 C 56.601562 -24.503906 51.988281 -21.039062 46.5625 -18.53125 C 41.132812 -16.019531 35.503906 -14.738281 29.671875 -14.6875 C 23.835938 -14.644531 18.242188 -15.671875 12.890625 -17.765625 C 7.546875 -19.867188 2.707031 -22.929688 -1.625 -26.953125 C -5.96875 -30.984375 -9.394531 -35.707031 -11.90625 -41.125 Z M 4.703125 -48.546875 C 6.171875 -45.378906 8.164062 -42.644531 10.6875 -40.34375 C 13.21875 -38.039062 16.039062 -36.285156 19.15625 -35.078125 C 22.28125 -33.867188 25.492188 -33.25 28.796875 -33.21875 C 32.097656 -33.195312 35.332031 -33.921875 38.5 -35.390625 C 41.664062 -36.847656 44.304688 -38.84375 46.421875 -41.375 C 48.535156 -43.914062 50.144531 -46.765625 51.25 -49.921875 C 52.351562 -53.085938 52.84375 -56.378906 52.71875 -59.796875 C 52.601562 -63.210938 51.8125 -66.503906 50.34375 -69.671875 C 48.875 -72.835938 46.875 -75.570312 44.34375 -77.875 C 41.820312 -80.175781 39.015625 -81.894531 35.921875 -83.03125 C 32.828125 -84.164062 29.628906 -84.742188 26.328125 -84.765625 C 23.035156 -84.785156 19.804688 -84.066406 16.640625 -82.609375 C 13.472656 -81.140625 10.828125 -79.140625 8.703125 -76.609375 C 6.585938 -74.078125 4.960938 -71.265625 3.828125 -68.171875 C 2.703125 -65.085938 2.195312 -61.835938 2.3125 -58.421875 C 2.4375 -55.003906 3.234375 -51.710938 4.703125 -48.546875 Z M 4.703125 -48.546875 "/></g></g></g></svg>