<svg xmlns="http://www.w3.org/2000/svg" xmlns:xlink="http://www.w3.org/1999/xlink" width="2400" zoomAndPan="magnify" viewBox="0 0 1800 862.499974" height="1150" preserveAspectRatio="xMidYMid meet" version="1.0"><defs><g/><clipPath id="aa20b5dca1"><path d="M 1027 461 L 1443 461 L 1443 778 L 1027 778 Z M 1027 461 " clip-rule="nonzero"/></clipPath><clipPath id="2f28eb7421"><path d="M 1100.042969 365.214844 L 1517.644531 669.074219 L 1384.898438 851.511719 L 967.296875 547.648438 Z M 1100.042969 365.214844 " clip-rule="nonzero"/></clipPath><clipPath id="39d9c623e1"><path d="M 1100.042969 365.214844 L 1517.644531 669.074219 L 1384.898438 851.511719 L 967.296875 547.648438 Z M 1100.042969 365.214844 " clip-rule="nonzero"/></clipPath></defs><g clip-path="url(#aa20b5dca1)"><g clip-path="url(#2f28eb7421)"><g clip-path="url(#39d9c623e1)"><path fill="#006a43" d="M 1374.859375 682.808594 C 1372.128906 663.351562 1369.152344 644.625 1366.992188 625.804688 C 1365.554688 613.292969 1367.3125 601.015625 1375.410156 590.746094 C 1378.082031 587.363281 1381.808594 584.273438 1385.710938 582.511719 C 1393.46875 579.027344 1398.347656 582.277344 1399.210938 590.71875 C 1399.585938 594.359375 1399.625 598.039062 1399.6875 601.703125 C 1400.46875 644.800781 1412.808594 685.074219 1429.566406 724.289062 C 1431.984375 729.9375 1433.828125 735.832031 1436.019531 741.578125 C 1436.660156 743.269531 1437.363281 745.023438 1438.417969 746.46875 C 1447.300781 758.601562 1442.65625 772.457031 1428.214844 776.734375 C 1422.476562 778.4375 1417.363281 776.609375 1412.433594 773.933594 C 1389.613281 761.546875 1365.691406 752.066406 1340.160156 747.09375 C 1321.789062 743.515625 1303.457031 743.503906 1285.332031 749.148438 C 1278.34375 751.328125 1271.183594 753 1264.046875 754.671875 C 1255.746094 756.621094 1248.269531 752.289062 1245.507812 744.210938 C 1241.710938 733.097656 1247.386719 721.585938 1258.574219 717.773438 C 1280.117188 710.441406 1302.429688 708.191406 1325.019531 707.765625 C 1327.144531 707.726562 1329.261719 707.792969 1331.71875 707.808594 C 1326.722656 704.171875 1322.253906 700.644531 1317.515625 697.515625 C 1244.578125 649.390625 1173.347656 598.832031 1103.046875 546.949219 C 1085.34375 533.882812 1067.160156 521.460938 1049.417969 508.449219 C 1040.882812 502.191406 1033.484375 494.636719 1029.789062 484.414062 C 1028.410156 480.597656 1027.523438 476.316406 1027.671875 472.296875 C 1027.964844 464.28125 1033.457031 460.015625 1041.226562 461.902344 C 1045.972656 463.058594 1050.722656 465.183594 1054.820312 467.867188 C 1069.46875 477.441406 1083.886719 487.371094 1098.308594 497.292969 C 1124.132812 515.050781 1149.785156 533.070312 1175.71875 550.667969 C 1208.820312 573.132812 1242.125 595.296875 1275.34375 617.582031 C 1292.230469 628.914062 1309.03125 640.367188 1326.035156 651.515625 C 1342.3125 662.183594 1358.796875 672.53125 1374.859375 682.800781 Z M 1374.859375 682.808594 " fill-opacity="1" fill-rule="nonzero"/></g></g></g><g fill="#006a43" fill-opacity="1"><g transform="translate(316.634808, 630.694719)"><g><path d="M -20.53125 -107.640625 L 22.75 -15.265625 C 24.019531 -12.515625 24.070312 -10.210938 22.90625 -8.359375 C 21.738281 -6.503906 20.109375 -5.175781 18.015625 -4.375 C 15.921875 -3.582031 13.789062 -3.34375 11.625 -3.65625 C 9.46875 -3.976562 7.984375 -5.007812 7.171875 -6.75 L -51.171875 -128.8125 C -51.890625 -131.125 -51.738281 -133.171875 -50.71875 -134.953125 C -49.695312 -136.742188 -48.296875 -138.179688 -46.515625 -139.265625 C -44.734375 -140.359375 -42.75 -140.925781 -40.5625 -140.96875 C -38.382812 -141.007812 -36.53125 -140.507812 -35 -139.46875 L 64.578125 -70.234375 L 20.75 -162.09375 C 19.96875 -164.894531 20.285156 -167.238281 21.703125 -169.125 C 23.117188 -171.019531 24.875 -172.363281 26.96875 -173.15625 C 29.070312 -173.945312 31.222656 -174.0625 33.421875 -173.5 C 35.617188 -172.9375 37.148438 -171.710938 38.015625 -169.828125 L 94.875 -48.125 C 95.675781 -46.382812 95.601562 -44.722656 94.65625 -43.140625 C 93.71875 -41.566406 92.390625 -40.25 90.671875 -39.1875 C 88.960938 -38.132812 87.109375 -37.5 85.109375 -37.28125 C 83.109375 -37.0625 81.441406 -37.4375 80.109375 -38.40625 Z M -20.53125 -107.640625 "/></g></g></g><g fill="#006a43" fill-opacity="1"><g transform="translate(415.624614, 584.880751)"><g><path d="M -8.765625 -82.21875 C -3.597656 -68.414062 1.03125 -57.9375 5.125 -50.78125 C 9.226562 -43.625 12.894531 -38.546875 16.125 -35.546875 C 19.351562 -32.554688 22.179688 -31.09375 24.609375 -31.15625 C 27.035156 -31.226562 29.117188 -31.671875 30.859375 -32.484375 C 33.910156 -33.890625 36.453125 -35.8125 38.484375 -38.25 C 40.523438 -40.695312 42.070312 -43.4375 43.125 -46.46875 C 44.1875 -49.507812 44.660156 -52.671875 44.546875 -55.953125 C 44.429688 -59.242188 43.664062 -62.410156 42.25 -65.453125 L 27.96875 -96.3125 C 27.039062 -98.695312 27.019531 -101.019531 27.90625 -103.28125 C 28.800781 -105.539062 30.175781 -107.234375 32.03125 -108.359375 C 33.882812 -109.484375 35.984375 -109.878906 38.328125 -109.546875 C 40.679688 -109.222656 42.78125 -107.644531 44.625 -104.8125 L 74.671875 -39.296875 C 75.941406 -36.546875 75.992188 -34.242188 74.828125 -32.390625 C 73.671875 -30.535156 72.039062 -29.207031 69.9375 -28.40625 C 67.84375 -27.613281 65.710938 -27.375 63.546875 -27.6875 C 61.390625 -28.007812 59.90625 -29.039062 59.09375 -30.78125 L 57.28125 -34.15625 C 55.226562 -30.21875 52.65625 -26.742188 49.5625 -23.734375 C 46.476562 -20.722656 42.835938 -18.242188 38.640625 -16.296875 C 31.109375 -12.816406 24.359375 -11.71875 18.390625 -13 C 12.429688 -14.28125 6.976562 -17.515625 2.03125 -22.703125 C -2.914062 -27.890625 -7.582031 -34.832031 -11.96875 -43.53125 C -16.351562 -52.226562 -20.765625 -62.148438 -25.203125 -73.296875 C -26.328125 -76.109375 -26.238281 -78.476562 -24.9375 -80.40625 C -23.632812 -82.332031 -21.898438 -83.703125 -19.734375 -84.515625 C -17.566406 -85.335938 -15.363281 -85.613281 -13.125 -85.34375 C -10.882812 -85.070312 -9.429688 -84.03125 -8.765625 -82.21875 Z M -8.765625 -82.21875 "/></g></g></g><g fill="#006a43" fill-opacity="1"><g transform="translate(494.841141, 548.218154)"><g><path d="M 53.625 -51.71875 C 54.332031 -53.988281 55.773438 -55.628906 57.953125 -56.640625 C 60.128906 -57.648438 62.335938 -58.007812 64.578125 -57.71875 C 66.816406 -57.4375 68.679688 -56.539062 70.171875 -55.03125 C 71.660156 -53.53125 72.078125 -51.390625 71.421875 -48.609375 C 69.703125 -41.671875 66.859375 -35.742188 62.890625 -30.828125 C 58.929688 -25.910156 54.390625 -22.046875 49.265625 -19.234375 C 44.140625 -16.429688 38.65625 -14.6875 32.8125 -14 C 26.976562 -13.320312 21.265625 -13.800781 15.671875 -15.4375 C 10.078125 -17.070312 4.894531 -19.90625 0.125 -23.9375 C -4.644531 -27.96875 -8.503906 -33.171875 -11.453125 -39.546875 C -13.867188 -44.765625 -15.1875 -50.179688 -15.40625 -55.796875 C -15.625 -61.410156 -14.8125 -66.796875 -12.96875 -71.953125 C -11.132812 -77.109375 -8.390625 -81.804688 -4.734375 -86.046875 C -1.078125 -90.296875 3.328125 -93.703125 8.484375 -96.265625 C 12.898438 -98.484375 17.472656 -99.894531 22.203125 -100.5 C 26.929688 -101.113281 31.5 -100.941406 35.90625 -99.984375 C 40.3125 -99.035156 44.4375 -97.25 48.28125 -94.625 C 52.132812 -92.007812 55.457031 -88.625 58.25 -84.46875 C 61.257812 -79.875 62.296875 -75.648438 61.359375 -71.796875 C 60.421875 -67.941406 56.113281 -64.234375 48.4375 -60.671875 L 7.265625 -41.875 C 10.210938 -37.789062 13.941406 -34.769531 18.453125 -32.8125 C 22.960938 -30.851562 27.492188 -30.179688 32.046875 -30.796875 C 36.597656 -31.410156 40.851562 -33.425781 44.8125 -36.84375 C 48.769531 -40.257812 51.707031 -45.21875 53.625 -51.71875 Z M 15.8125 -79.859375 C 11.664062 -77.773438 8.445312 -74.835938 6.15625 -71.046875 C 3.863281 -67.265625 2.613281 -63.125 2.40625 -58.625 L 42.59375 -76.703125 C 40.601562 -79.117188 38.5 -80.820312 36.28125 -81.8125 C 34.0625 -82.800781 31.789062 -83.332031 29.46875 -83.40625 C 27.144531 -83.488281 24.828125 -83.164062 22.515625 -82.4375 C 20.203125 -81.71875 17.96875 -80.859375 15.8125 -79.859375 Z M 15.8125 -79.859375 "/></g></g></g><g fill="#006a43" fill-opacity="1"><g transform="translate(577.534273, 509.946531)"><g><path d="M 42.21875 -92.890625 C 44.175781 -91.328125 45.03125 -89.476562 44.78125 -87.34375 C 44.539062 -85.207031 43.664062 -83.300781 42.15625 -81.625 C 40.644531 -79.957031 38.863281 -78.867188 36.8125 -78.359375 C 34.757812 -77.859375 32.976562 -78.484375 31.46875 -80.234375 C 28.382812 -82.335938 25.039062 -83.390625 21.4375 -83.390625 C 17.832031 -83.390625 14.875 -83.035156 12.5625 -82.328125 C 8.53125 -81.148438 5.25 -78.921875 2.71875 -75.640625 C 0.1875 -72.359375 -0.832031 -69.425781 -0.34375 -66.84375 C 0.300781 -64.332031 1.335938 -62.570312 2.765625 -61.5625 C 4.191406 -60.5625 5.90625 -59.992188 7.90625 -59.859375 C 9.90625 -59.734375 12.195312 -59.914062 14.78125 -60.40625 C 17.375 -60.894531 20.070312 -61.519531 22.875 -62.28125 C 26.976562 -63.3125 31.09375 -64.125 35.21875 -64.71875 C 39.34375 -65.3125 43.234375 -65.265625 46.890625 -64.578125 C 50.546875 -63.890625 53.875 -62.394531 56.875 -60.09375 C 59.875 -57.789062 62.265625 -54.144531 64.046875 -49.15625 C 65.578125 -45.113281 65.867188 -41.160156 64.921875 -37.296875 C 63.972656 -33.441406 62.253906 -29.921875 59.765625 -26.734375 C 57.285156 -23.554688 54.1875 -20.757812 50.46875 -18.34375 C 46.75 -15.925781 42.835938 -14.03125 38.734375 -12.65625 C 35.054688 -11.476562 31.265625 -10.734375 27.359375 -10.421875 C 23.460938 -10.109375 19.628906 -10.3125 15.859375 -11.03125 C 12.097656 -11.75 8.492188 -13.070312 5.046875 -15 C 1.609375 -16.925781 -1.484375 -19.539062 -4.234375 -22.84375 C -5.734375 -25.3125 -6.195312 -27.734375 -5.625 -30.109375 C -5.050781 -32.484375 -3.972656 -34.429688 -2.390625 -35.953125 C -0.804688 -37.484375 0.984375 -38.359375 2.984375 -38.578125 C 4.984375 -38.796875 6.671875 -38 8.046875 -36.1875 C 12.023438 -30.625 16.398438 -27.628906 21.171875 -27.203125 C 25.953125 -26.773438 30.4375 -27.359375 34.625 -28.953125 C 38.675781 -30.460938 41.96875 -32.554688 44.5 -35.234375 C 47.039062 -37.910156 47.988281 -40.328125 47.34375 -42.484375 C 46.175781 -46.523438 43.8125 -48.6875 40.25 -48.96875 C 36.695312 -49.257812 32.539062 -48.832031 27.78125 -47.6875 C 24.125 -46.863281 20.222656 -45.976562 16.078125 -45.03125 C 11.941406 -44.09375 7.898438 -43.71875 3.953125 -43.90625 C 0.00390625 -44.101562 -3.6875 -45.25 -7.125 -47.34375 C -10.570312 -49.445312 -13.46875 -53.035156 -15.8125 -58.109375 C -17.6875 -62.160156 -18.421875 -66.125 -18.015625 -70 C -17.617188 -73.882812 -16.421875 -77.5625 -14.421875 -81.03125 C -12.421875 -84.507812 -9.703125 -87.570312 -6.265625 -90.21875 C -2.828125 -92.863281 0.984375 -94.976562 5.171875 -96.5625 C 10.867188 -98.675781 17 -99.582031 23.5625 -99.28125 C 30.125 -98.976562 36.34375 -96.847656 42.21875 -92.890625 Z M 42.21875 -92.890625 "/></g></g></g><g fill="#006a43" fill-opacity="1"><g transform="translate(648.928421, 476.904248)"><g><path d="M -9.015625 -94.765625 L -25.34375 -128.890625 C -26.113281 -131.691406 -25.703125 -134.03125 -24.109375 -135.90625 C -22.523438 -137.789062 -20.628906 -139.109375 -18.421875 -139.859375 C -16.222656 -140.617188 -14.023438 -140.71875 -11.828125 -140.15625 C -9.628906 -139.59375 -8.347656 -138.335938 -7.984375 -136.390625 L 7.71875 -102.5 L 26.828125 -111.34375 C 29.640625 -112.113281 32.019531 -111.8125 33.96875 -110.4375 C 35.925781 -109.0625 37.210938 -107.328125 37.828125 -105.234375 C 38.441406 -103.140625 38.285156 -101 37.359375 -98.8125 C 36.441406 -96.625 34.539062 -95.035156 31.65625 -94.046875 L 15.359375 -86.515625 L 43.421875 -26.4375 C 44.703125 -23.6875 44.722656 -21.363281 43.484375 -19.46875 C 42.242188 -17.570312 40.578125 -16.222656 38.484375 -15.421875 C 36.398438 -14.628906 34.238281 -14.375 32 -14.65625 C 29.757812 -14.945312 28.238281 -15.960938 27.4375 -17.703125 L -1.359375 -78.765625 L -19.40625 -70.421875 C -22.15625 -69.140625 -24.457031 -69.082031 -26.3125 -70.25 C -28.175781 -71.425781 -29.503906 -73.0625 -30.296875 -75.15625 C -31.085938 -77.25 -31.320312 -79.378906 -31 -81.546875 C -30.6875 -83.722656 -29.660156 -85.210938 -27.921875 -86.015625 Z M -9.015625 -94.765625 "/></g></g></g><g fill="#006a43" fill-opacity="1"><g transform="translate(719.887992, 444.063094)"><g><path d="M 37.4375 -79.859375 C 34.332031 -80.867188 31.066406 -81.550781 27.640625 -81.90625 C 24.222656 -82.257812 21 -81.734375 17.96875 -80.328125 C 14.925781 -78.921875 12.382812 -77 10.34375 -74.5625 C 8.300781 -72.125 6.75 -69.382812 5.6875 -66.34375 C 4.632812 -63.300781 4.164062 -60.132812 4.28125 -56.84375 C 4.40625 -53.5625 5.171875 -50.398438 6.578125 -47.359375 L 20.859375 -16.5 C 21.785156 -14.125 21.800781 -11.804688 20.90625 -9.546875 C 20.019531 -7.285156 18.648438 -5.59375 16.796875 -4.46875 C 14.941406 -3.34375 12.835938 -2.941406 10.484375 -3.265625 C 8.140625 -3.597656 6.046875 -5.175781 4.203125 -8 L -25.84375 -73.515625 C -27.125 -76.265625 -27.179688 -78.566406 -26.015625 -80.421875 C -24.847656 -82.285156 -23.210938 -83.613281 -21.109375 -84.40625 C -19.015625 -85.207031 -16.882812 -85.445312 -14.71875 -85.125 C -12.550781 -84.8125 -11.066406 -83.785156 -10.265625 -82.046875 L -8.4375 -78.65625 C -6.394531 -82.601562 -3.828125 -86.082031 -0.734375 -89.09375 C 2.359375 -92.101562 6.003906 -94.582031 10.203125 -96.53125 C 16.296875 -99.34375 22.460938 -100.648438 28.703125 -100.453125 C 34.941406 -100.265625 40.6875 -98.488281 45.9375 -95.125 C 47.46875 -94.070312 48.453125 -92.503906 48.890625 -90.421875 C 49.335938 -88.335938 49.207031 -86.34375 48.5 -84.4375 C 47.800781 -82.539062 46.5625 -81.046875 44.78125 -79.953125 C 43 -78.859375 40.550781 -78.828125 37.4375 -79.859375 Z M 37.4375 -79.859375 "/></g></g></g><g fill="#006a43" fill-opacity="1"><g transform="translate(794.976047, 409.311215)"><g><path d="M -11.453125 -39.546875 C -13.867188 -44.765625 -15.203125 -50.21875 -15.453125 -55.90625 C -15.710938 -61.59375 -14.921875 -67.015625 -13.078125 -72.171875 C -11.242188 -77.328125 -8.492188 -82.023438 -4.828125 -86.265625 C -1.171875 -90.515625 3.265625 -93.847656 8.484375 -96.265625 C 13.703125 -98.671875 19.109375 -99.894531 24.703125 -99.9375 C 30.304688 -99.988281 35.664062 -99.046875 40.78125 -97.109375 C 45.90625 -95.171875 50.550781 -92.265625 54.71875 -88.390625 C 58.894531 -84.515625 62.191406 -79.96875 64.609375 -74.75 C 67.023438 -69.53125 68.359375 -64.078125 68.609375 -58.390625 C 68.859375 -52.710938 68.082031 -47.253906 66.28125 -42.015625 C 64.476562 -36.785156 61.75 -32.046875 58.09375 -27.796875 C 54.4375 -23.554688 50 -20.234375 44.78125 -17.828125 C 39.5625 -15.410156 34.148438 -14.175781 28.546875 -14.125 C 22.941406 -14.082031 17.5625 -15.066406 12.40625 -17.078125 C 7.25 -19.097656 2.585938 -22.039062 -1.578125 -25.90625 C -5.742188 -29.78125 -9.035156 -34.328125 -11.453125 -39.546875 Z M 4.515625 -46.671875 C 5.921875 -43.628906 7.835938 -41 10.265625 -38.78125 C 12.703125 -36.570312 15.421875 -34.882812 18.421875 -33.71875 C 21.421875 -32.550781 24.507812 -31.957031 27.6875 -31.9375 C 30.863281 -31.914062 33.976562 -32.609375 37.03125 -34.015625 C 40.0625 -35.421875 42.597656 -37.34375 44.640625 -39.78125 C 46.679688 -42.21875 48.226562 -44.957031 49.28125 -48 C 50.332031 -51.039062 50.796875 -54.203125 50.671875 -57.484375 C 50.554688 -60.773438 49.796875 -63.941406 48.390625 -66.984375 C 46.984375 -70.023438 45.066406 -72.65625 42.640625 -74.875 C 40.210938 -77.09375 37.515625 -78.742188 34.546875 -79.828125 C 31.578125 -80.921875 28.503906 -81.476562 25.328125 -81.5 C 22.148438 -81.519531 19.046875 -80.828125 16.015625 -79.421875 C 12.960938 -78.015625 10.414062 -76.09375 8.375 -73.65625 C 6.332031 -71.21875 4.769531 -68.515625 3.6875 -65.546875 C 2.601562 -62.585938 2.117188 -59.460938 2.234375 -56.171875 C 2.347656 -52.878906 3.109375 -49.710938 4.515625 -46.671875 Z M 4.515625 -46.671875 "/></g></g></g><g fill="#006a43" fill-opacity="1"><g transform="translate(878.755652, 370.536756)"><g/></g></g><g fill="#006a43" fill-opacity="1"><g transform="translate(929.941946, 346.846971)"><g><path d="M -14.09375 -93.71875 L 22.953125 -14.828125 C 24.222656 -12.078125 24.273438 -9.773438 23.109375 -7.921875 C 21.941406 -6.066406 20.3125 -4.742188 18.21875 -3.953125 C 16.125 -3.160156 13.992188 -2.921875 11.828125 -3.234375 C 9.660156 -3.546875 8.175781 -4.570312 7.375 -6.3125 L -51.171875 -128.8125 C -51.753906 -130.820312 -51.484375 -132.703125 -50.359375 -134.453125 C -49.234375 -136.210938 -47.757812 -137.597656 -45.9375 -138.609375 C -44.113281 -139.628906 -42.1875 -140.125 -40.15625 -140.09375 C -38.132812 -140.070312 -36.359375 -139.359375 -34.828125 -137.953125 L 53.90625 -57.40625 L 49.828125 -177.921875 C 49.460938 -179.867188 50.085938 -181.566406 51.703125 -183.015625 C 53.316406 -184.460938 55.234375 -185.4375 57.453125 -185.9375 C 59.679688 -186.4375 61.914062 -186.457031 64.15625 -186 C 66.394531 -185.539062 67.875 -184.34375 68.59375 -182.40625 L 124.9375 -61.796875 C 126.21875 -59.046875 126.273438 -56.738281 125.109375 -54.875 C 123.953125 -53.019531 122.320312 -51.695312 120.21875 -50.90625 C 118.125 -50.113281 115.992188 -49.867188 113.828125 -50.171875 C 111.660156 -50.484375 110.175781 -51.507812 109.375 -53.25 L 70.078125 -135.3125 L 72.515625 -38.84375 C 72.523438 -36.90625 71.9375 -35.222656 70.75 -33.796875 C 69.5625 -32.367188 68.046875 -31.269531 66.203125 -30.5 C 64.359375 -29.738281 62.4375 -29.425781 60.4375 -29.5625 C 58.445312 -29.695312 56.722656 -30.390625 55.265625 -31.640625 Z M -14.09375 -93.71875 "/></g></g></g><g fill="#006a43" fill-opacity="1"><g transform="translate(1059.786766, 286.752839)"><g><path d="M 53.625 -51.71875 C 54.332031 -53.988281 55.773438 -55.628906 57.953125 -56.640625 C 60.128906 -57.648438 62.335938 -58.007812 64.578125 -57.71875 C 66.816406 -57.4375 68.679688 -56.539062 70.171875 -55.03125 C 71.660156 -53.53125 72.078125 -51.390625 71.421875 -48.609375 C 69.703125 -41.671875 66.859375 -35.742188 62.890625 -30.828125 C 58.929688 -25.910156 54.390625 -22.046875 49.265625 -19.234375 C 44.140625 -16.429688 38.65625 -14.6875 32.8125 -14 C 26.976562 -13.320312 21.265625 -13.800781 15.671875 -15.4375 C 10.078125 -17.070312 4.894531 -19.90625 0.125 -23.9375 C -4.644531 -27.96875 -8.503906 -33.171875 -11.453125 -39.546875 C -13.867188 -44.765625 -15.1875 -50.179688 -15.40625 -55.796875 C -15.625 -61.410156 -14.8125 -66.796875 -12.96875 -71.953125 C -11.132812 -77.109375 -8.390625 -81.804688 -4.734375 -86.046875 C -1.078125 -90.296875 3.328125 -93.703125 8.484375 -96.265625 C 12.898438 -98.484375 17.472656 -99.894531 22.203125 -100.5 C 26.929688 -101.113281 31.5 -100.941406 35.90625 -99.984375 C 40.3125 -99.035156 44.4375 -97.25 48.28125 -94.625 C 52.132812 -92.007812 55.457031 -88.625 58.25 -84.46875 C 61.257812 -79.875 62.296875 -75.648438 61.359375 -71.796875 C 60.421875 -67.941406 56.113281 -64.234375 48.4375 -60.671875 L 7.265625 -41.875 C 10.210938 -37.789062 13.941406 -34.769531 18.453125 -32.8125 C 22.960938 -30.851562 27.492188 -30.179688 32.046875 -30.796875 C 36.597656 -31.410156 40.851562 -33.425781 44.8125 -36.84375 C 48.769531 -40.257812 51.707031 -45.21875 53.625 -51.71875 Z M 15.8125 -79.859375 C 11.664062 -77.773438 8.445312 -74.835938 6.15625 -71.046875 C 3.863281 -67.265625 2.613281 -63.125 2.40625 -58.625 L 42.59375 -76.703125 C 40.601562 -79.117188 38.5 -80.820312 36.28125 -81.8125 C 34.0625 -82.800781 31.789062 -83.332031 29.46875 -83.40625 C 27.144531 -83.488281 24.828125 -83.164062 22.515625 -82.4375 C 20.203125 -81.71875 17.96875 -80.859375 15.8125 -79.859375 Z M -6.40625 -128.421875 C -4.96875 -131.023438 -3.113281 -132.628906 -0.84375 -133.234375 C 1.414062 -133.847656 3.515625 -133.769531 5.453125 -133 C 7.398438 -132.226562 8.929688 -130.910156 10.046875 -129.046875 C 11.171875 -127.191406 11.34375 -125.023438 10.5625 -122.546875 L 3.90625 -101.015625 C 2.957031 -98.109375 1.410156 -96.414062 -0.734375 -95.9375 C -2.890625 -95.46875 -4.988281 -95.640625 -7.03125 -96.453125 C -9.082031 -97.265625 -10.78125 -98.546875 -12.125 -100.296875 C -13.46875 -102.054688 -13.828125 -103.789062 -13.203125 -105.5 Z M -6.40625 -128.421875 "/></g></g></g><g fill="#006a43" fill-opacity="1"><g transform="translate(1142.479929, 248.481202)"><g><path d="M -9.015625 -94.765625 L -25.34375 -128.890625 C -26.113281 -131.691406 -25.703125 -134.03125 -24.109375 -135.90625 C -22.523438 -137.789062 -20.628906 -139.109375 -18.421875 -139.859375 C -16.222656 -140.617188 -14.023438 -140.71875 -11.828125 -140.15625 C -9.628906 -139.59375 -8.347656 -138.335938 -7.984375 -136.390625 L 7.71875 -102.5 L 26.828125 -111.34375 C 29.640625 -112.113281 32.019531 -111.8125 33.96875 -110.4375 C 35.925781 -109.0625 37.210938 -107.328125 37.828125 -105.234375 C 38.441406 -103.140625 38.285156 -101 37.359375 -98.8125 C 36.441406 -96.625 34.539062 -95.035156 31.65625 -94.046875 L 15.359375 -86.515625 L 43.421875 -26.4375 C 44.703125 -23.6875 44.722656 -21.363281 43.484375 -19.46875 C 42.242188 -17.570312 40.578125 -16.222656 38.484375 -15.421875 C 36.398438 -14.628906 34.238281 -14.375 32 -14.65625 C 29.757812 -14.945312 28.238281 -15.960938 27.4375 -17.703125 L -1.359375 -78.765625 L -19.40625 -70.421875 C -22.15625 -69.140625 -24.457031 -69.082031 -26.3125 -70.25 C -28.175781 -71.425781 -29.503906 -73.0625 -30.296875 -75.15625 C -31.085938 -77.25 -31.320312 -79.378906 -31 -81.546875 C -30.6875 -83.722656 -29.660156 -85.210938 -27.921875 -86.015625 Z M -9.015625 -94.765625 "/></g></g></g><g fill="#006a43" fill-opacity="1"><g transform="translate(1213.4395, 215.640048)"><g><path d="M -11.453125 -39.546875 C -13.867188 -44.765625 -15.203125 -50.21875 -15.453125 -55.90625 C -15.710938 -61.59375 -14.921875 -67.015625 -13.078125 -72.171875 C -11.242188 -77.328125 -8.492188 -82.023438 -4.828125 -86.265625 C -1.171875 -90.515625 3.265625 -93.847656 8.484375 -96.265625 C 13.703125 -98.671875 19.109375 -99.894531 24.703125 -99.9375 C 30.304688 -99.988281 35.664062 -99.046875 40.78125 -97.109375 C 45.90625 -95.171875 50.550781 -92.265625 54.71875 -88.390625 C 58.894531 -84.515625 62.191406 -79.96875 64.609375 -74.75 C 67.023438 -69.53125 68.359375 -64.078125 68.609375 -58.390625 C 68.859375 -52.710938 68.082031 -47.253906 66.28125 -42.015625 C 64.476562 -36.785156 61.75 -32.046875 58.09375 -27.796875 C 54.4375 -23.554688 50 -20.234375 44.78125 -17.828125 C 39.5625 -15.410156 34.148438 -14.175781 28.546875 -14.125 C 22.941406 -14.082031 17.5625 -15.066406 12.40625 -17.078125 C 7.25 -19.097656 2.585938 -22.039062 -1.578125 -25.90625 C -5.742188 -29.78125 -9.035156 -34.328125 -11.453125 -39.546875 Z M 4.515625 -46.671875 C 5.921875 -43.628906 7.835938 -41 10.265625 -38.78125 C 12.703125 -36.570312 15.421875 -34.882812 18.421875 -33.71875 C 21.421875 -32.550781 24.507812 -31.957031 27.6875 -31.9375 C 30.863281 -31.914062 33.976562 -32.609375 37.03125 -34.015625 C 40.0625 -35.421875 42.597656 -37.34375 44.640625 -39.78125 C 46.679688 -42.21875 48.226562 -44.957031 49.28125 -48 C 50.332031 -51.039062 50.796875 -54.203125 50.671875 -57.484375 C 50.554688 -60.773438 49.796875 -63.941406 48.390625 -66.984375 C 46.984375 -70.023438 45.066406 -72.65625 42.640625 -74.875 C 40.210938 -77.09375 37.515625 -78.742188 34.546875 -79.828125 C 31.578125 -80.921875 28.503906 -81.476562 25.328125 -81.5 C 22.148438 -81.519531 19.046875 -80.828125 16.015625 -79.421875 C 12.960938 -78.015625 10.414062 -76.09375 8.375 -73.65625 C 6.332031 -71.21875 4.769531 -68.515625 3.6875 -65.546875 C 2.601562 -62.585938 2.117188 -59.460938 2.234375 -56.171875 C 2.347656 -52.878906 3.109375 -49.710938 4.515625 -46.671875 Z M 4.515625 -46.671875 "/></g></g></g><g fill="#006a43" fill-opacity="1"><g transform="translate(1297.219105, 176.865589)"><g><path d="M 63.203125 -35.59375 C 61.160156 -31.644531 58.59375 -28.164062 55.5 -25.15625 C 52.40625 -22.144531 48.765625 -19.664062 44.578125 -17.71875 C 39.359375 -15.300781 33.941406 -14.066406 28.328125 -14.015625 C 22.710938 -13.972656 17.328125 -14.960938 12.171875 -16.984375 C 7.023438 -19.003906 2.375 -21.945312 -1.78125 -25.8125 C -5.945312 -29.6875 -9.238281 -34.234375 -11.65625 -39.453125 C -14.070312 -44.671875 -15.410156 -50.125 -15.671875 -55.8125 C -15.929688 -61.5 -15.144531 -66.914062 -13.3125 -72.0625 C -11.476562 -77.21875 -8.722656 -81.914062 -5.046875 -86.15625 C -1.378906 -90.40625 3.0625 -93.738281 8.28125 -96.15625 C 12.175781 -97.96875 16.21875 -99.097656 20.40625 -99.546875 C 24.601562 -99.992188 28.722656 -99.832031 32.765625 -99.0625 C 32.703125 -99.207031 32.070312 -100.671875 30.875 -103.453125 C 29.675781 -106.234375 28.101562 -109.722656 26.15625 -113.921875 C 24.207031 -118.128906 22.164062 -122.640625 20.03125 -127.453125 C 17.894531 -132.265625 15.867188 -136.738281 13.953125 -140.875 C 12.046875 -145.007812 10.453125 -148.453125 9.171875 -151.203125 C 7.898438 -153.953125 7.226562 -155.398438 7.15625 -155.546875 C 6.21875 -157.929688 6.195312 -160.25 7.09375 -162.5 C 7.988281 -164.757812 9.363281 -166.445312 11.21875 -167.5625 C 13.070312 -168.6875 15.171875 -169.085938 17.515625 -168.765625 C 19.867188 -168.441406 21.960938 -166.863281 23.796875 -164.03125 L 80.609375 -40.734375 C 81.890625 -37.984375 81.941406 -35.675781 80.765625 -33.8125 C 79.597656 -31.957031 77.96875 -30.632812 75.875 -29.84375 C 73.78125 -29.050781 71.648438 -28.8125 69.484375 -29.125 C 67.328125 -29.445312 65.84375 -30.476562 65.03125 -32.21875 Z M 4.296875 -46.578125 C 5.703125 -43.535156 7.617188 -40.90625 10.046875 -38.6875 C 12.484375 -36.476562 15.203125 -34.789062 18.203125 -33.625 C 21.210938 -32.457031 24.304688 -31.863281 27.484375 -31.84375 C 30.660156 -31.820312 33.765625 -32.515625 36.796875 -33.921875 C 39.835938 -35.328125 42.378906 -37.25 44.421875 -39.6875 C 46.460938 -42.125 48.007812 -44.863281 49.0625 -47.90625 C 50.125 -50.945312 50.59375 -54.109375 50.46875 -57.390625 C 50.351562 -60.679688 49.59375 -63.847656 48.1875 -66.890625 C 46.78125 -69.929688 44.863281 -72.5625 42.4375 -74.78125 C 40.007812 -77 37.304688 -78.648438 34.328125 -79.734375 C 31.359375 -80.828125 28.285156 -81.382812 25.109375 -81.40625 C 21.929688 -81.425781 18.820312 -80.734375 15.78125 -79.328125 C 12.75 -77.921875 10.210938 -76 8.171875 -73.5625 C 6.128906 -71.125 4.5625 -68.421875 3.46875 -65.453125 C 2.382812 -62.492188 1.898438 -59.367188 2.015625 -56.078125 C 2.128906 -52.785156 2.890625 -49.617188 4.296875 -46.578125 Z M 4.296875 -46.578125 "/></g></g></g><g fill="#006a43" fill-opacity="1"><g transform="translate(1382.736961, 137.286642)"><g><path d="M -11.453125 -39.546875 C -13.867188 -44.765625 -15.203125 -50.21875 -15.453125 -55.90625 C -15.710938 -61.59375 -14.921875 -67.015625 -13.078125 -72.171875 C -11.242188 -77.328125 -8.492188 -82.023438 -4.828125 -86.265625 C -1.171875 -90.515625 3.265625 -93.847656 8.484375 -96.265625 C 13.703125 -98.671875 19.109375 -99.894531 24.703125 -99.9375 C 30.304688 -99.988281 35.664062 -99.046875 40.78125 -97.109375 C 45.90625 -95.171875 50.550781 -92.265625 54.71875 -88.390625 C 58.894531 -84.515625 62.191406 -79.96875 64.609375 -74.75 C 67.023438 -69.53125 68.359375 -64.078125 68.609375 -58.390625 C 68.859375 -52.710938 68.082031 -47.253906 66.28125 -42.015625 C 64.476562 -36.785156 61.75 -32.046875 58.09375 -27.796875 C 54.4375 -23.554688 50 -20.234375 44.78125 -17.828125 C 39.5625 -15.410156 34.148438 -14.175781 28.546875 -14.125 C 22.941406 -14.082031 17.5625 -15.066406 12.40625 -17.078125 C 7.25 -19.097656 2.585938 -22.039062 -1.578125 -25.90625 C -5.742188 -29.78125 -9.035156 -34.328125 -11.453125 -39.546875 Z M 4.515625 -46.671875 C 5.921875 -43.628906 7.835938 -41 10.265625 -38.78125 C 12.703125 -36.570312 15.421875 -34.882812 18.421875 -33.71875 C 21.421875 -32.550781 24.507812 -31.957031 27.6875 -31.9375 C 30.863281 -31.914062 33.976562 -32.609375 37.03125 -34.015625 C 40.0625 -35.421875 42.597656 -37.34375 44.640625 -39.78125 C 46.679688 -42.21875 48.226562 -44.957031 49.28125 -48 C 50.332031 -51.039062 50.796875 -54.203125 50.671875 -57.484375 C 50.554688 -60.773438 49.796875 -63.941406 48.390625 -66.984375 C 46.984375 -70.023438 45.066406 -72.65625 42.640625 -74.875 C 40.210938 -77.09375 37.515625 -78.742188 34.546875 -79.828125 C 31.578125 -80.921875 28.503906 -81.476562 25.328125 -81.5 C 22.148438 -81.519531 19.046875 -80.828125 16.015625 -79.421875 C 12.960938 -78.015625 10.414062 -76.09375 8.375 -73.65625 C 6.332031 -71.21875 4.769531 -68.515625 3.6875 -65.546875 C 2.601562 -62.585938 2.117188 -59.460938 2.234375 -56.171875 C 2.347656 -52.878906 3.109375 -49.710938 4.515625 -46.671875 Z M 4.515625 -46.671875 "/></g></g></g></svg>